<svg width="83" height="50" viewBox="0 0 83 50" fill="none" xmlns="http://www.w3.org/2000/svg">
<g clip-path="url(#clip0_394_78)">
<path d="M30.5163 44.7897C30.3515 44.7505 30.2417 44.7976 30.2024 44.931C30.1946 44.9624 30.1867 45.1036 30.171 45.3469C30.1553 45.6921 30.1867 45.9589 30.2417 46.1394C30.3358 46.4297 30.5163 46.6102 30.7909 46.673C30.9479 46.7044 31.0891 46.6965 31.199 46.6494C31.3324 46.5945 31.403 46.4847 31.403 46.3356C31.4108 46.0452 31.3324 45.7392 31.1754 45.4253C31.0106 45.0644 30.7909 44.8525 30.5163 44.7897Z" fill="#886A4E"/>
<path d="M63.1278 32.9018C62.6413 37.7511 52.8798 41.6274 40.9134 41.6274C29.457 41.6274 20.0252 38.0807 18.8089 33.5295C18.7226 33.1999 18.6833 33.3804 18.6833 33.3804L18.6912 41.1959C19.0678 46.0844 28.8764 50.0079 40.9134 50.0079C53.0368 50.0079 62.8924 46.0374 63.1435 41.1017L63.167 32.9096C63.167 32.9018 63.1356 32.7762 63.1278 32.9018ZM43.8795 43.1733C43.958 42.9536 44.0365 42.8359 44.0757 42.828C44.1071 42.828 44.1463 42.828 44.2091 42.828C44.264 42.828 44.3111 42.828 44.3346 42.828C44.3739 42.828 44.421 42.8123 44.4916 42.7888C44.5622 42.7652 44.6171 42.7574 44.6485 42.7495C44.7113 42.7417 44.7505 42.7731 44.7505 42.8437C44.7505 42.8986 44.6407 43.0399 44.421 43.2674C44.2012 43.5028 44.06 43.6205 44.0051 43.6205C43.8246 43.6362 43.7304 43.6127 43.7383 43.5813C43.7618 43.4714 43.8324 43.3067 43.8795 43.1733ZM23.0148 40.2699C22.9206 40.4112 22.8657 40.4975 22.8579 40.5367C22.8186 40.6466 22.7715 40.6858 22.7166 40.6544C22.6852 40.6387 22.6303 40.5681 22.5518 40.4504C22.4734 40.3327 22.4027 40.2621 22.3478 40.2307C22.1124 40.0973 21.9947 40.2699 21.9869 40.7564C21.979 41.5725 22.0104 42.161 22.0653 42.5063C22.1281 42.8908 22.2301 43.2203 22.3714 43.4636C22.4263 43.5578 22.4577 43.6205 22.4577 43.6441C22.4577 43.699 22.4106 43.699 22.3243 43.6362C22.2537 43.5892 22.1516 43.5107 22.0183 43.393C21.8849 43.2753 21.775 43.189 21.7122 43.1419C21.6573 43.1026 21.5788 43.0556 21.469 42.9928C21.3591 42.93 21.2807 42.8829 21.2257 42.8359C21.1786 42.7966 21.1473 42.7574 21.1473 42.7103C21.1473 42.7103 21.1786 42.6789 21.2493 42.6318C21.312 42.5848 21.3591 42.5063 21.367 42.4121C21.3827 42.2473 21.3984 41.9805 21.3984 41.6117C21.3984 40.9055 21.4062 40.6466 21.4062 40.6466C21.4062 40.6466 21.3434 39.8227 21.3199 39.7128C21.312 39.6579 21.2336 39.5559 21.0609 39.446C20.9982 39.4068 20.9275 39.3832 20.8412 39.3754C20.7549 39.3676 20.7078 39.3519 20.6764 39.3283C20.6137 39.2891 20.5666 39.1321 20.5666 39.1321C20.5666 39.1321 20.5744 39.0851 20.5744 38.9438C20.5744 38.8889 20.5587 38.8104 20.5352 38.6927C20.5038 38.575 20.496 38.4966 20.496 38.4416C20.496 38.3945 20.5195 38.3867 20.5744 38.4181C20.5823 38.4259 20.6451 38.473 20.7471 38.5593C20.8491 38.6456 20.9746 38.7398 21.1159 38.834C21.2179 38.8967 21.3434 38.9831 21.5082 39.0772C21.6965 39.1871 21.8221 39.2499 21.8849 39.2891C21.9633 39.3362 22.081 39.4068 22.2301 39.5166C22.3871 39.6187 22.4969 39.6971 22.5754 39.7364C22.6303 39.7677 22.7088 39.7913 22.8186 39.8148C22.9285 39.8384 23.007 39.8619 23.0619 39.8933C23.1247 39.9247 23.156 39.9718 23.156 40.0424C23.1482 40.0502 23.1011 40.1365 23.0148 40.2699ZM25.8867 41.2351C25.8632 41.2822 25.722 41.3999 25.6513 41.5333C25.6199 41.5961 25.5493 41.8315 25.4552 42.2081C25.3218 42.7182 25.1727 43.393 25.0471 44.2169C25.0314 44.3346 25.0157 44.4523 25 44.57C24.9765 44.7034 24.9451 44.8133 24.9137 44.8839C24.8667 44.9937 24.7803 45.0251 24.6705 44.9702C24.6077 44.9388 24.5135 44.8839 24.388 44.8054C24.2624 44.7269 24.1683 44.6642 24.1055 44.6328C24.0506 44.6014 23.9643 44.57 23.8466 44.5229C23.7289 44.4758 23.6425 44.4366 23.5798 44.4052C23.4935 44.3581 23.4542 44.2954 23.4542 44.2169C23.4542 44.1777 23.5013 44.162 23.5876 44.162C24.0663 44.1777 24.4979 43.7147 24.4429 43.6048C24.4351 43.5813 24.3488 43.5656 24.3331 43.5578C23.8936 43.338 23.6425 42.8045 23.6033 42.0041C23.5955 41.8079 23.5876 41.6039 23.5719 41.4156C23.5562 41.188 23.5327 40.984 23.4935 40.8114C23.4542 40.6074 23.3758 40.419 23.2581 40.2464C23.1953 40.1444 23.156 40.0738 23.156 40.0424C23.156 39.9796 23.211 39.9718 23.3287 40.0267C23.3679 40.0502 23.4307 40.0895 23.517 40.1444C23.6033 40.1993 23.6661 40.2386 23.7053 40.2621C23.7524 40.2856 23.8152 40.3092 23.9015 40.3249C23.9878 40.3484 24.0506 40.3641 24.0977 40.3876C24.2468 40.4583 24.3252 40.7329 24.3174 41.1959C24.3174 41.3685 24.2938 41.6196 24.2468 41.9492C24.1997 42.2787 24.184 42.5298 24.1761 42.7025C24.1761 42.9771 24.2389 43.1497 24.3801 43.2204C24.4743 43.2674 24.5528 43.236 24.6234 43.1262C24.694 43.0163 24.796 42.7103 24.9373 42.2081C25.0707 41.7059 25.1491 41.3685 25.1491 41.1959C25.1491 41.1645 25.1491 41.1252 25.1334 41.0703C25.1256 41.0154 25.1177 40.9683 25.1177 40.9448C25.1177 40.8898 25.1491 40.8663 25.2041 40.8898C25.2433 40.9055 25.3061 40.9369 25.3845 40.984C25.463 41.0311 25.5179 41.0625 25.565 41.0782C25.5886 41.086 25.6356 41.1017 25.6906 41.1096C25.7455 41.1252 25.7926 41.1331 25.824 41.1488C25.8632 41.1645 25.8946 41.2116 25.8867 41.2351ZM28.641 46.4376C28.5939 46.4219 28.5154 46.3983 28.4213 46.3512C28.3271 46.312 28.2565 46.2806 28.2094 46.2649C28.1859 46.2571 28.1388 46.2492 28.0839 46.2335C28.0289 46.2178 27.9818 46.21 27.9583 46.2021C27.7621 46.1394 27.6287 45.8176 27.6052 45.2605C27.5817 44.7426 27.6052 44.2012 27.5973 43.6912C27.5895 43.134 27.4875 42.8123 27.307 42.7495C27.1658 42.7025 27.0167 42.8123 26.8519 43.0791C26.6243 43.4479 26.5066 43.8716 26.4988 44.366C26.4909 44.6171 26.5302 44.8054 26.6008 44.9231C26.6479 44.9937 26.742 45.0957 26.899 45.2134C27.0716 45.3468 27.1893 45.441 27.2442 45.5038C27.3541 45.6293 27.4169 45.7706 27.4169 45.9118C27.4169 45.9981 27.4012 46.0374 27.3619 46.0295C27.3227 46.0138 27.2599 45.9824 27.1736 45.9197C27.0873 45.8569 27.0245 45.8176 26.9775 45.802C26.9147 45.7784 26.8205 45.7549 26.7028 45.7313C26.5773 45.7078 26.4909 45.6843 26.4282 45.6607C26.0751 45.5273 25.8946 45.2134 25.9024 44.7269C25.9103 44.1384 26.0594 43.5735 26.3575 43.0242C26.6714 42.4278 27.0481 42.059 27.4718 41.9335C27.6758 41.8707 27.8798 41.8707 28.076 41.9335C28.178 41.9649 28.2251 42.0041 28.2251 42.0433C28.2251 42.0904 28.2172 42.1532 28.2016 42.2395C28.1859 42.3258 28.178 42.3886 28.178 42.4278C28.1702 42.7417 28.1937 43.3067 28.2565 44.107C28.3193 44.9623 28.3899 45.5116 28.4605 45.7392C28.4683 45.7784 28.5233 45.8883 28.6096 46.0844C28.7038 46.2806 28.7508 46.3748 28.7508 46.3826C28.7587 46.4454 28.7194 46.4611 28.641 46.4376ZM32.0151 46.9947C31.8503 47.1124 31.6385 47.1438 31.3795 47.0888C31.199 47.0496 30.9166 46.979 30.5478 46.877C30.179 46.775 29.9043 46.6965 29.7238 46.6494C29.6768 46.6416 29.6061 46.6259 29.512 46.618C29.4178 46.6102 29.3472 46.5945 29.3001 46.5866C29.2373 46.5709 29.2059 46.5396 29.2059 46.4925C29.2059 46.4768 29.2373 46.4376 29.3001 46.3669C29.3629 46.2963 29.3943 46.2492 29.4021 46.2178C29.4649 46.0295 29.5277 45.2291 29.5826 43.8167C29.5904 43.5342 29.5826 43.3067 29.5591 43.1497C29.512 42.9143 29.4257 42.6946 29.2844 42.4984C29.2295 42.42 29.1981 42.3729 29.1981 42.3415C29.1981 42.2866 29.253 42.2709 29.3472 42.3023C29.4257 42.3258 29.5355 42.365 29.6846 42.4278C29.8337 42.4906 29.9435 42.5298 30.022 42.5534C30.0848 42.5691 30.1711 42.5848 30.2888 42.5926C30.4065 42.6004 30.5007 42.6161 30.5556 42.6318C30.6105 42.6475 30.6419 42.6789 30.6341 42.7182C30.6341 42.7417 30.6027 42.7731 30.5478 42.8202C30.3594 42.9692 30.2574 43.2517 30.2417 43.6598C30.2417 43.699 30.2417 43.7618 30.2339 43.8324C30.226 43.903 30.226 43.958 30.2182 43.9893C30.2103 44.2561 30.3202 44.4288 30.5713 44.4837C30.6419 44.4994 30.7361 44.4915 30.8538 44.4445C30.9715 44.4052 31.0578 44.3895 31.1206 44.4052C31.3874 44.468 31.6934 44.829 32.0465 45.4881C32.2113 45.802 32.2898 46.108 32.2819 46.4219C32.2662 46.6886 32.1799 46.877 32.0151 46.9947ZM33.2706 45.9275C33.5139 46.3669 33.8356 46.618 34.2515 46.6886C34.5418 46.7357 34.7772 46.673 34.9577 46.4925C35.0048 46.4454 35.0361 46.4219 35.0518 46.4297C35.1068 46.4375 35.1382 46.516 35.1303 46.6573C35.1225 46.9947 35.0048 47.2458 34.7929 47.4184C34.581 47.591 34.3142 47.646 33.9768 47.5832C33.6551 47.5283 33.3648 47.3556 33.1137 47.081C32.6899 46.6102 32.4938 45.9432 32.533 45.1036C32.5644 44.3895 32.7449 43.8481 33.0666 43.4793C33.2 43.3224 33.3098 43.2517 33.3962 43.2439C33.4432 43.2439 33.5139 43.2439 33.6002 43.2674C33.71 43.291 33.8827 43.3381 34.1024 43.4087C34.3299 43.4793 34.4947 43.5264 34.6124 43.5499C34.6595 43.5578 34.738 43.5578 34.8321 43.5421C34.9263 43.5264 35.0048 43.5264 35.0597 43.5342C35.1146 43.5421 35.1382 43.5735 35.1382 43.6205C35.1382 43.6833 35.0675 43.8167 34.9341 44.005C34.8007 44.2012 34.6987 44.3111 34.6438 44.3346C34.5732 44.366 34.4869 44.3738 34.4006 44.3581C34.2985 44.3424 34.1495 44.264 33.9297 44.1227C33.71 43.9815 33.5531 43.8952 33.4511 43.8795C33.3883 43.8638 33.3255 43.8716 33.2628 43.8873C33.2 43.903 33.1372 44.0286 33.0744 44.2483C33.0195 44.4288 32.996 44.5857 32.9881 44.7034C32.9567 45.1271 33.0587 45.5352 33.2706 45.9275ZM37.3117 45.9432C37.3274 45.9903 37.4294 46.1708 37.5864 46.4768C37.7119 46.72 37.8845 47.1595 38.1749 47.5989C38.2298 47.6852 38.3004 47.7715 38.3632 47.8578C38.4574 47.9834 38.5123 48.0697 38.5123 48.1011C38.5123 48.156 38.4652 48.1717 38.3789 48.1639C38.3161 48.156 38.2141 48.1403 38.0807 48.1168C37.9473 48.0854 37.8532 48.0697 37.7904 48.0618C37.7355 48.054 37.6491 48.054 37.5314 48.0618C37.4137 48.0697 37.3274 48.0697 37.2725 48.0618C37.1705 48.054 37.1234 48.0148 37.1234 47.952C37.1234 47.9441 37.1469 47.9206 37.1862 47.8735C37.2254 47.8264 37.249 47.7637 37.249 47.6773C37.249 47.5204 37.1783 47.2536 37.0371 46.8848C36.8801 46.4846 36.7311 46.2728 36.5977 46.2571C36.5035 46.2492 36.4564 46.312 36.4486 46.4532C36.4407 46.5709 36.4643 46.775 36.5113 47.0496C36.5584 47.3478 36.6055 47.5361 36.6526 47.6146C36.6604 47.6303 36.6997 47.6773 36.7781 47.7637C36.8488 47.85 36.888 47.9049 36.888 47.9206C36.888 47.9677 36.8488 47.9834 36.7781 47.9755C36.6918 47.9677 36.5741 47.9441 36.4172 47.9049C36.2602 47.8657 36.1425 47.8421 36.0641 47.8343C35.9935 47.8264 35.8836 47.8186 35.7424 47.8186C35.6011 47.8186 35.4991 47.8186 35.4206 47.8029C35.3343 47.7872 35.2872 47.7558 35.2951 47.7009C35.2951 47.6695 35.3265 47.6224 35.3814 47.5675C35.452 47.4969 35.507 47.4262 35.5305 47.3556C35.5462 47.3164 35.5619 47.2301 35.5776 47.0888C35.6874 46.3355 35.7816 45.5038 35.8208 44.6092C35.8365 44.3111 35.8208 44.107 35.7894 44.005C35.7816 43.9736 35.7424 43.9187 35.6796 43.8402C35.6168 43.7618 35.5854 43.7069 35.5854 43.6912C35.5854 43.6441 35.6247 43.6205 35.6953 43.6362C35.7424 43.6441 35.8208 43.6519 35.9228 43.6676C36.017 43.6833 36.0955 43.699 36.1504 43.699C36.2995 43.7147 36.4015 43.8246 36.4721 44.0207C36.5192 44.162 36.5427 44.3268 36.5349 44.5072C36.5349 44.5935 36.5192 44.7191 36.5035 44.8917C36.4878 45.0644 36.4721 45.1899 36.4721 45.2762C36.4643 45.5195 36.527 45.645 36.6604 45.6607C36.7468 45.6686 36.9115 45.5509 37.1548 45.2998C37.3667 45.08 37.5157 44.9074 37.5942 44.7819C37.657 44.672 37.6962 44.57 37.6962 44.468C37.7041 44.366 37.6491 44.264 37.5471 44.1541C37.4451 44.0443 37.3902 43.9815 37.3902 43.958C37.3902 43.903 37.4373 43.8795 37.5236 43.8873C38.222 43.9501 38.5751 43.9736 38.5908 43.9815C38.6378 44.0129 38.6614 44.0443 38.6614 44.0992C38.6535 44.2954 38.5358 44.5229 38.3004 44.7662C38.222 44.8525 38.0022 45.0565 37.6491 45.3547C37.4137 45.5509 37.296 45.6921 37.2882 45.7706C37.2725 45.8333 37.2803 45.8804 37.3117 45.9432ZM41.7059 47.5518C41.7609 47.7637 41.8393 47.9284 41.9335 48.054C41.9727 48.1089 41.9963 48.1403 41.9963 48.156C41.9963 48.2109 41.9492 48.258 41.8472 48.2894C41.7687 48.3129 41.6981 48.3286 41.6275 48.3208C41.345 48.3208 41.0468 47.9598 40.9919 47.952C40.882 47.9284 40.3092 48.2972 39.9796 48.2816C39.7599 48.2737 39.5481 48.2031 39.3362 48.0697C39.1243 47.9363 38.8654 47.7087 38.8575 47.591C38.8575 47.5832 38.8732 47.5596 38.8968 47.5361C39.0694 47.3556 39.1871 47.0104 39.2499 46.516C39.2813 46.3042 39.297 45.9118 39.3205 45.3547C39.3362 44.7976 39.297 44.4131 39.195 44.1934C39.1479 44.0913 39.1243 44.0364 39.1243 44.0207C39.1243 43.9736 39.1557 43.9501 39.2028 43.958C39.2577 43.958 39.3362 43.9736 39.4382 43.9893C39.5402 44.0129 39.6187 44.0207 39.6736 44.0207C39.7129 44.0207 39.7756 44.0207 39.8462 44.0129C39.9247 44.005 39.9796 44.005 40.0189 44.005C40.113 44.005 40.1837 44.107 40.2307 44.2954C40.2621 44.4366 40.2778 44.57 40.2778 44.7034C40.27 45.0644 40.1444 45.5822 39.9169 46.2257C39.7835 46.6102 39.7129 46.8691 39.7129 47.0104C39.705 47.183 39.7599 47.3321 39.8619 47.4655C39.9718 47.6067 40.1052 47.6852 40.27 47.693C40.4897 47.7009 40.6388 47.6538 40.7094 47.544C40.835 47.3478 40.9134 46.7122 40.937 45.6058C40.9527 45.1271 40.9291 44.774 40.8742 44.5386C40.8506 44.4366 40.8349 44.366 40.8114 44.3268C40.78 44.2718 40.7251 44.209 40.6859 44.1541C40.6702 44.1306 40.6623 44.1149 40.6623 44.0913C40.6623 44.0443 40.7094 44.0207 40.7957 44.0207C40.8585 44.0207 40.9448 44.0286 41.0625 44.0286C41.1802 44.0364 41.2665 44.0364 41.3293 44.0364C41.3921 44.0364 41.4941 44.0286 41.6275 44.0207C41.7609 44.0129 41.8629 44.005 41.9335 44.005C42.012 44.005 42.0512 44.0207 42.0512 44.06C42.0512 44.0757 42.0277 44.1227 41.9806 44.1855C41.8629 44.3424 41.7687 44.5779 41.7138 44.8996C41.651 45.2291 41.6118 45.7078 41.6039 46.3042C41.5961 46.8534 41.6275 47.2693 41.7059 47.5518ZM45.2449 47.3713C45.3076 47.5753 45.3783 47.7401 45.4724 47.85C45.5117 47.8971 45.5352 47.9284 45.5352 47.9441C45.5352 47.9991 45.4881 48.054 45.3861 48.0932C45.3155 48.1246 45.237 48.1482 45.1664 48.156C44.8918 48.1874 44.5779 47.8578 44.5308 47.85C44.421 47.8343 43.856 48.2737 43.5264 48.2894C43.3067 48.2972 43.0948 48.2502 42.883 48.1403C42.6711 48.0305 42.4122 47.8186 42.4043 47.7009C42.4043 47.693 42.42 47.6695 42.4436 47.646C42.6162 47.4419 42.726 47.0888 42.7888 46.5709C42.8124 46.3512 42.828 45.951 42.8437 45.3782C42.8516 44.8054 42.8045 44.4209 42.7025 44.209C42.6554 44.107 42.6319 44.0521 42.6319 44.0443C42.6319 43.9972 42.6633 43.9736 42.7103 43.9736C42.7653 43.9736 42.8437 43.9736 42.9457 43.9893C43.0478 44.005 43.1262 44.005 43.1812 44.005C43.2204 44.005 43.2832 43.9972 43.3538 43.9815C43.4323 43.9658 43.4872 43.958 43.5264 43.958C43.6206 43.9501 43.6912 44.0443 43.7461 44.2326C43.7854 44.3738 43.8011 44.5072 43.8011 44.6406C43.7932 45.0094 43.6833 45.543 43.4636 46.2178C43.3302 46.618 43.2675 46.8927 43.2675 47.0339C43.2675 47.2065 43.3224 47.3556 43.4166 47.4812C43.5264 47.6146 43.6598 47.6773 43.8246 47.6695C44.0443 47.6538 44.1855 47.591 44.264 47.4733C44.3896 47.2615 44.4523 46.6102 44.468 45.4881C44.4759 45.0016 44.4445 44.6406 44.3974 44.4131C44.3739 44.3111 44.3503 44.2404 44.3346 44.209C44.2954 44.1541 44.2483 44.0992 44.2091 44.0443C44.1934 44.0207 44.1855 44.005 44.1855 43.9815C44.1855 43.9344 44.2326 43.903 44.3111 43.8952C44.3739 43.8873 44.4602 43.8873 44.5779 43.8795C44.6956 43.8716 44.7819 43.8716 44.8447 43.8638C44.9075 43.8559 45.0095 43.8402 45.1429 43.8167C45.2763 43.7932 45.3783 43.7775 45.441 43.7696C45.5195 43.7618 45.5587 43.7775 45.5587 43.8167C45.5587 43.8324 45.5352 43.8795 45.4881 43.9501C45.3783 44.1149 45.2841 44.366 45.2292 44.6956C45.1742 45.0408 45.1429 45.5195 45.135 46.1237C45.1272 46.673 45.1586 47.0967 45.2449 47.3713ZM51.1535 46.8691C51.0123 46.979 50.9103 47.0418 50.8632 47.0575C50.8004 47.0731 50.6906 47.0653 50.5336 47.0182C49.749 46.8063 49.3252 46.1786 49.3095 45.1664C49.3017 44.4131 49.4743 43.7853 49.8196 43.291C49.9844 43.0556 50.1178 42.93 50.2198 42.9065C50.2825 42.8908 50.3688 42.8829 50.4944 42.8829C50.6199 42.8751 50.7141 42.8672 50.7769 42.8515C50.8475 42.8359 50.9495 42.7966 51.0829 42.7338C51.2163 42.6711 51.3183 42.6318 51.3889 42.6083C51.5145 42.5769 51.6479 42.624 51.797 42.7574C52.1344 43.0634 52.3227 43.5578 52.3541 44.2169C52.3933 45.2919 52.0088 46.1865 51.1535 46.8691ZM55.1554 44.1149C54.9592 44.7034 54.6925 45.0644 54.3393 45.1821C54.2295 45.2213 54.1196 45.2213 54.0176 45.1742C53.9156 45.1271 53.8607 45.0487 53.8528 44.931C53.8528 44.8603 53.8921 44.7583 53.9862 44.6171C54.0726 44.4758 54.151 44.3895 54.2216 44.3738C54.253 44.366 54.308 44.366 54.308 44.3738C54.3158 44.3974 54.2687 44.5229 54.2687 44.5857C54.2766 44.7034 54.3237 44.7505 54.4257 44.7112C54.6454 44.6328 54.7474 44.3268 54.7238 43.7853C54.7081 43.4558 54.6375 43.134 54.5198 42.8359C54.3629 42.4357 54.1667 42.2709 53.9313 42.3494C53.7508 42.4043 53.6488 42.5691 53.6096 42.8437C53.5939 42.9614 53.586 43.1733 53.6017 43.4558C53.641 44.3738 53.7038 44.978 53.7822 45.2684C53.8685 45.5901 53.9941 45.802 54.151 45.904C54.206 45.9432 54.2373 45.9746 54.2373 45.9981C54.2373 46.0531 54.1981 46.0923 54.1039 46.1237C54.0255 46.1472 53.9156 46.1786 53.7665 46.2021C53.6174 46.2257 53.4997 46.2571 53.4291 46.2806C53.3663 46.2963 53.28 46.3355 53.1623 46.3905C53.0446 46.4454 52.9583 46.4846 52.8955 46.5003C52.8328 46.516 52.7935 46.4925 52.8014 46.4611C52.8484 46.2571 53.0211 46.0295 53.0289 45.9275C53.0368 45.7549 53.0368 45.4802 53.0211 45.0957C53.0211 45.0016 53.0132 44.8682 53.0054 44.6877C52.9975 44.5072 52.9818 44.366 52.9818 44.2797C52.9818 44.209 52.974 44.0443 52.9662 43.7775C52.9583 43.5735 52.9583 43.4008 52.9505 43.2753C52.9426 43.0948 52.9191 42.9222 52.8955 42.7888C52.8877 42.7417 52.8484 42.6632 52.7935 42.5612C52.7307 42.4592 52.7072 42.3964 52.7072 42.3807C52.7072 42.3258 52.7464 42.2866 52.8249 42.263C52.9662 42.2238 53.1702 42.1689 53.4527 42.1061C53.7273 42.0433 53.9392 41.9884 54.0726 41.9413C54.1589 41.9178 54.2766 41.855 54.4335 41.753C54.5904 41.651 54.7081 41.5882 54.7945 41.5647C54.8729 41.5333 54.9592 41.5804 55.0456 41.6824C55.2653 41.957 55.383 42.318 55.4065 42.726C55.383 43.1654 55.3124 43.6205 55.1554 44.1149ZM58.0038 44.2483C57.792 44.5229 57.5487 44.7269 57.2898 44.8525C57.0779 44.9545 56.8582 44.9937 56.6542 44.978C56.3089 44.9545 56.05 44.7819 55.893 44.4445C55.7753 44.1934 55.7047 43.8089 55.689 43.3067C55.6498 42.4906 55.7989 41.8236 56.1206 41.3057C56.2069 41.1723 56.2932 41.0703 56.3874 40.9997C56.4737 40.9291 56.6149 40.8585 56.8032 40.7721C57.0622 40.6623 57.3525 40.5603 57.6507 40.4818C57.7449 40.4583 57.8155 40.4347 57.8626 40.419C57.9018 40.4033 57.9489 40.3641 57.996 40.3013C58.0509 40.2386 58.0901 40.2072 58.1137 40.1915C58.1529 40.1758 58.1686 40.1915 58.1686 40.2386C58.1686 40.2856 58.1608 40.3955 58.1372 40.5681C58.1058 40.8035 58.0509 40.9762 57.996 41.0782C57.9175 41.2116 57.792 41.3293 57.6036 41.4156C57.4781 41.4705 57.2976 41.5254 57.0622 41.5647C56.8268 41.6039 56.6463 41.651 56.5208 41.6981C56.2383 41.8158 56.1049 42.0198 56.1127 42.3101C56.1284 42.6632 56.4109 42.726 56.9445 42.4906C57.1564 42.3964 57.3918 42.1296 57.6115 41.9884C57.6429 41.9649 57.6978 42.0198 57.7213 42.1218C57.7449 42.1924 57.7527 42.2709 57.7527 42.3494C57.7606 42.5769 57.6507 42.7495 57.431 42.8515C57.3133 42.9065 57.1485 42.9379 56.921 42.9536C56.6934 42.9693 56.5286 42.9928 56.4109 43.0399C56.2775 43.0948 56.2069 43.2203 56.2147 43.4087C56.2226 43.6833 56.3874 43.8638 56.7012 43.9344C56.9759 43.9972 57.2505 43.9658 57.5095 43.8402C57.6507 43.7696 57.7841 43.6676 57.894 43.5421C57.9646 43.4558 58.0431 43.3537 58.1058 43.236C58.1608 43.134 58.1921 43.0791 58.1921 43.0791C58.2785 43.032 58.3255 43.1262 58.3334 43.3616C58.3569 43.6441 58.2392 43.9423 58.0038 44.2483ZM61.2681 42.5141C61.2289 42.5455 61.1661 42.5848 61.0719 42.624C60.9856 42.6632 60.915 42.7025 60.8758 42.7338C60.8287 42.7652 60.7659 42.8202 60.6796 42.8908C60.5933 42.9614 60.5227 43.0163 60.4834 43.0399C60.3422 43.134 60.1852 43.0242 60.0597 42.7182C59.9655 42.5063 59.7929 42.0512 59.7929 42.0512C59.7615 42.0512 59.5339 43.0634 59.5418 43.4871C59.5418 43.5891 59.5026 43.6676 59.4084 43.7225C59.3613 43.7461 59.2907 43.7853 59.1965 43.8167C59.1024 43.8559 59.0318 43.8873 58.9768 43.9109C58.9376 43.9344 58.8748 43.9736 58.7963 44.0364C58.71 44.0992 58.6551 44.1384 58.6159 44.1541C58.5217 44.209 58.4668 44.2012 58.4668 44.1463C58.4668 44.1149 58.4903 44.0678 58.5296 43.9972C58.8748 43.4558 59.6046 42.3964 59.6203 41.7059C59.6281 41.188 59.1495 40.4897 58.9768 40.3249C58.969 40.317 58.8905 40.2699 58.7571 40.1915C58.6394 40.1287 58.5766 40.0738 58.5688 40.0502C58.5688 39.9875 58.608 39.9404 58.6865 39.9011C58.7414 39.8776 58.812 39.8462 58.9141 39.8148C59.0082 39.7834 59.0788 39.752 59.1338 39.7285C59.173 39.7128 59.2201 39.6736 59.2907 39.6343C59.3535 39.5873 59.4084 39.5559 59.4398 39.5402C59.5261 39.4931 59.5967 39.5245 59.6516 39.6187C59.7066 39.7207 59.7694 39.8854 59.8243 40.1209C59.8871 40.3719 59.9812 40.6387 59.9812 40.6387C59.9891 40.6387 60.1068 40.2386 60.2166 39.7913C60.3186 39.3832 60.3892 39.14 60.4363 39.0537C60.4834 38.9752 60.5383 38.9203 60.5933 38.8811C60.6482 38.8497 60.7345 38.8104 60.8444 38.779C60.9542 38.7477 61.0405 38.7084 61.0955 38.6692C61.1269 38.6456 61.1661 38.6064 61.2132 38.5515C61.2603 38.4966 61.2916 38.4573 61.3073 38.4495C61.3387 38.4259 61.3623 38.4416 61.3623 38.4887C61.3623 38.5358 61.3466 38.936 61.1739 39.3832C61.1504 39.4382 61.0955 39.4853 61.0484 39.5166C61.017 39.5402 60.9699 39.5637 60.9071 39.5951C60.8444 39.6265 60.7973 39.65 60.7659 39.6657C60.5933 39.7756 60.0832 40.4583 60.1146 40.9134C60.1538 41.4862 60.9464 42.2003 61.2838 42.2473C61.3544 42.2552 61.3858 42.2866 61.3858 42.3337C61.3623 42.42 61.3309 42.4671 61.2681 42.5141Z" fill="#886A4E"/>
<path d="M50.5023 43.2439C50.0786 43.3459 49.8667 43.7147 49.8824 44.3817C49.8903 44.7505 49.9766 45.1036 50.1492 45.441C50.3375 45.802 50.5808 46.0295 50.8554 46.1315C50.9966 46.1865 51.13 46.2021 51.2321 46.1708C51.4439 46.1158 51.6009 45.9511 51.695 45.6921C51.7656 45.4959 51.797 45.2684 51.7892 45.0173C51.7735 44.5857 51.6558 44.1698 51.4439 43.7932C51.1928 43.3302 50.8789 43.1497 50.5023 43.2439Z" fill="#886A4E"/>
<path d="M6.93646 34.4868C6.98354 34.4475 7.01493 34.4162 7.03847 34.3848C6.88154 34.4789 6.7246 34.5809 6.55981 34.6829L6.93646 34.4868Z" fill="#886A4E"/>
<path d="M14.5557 24.5606C14.5322 24.694 14.5243 24.8117 14.5243 24.9372C14.5243 25.0785 14.3439 25.4865 14.3752 25.5885C14.4145 25.7611 14.8539 26.2398 14.9402 26.3967C15.0187 26.5537 15.0658 26.7106 15.1207 26.8832C15.1678 27.048 15.2227 27.2206 15.309 27.4011C15.4817 27.7542 15.5209 27.919 15.5837 28.2564C15.6621 28.6802 15.7406 28.9156 16.1565 29.3471C16.2585 29.457 16.3526 29.5747 16.4468 29.7081C16.5802 29.8886 16.7136 30.069 16.9098 30.2574C17.0118 30.3515 17.1138 30.4143 17.208 30.4771C17.2629 30.5242 17.3257 30.5634 17.3727 30.6026C17.4591 30.6811 17.5297 30.7753 17.6081 30.8773C17.6552 30.94 17.7023 30.995 17.7494 31.0578C18.4399 31.866 20.4722 33.4746 20.637 33.5923C20.7861 33.6943 20.9195 33.7492 21.0372 33.8041C21.1 33.8277 21.1628 33.8591 21.2177 33.8905C21.6022 34.1023 21.9396 34.2593 22.2927 34.424L22.5281 34.5339C22.8263 34.6751 23.1245 34.8478 23.4148 35.0126C23.3834 34.8792 23.3599 34.7458 23.3363 34.6045C23.1009 34.4711 22.8577 34.3299 22.5987 34.2122L22.3555 34.1023C21.9945 33.9375 21.6885 33.7884 21.3197 33.5923C21.2255 33.5452 21.1471 33.506 21.0686 33.4746C20.9666 33.4353 20.896 33.3961 20.8175 33.349C20.6763 33.247 18.6989 31.6698 18.079 30.9479C18.0397 30.9008 18.0005 30.8459 17.9612 30.7988C17.8749 30.6811 17.7729 30.5556 17.6395 30.43C17.5454 30.3515 17.4512 30.2809 17.3649 30.226C17.2864 30.1789 17.2236 30.1318 17.1687 30.0847C17.0196 29.9513 16.9098 29.8023 16.7921 29.6375C16.6901 29.4962 16.5881 29.355 16.4468 29.2137C16.1329 28.8842 16.0859 28.7351 16.0152 28.3663C15.9446 28.0132 15.8975 27.817 15.7092 27.4168C15.6386 27.2677 15.5915 27.1186 15.5523 26.9617C15.4973 26.7812 15.4424 26.5929 15.3404 26.3967C15.2384 26.2084 15.1285 26.0201 14.9951 25.8161C14.9559 25.7533 14.901 25.7062 14.8539 25.667C14.8774 25.6434 14.901 25.612 14.9088 25.5807C14.9559 25.4159 14.9638 25.2589 14.9638 25.102C14.9638 24.9843 14.9716 24.8744 14.9873 24.7646C14.9951 24.7175 15.003 24.6783 15.0187 24.6469C15.0579 24.4743 15.0972 24.333 14.9481 24.0741C15.1599 24.0113 15.309 23.8779 15.3718 23.6896C15.4581 23.4385 15.3953 23.0854 15.1992 22.7323C15.4973 22.6224 15.7249 22.3635 15.7641 22.0496C15.7877 21.8691 15.7484 21.6808 15.6543 21.5003C15.8897 21.3826 15.8818 20.9903 15.8583 20.5979C15.8583 20.543 15.8505 20.4959 15.8505 20.4724C15.8505 20.4567 15.8583 20.4488 15.8818 20.4253C15.9525 20.3704 16.0152 20.2841 15.9446 20.08C15.9211 20.0016 15.8818 19.9231 15.8269 19.8368C16.3762 20.4802 18.1103 22.0104 18.487 22.489C18.6047 22.6303 18.9029 22.9677 18.9578 23.0618C18.3065 22.9049 16.0388 21.6808 16.0388 21.6808C16.0388 21.6808 16.6744 22.1751 17.5846 22.6381C18.0083 22.8578 18.9656 23.2737 19.1304 23.3286C19.1383 23.3443 19.1775 23.3757 19.2246 23.4149C19.201 23.3129 19.1854 23.2031 19.1697 23.0854C19.0833 22.9912 19.0284 22.9206 18.997 22.897C18.9892 22.8186 18.9892 22.7401 18.9892 22.6616C18.9656 22.7323 18.9264 22.7401 18.8636 22.7244C17.9613 21.7593 16.2114 20.0722 15.7092 19.5935C15.7406 19.6014 15.772 19.6171 15.8034 19.6249C15.8348 19.6406 15.8661 19.6406 15.8975 19.6485C15.9682 19.672 16.1251 19.7348 16.2663 19.7897C16.486 19.8839 16.6037 19.9074 16.745 19.9309C16.7921 19.9388 16.847 19.9466 16.9176 19.9623C16.9804 19.978 17.0589 20.0094 17.1373 20.0408C17.255 20.0879 17.3884 20.1428 17.5218 20.1664C17.8828 20.2291 17.9691 20.1036 18.024 20.0173C18.0554 19.9702 18.0711 19.9466 18.1339 19.9309C18.2123 19.9153 18.385 19.9859 18.5498 20.0486C18.691 20.1036 18.8322 20.1664 18.9735 20.1977C18.9735 20.08 18.9735 19.9623 18.9735 19.8368C18.9656 19.8368 18.9578 19.8368 18.9499 19.8368C18.8636 19.8289 18.7224 19.774 18.589 19.7191C18.3457 19.6171 18.0711 19.5072 17.8435 19.5543C17.6788 19.5935 17.616 19.6798 17.5846 19.7348C17.5454 19.7976 17.5375 19.8054 17.4198 19.7819C17.3649 19.774 17.2786 19.7348 17.1923 19.7034C17.0903 19.6563 16.9647 19.6092 16.8392 19.5778C16.7607 19.5621 16.6979 19.5465 16.643 19.5386C16.5253 19.5151 16.4704 19.5072 16.3291 19.4444C16.0545 19.3267 15.8818 19.2561 15.7641 19.2404C15.7092 19.2247 15.6621 19.2012 15.615 19.1933C15.4817 19.1463 15.0344 18.8716 14.9324 18.8952C14.8304 18.9187 15.4189 19.8211 15.4817 20.0094C15.4973 20.0643 15.4973 20.0643 15.466 20.0957C15.4267 20.1271 15.3718 20.1742 15.3639 20.2762C15.3639 20.3076 15.3639 20.3625 15.3718 20.4331C15.411 21.0138 15.105 21.108 15.0736 21.1629C15.0422 21.2178 15.0658 21.2963 15.1285 21.3748C15.2855 21.5395 15.3012 21.72 15.2855 21.8377C15.2462 22.1045 15.0108 22.3399 14.7519 22.3792C14.697 22.387 14.6656 22.4105 14.6499 22.4576C14.6342 22.4969 14.6499 22.5518 14.6813 22.5989C14.8853 22.9049 14.9716 23.2345 14.901 23.4463C14.8461 23.6033 14.7127 23.6974 14.493 23.721C14.438 23.7288 14.3988 23.7524 14.3831 23.7994C14.3674 23.8465 14.3831 23.9014 14.4223 23.9485C14.5871 24.1682 14.5793 24.231 14.5322 24.4115C14.5714 24.4664 14.5636 24.5135 14.5557 24.5606Z" fill="#886A4E"/>
<path d="M19.413 43.8324C19.3031 43.8559 19.1933 43.903 19.0756 43.9972L19.052 44.0129C18.7382 44.264 18.5812 44.3738 18.1496 44.2326C17.9535 44.1698 17.7259 44.0364 17.4827 43.903C17.31 43.8089 17.1296 43.699 16.9334 43.6127C17.1296 43.5028 17.5925 43.2125 18.4871 42.6318C18.5341 42.6005 18.5812 42.5691 18.6283 42.5377C18.5891 42.4514 18.5577 42.3572 18.5263 42.2709C17.7024 42.9379 16.9962 43.5028 16.8863 43.597C16.6588 43.495 16.4155 43.4087 16.1722 43.393C15.9447 43.3694 15.7407 43.4636 15.5445 43.5499C15.4817 43.5813 15.4111 43.6127 15.3719 43.6205C15.2856 43.6441 15.2228 43.6676 15.1835 43.6912C15.1522 43.6755 15.1051 43.6598 15.058 43.6441L14.9717 43.6127C14.8461 43.5656 14.7127 43.5028 14.5715 43.4479C14.2027 43.291 13.779 43.1105 13.3317 42.9928C13.1198 42.9379 12.955 42.8515 12.7432 42.7338C12.5156 42.6161 12.2645 42.4827 11.935 42.3807C11.7309 42.318 11.5426 42.3023 11.3778 42.2866C11.2915 42.2787 11.213 42.2709 11.1267 42.2552C10.9855 42.2316 10.805 42.1924 10.6324 42.1532C10.3891 42.0983 10.2087 42.059 10.0831 42.0512C9.6123 41.8864 9.43967 41.7844 9.33766 41.5568C9.28273 41.4391 9.28273 41.3293 9.27488 41.2116C9.26704 40.9762 9.25134 40.6858 8.79623 40.3327C8.23125 39.8933 7.64274 39.8619 7.17193 39.8305C6.96007 39.8148 6.75605 39.807 6.56773 39.7677C6.58342 39.7128 6.60696 39.6579 6.6305 39.603C6.75605 39.2655 6.89729 38.8811 6.47356 38.3789C6.22247 38.0807 4.67664 36.9429 4.66095 36.8644C4.62956 36.6761 4.59817 36.4642 4.42554 36.2602C4.27645 36.0797 4.05674 35.9306 3.84488 35.7816C3.64871 35.6482 3.45253 35.5069 3.4133 35.4128C3.38191 35.3343 3.39761 35.2951 3.42899 35.2323C3.48392 35.1146 3.55454 34.9341 3.23282 34.581C3.10727 34.4476 2.95818 34.3456 2.81694 34.2514C2.71493 34.1887 2.62077 34.1259 2.56584 34.0631C2.50307 34.0003 2.44814 33.9454 2.40106 33.8983C2.27551 33.7649 2.16565 33.6472 1.89886 33.4746C1.73408 33.3647 1.54576 33.2392 1.47513 33.1764C1.45159 33.145 1.42021 33.1136 1.38097 33.0822C1.34174 33.0509 1.31035 33.0273 1.27896 33.0038C2.1735 33.2078 5.28085 33.914 6.99145 34.1965C7.05423 34.2593 7.06992 34.3064 7.00715 34.3848C7.10131 34.3299 7.18763 34.275 7.27394 34.2279C7.71336 34.3064 13.01 34.989 13.1434 34.9969C12.7981 35.2794 11.935 35.8443 11.1581 36.1504C9.91048 36.6369 6.3951 37.296 6.3951 37.296C6.3951 37.296 8.05862 37.0606 9.11795 36.9037C9.39258 36.8644 9.51029 36.8801 9.73785 36.8016C10.091 36.6761 10.4205 36.5427 10.7501 36.3936C11.472 36.0797 12.1782 35.7423 12.853 35.3814C12.955 35.3264 13.0571 35.2715 13.1591 35.2087C13.2454 35.1617 13.3395 35.0753 13.4651 35.0675C13.5122 35.0675 13.52 35.0596 13.5671 35.0596C13.6377 35.0675 14.0771 35.1381 14.1713 35.1538C14.4067 35.193 14.595 35.1617 14.8461 35.2244C14.956 35.2558 15.0423 35.2794 15.1522 35.2794C15.2699 35.2794 15.364 35.2951 15.4896 35.3421C15.5994 35.3814 16.3449 35.4441 16.4312 35.4677C16.5175 35.4912 17.208 35.5854 17.2943 35.6089L16.9098 35.86C16.8549 35.9306 16.8235 36.0797 16.7686 36.1504C16.6823 36.2681 16.5175 36.4564 16.3527 36.5192C16.1801 36.5819 15.9996 36.7703 15.8191 36.833C15.5837 36.9115 15.466 36.935 15.3169 37.092C15.058 37.3745 14.6343 37.2803 14.3204 37.5392C14.1635 37.6726 13.7868 37.806 13.5357 37.8767C13.418 37.908 13.1277 37.9708 13.0257 38.0022C12.9158 38.0414 12.5313 38.065 12.4372 38.1199C12.1861 38.269 12.2724 38.2768 11.9428 38.3082C11.7074 38.3318 11.3935 38.4887 11.2209 38.575C10.9698 38.7006 10.7501 38.4573 10.4911 38.575C10.2793 38.6692 8.04293 39.4225 7.79183 39.4931C8.05862 39.5716 10.5147 38.8261 10.7422 38.8026C11.0483 38.7634 11.3464 38.6456 11.5897 38.5515C12.037 38.3789 12.4921 38.2612 13.0021 38.1435C13.5749 38.0101 14.1713 37.8453 14.6264 37.5549C15.0972 37.2568 15.6779 37.1077 16.1801 36.833C16.5724 36.6212 16.9569 36.4015 17.1688 36.0797C17.2943 35.8914 17.4905 35.8679 17.7181 35.7502C17.7808 35.7188 17.8593 35.6952 17.9456 35.6639C18.0241 35.6874 18.1104 35.7031 18.2046 35.7188V35.5226C17.7024 35.4677 17.1766 35.3971 16.7372 35.3107C16.3056 34.9733 14.3439 33.608 14.1713 33.4432C13.5985 32.9253 13.0335 32.5487 12.3116 32.1406C10.9149 31.3402 7.99585 30.0691 6.53634 29.3942C6.68543 29.5198 8.79623 30.6654 9.06302 30.8067C9.48675 31.0421 9.69076 30.9087 10.0517 31.1205C10.7893 31.5443 11.574 31.7797 12.241 32.2034C12.9315 32.6428 14.2969 33.7492 15.0266 34.2043C15.1208 34.2593 16.4547 35.0989 16.337 35.3264C16.2899 35.4049 15.1286 35.0361 14.9638 35.0518C14.7049 35.0675 14.2733 35.146 13.4965 34.9027C13.0335 34.7536 12.4999 34.7222 12.2174 34.6987C12.1939 34.683 11.3778 34.2671 11.3621 34.2514C11.0718 34.0631 10.8599 33.8512 10.5382 33.6786C9.89478 33.3333 9.67507 33.0273 9.05517 32.6664C8.51374 32.3525 7.97231 31.968 7.39949 31.7091C6.8816 31.4736 6.26955 31.1205 5.76735 31.0735C6.69328 31.5443 7.63489 31.9837 8.56082 32.4702C9.03163 32.7134 9.31412 33.0509 9.74569 33.3333C10.0046 33.506 11.4014 34.4005 11.7623 34.6908C11.6132 34.6516 10.7579 34.5731 10.6481 34.5418C10.2322 34.4319 9.98894 34.4397 9.53383 34.3927C8.77269 34.322 8.73345 34.322 8.64714 34.2985C8.49805 34.2593 7.90953 34.0396 7.82322 34.0317C7.64274 33.8905 6.4971 33.1372 5.95567 32.8311C4.77865 32.1642 3.7821 31.8268 3.7821 31.8268C3.7821 31.8268 6.77174 33.4275 7.40734 34.0317C7.26609 34.0317 6.68543 33.9454 6.44218 33.9219C5.6418 33.8512 2.70709 33.0587 1.60853 32.9175C1.74193 32.9096 1.85963 32.8939 1.96164 32.8704C2.23628 32.7998 2.27551 32.6664 2.2912 32.5565C2.35398 32.533 2.35398 32.5251 2.36967 32.5173C2.39321 32.5016 2.44814 32.4702 2.51092 32.431C2.95818 32.172 3.39761 31.8974 3.35053 31.5521C3.61732 31.5364 3.85272 31.4423 4.0332 31.2775C4.33923 31.0028 4.46478 30.5634 4.37061 30.1632C4.9042 30.124 5.33577 29.9435 5.54764 29.661C5.70458 29.457 5.74381 29.1981 5.65749 28.9234C6.04199 28.8999 6.17538 28.7586 6.33232 28.586C6.36371 28.5468 6.40294 28.5075 6.44218 28.4683C6.54419 28.3663 6.66189 28.28 6.78744 28.1937C6.95222 28.076 7.12485 27.9583 7.27394 27.7856C7.30533 27.7464 7.32102 27.7072 7.32887 27.6601C7.39949 27.6836 7.49365 27.7072 7.58781 27.7072C7.90953 27.6993 8.19202 27.6915 8.47451 27.6679C8.76484 27.6365 9.00809 27.5659 9.24349 27.4875C9.44751 27.4247 9.64368 27.3619 9.85555 27.3384C10.4284 27.2599 10.6795 27.1736 11.1189 26.9931C11.574 26.8048 11.7702 26.7499 12.3587 26.8597C12.6098 26.9068 12.8452 26.9146 13.0727 26.9303C13.3317 26.946 13.5828 26.9539 13.8339 27.0166C13.9202 27.0402 14.0144 27.0794 14.1242 27.1265C14.1948 27.1579 14.2733 27.1893 14.3518 27.2207C14.2027 27.0323 14.0222 26.8126 13.9987 26.7028C13.9987 26.6871 13.9987 26.6635 13.9987 26.6322C13.9359 26.6086 13.8731 26.5851 13.8025 26.5694C13.4572 26.4831 13.1591 26.4674 12.8687 26.4517C12.6569 26.4438 12.4607 26.4281 12.2645 26.3967C11.4877 26.2555 11.1817 26.3418 10.6559 26.5537C10.24 26.7263 10.036 26.7969 9.51813 26.8676C9.25919 26.8989 9.03163 26.9696 8.81977 27.0402C8.60005 27.1108 8.38819 27.1736 8.15279 27.1971C7.91738 27.2207 7.06992 27.0873 6.85806 27.1657C6.7482 27.2128 6.42648 27.6915 6.27739 27.8013C6.144 27.8955 6.0106 27.9818 5.88505 28.1074C5.83797 28.1544 5.79874 28.1937 5.7595 28.2329C5.58687 28.4134 5.53979 28.4762 5.17099 28.4448C5.08468 28.4369 5.01405 28.4605 4.97482 28.5075C4.93559 28.5546 4.93559 28.6174 4.96697 28.6802C5.09252 28.9313 5.09252 29.151 4.95913 29.3236C4.77865 29.559 4.36277 29.7003 3.87626 29.6924C3.7978 29.6924 3.73502 29.716 3.69579 29.763C3.6644 29.818 3.6644 29.8729 3.69579 29.9357C3.84488 30.2495 3.75071 30.6733 3.49177 30.9087C3.37407 31.0107 3.17005 31.1284 2.87187 31.0735C2.74632 31.0499 2.64431 31.0813 2.60508 31.1598C2.57369 31.2382 2.68355 31.6384 2.02441 32.0151C1.9381 32.0622 1.87532 32.1014 1.84393 32.1249C1.73408 32.2034 1.71839 32.3054 1.71054 32.3682C1.70269 32.4231 1.70269 32.4231 1.62422 32.4467C1.36528 32.5094 -0.0471514 32.5251 -7.04388e-05 32.6428C0.0470105 32.7684 0.682604 33.0666 0.823847 33.1764C0.870928 33.2156 0.925856 33.2549 0.98863 33.302C1.09064 33.4118 1.28681 33.5609 1.61638 33.7728C1.78116 33.8826 1.83609 33.9376 1.94594 34.0474C1.99302 34.1023 2.0558 34.1573 2.12642 34.2357C2.24412 34.3534 2.38537 34.4476 2.51092 34.5339C2.61292 34.6045 2.71493 34.6673 2.76201 34.7222C2.87187 34.8399 2.86402 34.8556 2.82479 34.9419C2.80125 35.0283 2.74632 35.1538 2.82479 35.3657C2.93464 35.6482 3.25636 35.8679 3.53885 36.064C3.69579 36.1739 3.86057 36.2838 3.93119 36.3701C4.00181 36.4564 4.02535 36.6133 4.04889 36.7467C4.08813 36.9978 4.14306 37.3352 4.60602 37.5392C4.6531 37.5628 5.80658 38.2925 5.97921 38.5044C6.21462 38.7869 6.15184 39.0066 6.02629 39.3362C5.97921 39.4696 5.92429 39.603 5.90075 39.7599C5.88505 39.8619 5.98706 39.9953 6.144 40.0659C6.59911 40.2621 7.015 40.2856 7.3838 40.3092C7.86245 40.3406 8.14494 40.3641 8.44312 40.5917C8.63929 40.7408 8.64714 40.8349 8.66283 41.0546C8.67068 41.188 8.67068 41.345 8.75699 41.5411C9.01594 42.1218 9.65938 42.3415 10.1223 42.5063C10.193 42.5298 10.2557 42.5377 10.3107 42.5298C10.3891 42.5455 10.5696 42.5769 10.703 42.6083C10.8913 42.6475 11.0797 42.6868 11.2444 42.7182C11.3621 42.7338 11.4641 42.7495 11.5662 42.7574C11.6996 42.7731 11.8173 42.7809 11.9193 42.8123C12.1547 42.8829 12.343 42.9849 12.5392 43.087C12.7746 43.2125 13.0414 43.3537 13.3709 43.4401C13.7319 43.5342 14.0928 43.6833 14.4459 43.8403C14.595 43.903 14.7363 43.9658 14.8697 44.0207L14.956 44.0521C15.2777 44.1855 15.4425 44.2483 15.6465 44.1384C15.6779 44.1227 15.7093 44.0992 15.7878 44.0835C15.8584 44.06 15.9368 44.0286 16.0232 43.9893C16.1173 43.9501 16.2821 43.8716 16.3449 43.8716C16.596 43.8952 16.902 44.0678 17.2316 44.2561C17.5141 44.4131 17.7965 44.5779 18.1026 44.6799C18.9343 44.9467 19.2717 44.6799 19.5935 44.4209L19.617 44.3817C19.7033 44.3111 19.7504 44.2875 19.7975 44.2875C19.6641 44.1384 19.5385 43.9893 19.413 43.8324Z" fill="#886A4E"/>
<path d="M23.3913 29.8101C23.3599 29.8022 23.3364 29.7944 23.3207 29.7865C22.8655 29.6531 22.2221 29.4805 21.7984 29.2216C21.3747 28.9626 21.0529 28.8528 20.6214 28.6488C20.1976 28.4526 19.7661 28.2564 19.358 28.0053C19.0128 27.7934 18.4399 27.4874 18.0711 27.3226C17.6003 27.1029 16.0074 26.2633 15.3718 26.0515C16.3213 26.585 17.4277 27.0872 17.8043 27.4011C18.0397 27.5973 18.1261 27.5345 19.4993 28.2956C20.0328 28.3506 20.4252 28.7429 20.9274 28.9862C21.1863 29.1117 21.4531 29.1509 21.7199 29.2843C21.9318 29.3942 22.1279 29.5668 22.3398 29.661C22.5674 29.763 22.944 29.8885 23.3599 30.0141C23.3677 29.9513 23.3834 29.8807 23.3913 29.8101Z" fill="#886A4E"/>
<path d="M18.8479 20.645L19.0205 22.2379C19.0127 21.6651 19.0048 21.0609 18.8871 20.7392C18.8636 20.6764 18.8479 20.645 18.8479 20.645Z" fill="#886A4E"/>
<path d="M19.0208 22.2379C19.0208 22.387 19.0286 22.5282 19.0286 22.6695C19.0364 22.6459 19.0443 22.6067 19.0521 22.5596L19.0208 22.2379Z" fill="#886A4E"/>
<path d="M53.1543 21.5945C53.1465 21.4062 53.1465 21.21 53.17 21.006C53.1936 20.8255 53.2328 20.6529 53.2642 20.4881C53.3191 20.2291 53.3662 19.978 53.3662 19.7112C53.3583 19.6642 53.3426 19.6249 53.3348 19.5778C53.2956 19.366 53.272 19.1463 53.2563 18.9266C53.2249 18.801 53.1935 18.6676 53.1622 18.5421C53.1308 18.4165 53.0915 18.291 53.0602 18.1576C53.0052 17.9379 52.9503 17.726 52.8875 17.5063C52.8326 17.318 52.7777 17.1218 52.7227 16.9099C52.6521 16.6431 52.4638 16.4705 52.2441 16.2743C52.0715 16.1252 51.8988 15.9604 51.7576 15.7407C51.7027 15.6544 51.6634 15.5603 51.6242 15.4818C51.5693 15.3562 51.5222 15.2542 51.4359 15.1758C51.2711 15.0424 51.0592 14.9325 50.8552 14.8227C50.6904 14.7363 50.5178 14.6422 50.3608 14.5402C50.2039 14.4303 50.047 14.3126 49.8979 14.2028C49.7096 14.0615 49.5134 13.9124 49.3094 13.779C48.9876 13.5672 48.6973 13.3082 48.4227 13.0493C48.0931 12.7511 47.7557 12.4372 47.3634 12.2254C47.1672 12.1155 46.9553 12.1469 46.6964 12.194C46.5473 12.2175 46.3982 12.2411 46.2334 12.2489C45.7626 12.2489 45.4958 12.1233 45.1427 11.9429C45.0956 11.9193 45.0564 11.8958 45.0093 11.8723C44.6562 11.6996 44.2874 11.5819 43.9029 11.4642C43.8087 11.4328 43.7224 11.4093 43.6283 11.3779C43.4321 11.3151 43.2516 11.2131 43.079 11.1111C42.9456 11.0405 42.8279 10.9699 42.7023 10.9228C42.6317 10.9228 42.5611 10.8992 42.4983 10.86C42.2472 10.8208 41.9647 10.8522 41.6587 10.8914C41.4547 10.9228 41.235 10.9463 41.031 10.9463C40.929 10.9463 40.8269 10.9463 40.7249 10.9385C40.4268 10.9306 40.1364 10.9228 39.8775 11.0091C39.391 11.1817 38.8652 11.3544 38.316 11.4721C38.1669 11.5034 38.0021 11.527 37.8373 11.5505C37.5313 11.5976 37.2096 11.6447 36.9506 11.7467C36.9349 11.7624 35.4911 12.3823 35.3969 12.398C35.1694 12.4215 35.036 12.4372 34.8006 12.5942C34.6044 12.7276 34.2513 13.0257 33.8982 13.1827C34.008 13.2141 34.1179 13.2454 34.2356 13.2847C34.6123 13.3945 35.0124 13.5044 35.3655 13.6927C35.5068 13.7633 35.6088 13.8653 35.703 13.9595C35.7344 13.9909 35.7657 14.0223 35.805 14.0537C35.8913 14.1321 36.0011 14.1949 36.111 14.2655C36.2444 14.344 36.3778 14.4225 36.4955 14.5323C36.7074 14.7207 36.8957 14.9482 37.084 15.1679C37.1468 15.2385 37.2096 15.3092 37.2645 15.3798C37.3979 15.5289 37.492 15.6623 37.5784 15.8035C37.7274 16.0232 37.853 16.2115 38.0962 16.3685C38.4572 16.6039 38.6612 16.8785 38.8966 17.1846L38.9751 17.2944C39.5793 18.0791 40.105 18.8481 40.5445 19.5857C40.6151 19.6955 40.6465 19.8132 40.6779 19.9153C40.6935 19.9859 40.7171 20.0486 40.7406 20.0957C40.772 20.1507 40.8269 20.2134 40.8897 20.2762C40.9996 20.3939 41.1173 20.5195 41.1644 20.6921C41.2271 20.904 41.1957 21.0766 41.1722 21.2178C41.1487 21.3669 41.133 21.4689 41.1957 21.6102C41.3448 21.9083 41.4861 22.1751 41.6273 22.4262C41.8627 22.8421 41.9177 23.1089 41.9961 23.5013L42.0197 23.619C42.051 23.7602 42.1138 23.9328 42.1844 24.027L42.3021 24.1996L42.3728 24.1761C42.4199 24.1604 42.4512 24.1525 42.4905 24.1525C42.5454 24.1525 42.6553 24.1761 42.7102 24.3095L42.718 24.3173C42.7808 24.3566 42.8357 24.4036 42.8907 24.4507C42.9613 24.5135 43.0398 24.5763 43.1182 24.6155C43.1888 24.6469 43.2595 24.6547 43.3536 24.6704C43.4556 24.6861 43.5733 24.694 43.6832 24.7489C43.793 24.796 43.8715 24.8823 43.9343 24.9529C43.9735 25 44.0206 25.0471 44.052 25.0628C44.1305 25.102 44.2168 25.1255 44.3109 25.1491C44.4286 25.1805 44.5542 25.2119 44.6876 25.2825C45.4095 25.6748 45.8018 26.0986 46.3747 26.7577C46.461 26.8597 46.5944 26.9539 46.7356 27.048C46.9318 27.1814 47.128 27.3148 47.2692 27.5188C47.332 27.6051 47.3712 27.6993 47.4026 27.7856C47.434 27.8641 47.4654 27.9426 47.5124 28.0053C47.5595 28.0681 48.7052 29.6218 48.8386 29.7002C49.7488 30.2731 50.5727 29.0176 50.8787 28.3114C50.9415 28.1701 50.9886 28.0524 51.02 27.9661C51.1534 27.5895 51.3966 27.307 51.6399 27.0323C51.9537 26.6714 52.4559 25.3531 52.5736 25.1491C52.6364 25.0314 52.707 24.9137 52.7777 24.8117C52.8797 24.6704 52.8404 24.5684 52.9268 24.4743C53.1072 24.2859 53.0915 24.1604 53.1465 23.8622C53.2563 23.3443 52.9111 22.8814 53.0758 22.3478C53.17 22.1045 53.1622 21.8613 53.1543 21.5945ZM49.7645 16.2194C49.8586 15.8506 50.0077 15.4504 50.1647 15.0895C50.3844 14.5637 50.5021 14.9168 50.8238 15.215C50.9337 15.3249 51.1377 15.2464 51.0828 15.5053C51.0514 15.6544 50.7532 15.7172 50.7139 15.8114C50.6355 15.9761 50.7532 16.2194 50.7139 16.392C50.6433 16.6902 50.455 16.7451 50.2588 16.9021C49.945 17.161 49.7409 17.4043 49.3565 17.5298C48.9798 17.6554 48.7365 17.7809 48.3285 17.8751L48.1166 17.8829C48.4776 17.263 49.584 16.9492 49.7645 16.2194ZM44.6719 18.8873C44.8916 18.5342 45.0485 18.1654 45.3075 17.828C45.5429 17.522 45.6292 17.1532 45.8803 16.8785C46.1785 16.549 46.4924 16.447 46.7356 16.0625C46.9082 15.7878 46.7278 14.3362 47.4967 15.0659C48.2657 15.7957 47.2535 15.8192 47.0966 16.1802C46.9161 16.6117 46.6336 16.8707 46.3276 17.2002C46.1785 17.365 46.0529 17.522 45.9352 17.7181C45.8097 17.93 45.8097 17.93 45.6527 18.1026C45.3389 18.44 44.9544 18.7539 44.6719 19.0992V18.8873ZM42.5689 17.9143C42.6396 17.6004 43.1261 16.6981 43.3458 16.6039L43.3615 16.596C43.487 16.5254 43.8087 16.855 43.7303 17.0119C43.644 17.0825 43.1575 17.3415 43.0947 17.5926C43.0397 17.8358 42.7808 18.0556 42.8514 18.3223C42.9142 18.5813 43.2124 18.6911 43.2595 19.0129C43.2908 19.2326 43.3222 19.57 43.2987 19.7819C43.2673 20.1428 42.773 20.8961 43.4164 20.6921C43.9186 20.5352 44.0441 19.4758 44.6876 19.7819C45.331 20.0879 42.8907 21.0609 43.1104 22.0888C43.1418 22.1594 43.1496 22.2301 43.1182 22.2928C43.0398 22.2615 43.0241 22.2458 42.9691 22.1908C42.8357 22.0339 42.8907 21.6416 42.82 21.4218C42.7337 21.1707 42.6239 21.0295 42.6082 20.7392C42.5768 20.2527 42.8043 19.7112 42.7337 19.3346C42.718 19.2561 42.6003 19.1463 42.5689 19.0443C42.5376 18.9344 42.5689 18.7696 42.5689 18.6519C42.5689 18.4322 42.5219 18.134 42.5689 17.9143ZM41.6116 13.9517C41.5253 14.1714 41.5175 14.2185 41.3527 14.3989C41.2428 14.5166 40.9917 14.6108 40.9525 14.7756C40.8897 15.0345 41.2507 15.4818 41.2821 15.7643C41.3134 16.0468 41.2821 17.1767 41.235 17.8829C41.0153 17.6475 41.1565 17.0433 41.078 16.7137C40.9996 16.3528 40.5994 16.0782 40.4268 15.7407C40.1364 15.1601 40.1678 14.5402 39.697 14.1243L39.6735 14.1086C38.8652 13.8497 37.4214 13.7869 37.2723 13.473C37.1232 13.1591 38.3003 13.3239 38.6455 13.4102C39.0849 13.5201 39.4773 13.6378 39.9403 13.5829C39.9716 13.0179 38.8495 12.5628 39.3047 12.3509C39.7598 12.139 39.9324 12.8923 40.2384 13.1434C40.4032 13.2847 40.7563 13.834 40.9996 13.7633C41.2428 13.6927 41.1016 13.4965 41.1957 13.3161C41.2978 13.1277 41.4861 13.0414 41.6352 12.908C41.9412 12.6255 41.902 11.5898 42.412 11.7153C42.9142 11.8252 41.8941 13.1905 41.6116 13.9517ZM51.3888 24.0505C51.1377 24.231 50.1882 23.9407 49.6468 23.9878C49.2937 24.0191 49.0347 24.231 48.6738 24.231C48.4384 24.231 48.1166 24.0819 47.8734 24.0819C47.7635 24.333 48.2657 24.8038 48.3913 25.0471C48.5796 25.4159 48.5168 25.8396 48.6345 26.232C48.1637 26.2084 48.305 25.8553 48.1245 25.5964C47.9676 25.3688 47.7478 25.306 47.6145 25.0314C47.5046 24.8117 47.3869 24.7567 47.2535 24.5606C47.1044 24.333 46.8847 24.6155 46.9396 23.7445C46.9946 22.8735 50.0077 23.462 50.3765 23.3836C50.659 23.3208 50.9337 22.8186 51.2632 23.0304C51.5849 23.2502 51.6477 23.8622 51.3888 24.0505ZM51.6477 20.4645C51.4359 20.7784 50.6747 20.5038 50.3295 20.6215C50.1176 20.6921 49.9214 20.645 49.7096 20.7235C49.5134 20.7941 49.4271 21.108 49.2152 21.0923C48.6973 21.053 48.5718 20.7941 48.3128 20.8647C48.148 20.9118 47.8263 21.3512 47.6458 21.5239C47.3398 21.8063 47.2221 21.7828 46.8219 21.9476C46.6258 22.026 46.406 22.1124 46.2177 22.1673C46.1392 22.1908 45.8411 21.775 45.7626 21.8142C45.6527 21.8691 45.6763 22.6616 45.59 22.7087C45.3389 22.8421 45.2055 22.6303 44.9308 22.7087C44.7347 22.7637 44.515 22.7715 44.3345 22.8814C43.9814 23.0932 43.8401 23.2423 43.4635 23.4071C43.2673 23.4934 42.6866 23.7916 42.5768 23.9014L42.5219 23.8622C42.5611 23.7367 43.2359 23.1481 43.4242 22.9834C43.6753 22.7558 44.0363 22.4969 44.3502 22.1202C44.664 21.7357 44.8916 20.8647 45.2133 20.6293C45.535 20.3939 45.692 21.1786 46.8298 20.3861C47.0652 20.2213 47.2927 20.1664 47.5281 20.0094C47.7557 19.8682 47.9205 19.672 48.1873 19.5621C48.3285 19.5072 48.4148 19.4915 48.5718 19.4915C48.7522 19.4994 48.8935 19.6249 49.0347 19.6249C49.3408 19.6249 49.7253 19.5308 49.9293 19.2797C50.149 19.0129 50.3373 18.3067 50.659 18.5342C50.8709 18.6833 50.7453 19.3424 50.9572 19.5229C51.3809 19.3581 51.9067 20.0879 51.6477 20.4645Z" fill="#886A4E"/>
<path d="M4.82578 35.6168C5.25735 35.5147 5.92433 35.091 6.55993 34.683L4.69238 35.6403C4.69238 35.6403 4.73946 35.6324 4.82578 35.6168Z" fill="#886A4E"/>
<path d="M76.5378 30.328C76.1926 30.6027 75.7688 31.2775 75.3687 31.9131L76.6477 30.2417C76.6398 30.2417 76.6006 30.2731 76.5378 30.328Z" fill="#886A4E"/>
<path d="M32.2189 13.575C32.2817 13.5986 32.3523 13.6221 32.4386 13.677C32.5563 13.7477 32.6583 13.8183 32.7604 13.8967C32.9487 14.0301 33.1292 14.1557 33.341 14.242C33.3881 14.2577 33.4509 14.2812 33.5137 14.3048C33.7726 14.3911 34.0708 14.6736 34.2826 14.8305C34.4945 14.9953 34.6436 15.0424 34.777 15.1758C34.8476 15.2464 34.9182 15.317 34.9889 15.3641C35.2086 15.5132 35.2949 15.6309 35.3969 15.7564C35.444 15.8192 35.4911 15.882 35.5617 15.9605C35.6558 16.0703 35.7892 16.1252 35.9383 16.188C36.1266 16.2665 36.3385 16.3606 36.5033 16.5725C36.6367 16.7373 36.7622 16.8628 36.9035 16.9962C37.0133 17.0983 37.131 17.2081 37.2566 17.3493C37.3743 17.4827 37.492 17.6318 37.6019 17.7731C37.7352 17.9379 37.853 18.1026 37.9785 18.236C38.0805 18.3459 38.2061 18.4558 38.3395 18.5656C38.4964 18.699 38.6612 18.8402 38.8024 19.005C38.9201 19.1306 39.0143 19.2718 39.1006 19.3974C39.2183 19.5622 39.3282 19.7191 39.4616 19.8446C39.5165 19.8917 39.5636 19.9388 39.6185 19.9859C39.8774 20.2134 40.1207 20.4332 40.1992 20.9197C40.2619 21.2963 40.3639 21.5239 40.6229 21.8299C40.6935 21.9162 40.7798 22.0418 40.874 22.183C41.0074 22.3792 41.1172 22.5283 41.2742 22.8107L41.3919 22.9755L41.3683 22.7558C41.3369 22.6852 41.282 22.5518 41.2349 22.4655C41.0937 22.2065 41.0231 22.0967 40.874 21.7907C40.7563 21.5474 40.7877 21.3434 40.8112 21.1708C40.8347 21.0452 40.8504 20.9354 40.8112 20.8098C40.7877 20.7313 40.7014 20.6372 40.6229 20.5509C40.5444 20.4645 40.4659 20.3861 40.411 20.2841C40.3718 20.2056 40.3404 20.1193 40.3169 20.033C40.2933 19.9467 40.2698 19.8603 40.2227 19.7897C39.7911 19.06 39.2732 18.3067 38.6769 17.5298L38.5906 17.42C38.363 17.1218 38.1904 16.8864 37.8843 16.6902C37.5862 16.4862 37.4214 16.2508 37.2644 16.0232C37.1781 15.8977 37.0918 15.7721 36.9741 15.6387C36.9113 15.5681 36.8486 15.4975 36.7858 15.419C36.6132 15.2072 36.4248 14.9953 36.2365 14.8227C36.1423 14.7364 36.0325 14.6736 35.9069 14.5951C35.7814 14.5166 35.6558 14.446 35.5381 14.344C35.4989 14.3126 35.4675 14.2734 35.4283 14.242C35.3498 14.1635 35.2713 14.0851 35.185 14.0458C34.8633 13.8811 34.4867 13.7712 34.1257 13.6692C33.702 13.5436 33.2547 13.4181 32.8702 13.1905L32.8074 13.1591C32.6505 13.065 32.572 13.0179 32.3994 12.9865C32.0855 13.0022 31.7638 13.1278 31.8423 13.4024C31.8894 13.473 32.1012 13.5279 32.2189 13.575Z" fill="#886A4E"/>
<path d="M81.191 30.8067C81.1282 30.791 81.0655 30.7753 80.9948 30.7674C80.8536 30.7125 80.6182 30.6654 80.2258 30.6105C80.0297 30.5869 79.9591 30.5556 79.81 30.5006C79.7393 30.4771 79.6609 30.4457 79.5667 30.4143C79.4098 30.3594 79.2371 30.3358 79.0881 30.3123C78.9625 30.2966 78.8448 30.2731 78.7742 30.2495C78.6251 30.1946 78.6251 30.1789 78.6251 30.0847C78.6251 29.9906 78.6173 29.8572 78.4525 29.7002C78.2328 29.4962 77.8483 29.4335 77.5108 29.3785C77.3225 29.3471 77.1264 29.3158 77.0243 29.2687C76.9223 29.2216 76.836 29.096 76.7575 28.9862C76.6163 28.7822 76.4201 28.4918 75.9101 28.5075C75.8552 28.5075 74.5055 28.3428 74.2544 28.225C73.9248 28.076 73.8856 27.8484 73.8542 27.4953C73.8464 27.354 73.8307 27.2128 73.7914 27.0637C73.7601 26.9617 73.611 26.8911 73.4462 26.8911C72.9518 26.9068 72.5673 27.0637 72.2221 27.205C71.7748 27.3854 71.508 27.4796 71.1471 27.4011C70.9038 27.3462 70.8489 27.2677 70.7547 27.0794C70.6919 26.9617 70.6213 26.8205 70.4644 26.6871C69.9779 26.2712 69.3109 26.3497 68.8166 26.4046C68.7459 26.4124 68.6832 26.436 68.6361 26.4674C68.5576 26.4909 68.385 26.5301 68.2516 26.5615C68.0633 26.6086 67.8749 26.6478 67.718 26.6949C67.6081 26.7263 67.5061 26.7655 67.412 26.7969C67.2864 26.844 67.1766 26.8832 67.0667 26.8989C66.8235 26.9303 66.6116 26.9225 66.384 26.9146C66.1172 26.9068 65.8191 26.8911 65.4817 26.9617C65.1128 27.0323 64.7205 27.048 64.3439 27.0637C64.1869 27.0716 64.03 27.0794 63.8809 27.0873L63.7867 27.0951C63.4336 27.1186 63.261 27.1265 63.1276 27.3148C63.1041 27.3462 63.0805 27.3776 63.0256 27.4325C62.9707 27.4796 62.9157 27.5502 62.853 27.6208C62.7902 27.6993 62.6646 27.8406 62.6097 27.8719C62.5705 27.8876 62.5234 27.8955 62.4763 27.9033C62.4763 28.0446 62.4763 28.1858 62.4763 28.3271C62.6411 28.3114 62.8059 28.2878 62.955 28.225C63.1747 28.1466 63.3159 27.9739 63.4572 27.8092C63.5043 27.7542 63.5513 27.6993 63.5827 27.6679C63.6533 27.6051 63.6926 27.5581 63.724 27.5267C63.7632 27.5267 63.8103 27.5188 63.8574 27.5188L63.9515 27.511C64.0849 27.5031 64.234 27.4953 64.3831 27.4874C64.7833 27.4718 65.2462 27.4561 65.6935 27.3619C65.9054 27.3227 66.0937 27.3305 66.337 27.3384C66.5881 27.3462 66.8784 27.3619 67.2158 27.3148C67.4277 27.2834 67.6081 27.2207 67.7572 27.1657C67.8357 27.1343 67.9142 27.103 67.9926 27.0873C68.126 27.048 68.3144 27.0088 68.487 26.9617C68.7302 26.9068 68.9029 26.8597 69.0206 26.8205C69.5149 26.7655 69.7189 26.7812 69.9073 26.946C70.0093 27.0323 70.0564 27.1265 70.1113 27.2285C70.2211 27.4325 70.3545 27.6915 70.9195 27.817C71.6179 27.9661 72.1671 27.7464 72.5987 27.5738C72.7949 27.4953 72.9832 27.4168 73.1715 27.3697C73.1794 27.4247 73.1872 27.4874 73.1872 27.5424C73.2186 27.9033 73.25 28.3035 73.8542 28.5782C74.2073 28.7429 76.0906 29.096 76.1376 29.1667C76.2475 29.3236 76.3652 29.5041 76.6085 29.6139C76.8203 29.7159 77.0793 29.7552 77.3382 29.7944C77.5736 29.8336 77.809 29.865 77.8875 29.9435C77.9503 29.9984 77.9503 30.0455 77.9503 30.1161C77.9581 30.2495 77.966 30.4457 78.4132 30.6183C78.578 30.6811 78.7663 30.7125 78.9311 30.736C79.0488 30.7517 79.1587 30.7674 79.2372 30.7988C79.3235 30.8302 79.3941 30.8537 79.4569 30.8773C79.6295 30.94 79.7786 31.0028 80.0925 31.0421C80.2886 31.0656 80.5083 31.1048 80.6025 31.1284C80.6339 31.1441 80.681 31.1598 80.728 31.1676C80.7751 31.1755 80.8144 31.1833 80.8536 31.1911C79.9591 31.3873 76.8517 32.0935 75.1803 32.5722C75.1019 32.5408 75.0626 32.5094 75.0862 32.4153C75.0234 32.5016 74.9685 32.5957 74.9135 32.6742C74.482 32.7919 69.4051 34.4554 69.2795 34.5104C69.4757 34.1102 70.0014 33.2313 70.5742 32.6193C71.4923 31.6384 74.38 29.5355 74.38 29.5355C74.38 29.5355 72.9754 30.4692 72.0887 31.0656C71.8611 31.2147 71.7434 31.2539 71.5708 31.4266C71.3118 31.6855 71.0686 31.9601 70.8253 32.2269C70.3075 32.8233 69.8131 33.4275 69.3658 34.0474C69.2952 34.1416 69.2246 34.2357 69.1618 34.3299C69.099 34.4162 69.0598 34.5261 68.9421 34.5888C68.9029 34.6124 68.9029 34.6202 68.8479 34.6359C68.7852 34.6594 68.3536 34.785 68.2594 34.8164C68.0319 34.887 67.8749 34.989 67.6238 35.0439C67.5061 35.0675 67.4277 35.0832 67.3257 35.1303C67.2237 35.1773 67.1295 35.2087 66.9961 35.2166C66.8862 35.2323 66.18 35.4991 66.0937 35.5147C66.0074 35.5304 65.3483 35.7423 65.2541 35.758L65.4973 35.3657C65.513 35.2793 65.4817 35.1303 65.4973 35.0439C65.5287 34.8949 65.5915 34.6594 65.7171 34.526C65.8426 34.3927 65.9289 34.1494 66.0623 34.016C66.2428 33.8434 66.337 33.7728 66.4076 33.5687C66.5174 33.1999 66.9412 33.1058 67.1138 32.737C67.2001 32.5487 67.4747 32.2662 67.6709 32.0935C67.7651 32.0151 68.0005 31.8346 68.0711 31.7561C68.1574 31.6698 68.4948 31.4893 68.5576 31.3952C68.7145 31.1598 68.6439 31.1833 68.9264 31.0107C69.1304 30.8851 69.3501 30.6105 69.46 30.4614C69.6248 30.2417 69.9308 30.3672 70.1191 30.1475C70.2682 29.967 71.9631 28.3271 72.1593 28.1544C71.8768 28.1937 69.9857 29.9278 69.7974 30.0455C69.5306 30.2103 69.3188 30.4457 69.1383 30.6419C68.8087 30.9871 68.4478 31.2932 68.0319 31.6149C67.5689 31.9837 67.1059 32.3917 66.8156 32.839C66.5174 33.3098 66.0545 33.7021 65.7249 34.1572C65.4581 34.5182 65.207 34.8792 65.1521 35.2637C65.1207 35.4834 64.9559 35.5932 64.799 35.7972C64.7519 35.8522 64.697 35.9149 64.6263 35.9699C64.3674 36.0248 64.03 36.1347 63.669 36.2837V36.5113C64.3282 36.2445 65.1756 35.9542 65.8661 35.7737C66.3997 35.8914 68.7538 36.2837 68.9892 36.3465C69.7346 36.5662 70.4016 36.6604 71.2255 36.7232C72.8341 36.8409 76.0121 36.731 77.6207 36.7075C77.4324 36.6604 75.0391 36.5348 74.7331 36.5191C74.2544 36.4956 74.1289 36.6996 73.7051 36.6682C72.8577 36.5976 72.0494 36.731 71.2648 36.629C70.4487 36.527 68.7459 36.119 67.8906 36.0169C67.7808 36.0013 66.2114 35.8286 66.2271 35.5697C66.2349 35.4755 67.4434 35.3107 67.5846 35.2244C67.8122 35.0989 68.1653 34.8399 68.9735 34.7301C69.4522 34.6594 69.9465 34.4711 70.2211 34.3613C70.2525 34.3613 71.1628 34.3927 71.1863 34.3927C71.5316 34.4397 71.814 34.5339 72.175 34.5496C72.8969 34.581 73.2343 34.7693 73.9484 34.8242C74.5683 34.8713 75.2274 34.9812 75.8552 34.9733C76.4201 34.9655 77.1263 35.0204 77.5972 34.8478C76.5614 34.8242 75.5178 34.8321 74.4741 34.7928C73.9484 34.7771 73.5403 34.5967 73.0303 34.526C72.7243 34.4868 71.0764 34.275 70.6292 34.1729C70.7861 34.1416 71.5865 33.8512 71.6963 33.8277C72.1201 33.7414 72.3398 33.6394 72.7635 33.4824C73.4776 33.2156 73.5168 33.1999 73.6031 33.1842C73.7601 33.1529 74.38 33.0979 74.4584 33.0744C74.6781 33.1215 76.0435 33.3098 76.6634 33.349C78.013 33.4432 79.0567 33.3176 79.0567 33.3176C79.0567 33.3176 75.6747 33.1607 74.8351 32.8861C74.9606 32.8233 75.5256 32.6507 75.7532 32.5643C76.5065 32.2819 79.4961 31.7404 80.5476 31.3873C80.4377 31.4501 80.3357 31.5129 80.2494 31.5835C80.0375 31.764 80.0532 31.8974 80.0925 32.0072C80.1081 32.0465 80.1081 32.0543 80.0925 32.0778C80.0768 32.1014 80.0454 32.1563 79.9983 32.2112C79.7001 32.635 79.4255 33.0744 79.6138 33.3647C79.3784 33.4981 79.2058 33.6786 79.1116 33.9061C78.9547 34.2828 79.0331 34.7379 79.2921 35.0596C78.8291 35.3264 78.5231 35.6717 78.4446 36.0169C78.3897 36.268 78.4682 36.5191 78.6643 36.731C78.3269 36.9193 78.272 37.0998 78.2014 37.3274C78.1857 37.3744 78.17 37.4294 78.1464 37.4843C78.0994 37.6255 78.0287 37.7511 77.9503 37.8766C77.8483 38.0493 77.7462 38.2298 77.6835 38.4495C77.6756 38.4965 77.6756 38.5436 77.6835 38.5907C77.605 38.5986 77.5187 38.6142 77.4324 38.6613C77.142 38.8026 76.8909 38.936 76.6477 39.0772C76.3966 39.2263 76.2083 39.4068 76.0278 39.5716C75.8709 39.7207 75.7218 39.854 75.5413 39.9717C75.0548 40.2856 74.8665 40.4739 74.5526 40.8271C74.223 41.1959 74.0661 41.3214 73.4933 41.4783C73.2422 41.549 73.0303 41.6353 72.8184 41.7216C72.5752 41.8236 72.3476 41.9178 72.0965 41.9727C72.0024 41.9884 71.9004 41.9962 71.7827 42.0041C71.6493 42.0119 71.5002 42.0198 71.3432 42.0433C71.1078 42.0904 70.9038 42.1689 70.7312 42.2316C70.6527 42.263 70.5742 42.2944 70.4958 42.318C69.3031 42.7103 66.0152 43.1419 65.7877 43.1576C65.67 43.1654 65.5601 43.1497 65.4189 43.134C65.3169 43.1183 65.1913 43.1026 65.0579 43.0948C64.5086 43.0712 64.0692 43.0242 63.5513 42.9692L63.2061 42.93C63.1668 42.9222 63.1276 42.9222 63.0884 42.9222C63.0177 43.0556 62.9393 43.1889 62.853 43.3223C62.9314 43.3302 63.0099 43.3302 63.0805 43.338L63.4258 43.3773C63.9358 43.4322 64.4223 43.4871 65.003 43.5107C65.0893 43.5107 65.1678 43.5264 65.2619 43.5421C65.4346 43.5656 65.6229 43.5891 65.8583 43.5734C66.1172 43.5577 69.4914 43.1262 70.8175 42.6868C70.9117 42.6554 71.0058 42.6161 71.1 42.5847C71.2569 42.522 71.3982 42.467 71.5473 42.4357C71.6257 42.42 71.7277 42.4121 71.8376 42.4121C71.9788 42.4043 72.1436 42.3964 72.3162 42.365C72.6615 42.2944 72.9361 42.1767 73.2108 42.0669C73.407 41.9884 73.5874 41.9099 73.7758 41.855C74.5369 41.6431 74.7801 41.4391 75.1568 41.0154C75.455 40.678 75.6119 40.5289 76.0435 40.2464C76.2632 40.1051 76.4358 39.9404 76.6006 39.7913C76.7732 39.6343 76.9302 39.4852 77.1342 39.3597C77.3382 39.2341 78.1621 38.9987 78.3191 38.834C78.4132 38.7398 78.4917 38.1591 78.5859 38.0022C78.6643 37.861 78.7506 37.7197 78.8056 37.5628C78.8291 37.5 78.8448 37.4451 78.8605 37.398C78.9311 37.1547 78.9547 37.0841 79.2999 36.9507C79.3784 36.9193 79.4333 36.8644 79.449 36.8095C79.4647 36.7545 79.4412 36.6918 79.3784 36.6447C79.1508 36.4721 79.0645 36.2759 79.1038 36.064C79.1665 35.7737 79.4804 35.4677 79.9198 35.2637C79.9904 35.2323 80.0375 35.1773 80.0532 35.1224C80.0689 35.0675 80.0454 35.0126 79.9904 34.9655C79.7237 34.7536 79.6216 34.322 79.7629 34.0003C79.8257 33.8591 79.9591 33.6707 80.2494 33.5844C80.3749 33.553 80.4534 33.4746 80.4534 33.3883C80.4534 33.3019 80.1788 32.9881 80.6103 32.3603C80.6653 32.2819 80.7045 32.2191 80.728 32.1877C80.7908 32.0621 80.7594 31.9758 80.7437 31.9131C80.728 31.866 80.728 31.8581 80.7908 31.811C80.9948 31.6384 82.266 31.0185 82.1719 30.9322C82.062 30.838 81.3636 30.8459 81.191 30.8067Z" fill="#886A4E"/>
<path d="M49.0113 31.9915C48.98 31.8581 48.9564 31.7247 48.9329 31.5992C48.8858 31.3167 48.8152 30.8851 48.7995 30.8537C48.7289 30.7282 48.6425 30.0926 48.6269 30.0926C48.5092 30.0612 48.156 29.763 48.1247 29.6061C48.0697 29.3314 47.6695 28.7743 47.6303 28.7115C47.5675 28.6252 47.285 28.327 47.2223 28.2329C47.1517 28.1387 47.1124 28.0289 47.0732 27.9425C47.0418 27.8719 47.0104 27.8013 46.979 27.7464C46.877 27.6051 46.7122 27.4874 46.5396 27.3697C46.3827 27.2677 46.2257 27.1579 46.108 27.0166C45.5744 26.3967 45.2056 26.0044 44.5308 25.6277C44.4366 25.5806 44.3425 25.5493 44.2405 25.5257C44.1306 25.4943 44.0129 25.4629 43.8952 25.408C43.8011 25.3531 43.7304 25.2825 43.6677 25.2118C43.6206 25.1648 43.5813 25.1177 43.5421 25.102C43.4793 25.0706 43.4087 25.0628 43.3224 25.0549C43.291 25.0549 43.2675 25.0471 43.2361 25.0471C43.3067 25.0863 43.3695 25.1412 43.4166 25.1805C43.4558 25.2118 43.4872 25.2432 43.5264 25.2668C43.6049 25.3139 43.6834 25.3688 43.7618 25.4159C43.9894 25.5571 44.2248 25.7062 44.4288 25.8788C44.7819 26.1692 45.0095 26.4595 45.2527 26.7655C45.4332 26.9931 45.7314 27.3697 46.0296 27.5737C46.2885 27.7542 46.7985 28.531 46.8613 28.586C47.1046 28.79 47.4812 29.4256 47.544 29.5276C47.6774 29.7552 47.8186 29.967 47.9677 30.1946C48.054 30.328 48.0305 30.4614 48.1168 30.6026C48.156 30.6575 48.2502 30.8066 48.3051 30.8772C48.415 31.0106 48.6112 32.0307 48.619 32.0621C48.7759 32.5879 49.0584 32.8625 49.1055 32.8782C49.1212 32.8703 49.1369 32.3289 49.0192 32.0464L49.0113 31.9915Z" fill="#886A4E"/>
<path d="M75.1098 32.2583C75.0863 32.3132 75.0706 32.3603 75.0627 32.3917C75.1648 32.2426 75.2589 32.0857 75.3609 31.9209L75.1098 32.2583Z" fill="#886A4E"/>
<path d="M41.5097 23.5012C41.1409 23.5012 40.6073 22.9598 40.4817 22.8186C40.2542 22.5518 40.0266 22.1987 39.8461 21.8534C39.8069 21.7749 39.7991 21.7043 39.7912 21.6415C39.7834 21.5945 39.7834 21.5631 39.7677 21.5395C39.7598 21.5317 39.289 20.8333 39.2341 20.7862C39.2184 20.7784 38.4651 20.1428 38.3866 20.0094C38.316 19.8917 38.2532 19.774 38.1826 19.6955C38.0492 19.5386 37.9237 19.3738 37.806 19.209C37.4764 18.7618 37.1547 18.3459 36.6603 18.0555C36.5505 17.9928 35.7266 17.4592 35.6246 17.3964C35.4284 17.2709 35.3185 17.0982 35.2087 16.9334C35.1851 16.8942 35.1616 16.855 35.1302 16.8236C35.036 16.6902 34.7222 16.4862 34.628 16.3999C34.5182 16.2978 34.4632 16.188 34.4083 16.0938C34.3691 16.0232 34.3377 15.9526 34.2906 15.9134C34.2514 15.882 33.9296 15.78 33.859 15.7407C33.6158 15.6152 33.0586 15.1365 32.9723 15.0737C32.9095 15.0267 32.5015 14.8933 32.3838 14.807C32.274 14.7206 32.2033 14.6108 32.1327 14.5166C32.0935 14.4617 31.9758 14.3126 31.9522 14.2812C31.7247 14.0223 31.5756 13.8575 31.3323 13.8575C31.3009 13.8575 31.2696 13.8575 31.2303 13.8653C31.2303 13.8653 31.0655 14.752 31.3088 14.9482C31.3402 14.9717 31.3716 14.9953 31.3951 15.0188C31.6776 15.2385 31.8895 15.4425 32.1798 15.725C32.2975 15.8349 32.4387 15.929 32.5957 16.0311C32.7369 16.1252 32.8782 16.2115 33.0116 16.3292C33.1528 16.4548 33.2627 16.5725 33.3568 16.6823C33.553 16.9099 33.6942 17.0668 34.0787 17.161C34.6672 17.3022 35.0282 17.7417 35.3813 18.1575C35.6246 18.4557 36.3778 18.9187 36.4955 18.9972C36.5662 19.0442 36.9664 19.7034 36.9977 19.7505L37.0134 19.7661C37.4293 20.3233 37.6961 20.4567 37.6961 20.4567C37.6961 20.4567 38.3239 21.155 38.677 21.3198L38.7868 21.516C38.7633 21.7592 38.8967 21.8691 39.1556 22.0496C39.2106 22.0888 39.3753 22.2144 39.4067 22.2379C39.5872 22.3791 39.8305 22.5753 40.0266 22.6381C40.0266 22.6381 40.5681 23.2266 40.8113 23.3992C40.8741 23.4463 41.0389 23.5012 41.1801 23.5562C41.3606 23.6189 41.5411 23.6817 41.6745 23.768C41.6666 23.7445 41.6666 23.7288 41.6588 23.7053C41.596 23.4071 41.8785 23.4698 41.7922 23.3051C41.7058 23.1324 41.5489 23.5012 41.5097 23.5012Z" fill="#886A4E"/>
<path d="M47.0495 30.7596C47.0024 30.6419 46.971 30.5399 46.9396 30.4379C46.9004 30.3123 46.869 30.1946 46.8062 30.0769C46.7199 29.9121 46.6022 29.7316 46.5002 29.5747L46.4845 29.5512C46.3668 29.3707 46.1942 29.1981 46.0058 29.0254C45.9038 28.9234 45.8018 28.8293 45.6998 28.7194C45.5978 28.6017 45.488 28.5311 45.3781 28.4605C45.229 28.3585 45.0642 28.2486 44.9073 28.0367C44.8524 27.9583 44.7974 27.8876 44.7425 27.817C44.5934 27.613 44.4522 27.4247 44.2795 27.2285C44.2089 27.15 44.1226 27.0716 44.0284 26.9931C43.9186 26.8989 43.8087 26.7969 43.7146 26.6871C43.6126 26.5615 43.5576 26.436 43.5184 26.3183C43.487 26.2398 43.4635 26.1692 43.4242 26.1064C43.3458 25.9809 43.2045 25.8082 43.0633 25.6356C43.0005 25.565 42.9377 25.4865 42.8828 25.4159C42.9456 25.5571 43.0084 25.7062 43.0711 25.8475C43.2281 26.1927 43.3772 26.5223 43.4399 26.8519C43.5027 27.1736 43.644 27.4011 43.8009 27.6601C43.8637 27.7621 43.9264 27.8641 43.9892 27.9818C44.0598 28.1152 44.0991 28.2486 44.1305 28.3741C44.154 28.4683 44.1775 28.5546 44.2168 28.6331C44.2795 28.7743 44.3816 28.8842 44.4993 28.994C44.5463 29.0411 44.5856 29.0882 44.6327 29.1353C44.8053 29.3315 44.8602 29.5433 44.9151 29.7316C44.9465 29.8572 44.9779 29.9827 45.0485 30.0926C45.1349 30.2417 45.2526 30.3829 45.3781 30.532C45.5429 30.7282 45.7155 30.9322 45.8175 31.1676C45.8568 31.2539 46.7513 32.8939 46.8141 33.0195C47.4104 34.2436 47.7243 33.404 47.5281 32.533C47.4889 32.3917 47.0652 30.7988 47.0495 30.7596Z" fill="#886A4E"/>
<path d="M17.365 38.6613C17.1296 38.7633 16.9884 38.8889 16.7922 39.0223C16.5333 39.2027 16.2508 39.3675 15.9683 39.5245C15.6387 39.7049 15.3876 39.9717 15.0581 40.1444C14.807 40.2777 14.4931 40.4268 14.2028 40.5524C13.9281 40.6701 13.5907 40.7093 13.3945 40.8741C13.6849 40.929 13.9438 40.7486 14.1478 40.6779C14.3362 40.6073 14.548 40.5367 14.7363 40.4896C14.9717 40.4268 14.9247 40.2934 15.1836 40.2385C15.4582 40.1836 15.3798 40.1679 15.5367 40.011C15.6858 39.8697 15.9683 39.6422 16.1958 39.548C16.4783 39.4381 16.753 39.3597 17.0041 39.2263C17.2238 39.1086 17.4043 38.7947 17.6475 38.7084C17.8908 38.6221 18.0869 38.4965 18.291 38.3788V38.0649C18.1732 38.1513 18.0634 38.2297 17.9928 38.2925C17.8123 38.4651 17.6161 38.5514 17.365 38.6613Z" fill="#886A4E"/>
<path d="M69.8681 40.5759C70.0878 40.5759 71.1079 40.6936 71.461 40.7878C71.8063 40.8741 72.332 40.9055 72.6067 40.9212C71.5316 40.8349 68.8245 40.2621 68.4949 40.2307C67.9849 40.1836 67.2002 40.0894 66.698 39.9953C66.1409 39.8933 65.7485 39.7756 65.2071 39.6422C64.6343 39.5009 64.2105 39.548 63.6299 39.4852V39.6265C63.7397 39.6422 63.8496 39.6579 63.9673 39.6657C64.187 39.6814 65.2306 39.7363 65.3719 39.854C65.4896 39.9482 65.9839 40.2307 66.0624 40.3327C66.3998 40.7407 67.4434 42.1218 67.9927 42.6397C67.8436 42.1688 66.4312 40.4033 66.2193 40.0659C66.7137 40.1758 67.1296 40.1993 67.4356 40.2699C68.2203 40.4112 69.0128 40.5681 69.8681 40.5759Z" fill="#886A4E"/>
<path d="M23.9407 37.7825C23.9956 37.806 24.0505 37.8374 24.1055 37.8609C24.1996 37.7746 24.2859 37.6961 24.3879 37.602C24.3566 37.5471 24.3173 37.4843 24.2859 37.4215C24.1839 37.5392 24.0662 37.6569 23.9407 37.7825Z" fill="#886A4E"/>
<path d="M8.10571 27.9269C8.79623 28.4683 10.8678 29.6061 11.4485 29.9671C11.8957 30.2495 12.6412 30.6576 13.1277 30.8851C13.7005 31.1519 14.2341 31.4815 14.752 31.8032C15.2856 32.1328 15.6308 32.4074 16.2272 32.6821C16.8235 32.9567 17.4748 33.5374 17.9456 33.9454C18.0006 33.9925 18.1261 34.0866 18.2752 34.2043V33.8669C17.8122 33.4824 17.3885 33.1372 17.0982 32.9567C16.8392 32.7919 16.5018 32.7056 16.235 32.5487C15.8898 32.3603 15.6544 32.0935 15.3326 31.8974C14.7049 31.5207 13.9908 31.3716 13.5436 30.8302C11.7231 29.865 11.7309 29.7317 11.3465 29.6139C10.7344 29.4335 9.3769 28.5939 8.10571 27.9269Z" fill="#886A4E"/>
<path d="M15.1835 29.198C14.901 29.0411 14.1634 28.5781 13.9044 28.3663C13.6298 28.1387 13.1668 27.8876 12.9236 27.7542C13.465 28.0681 14.438 28.7665 15.207 29.3314C15.1992 29.2765 15.1913 29.2373 15.1835 29.198Z" fill="#886A4E"/>
<path d="M63.4966 41.8628C63.8497 41.9491 64.1714 42.0276 64.4147 42.0825C64.1714 42.0197 63.8575 41.9491 63.4966 41.8628Z" fill="#886A4E"/>
<path d="M21.9554 35.5304C21.9005 35.5304 21.8456 35.5304 21.7828 35.5304C21.4689 35.5226 20.9824 35.5304 20.6528 35.5383C20.7313 35.6167 20.8176 35.703 20.9039 35.7815C20.951 35.7815 20.9981 35.7737 21.0373 35.7737C21.0295 35.7894 21.0059 35.8286 20.9902 35.86C21.0452 35.9071 21.0923 35.9541 21.1472 36.0012C21.2335 35.8914 21.3355 35.7815 21.4611 35.7266C21.5317 35.6952 21.8063 35.6638 22.23 35.6638C22.2065 35.656 22.183 35.6403 22.1673 35.6324L21.9554 35.5304Z" fill="#886A4E"/>
<path d="M64.4146 42.0747C64.7598 42.1532 64.9717 42.2003 64.9717 42.2003C64.9717 42.2003 64.7598 42.161 64.4146 42.0747Z" fill="#886A4E"/>
<path d="M21.7512 33.0352C21.7512 33.0352 21.9003 33.0822 22.1593 33.1686C21.9003 33.0901 21.7512 33.0352 21.7512 33.0352Z" fill="#886A4E"/>
<path d="M21.7748 31.3795C21.8689 31.3481 22.3005 31.3559 22.4182 31.3402C22.5202 31.3245 22.9361 31.5285 23.2029 31.6619C23.2029 31.6149 23.2029 31.5678 23.2107 31.5207C23.0303 31.4187 22.8498 31.3324 22.6144 31.2539C22.2063 31.1284 21.9082 31.0499 21.5001 30.893C21.1392 30.7596 20.5899 30.5163 20.2368 30.3437C20.0092 30.2338 18.0161 29.5433 17.2864 29.1745C17.4747 29.2765 17.8278 29.4648 18.0868 29.5433C18.3535 29.6296 19.0598 29.9513 19.2088 30.0376C19.7738 30.3672 20.3466 30.5712 20.9116 30.7988C21.1392 30.8694 21.4217 31.0185 21.7826 31.1441C21.508 31.2774 19.8994 31.8738 19.6169 32.1249C20.1662 32.0072 21.3903 31.5207 21.7748 31.3795Z" fill="#886A4E"/>
<path d="M23.2266 33.5138C22.7951 33.3804 22.4184 33.2548 22.1516 33.1685C22.4184 33.2548 22.8029 33.3804 23.2266 33.5216C23.2266 33.5138 23.2266 33.5138 23.2266 33.5138Z" fill="#886A4E"/>
<path d="M24.1055 26.0122C24.0819 26.279 24.2546 26.4909 24.2546 26.7341C24.2703 26.6949 24.286 26.6635 24.3017 26.6243C24.2781 26.483 24.2624 26.3496 24.2546 26.2162C24.2467 25.8082 24.1055 25.3609 23.9486 24.9372C23.8073 24.5606 23.6896 24.2231 23.6111 23.8622C23.5797 23.721 23.5484 23.5562 23.4934 23.3992C23.4542 23.4149 23.415 23.4228 23.3757 23.4385C23.4228 23.4855 23.462 23.5405 23.4699 23.6189C23.4856 23.7602 23.517 24.027 23.6033 24.1839C23.721 24.4036 23.6818 24.3565 23.6896 24.5763C23.6975 24.6547 23.8465 24.9058 23.8622 25C23.8779 25.0785 23.9642 25.2903 23.9956 25.3766C24.0506 25.5571 24.1212 25.8553 24.1055 26.0122Z" fill="#886A4E"/>
<path d="M73.2265 38.5514C73.8621 38.4494 75.4471 38.6299 76.8753 38.677C76.02 38.4887 73.6581 38.3553 72.9754 38.2768C72.4497 38.214 71.6022 38.167 71.0686 38.1748C70.433 38.1826 69.8131 38.112 69.2089 38.0414C68.589 37.9786 68.1574 37.8766 67.4983 37.8845C66.8392 37.8923 66.0074 37.6491 65.4032 37.4843C65.1835 37.4215 64.3282 37.2567 63.6455 37.1155V37.3116C64.6813 37.5706 65.976 37.9394 66.5959 38.0179C66.9019 38.0571 67.2394 37.9943 67.5532 38.01C67.9456 38.0336 68.2673 38.1748 68.6439 38.2062C69.3737 38.2768 70.0878 38.0963 70.7155 38.4024C72.7792 38.4887 72.8341 38.6221 73.2265 38.5514Z" fill="#886A4E"/>
<path d="M18.4871 24.4664C17.7966 24.0819 17.1139 23.666 16.4312 23.2737C16.6745 23.5719 17.1531 23.8151 17.5219 24.0427C17.93 24.2938 18.4086 24.4821 18.8245 24.694C19.311 24.9372 19.6014 24.9529 20.0879 25.2118C20.3311 25.3452 20.5508 25.3923 20.7941 25.4943C20.8098 25.5022 21.414 25.8396 21.4375 25.8553C21.5709 26.0279 21.8142 26.3496 22.1045 26.585C22.591 26.9774 22.7166 27.2834 22.8186 27.456C22.8813 27.5659 23.6032 28.1544 23.5719 28.2172C23.4777 28.3898 22.387 27.8876 22.3085 27.8562C21.7122 27.5894 20.441 27.1814 19.8682 26.9225C19.3189 26.6792 18.8402 26.279 18.2596 25.9887C17.9692 25.8474 17.9692 25.6591 17.6475 25.4865C17.4435 25.3766 15.8349 24.5135 15.6858 24.4742C16.7294 25.1177 18.7617 26.4438 19.8525 27.0009C20.4174 27.2834 20.8882 27.4874 21.4611 27.6365C21.6337 27.6836 23.2344 28.3192 23.6817 28.4761C23.6974 28.4055 23.7131 28.3427 23.7366 28.2721C23.7131 28.2407 23.6896 28.225 23.6817 28.2172C23.6268 28.1701 23.2815 27.7228 23.2109 27.6679C23.1324 27.6051 23.0775 27.5502 23.0304 27.4796C22.9833 27.409 22.9363 27.3619 22.8656 27.307C22.7244 27.1736 22.6616 27.048 22.5361 26.9068C22.489 26.8518 22.2614 26.6007 22.2222 26.5615C22.1987 26.5301 22.1987 26.5223 22.183 26.4987C22.1359 26.4124 22.1516 26.3182 22.1437 26.2398C22.1359 26.1535 22.128 26.0593 22.1202 25.973C22.0653 25.3923 21.9868 24.8038 21.8848 24.2153C21.8769 24.1525 21.8612 24.0819 21.8456 24.0191C21.8142 24.0348 21.7906 24.0505 21.7592 24.0662C21.9868 24.8352 21.8691 24.4507 21.8926 24.5684C22.0103 25.1962 22.026 25.973 21.9946 26.3104C21.9633 26.2712 21.2884 25.4786 20.5901 24.6626C20.5508 24.6783 20.5116 24.694 20.4724 24.7018C20.5351 24.7724 20.5979 24.843 20.6842 24.9137C20.747 24.9764 21.155 25.4786 21.2413 25.5571C20.9039 25.4473 19.7504 24.9372 19.5307 24.843C19.1776 24.7018 18.8402 24.6547 18.4871 24.4664Z" fill="#886A4E"/>
<path d="M64.2656 32.4074C64.4225 32.1406 64.603 31.8581 64.7913 31.5991C65.011 31.2931 65.1209 30.9479 65.3484 30.6497C65.5211 30.4221 65.7329 30.1553 65.9448 29.9199C66.141 29.7002 66.4313 29.5197 66.5333 29.2765C66.2508 29.355 66.086 29.6296 65.937 29.7787C65.7957 29.9199 65.6388 30.0769 65.4897 30.2024C65.3014 30.3672 65.4034 30.4614 65.1915 30.6183C64.9718 30.7909 65.0503 30.7674 64.9718 30.9714C64.9012 31.1676 64.7442 31.4893 64.5795 31.6698C64.3754 31.8895 64.1557 32.0778 63.9909 32.3054C63.8576 32.4937 63.8183 32.8154 63.6614 33.0116V33.2941C63.732 33.1921 63.8105 33.09 63.9125 32.9802C64.0694 32.784 64.1479 32.6114 64.2656 32.4074Z" fill="#886A4E"/>
<path d="M61.4956 23.5562C58.4039 22.4419 56.9679 21.6572 56.4344 21.3669C55.0455 20.6215 53.3584 19.7975 53.0995 19.2561C52.4953 18.0006 54.865 17.4043 55.7517 16.6588C56.3088 16.2194 56.7404 15.3955 56.8267 14.5402C56.8659 14.1557 56.8267 12.4137 56.8267 12.4137C56.7796 11.9742 56.7404 11.1739 56.5991 10.397C56.1754 8.1293 54.9749 6.2853 53.5938 4.91995C51.4281 2.90331 48.4934 1.50658 45.4959 0.831749C45.08 0.745434 44.6484 0.666965 44.209 0.596344C43.4949 0.478641 42.7966 0.392326 42.1217 0.337399C41.596 0.298164 41.0624 0.282471 40.521 0.282471C34.5966 0.282471 29.2059 2.57374 25.1883 6.30884C24.2231 7.49371 22.7558 9.14939 21.5709 11.8095C19.672 16.0703 19.6327 19.0364 19.8211 21.5081C19.9937 23.7131 20.2605 24.3879 21.0844 24.2702C21.257 24.2467 22.1045 23.8779 22.2693 23.7837C23.0383 23.4228 25.306 22.5596 25.7768 22.7401C25.8631 22.7715 25.9573 22.8892 25.9573 22.8892C26.075 23.2109 25.9494 23.5012 25.8082 24.0898C25.7768 24.2231 25.6826 24.4193 25.6512 24.5606C25.5649 24.9529 25.3609 25.4394 25.149 25.9573C24.9136 26.5301 24.6469 27.1814 24.4821 27.8248C23.8465 30.2574 23.9014 31.607 23.9406 32.8076C24.027 35.3029 24.8352 37.2253 26.2633 38.7869C27.4011 39.2027 28.6487 39.5715 29.9827 39.8854L29.9435 39.6579C29.9278 39.5559 29.9984 39.4617 30.1004 39.446C30.2024 39.4303 30.2966 39.5009 30.3123 39.6029L30.3672 39.9796C30.532 40.0188 30.6968 40.0502 30.8615 40.0894L30.6889 38.983C30.6732 38.881 30.7438 38.7869 30.8458 38.7712C30.9479 38.7555 31.042 38.8261 31.0577 38.9281L31.2539 40.1758C31.3951 40.2071 31.5442 40.2307 31.6855 40.2621L31.6305 39.8854C31.6148 39.7834 31.6855 39.6892 31.7875 39.6736C31.8895 39.6579 31.9836 39.7285 31.9993 39.8305L32.0778 40.3327C32.5172 40.4112 32.9723 40.4896 33.4275 40.5524L33.4118 40.4347C33.3961 40.3327 33.4667 40.2385 33.5687 40.2228C33.6707 40.2071 33.7649 40.2778 33.7806 40.3798L33.812 40.6073C36.064 40.929 38.473 41.1017 40.9526 41.1017C43.8324 41.1017 46.6101 40.8663 49.1525 40.4504C48.8386 39.909 48.6503 39.7363 47.9284 39.1949C47.0966 38.575 46.8691 38.2847 46.7278 37.4529C46.5944 36.6682 45.8961 36.3857 45.6764 35.6795C45.7548 35.6011 45.8333 35.5226 45.9039 35.4598C45.9275 35.4677 45.951 35.4677 45.9667 35.4755V35.4677C45.9824 35.3578 45.9981 35.2479 46.0138 35.1381V35.1302C45.9902 34.989 45.9588 34.8478 45.9039 34.7144C45.7941 34.6359 45.6842 34.5339 45.5116 34.4005C45.1428 34.118 44.5856 33.7727 43.9814 33.7335C43.9108 33.7257 43.7539 33.7335 43.6833 33.7492C43.6676 33.7492 41.5725 34.1415 40.8741 34.2671C40.6465 34.3063 40.3013 34.3926 40.058 34.4083C39.8305 34.424 39.6029 34.4711 39.3754 34.4633C39.0772 34.4476 38.7162 34.479 38.4023 34.479C37.6726 34.479 36.9978 34.4162 36.2523 34.3848C35.4519 34.3534 34.7143 34.479 33.9218 34.479C33.6001 34.479 33.3098 34.5103 32.9959 34.526C32.6663 34.5417 32.376 34.6594 32.0386 34.6594C31.4971 34.7693 30.9871 34.7693 30.5241 34.6359C29.3942 34.6516 28.4604 34.479 28.1465 34.3613C27.66 34.1729 27.3462 33.9689 26.9303 33.6786C26.5379 33.3961 26.2555 32.9959 25.8945 32.6742C25.8317 32.8782 25.9808 33.7257 27.5266 34.7614C27.8641 34.989 28.7037 35.1773 29.0882 35.2244C29.4962 35.2715 29.8022 35.2401 30.2181 35.2401C30.4849 35.2401 32.1249 35.1852 32.4388 35.1695C32.8076 35.1459 33.1057 35.0518 33.451 35.0047C33.7256 34.9733 34.73 34.8164 34.989 34.8399C35.3185 34.8634 35.4833 34.8556 35.8207 34.8478C36.1189 34.8399 37.445 34.8321 37.7903 34.8634C38.2297 34.9027 40.3091 34.8478 40.9604 34.6751C41.1723 34.6202 42.161 34.4162 42.3807 34.3377C42.5062 34.2985 42.6239 34.2828 42.7573 34.2749C42.1453 34.8085 41.4783 35.5618 40.4896 35.7344C38.8967 36.0091 39.3126 36.0091 38.6927 36.1503C38.0728 36.2916 36.7545 36.7702 35.8521 36.2916C34.9497 35.8051 30.3829 36.4328 29.2137 36.4328C28.0367 36.4328 25.9573 36.064 25.408 34.7693C24.2074 31.9523 24.8116 29.0882 25.0863 27.9896C25.2354 27.3933 25.5022 26.7969 25.7219 26.2084C26.4673 24.2231 27.0951 21.1943 27.0951 21.1943C27.1343 20.9196 27.2049 20.4959 27.5266 20.0722L27.5423 20.0408C27.7463 19.7034 28.0602 19.4209 28.3584 19.1462C28.3976 19.107 28.4447 19.0678 28.484 19.0364C27.9582 19.876 27.8719 20.7156 27.8719 20.7156C27.4403 21.9554 27.66 22.8813 27.6051 23.2031C27.6051 23.2815 27.5973 23.3521 27.6051 23.4306C27.6286 23.7602 27.5423 23.925 27.456 24.1761C27.4011 24.333 27.4011 24.6626 27.3775 24.8195C27.3226 25.1962 27.3854 25.5022 27.4168 25.9573C27.4246 26.1221 27.5737 26.2947 27.6286 26.4673C27.6914 26.6714 27.8327 26.7184 27.8327 26.9382C27.8327 27.1186 27.7856 27.2363 27.7464 27.3383C27.715 27.4168 27.6914 27.4874 27.6757 27.5973C27.6679 27.6601 27.6836 27.7778 27.6993 27.8798C27.715 27.9739 27.7228 28.0759 27.7228 28.1623C27.7228 28.7037 27.817 29.0489 28.0759 29.4962C28.2093 29.7238 28.2878 29.967 28.3741 30.2024C28.4526 30.4457 28.531 30.6732 28.6644 30.8694C29.3549 31.913 29.2686 31.709 29.8022 32.4152C30.1318 32.8625 30.9243 33.3333 31.0656 33.4118C31.2068 33.4903 32.3995 33.3804 32.5251 33.8041C32.5329 33.8198 33.3019 33.8826 33.7884 33.9846C34.4475 34.1258 35.5696 33.6472 36.0875 33.2235C36.7074 32.7134 37.1233 30.8537 37.4921 31.4108C37.8609 31.9601 37.2018 33.2784 37.2018 33.2862C37.0056 33.71 36.8879 34.2357 37.2096 34.3142C37.7118 34.3848 38.1356 34.0788 38.3945 33.757C38.9281 33.1058 38.6378 32.2975 39.3832 31.6541C40.1286 31.0107 39.5637 32.9724 40.0109 33.4432C40.5053 33.9532 41.031 34.0866 41.3057 33.3961C41.3057 33.3882 41.3685 32.4702 41.3841 32.376C41.3841 32.376 41.4312 32.1249 41.8157 32.1484C42.2081 32.172 41.9648 32.6506 41.9491 32.6899C41.9334 32.7291 41.8863 32.9567 41.8628 33.0194C41.8393 33.2627 41.8157 33.5138 41.902 33.6472C42.059 33.8747 42.6239 33.8747 42.8358 33.7492C43.1811 33.5452 43.3929 31.6776 43.4165 31.4265C43.44 31.1754 43.5106 30.8773 43.7853 30.7752C44.0599 30.6732 44.0913 31.2618 44.2404 31.5442C44.3973 31.8424 44.7661 32.7919 44.8211 32.8704C45.0643 33.2156 45.6136 33.9689 45.8961 33.1842C45.951 33.0273 45.386 32.1171 45.2134 31.7483C45.0329 31.3795 45.1114 30.9871 45.0172 30.8773C44.8838 30.7203 44.774 30.4692 44.672 30.2887C44.5778 30.1318 44.5386 29.9749 44.4993 29.8336C44.4523 29.6688 44.413 29.5276 44.3032 29.3942C44.2639 29.355 44.2247 29.3079 44.1855 29.2687C44.0599 29.1431 43.9187 28.994 43.8324 28.79C43.7853 28.6723 43.7539 28.5703 43.7303 28.4683C43.699 28.3584 43.6754 28.2643 43.6283 28.1623C43.5734 28.0524 43.5106 27.9504 43.4479 27.8562C43.2752 27.5737 43.1183 27.307 43.0398 26.9225C42.9849 26.6321 42.8437 26.3261 42.6946 25.9965C42.4592 25.4708 42.2081 24.9215 42.2316 24.333V24.2781L42.0825 24.3252C42.0433 24.333 42.004 24.3408 41.957 24.3408C41.8628 24.3408 41.5332 24.1368 41.5332 24.1368C41.4862 24.0662 40.0109 23.7994 39.6892 23.823C39.1792 23.87 38.7633 23.9093 38.2297 23.7916C37.037 23.5326 35.7501 23.7837 34.4789 23.7366C33.7413 23.7053 33.0194 23.9171 32.2975 23.7602C31.7639 23.6425 30.9165 23.5719 30.3986 23.823C30.1553 23.9407 29.6688 25.0784 29.2686 24.8195C28.8684 24.5606 29.457 23.8151 29.3706 23.7523C29.2686 23.6817 29.1509 23.6189 29.0411 23.5562C28.7194 23.3521 28.6095 23.0147 28.9391 22.8107C29.198 22.6538 30.0298 22.5596 30.328 22.5361C30.634 22.5125 30.8458 22.4105 31.1519 22.3399C31.505 22.2614 31.8973 22.1516 32.2426 22.2144C32.5094 22.2614 32.6977 22.4027 33.0116 22.4184C33.2784 22.4341 33.5922 22.3713 33.8512 22.4262C34.0866 22.4811 34.3141 22.693 34.5417 22.7401C34.9654 22.8264 35.4519 22.7009 35.8914 22.7401C36.2523 22.7715 36.6839 22.8892 37.0998 22.9363C37.5784 22.9912 37.8295 23.1717 38.2533 23.3443C38.6456 23.5012 39.1556 23.5719 39.5637 23.6582C39.8069 23.7053 39.9639 23.2501 39.8226 22.9755C39.5794 22.8813 39.3361 22.6852 39.1635 22.5361C39.1321 22.5125 39.1086 22.489 39.0772 22.4655C39.0301 22.4262 38.983 22.3948 38.9281 22.3556C38.7005 22.1908 37.6569 21.0766 37.4607 20.7941C37.3116 20.7235 37.1076 20.5273 36.7074 19.9937L36.6917 19.978C36.6368 19.8995 36.4799 19.8289 36.4406 19.7426C36.4014 19.672 36.064 19.3032 35.9934 19.2561C35.6246 19.0442 35.3499 18.7147 35.091 18.4086C34.7693 18.0242 34.4632 17.6553 33.9924 17.5376C33.4902 17.4121 33.3568 17.2002 33.1371 16.9491C33.0508 16.8471 32.9723 16.7451 32.8546 16.6353C32.7448 16.5411 32.6035 16.392 32.4701 16.3057C32.3054 16.2037 32.1013 16.1174 31.9209 15.9918C31.6855 15.827 31.3951 15.7329 31.2146 15.5838C31.1833 16.494 30.5241 16.6902 30.1082 17.1767C30.0769 17.2159 30.0455 17.2473 30.0062 17.2866C30.171 16.753 30.3829 15.1679 30.3829 15.1679L30.3044 15.0737C30.2259 14.9796 30.0926 13.5672 30.9008 13.1748C30.9165 13.1748 30.9322 13.167 30.9557 13.1591L31.1833 13.1277L31.2303 12.9002C31.2774 12.6648 31.3951 12.4843 31.5521 12.3744C31.6776 12.2881 31.8973 12.2567 32.3132 12.2567C32.3524 12.2567 32.3838 12.2567 32.4231 12.2646C32.6899 12.3117 32.8546 12.398 32.988 12.4764L33.1214 12.5549L33.2627 12.5C33.6472 12.3587 34.118 12.1233 34.2985 11.9978C34.6829 11.7388 34.9419 11.7153 35.2165 11.6839C35.3028 11.6761 35.9463 11.6761 36.3936 11.6447C37.4293 11.5584 38.0963 9.91053 39.6265 9.40049C41.1566 8.89044 40.8819 8.9846 41.4155 8.89044C42.0433 8.78059 43.0477 8.63934 44.1933 8.75705C45.2134 8.85906 47.7087 8.78059 48.87 8.60796C50.0313 8.43533 52.1265 8.01944 53.4369 8.52949C54.198 8.82767 55.3829 10.1773 55.5712 10.8835C55.5634 10.8757 55.5634 10.8678 55.5555 10.86C55.3044 10.5854 54.5276 10.0675 53.4996 9.88699C53.0916 9.81637 52.66 9.82421 52.2442 9.80067C51.9774 9.78498 50.4865 9.82422 50.1726 9.82422C49.8038 9.81637 49.4978 9.89484 49.1525 9.91838C48.8779 9.93407 46.9319 9.98115 46.6023 9.9733C46.3041 9.96546 46.0216 9.83991 45.7313 9.84776C45.4017 9.8556 43.8951 9.67513 43.4636 9.59666C43.3694 9.58096 41.8863 9.61235 41.5254 9.68297C41.3135 9.72221 41.086 9.73005 40.8584 9.76144C40.6308 9.80067 39.7442 9.989 39.5009 10.0125C39.3754 10.0282 39.2577 10.0596 39.1478 10.0832C40.058 10.1538 41.3606 10.0989 41.6039 10.0989C41.8079 10.0989 42.1924 10.0989 42.5612 10.1695C42.7652 10.0675 42.9927 10.0596 43.2203 10.091C43.3145 10.1067 43.4008 10.1302 43.4949 10.1538C43.5342 10.1616 43.5813 10.1773 43.6205 10.1852C43.644 10.193 43.6597 10.193 43.6833 10.2009H43.6911C43.699 10.2009 43.7303 10.2087 43.746 10.2087C43.7696 10.2087 43.7931 10.2087 43.8167 10.2087C43.8716 10.2087 43.9187 10.2087 43.9736 10.2087C44.0835 10.2087 44.2012 10.2087 44.311 10.2166C44.3424 10.2166 44.3738 10.2244 44.413 10.2323C44.3738 10.2166 44.3267 10.2009 44.2796 10.1852C44.7426 10.2166 46.1079 10.3264 46.3276 10.35C47.128 10.4441 50.2197 10.3421 50.5649 10.3656C51.2084 10.4127 51.9067 10.397 52.5345 10.4912C53.0995 10.5775 53.5624 10.6481 54.0803 10.8835C54.559 11.1032 55.0141 11.472 55.4064 11.7938C55.6261 11.9742 55.8615 12.1626 56.0891 12.3587C56.144 13.1199 56.2068 14.2498 56.1833 14.4695C56.1048 15.1758 55.7281 15.8113 55.3201 16.1645C55.0612 16.3842 54.8336 16.4862 54.606 16.6431C54.1352 16.8785 52.8797 17.3886 52.6914 17.7495C52.1814 18.7068 52.715 19.8132 52.7542 19.8917C52.8327 20.08 54.5982 20.9667 56.0969 21.8377C56.6776 22.1673 57.9566 22.8656 60.3342 23.7994C59.1101 24.1761 57.3211 24.8744 56.6541 25.1648C56.5521 25.1962 56.144 25.4316 56.0185 25.4708C56.0185 25.5728 56.9836 26.3261 57.1955 26.64C57.3917 26.9382 57.3132 27.2834 57.4466 27.5816C57.6506 27.4325 57.9331 27.3305 58.0037 27.0872C58.0743 26.844 57.9645 26.483 57.8625 26.279C57.7526 26.0515 57.6428 25.769 57.4388 25.6199C57.2426 25.4865 57.0386 25.4865 56.8189 25.3531C57.8076 25.1569 60.3813 24.6783 60.3813 25.0157C60.3813 25.4316 59.2043 27.0245 58.3098 27.2991C57.4074 27.5737 56.0263 28.6174 55.3358 29.1666C54.6453 29.7238 53.4683 31.2382 51.8754 31.3088C51.2162 31.3402 50.8788 31.3245 50.7297 31.3167C50.7376 31.3167 50.7454 31.3088 50.7454 31.3088C50.7297 31.3167 50.714 31.3245 50.6983 31.3245C50.5963 31.3481 50.4943 31.3402 50.3845 31.3402C50.2197 31.3402 50.047 31.3402 49.8823 31.3481C49.7567 31.3559 49.6312 31.3559 49.5056 31.3402L49.537 31.5128C49.5527 31.607 49.7881 32.8076 49.3408 33.0822C49.4428 33.1764 49.4821 33.3255 49.4507 33.4667C49.3722 33.8355 49.2702 34.2122 49.027 34.5025C48.9956 34.5339 48.9642 34.5653 48.9328 34.5967C49.0113 34.5496 49.0662 34.5182 49.0819 34.5103C48.87 34.7771 48.1324 35.4049 47.8656 35.6089C47.6616 35.7658 47.5439 35.8286 47.6616 36.1111C47.7479 36.323 49.129 38.5672 49.3879 38.9203C49.6939 39.3518 49.9764 39.8069 50.2668 40.2464C50.3609 40.2307 50.4472 40.2071 50.5414 40.1914C50.5335 40.1679 50.5335 40.1522 50.5257 40.1287C50.4786 39.9247 50.4315 39.7991 50.3452 39.6029C50.1569 39.1557 50.1647 39.2106 49.9215 38.7869C49.6704 38.3553 49.4036 37.9473 49.1917 37.4921C49.0976 37.2881 49.0034 37.0841 48.87 36.8879C48.7288 36.6761 48.5326 36.5662 48.4855 36.2837C48.4071 35.86 49.8195 37.1547 50.2354 37.9159C50.6042 38.5907 50.9573 39.1321 51.1299 40.0737C52.2363 39.8383 53.2878 39.5637 54.2765 39.2577L54.1745 38.6142C54.1588 38.5122 54.2294 38.4181 54.3314 38.4024C54.4334 38.3867 54.5276 38.4573 54.5433 38.5593L54.6374 39.1478C54.763 39.1086 54.8885 39.0615 55.0141 39.0223L54.7473 37.2881C54.7316 37.1861 54.8022 37.0919 54.9042 37.0763C55.0062 37.0606 55.1004 37.1312 55.1161 37.2332L55.375 38.9046C55.532 38.8496 55.6811 38.7947 55.8302 38.7398L55.6183 37.3823C55.6026 37.2803 55.6732 37.1861 55.7752 37.1704C55.8772 37.1547 55.9714 37.2253 55.9871 37.3274L56.1833 38.6064C56.2696 38.575 56.3637 38.5358 56.4501 38.4965C56.505 38.4259 56.5599 38.3631 56.6148 38.2925L56.246 35.8992C56.2303 35.7972 56.301 35.7031 56.403 35.6874C56.505 35.6717 56.5991 35.7423 56.6148 35.8443L56.9287 37.8766C57.0621 37.6883 57.2034 37.5 57.3446 37.296L56.9679 34.8399C56.9523 34.7379 57.0229 34.6437 57.1249 34.628C57.2269 34.6124 57.3211 34.683 57.3367 34.785L57.6585 36.8487C57.7605 36.6918 57.8703 36.5348 57.9802 36.3622L57.6349 34.1023C57.6192 34.0003 57.6899 33.9061 57.7919 33.8904C57.8939 33.8747 57.988 33.9454 58.0037 34.0474L58.2862 35.8914C58.3019 35.8678 58.3176 35.8443 58.3333 35.8129C58.4667 35.601 58.5922 35.3892 58.7178 35.1852L58.5295 33.9768C58.5138 33.8747 58.5844 33.7806 58.6864 33.7649C58.7884 33.7492 58.8826 33.8198 58.8983 33.9218L59.016 34.6908C59.1808 34.4083 59.3377 34.1415 59.4868 33.8826L59.3691 33.1136C59.3534 33.0116 59.424 32.9174 59.526 32.9017C59.628 32.886 59.7222 32.9567 59.7379 33.0587L59.785 33.3647C59.9184 33.1293 60.0361 32.9096 60.1459 32.6899L60.0518 32.0935C60.0361 31.9915 60.1067 31.8973 60.2087 31.8817C60.3107 31.866 60.4049 31.9366 60.4206 32.0386L60.4362 32.1249C61.8644 29.2059 61.5976 28.2015 61.5976 26.5458C61.5505 24.4036 62.1861 23.6189 61.4956 23.5562ZM37.5549 29.6845C37.4058 29.4884 37.5627 29.2765 37.6412 29.0803C37.704 28.9234 37.8452 28.6331 37.8452 28.4761C37.8452 28.225 36.5662 29.6061 35.8835 29.8258C35.6952 29.9513 35.4833 29.8258 35.2558 29.8101C35.0596 29.7944 34.8163 29.9513 34.6045 29.9749C34.0238 30.0298 33.5844 30.0141 33.0194 30.2103C32.5329 30.3751 31.8895 30.3437 31.4893 30.6183C31.0342 30.9243 31.1205 31.9915 30.3593 31.3481C29.5982 30.7046 31.246 30.1946 31.7325 29.8179C31.9915 29.6218 32.3132 29.5355 32.6192 29.4884C32.7762 29.4648 33.043 29.4256 33.192 29.4491C33.3961 29.4727 33.5216 29.6218 33.7099 29.6532C34.0081 29.7002 34.4946 29.5747 34.8006 29.5354C35.1616 29.4884 35.6952 29.355 36.0091 29.2137C36.4642 29.0176 36.4799 28.79 36.9585 28.1387C37.5 26.8518 39.085 27.0715 39.4224 26.9538C39.2106 27.3069 38.4651 27.5502 38.3396 27.9347C38.1983 28.3506 38.3553 29.559 38.1826 29.9199C38.0728 30.171 37.7275 29.9199 37.5549 29.6845ZM33.2627 26.6949C33.3411 26.5066 34.2985 26.2005 34.4946 26.0907C34.9262 25.8474 35.2087 25.4316 35.7266 25.408C35.9306 25.4002 36.2052 25.6984 36.4171 25.6434C36.7859 25.5493 36.9193 25.0157 37.2959 24.9529C37.9629 24.8352 38.0414 25.2275 38.7241 25.2275C39.2733 25.2275 40.2856 24.639 40.7878 24.5841C41.1644 24.5449 41.4155 24.7803 42.0904 24.6547C42.0904 24.6547 41.9256 25.973 41.8314 26.1692C41.7529 26.3261 41.4077 25.9965 41.29 26.1299C41.2115 26.2241 41.1487 26.4752 41.0075 26.6714C40.8506 26.8911 40.8035 27.1971 40.7172 27.4639C40.6152 27.7464 40.5524 28.0995 40.5916 28.429C40.6073 28.5232 40.7015 28.8999 40.8035 28.9626C41.0703 29.1431 41.4234 29.2608 41.7137 29.4491C42.2002 29.7473 42.4513 30.124 42.4905 30.7046C42.5298 31.2696 41.8942 31.4108 41.957 31.0263C42.0119 30.7046 42.0354 30.4614 41.9648 30.3044C41.8785 30.1161 41.6274 29.763 41.4391 29.6532C40.9055 29.3471 40.2542 29.457 40.0816 29.7316C39.854 30.0847 39.7677 30.5242 39.4931 30.8302C39.3283 31.0107 39.1243 31.6541 38.4416 31.6698C37.7589 31.6933 38.9673 30.1553 39.2263 29.7002C39.391 29.4099 39.6971 29.3079 39.8854 29.0176C40.113 28.6723 40.1208 28.3192 40.113 27.9425C40.1051 27.511 40.5838 25.6356 41.1252 25.3217C40.8584 25.3452 40.5838 25.3845 40.3013 25.408C39.7755 25.4394 39.6029 25.8553 39.1635 26.0828C38.9595 26.1849 38.6927 26.1221 38.4808 26.1692C38.2611 26.2162 38.0885 26.3575 37.8609 26.4203C37.3823 26.5693 37.1939 26.0672 36.5191 26.1378C36.0797 26.1927 36.0875 26.3104 35.5069 26.5693C34.9262 26.8283 34.8085 26.6243 34.4083 26.7734C34.2278 26.8361 34.1101 27.3697 33.9061 27.4011C33.7335 27.4247 33.1528 26.9538 33.2627 26.6949ZM29.504 27.9504C29.5982 27.7542 29.7787 27.5973 29.8964 27.409C30.171 26.9931 29.9199 26.6243 30.9165 26.6164C31.913 26.6086 31.3716 27.3697 31.811 27.3776C32.2583 27.3854 32.9017 27.1657 33.2313 27.5659C32.8468 27.8876 31.8973 27.6993 31.4422 27.6993C31.2146 27.6993 30.8537 27.715 30.634 27.7778C30.328 27.8641 29.7316 28.2957 29.7002 28.4604C29.5982 28.5467 29.3314 29.5041 28.9391 29.2294C28.5467 28.9705 29.3942 28.1701 29.504 27.9504ZM28.3819 18.2517C28.3192 18.3459 28.123 18.5263 27.9582 18.6676C27.6286 18.9658 27.2834 19.2796 27.0323 19.6877C26.6164 20.237 26.5301 20.7862 26.483 21.0844L26.4752 21.1158C26.4752 21.1393 26.4673 21.155 26.4673 21.1786C26.279 21.5945 26.1691 21.5474 25.8082 21.5866C25.8317 21.5709 24.8901 21.4532 24.5605 21.0059C24.3487 20.7156 24.2937 20.5273 24.1917 20.1114C24.0113 20.2919 23.5326 20.9824 23.7837 21.4924C23.8857 21.7043 24.7332 21.9005 25.1804 21.9397C24.9215 22.0574 24.1211 22.2379 23.9799 22.285C23.1324 22.5361 22.8499 22.7087 22.4027 22.8421V22.85C21.9397 22.9598 21.6101 22.9912 21.5944 22.8735C21.5317 22.4655 22.4654 20.7156 23.3129 20.3076C24.1603 19.8995 25.3766 18.6676 25.9808 18.0242C26.585 17.3729 26.6243 16.5646 27.8091 15.725C28.2721 15.3405 28.9861 15.1601 29.4962 15.0188C29.559 15.1522 29.6374 15.2856 29.7316 15.4112C29.7002 16.0703 29.5119 16.8314 29.3785 17.1453C29.3393 17.2316 29.1509 17.4199 29.0097 17.5533C28.8214 17.726 28.586 17.9614 28.3819 18.2517ZM30.477 19.6171C31.246 19.5307 32.117 19.4052 32.941 19.5386C33.1607 19.57 33.3568 19.6249 33.6001 19.6563C33.8276 19.6955 33.9061 19.7583 34.1101 19.8211C34.2671 19.8682 34.5888 19.8211 34.7143 19.9623C34.934 20.2056 34.8163 20.3233 34.5103 20.3468C34.2121 20.3704 34.1337 20.182 33.8747 20.0957C33.6079 20.0094 33.4588 20.08 33.1842 20.1036C32.6899 20.1506 32.2504 19.8839 31.7168 19.9388C31.301 19.9859 30.9165 20.1114 30.5163 20.1899C30.2887 20.237 30.069 20.9275 29.9121 21.0609C29.3236 21.5631 28.9469 20.6293 29.0018 20.5037C29.2372 19.8682 29.9827 19.672 30.477 19.6171ZM33.9453 11.472C33.8355 11.5505 33.4981 11.7231 33.1842 11.8487C33.0194 11.7624 32.8154 11.6839 32.5486 11.6368C32.478 11.6211 32.3995 11.6133 32.3211 11.6133C32.0621 11.6133 31.8424 11.629 31.6462 11.6682C31.8345 11.2445 31.7404 10.5932 31.5913 10.4127C31.3323 10.0832 31.1205 9.47895 30.9086 9.14154C30.6732 8.78059 30.3986 8.23131 30.171 7.85466C29.7002 7.08567 29.6296 6.58347 29.2294 6.14405C29.096 5.99496 28.9861 5.83018 28.8606 5.68109C28.7194 5.51631 28.5781 5.46922 28.4133 5.34368C28.6017 5.532 28.7507 5.68894 28.8763 5.92434C28.9705 6.10482 29.0568 6.31668 29.1509 6.51285C29.355 6.95228 29.9278 8.38825 30.2024 8.80413C30.328 8.99245 30.8851 9.93407 30.9714 10.2009C31.1048 10.6089 31.4108 10.86 31.2068 11.1817C31.0577 11.4171 30.7438 12.0213 30.4221 12.6412C30.3201 12.6805 30.2259 12.7275 30.1396 12.7825C30.1789 12.4764 30.2181 12.1783 30.2573 11.9193C30.3986 10.9855 29.9984 9.72221 29.4727 9.03169C28.9469 8.34116 28.7351 7.3917 28.429 6.24606C28.1152 5.10042 28.2642 4.661 28.2642 4.661C28.2642 4.661 31.6619 6.84242 34.3455 9.92622C34.6829 10.3107 34.8085 10.7737 35.0596 11.0719C34.7614 11.0954 34.4083 11.166 33.9453 11.472Z" fill="#886A4E"/>
</g>
<defs>
<clipPath id="clip0_394_78">
<rect width="82.172" height="50" fill="white"/>
</clipPath>
</defs>
</svg>
