<svg width="117" height="71" viewBox="0 0 117 71" fill="none" xmlns="http://www.w3.org/2000/svg">
<path d="M43.7229 62.7057C43.4922 62.6508 43.3384 62.7167 43.2835 62.9035C43.2725 62.9474 43.2615 63.1452 43.2395 63.4857C43.2175 63.9691 43.2615 64.3426 43.3384 64.5952C43.4702 65.0017 43.7229 65.2544 44.1074 65.3423C44.3271 65.3862 44.5248 65.3752 44.6786 65.3093C44.8654 65.2324 44.9642 65.0786 44.9642 64.8699C44.9752 64.4634 44.8654 64.035 44.6457 63.5956C44.415 63.0902 44.1074 62.7936 43.7229 62.7057Z" fill="#F6F6F6"/>
<path d="M89.3789 46.0626C88.6978 52.8517 75.0317 58.2785 58.2787 58.2785C42.2398 58.2785 29.0352 53.3131 27.3324 46.9414C27.2116 46.48 27.1566 46.7327 27.1566 46.7327L27.1676 57.6743C27.6949 64.5183 41.4269 70.0111 58.2787 70.0111C75.2514 70.0111 89.0493 64.4524 89.4008 57.5425L89.4338 46.0736C89.4338 46.0626 89.3898 45.8868 89.3789 46.0626ZM62.4313 60.4427C62.5411 60.1351 62.651 59.9703 62.7059 59.9593C62.7499 59.9593 62.8048 59.9593 62.8927 59.9593C62.9696 59.9593 63.0355 59.9593 63.0684 59.9593C63.1234 59.9593 63.1893 59.9373 63.2882 59.9044C63.387 59.8714 63.4639 59.8604 63.5079 59.8495C63.5958 59.8385 63.6507 59.8824 63.6507 59.9813C63.6507 60.0582 63.4969 60.2559 63.1893 60.5745C62.8817 60.9041 62.684 61.0689 62.6071 61.0689C62.3544 61.0908 62.2226 61.0579 62.2335 61.0139C62.2665 60.8601 62.3654 60.6294 62.4313 60.4427ZM33.2207 56.378C33.0889 56.5758 33.012 56.6966 33.001 56.7515C32.946 56.9053 32.8801 56.9603 32.8032 56.9163C32.7593 56.8943 32.6824 56.7955 32.5725 56.6307C32.4627 56.4659 32.3638 56.367 32.2869 56.3231C31.9573 56.1363 31.7926 56.378 31.7816 57.0591C31.7706 58.2016 31.8145 59.0255 31.8914 59.5089C31.9793 60.0472 32.1221 60.5086 32.3199 60.8491C32.3968 60.981 32.4407 61.0689 32.4407 61.1018C32.4407 61.1787 32.3748 61.1787 32.2539 61.0908C32.1551 61.0249 32.0123 60.9151 31.8255 60.7503C31.6388 60.5855 31.485 60.4647 31.3971 60.3987C31.3202 60.3438 31.2103 60.2779 31.0565 60.19C30.9027 60.1021 30.7929 60.0362 30.716 59.9703C30.6501 59.9154 30.6061 59.8604 30.6061 59.7945C30.6061 59.7945 30.6501 59.7506 30.7489 59.6847C30.8368 59.6188 30.9027 59.5089 30.9137 59.3771C30.9357 59.1464 30.9577 58.7729 30.9577 58.2566C30.9577 57.2679 30.9686 56.9053 30.9686 56.9053C30.9686 56.9053 30.8808 55.7518 30.8478 55.598C30.8368 55.5211 30.727 55.3783 30.4853 55.2245C30.3974 55.1696 30.2985 55.1367 30.1777 55.1257C30.0568 55.1147 29.9909 55.0927 29.947 55.0598C29.8591 55.0048 29.7932 54.7851 29.7932 54.7851C29.7932 54.7851 29.8042 54.7192 29.8042 54.5215C29.8042 54.4446 29.7822 54.3347 29.7492 54.1699C29.7053 54.0051 29.6943 53.8953 29.6943 53.8184C29.6943 53.7525 29.7273 53.7415 29.8042 53.7854C29.8152 53.7964 29.903 53.8623 30.0459 53.9832C30.1887 54.104 30.3644 54.2358 30.5622 54.3677C30.705 54.4556 30.8808 54.5764 31.1114 54.7082C31.3751 54.862 31.5509 54.9499 31.6388 55.0048C31.7486 55.0707 31.9134 55.1696 32.1221 55.3234C32.3418 55.4662 32.4956 55.5761 32.6055 55.631C32.6824 55.6749 32.7922 55.7079 32.946 55.7409C33.0998 55.7738 33.2097 55.8068 33.2866 55.8507C33.3745 55.8947 33.4184 55.9606 33.4184 56.0594C33.4074 56.0704 33.3415 56.1913 33.2207 56.378ZM37.2414 57.7292C37.2084 57.7952 37.0107 57.9599 36.9118 58.1467C36.8679 58.2346 36.769 58.5642 36.6372 59.0915C36.4504 59.8055 36.2417 60.7503 36.0659 61.9038C36.044 62.0685 36.022 62.2333 36 62.3981C35.9671 62.5849 35.9231 62.7387 35.8792 62.8375C35.8133 62.9913 35.6924 63.0353 35.5386 62.9584C35.4507 62.9144 35.3189 62.8375 35.1431 62.7277C34.9674 62.6178 34.8356 62.5299 34.7477 62.486C34.6708 62.4421 34.5499 62.3981 34.3851 62.3322C34.2204 62.2663 34.0995 62.2114 34.0116 62.1674C33.8908 62.1015 33.8359 62.0136 33.8359 61.9038C33.8359 61.8488 33.9018 61.8269 34.0226 61.8269C34.6927 61.8488 35.2969 61.2007 35.22 61.0469C35.2091 61.0139 35.0882 60.992 35.0663 60.981C34.4511 60.6734 34.0995 59.9264 34.0446 58.8058C34.0336 58.5312 34.0226 58.2456 34.0007 57.9819C33.9787 57.6633 33.9457 57.3777 33.8908 57.136C33.8359 56.8504 33.726 56.5868 33.5612 56.3451C33.4733 56.2023 33.4184 56.1034 33.4184 56.0594C33.4184 55.9716 33.4953 55.9606 33.6601 56.0375C33.715 56.0704 33.8029 56.1254 33.9238 56.2023C34.0446 56.2792 34.1325 56.3341 34.1874 56.367C34.2533 56.4 34.3412 56.433 34.462 56.4549C34.5829 56.4879 34.6708 56.5099 34.7367 56.5428C34.9454 56.6417 35.0553 57.0262 35.0443 57.6743C35.0443 57.916 35.0113 58.2675 34.9454 58.7289C34.8795 59.1903 34.8575 59.5419 34.8465 59.7835C34.8465 60.168 34.9344 60.4097 35.1322 60.5086C35.264 60.5745 35.3738 60.5306 35.4727 60.3768C35.5716 60.223 35.7144 59.7945 35.9121 59.0915C36.0989 58.3884 36.2087 57.916 36.2087 57.6743C36.2087 57.6304 36.2087 57.5754 36.1868 57.4986C36.1758 57.4217 36.1648 57.3557 36.1648 57.3228C36.1648 57.2459 36.2087 57.2129 36.2856 57.2459C36.3406 57.2679 36.4285 57.3118 36.5383 57.3777C36.6482 57.4436 36.7251 57.4876 36.791 57.5095C36.8239 57.5205 36.8899 57.5425 36.9668 57.5535C37.0437 57.5754 37.1096 57.5864 37.1535 57.6084C37.2084 57.6304 37.2524 57.6963 37.2414 57.7292ZM41.0973 65.0127C41.0314 64.9907 40.9216 64.9577 40.7897 64.8918C40.6579 64.8369 40.559 64.793 40.4931 64.771C40.4602 64.76 40.3942 64.749 40.3173 64.727C40.2405 64.7051 40.1745 64.6941 40.1416 64.6831C39.8669 64.5952 39.6802 64.1448 39.6472 63.3648C39.6143 62.6398 39.6472 61.8818 39.6362 61.1677C39.6253 60.3878 39.4824 59.9373 39.2298 59.8495C39.032 59.7835 38.8233 59.9373 38.5926 60.3109C38.274 60.8272 38.1093 61.4204 38.0983 62.1125C38.0873 62.464 38.1422 62.7277 38.2411 62.8925C38.307 62.9913 38.4388 63.1341 38.6585 63.2989C38.9002 63.4857 39.065 63.6175 39.1419 63.7054C39.2957 63.8812 39.3836 64.0789 39.3836 64.2766C39.3836 64.3975 39.3616 64.4524 39.3067 64.4414C39.2517 64.4195 39.1639 64.3755 39.043 64.2876C38.9222 64.1997 38.8343 64.1448 38.7684 64.1228C38.6805 64.0899 38.5487 64.0569 38.3839 64.024C38.2081 63.991 38.0873 63.9581 37.9994 63.9251C37.505 63.7383 37.2524 63.2989 37.2634 62.6178C37.2743 61.7939 37.4831 61.0029 37.9005 60.234C38.3399 59.3991 38.8673 58.8827 39.4605 58.707C39.7461 58.6191 40.0317 58.6191 40.3064 58.707C40.4492 58.7509 40.5151 58.8058 40.5151 58.8608C40.5151 58.9267 40.5041 59.0146 40.4821 59.1354C40.4602 59.2562 40.4492 59.3441 40.4492 59.3991C40.4382 59.8385 40.4711 60.6294 40.559 61.75C40.6469 62.9474 40.7458 63.7164 40.8447 64.035C40.8556 64.0899 40.9325 64.2437 41.0534 64.5183C41.1852 64.793 41.2511 64.9248 41.2511 64.9358C41.2621 65.0237 41.2072 65.0456 41.0973 65.0127ZM45.8211 65.7926C45.5904 65.9574 45.2938 66.0014 44.9313 65.9245C44.6786 65.8695 44.2831 65.7707 43.7668 65.6279C43.2505 65.4851 42.866 65.3752 42.6133 65.3093C42.5474 65.2983 42.4485 65.2763 42.3167 65.2653C42.1849 65.2544 42.086 65.2324 42.0201 65.2214C41.9322 65.1994 41.8883 65.1555 41.8883 65.0896C41.8883 65.0676 41.9322 65.0127 42.0201 64.9138C42.108 64.8149 42.1519 64.749 42.1629 64.7051C42.2508 64.4414 42.3387 63.3209 42.4156 61.3435C42.4266 60.948 42.4156 60.6294 42.3826 60.4097C42.3167 60.0802 42.1959 59.7726 41.9981 59.4979C41.9212 59.3881 41.8773 59.3222 41.8773 59.2782C41.8773 59.2013 41.9542 59.1793 42.086 59.2233C42.1959 59.2562 42.3497 59.3112 42.5584 59.3991C42.7671 59.4869 42.9209 59.5419 43.0308 59.5748C43.1187 59.5968 43.2395 59.6188 43.4043 59.6297C43.5691 59.6407 43.7009 59.6627 43.7778 59.6847C43.8547 59.7066 43.8986 59.7506 43.8877 59.8055C43.8877 59.8385 43.8437 59.8824 43.7668 59.9483C43.5032 60.1571 43.3603 60.5525 43.3384 61.1238C43.3384 61.1787 43.3384 61.2666 43.3274 61.3655C43.3164 61.4643 43.3164 61.5412 43.3054 61.5852C43.2944 61.9587 43.4482 62.2004 43.7998 62.2773C43.8986 62.2992 44.0305 62.2883 44.1953 62.2223C44.36 62.1674 44.4809 62.1454 44.5688 62.1674C44.9423 62.2553 45.3707 62.7606 45.8651 63.6834C46.0958 64.1228 46.2056 64.5513 46.1946 64.9907C46.1727 65.3642 46.0518 65.6279 45.8211 65.7926ZM47.5788 64.2986C47.9194 64.9138 48.3698 65.2653 48.952 65.3642C49.3585 65.4301 49.688 65.3422 49.9407 65.0896C50.0066 65.0237 50.0506 64.9907 50.0725 65.0017C50.1494 65.0127 50.1934 65.1225 50.1824 65.3203C50.1714 65.7926 50.0066 66.1442 49.71 66.3859C49.4134 66.6276 49.0399 66.7045 48.5675 66.6166C48.1171 66.5397 47.7106 66.298 47.3591 65.9135C46.7659 65.2544 46.4912 64.3206 46.5462 63.1451C46.5901 62.1454 46.8428 61.3874 47.2932 60.8711C47.4799 60.6514 47.6337 60.5525 47.7546 60.5416C47.8205 60.5416 47.9194 60.5415 48.0402 60.5745C48.194 60.6075 48.4357 60.6734 48.7433 60.7722C49.0619 60.8711 49.2926 60.937 49.4573 60.97C49.5232 60.981 49.6331 60.981 49.7649 60.959C49.8968 60.937 50.0066 60.937 50.0835 60.948C50.1604 60.959 50.1934 61.0029 50.1934 61.0689C50.1934 61.1567 50.0945 61.3435 49.9077 61.6072C49.721 61.8818 49.5782 62.0356 49.5013 62.0685C49.4024 62.1125 49.2816 62.1235 49.1607 62.1015C49.0179 62.0795 48.8092 61.9697 48.5016 61.7719C48.194 61.5742 47.9743 61.4534 47.8315 61.4314C47.7436 61.4094 47.6557 61.4204 47.5678 61.4424C47.4799 61.4643 47.3921 61.6401 47.3042 61.9477C47.2273 62.2004 47.1943 62.4201 47.1833 62.5849C47.1394 63.1781 47.2822 63.7493 47.5788 64.2986ZM53.2364 64.3206C53.2583 64.3865 53.4012 64.6392 53.6209 65.0676C53.7966 65.4082 54.0383 66.0233 54.4448 66.6385C54.5217 66.7594 54.6205 66.8802 54.7084 67.0011C54.8403 67.1768 54.9172 67.2977 54.9172 67.3416C54.9172 67.4185 54.8512 67.4405 54.7304 67.4295C54.6425 67.4185 54.4997 67.3965 54.313 67.3636C54.1262 67.3196 53.9944 67.2977 53.9065 67.2867C53.8296 67.2757 53.7087 67.2757 53.544 67.2867C53.3792 67.2977 53.2583 67.2977 53.1814 67.2867C53.0386 67.2757 52.9727 67.2208 52.9727 67.1329C52.9727 67.1219 53.0057 67.0889 53.0606 67.023C53.1155 66.9571 53.1485 66.8692 53.1485 66.7484C53.1485 66.5287 53.0496 66.1552 52.8519 65.6389C52.6322 65.0786 52.4234 64.782 52.2367 64.76C52.1049 64.749 52.0389 64.8369 52.028 65.0346C52.017 65.1994 52.0499 65.4851 52.1158 65.8695C52.1818 66.287 52.2477 66.5507 52.3136 66.6605C52.3246 66.6825 52.3795 66.7484 52.4893 66.8692C52.5882 66.9901 52.6431 67.067 52.6431 67.0889C52.6431 67.1549 52.5882 67.1768 52.4893 67.1658C52.3685 67.1549 52.2037 67.1219 51.984 67.067C51.7643 67.012 51.5995 66.9791 51.4897 66.9681C51.3908 66.9571 51.237 66.9461 51.0393 66.9461C50.8415 66.9461 50.6987 66.9461 50.5888 66.9242C50.468 66.9022 50.4021 66.8582 50.4131 66.7814C50.4131 66.7374 50.457 66.6715 50.5339 66.5946C50.6328 66.4957 50.7097 66.3969 50.7426 66.298C50.7646 66.2431 50.7866 66.1222 50.8086 65.9245C50.9624 64.8699 51.0942 63.7054 51.1491 62.453C51.1711 62.0356 51.1491 61.75 51.1052 61.6072C51.0942 61.5632 51.0393 61.4863 50.9514 61.3765C50.8635 61.2666 50.8195 61.1897 50.8195 61.1677C50.8195 61.1018 50.8745 61.0689 50.9733 61.0908C51.0393 61.1018 51.1491 61.1128 51.2919 61.1348C51.4237 61.1567 51.5336 61.1787 51.6105 61.1787C51.8192 61.2007 51.962 61.3545 52.0609 61.6291C52.1268 61.8269 52.1598 62.0576 52.1488 62.3102C52.1488 62.4311 52.1268 62.6068 52.1049 62.8485C52.0829 63.0902 52.0609 63.266 52.0609 63.3868C52.0499 63.7274 52.1378 63.9031 52.3246 63.9251C52.4454 63.9361 52.6761 63.7713 53.0167 63.4198C53.3133 63.1122 53.522 62.8705 53.6318 62.6947C53.7197 62.5409 53.7747 62.3981 53.7747 62.2553C53.7856 62.1125 53.7087 61.9697 53.5659 61.8159C53.4231 61.6621 53.3462 61.5742 53.3462 61.5412C53.3462 61.4643 53.4121 61.4314 53.533 61.4424C54.5107 61.5303 55.005 61.5632 55.027 61.5742C55.0929 61.6181 55.1259 61.6621 55.1259 61.739C55.1149 62.0136 54.9501 62.3322 54.6206 62.6727C54.5107 62.7936 54.2031 63.0792 53.7087 63.4967C53.3792 63.7713 53.2144 63.969 53.2034 64.0789C53.1814 64.1668 53.1924 64.2327 53.2364 64.3206ZM59.3883 66.5726C59.4652 66.8692 59.575 67.0999 59.7069 67.2757C59.7618 67.3526 59.7947 67.3965 59.7947 67.4185C59.7947 67.4954 59.7288 67.5613 59.586 67.6053C59.4762 67.6382 59.3773 67.6602 59.2784 67.6492C58.8829 67.6492 58.4655 67.1439 58.3886 67.1329C58.2348 67.0999 57.4329 67.6163 56.9715 67.5943C56.6639 67.5833 56.3673 67.4844 56.0706 67.2977C55.774 67.1109 55.4115 66.7923 55.4005 66.6276C55.4005 66.6166 55.4225 66.5836 55.4555 66.5507C55.6971 66.298 55.8619 65.8146 55.9498 65.1225C55.9937 64.8259 56.0157 64.2766 56.0487 63.4967C56.0706 62.7167 56.0157 62.1784 55.8729 61.8708C55.807 61.728 55.774 61.6511 55.774 61.6291C55.774 61.5632 55.818 61.5303 55.8839 61.5412C55.9608 61.5412 56.0706 61.5632 56.2135 61.5852C56.3563 61.6181 56.4661 61.6291 56.543 61.6291C56.5979 61.6291 56.6858 61.6291 56.7847 61.6181C56.8946 61.6072 56.9715 61.6072 57.0264 61.6072C57.1582 61.6072 57.2571 61.75 57.323 62.0136C57.3669 62.2114 57.3889 62.3981 57.3889 62.5849C57.3779 63.0902 57.2022 63.8152 56.8836 64.7161C56.6968 65.2544 56.5979 65.6169 56.5979 65.8146C56.587 66.0563 56.6639 66.265 56.8067 66.4518C56.9605 66.6495 57.1472 66.7594 57.3779 66.7704C57.6855 66.7813 57.8942 66.7154 57.9931 66.5616C58.1689 66.287 58.2787 65.3972 58.3117 63.8482C58.3337 63.1781 58.3007 62.6837 58.2238 62.3542C58.1909 62.2114 58.1689 62.1125 58.1359 62.0576C58.092 61.9807 58.0151 61.8928 57.9602 61.8159C57.9382 61.7829 57.9272 61.7609 57.9272 61.728C57.9272 61.6621 57.9931 61.6291 58.114 61.6291C58.2018 61.6291 58.3227 61.6401 58.4875 61.6401C58.6523 61.6511 58.7731 61.6511 58.861 61.6511C58.9489 61.6511 59.0917 61.6401 59.2784 61.6291C59.4652 61.6181 59.608 61.6072 59.7069 61.6072C59.8167 61.6072 59.8716 61.6291 59.8716 61.6841C59.8716 61.706 59.8387 61.7719 59.7728 61.8598C59.608 62.0795 59.4762 62.4091 59.3993 62.8595C59.3114 63.3209 59.2565 63.991 59.2455 64.8259C59.2345 65.5949 59.2784 66.1771 59.3883 66.5726ZM64.3428 66.32C64.4307 66.6056 64.5295 66.8363 64.6614 66.9901C64.7163 67.056 64.7492 67.0999 64.7492 67.1219C64.7492 67.1988 64.6833 67.2757 64.5405 67.3306C64.4416 67.3746 64.3318 67.4075 64.2329 67.4185C63.8484 67.4625 63.409 67.0011 63.3431 66.9901C63.1893 66.9681 62.3983 67.5833 61.9369 67.6053C61.6293 67.6163 61.3327 67.5503 61.0361 67.3965C60.7395 67.2427 60.377 66.9461 60.366 66.7814C60.366 66.7704 60.388 66.7374 60.4209 66.7045C60.6626 66.4188 60.8164 65.9245 60.9043 65.1994C60.9372 64.8918 60.9592 64.3316 60.9812 63.5296C60.9922 62.7277 60.9263 62.1894 60.7834 61.8928C60.7175 61.75 60.6846 61.6731 60.6846 61.6621C60.6846 61.5962 60.7285 61.5632 60.7944 61.5632C60.8713 61.5632 60.9812 61.5632 61.124 61.5852C61.2668 61.6072 61.3767 61.6072 61.4536 61.6072C61.5085 61.6072 61.5964 61.5962 61.6952 61.5742C61.8051 61.5522 61.882 61.5412 61.9369 61.5412C62.0688 61.5303 62.1676 61.6621 62.2445 61.9257C62.2995 62.1235 62.3214 62.3102 62.3214 62.497C62.3104 63.0133 62.1566 63.7603 61.849 64.7051C61.6623 65.2653 61.5744 65.6498 61.5744 65.8476C61.5744 66.0893 61.6513 66.298 61.7831 66.4738C61.9369 66.6605 62.1237 66.7484 62.3544 66.7374C62.662 66.7154 62.8597 66.6276 62.9696 66.4628C63.1453 66.1662 63.2332 65.2544 63.2552 63.6834C63.2662 63.0023 63.2222 62.497 63.1563 62.1784C63.1234 62.0356 63.0904 61.9367 63.0684 61.8928C63.0135 61.8159 62.9476 61.739 62.8927 61.6621C62.8707 61.6291 62.8597 61.6071 62.8597 61.5742C62.8597 61.5083 62.9256 61.4643 63.0355 61.4534C63.1234 61.4424 63.2442 61.4424 63.409 61.4314C63.5738 61.4204 63.6946 61.4204 63.7825 61.4094C63.8704 61.3984 64.0132 61.3765 64.2 61.3435C64.3867 61.3105 64.5295 61.2886 64.6174 61.2776C64.7273 61.2666 64.7822 61.2886 64.7822 61.3435C64.7822 61.3655 64.7492 61.4314 64.6833 61.5302C64.5295 61.7609 64.3977 62.1125 64.3208 62.5739C64.2439 63.0572 64.2 63.7274 64.189 64.5733C64.178 65.3422 64.2219 65.9355 64.3428 66.32ZM72.6149 65.6169C72.4172 65.7707 72.2743 65.8586 72.2084 65.8805C72.1205 65.9025 71.9668 65.8915 71.747 65.8256C70.6485 65.529 70.0553 64.6502 70.0333 63.233C70.0223 62.1784 70.264 61.2996 70.7474 60.6075C70.978 60.2779 71.1648 60.1021 71.3076 60.0692C71.3955 60.0472 71.5163 60.0362 71.6921 60.0362C71.8679 60.0252 71.9997 60.0142 72.0876 59.9923C72.1865 59.9703 72.3293 59.9154 72.516 59.8275C72.7028 59.7396 72.8456 59.6847 72.9445 59.6517C73.1202 59.6078 73.307 59.6737 73.5157 59.8604C73.9881 60.2889 74.2517 60.981 74.2957 61.9038C74.3506 63.4088 73.8123 64.6611 72.6149 65.6169ZM78.2175 61.7609C77.9429 62.5849 77.5694 63.0902 77.075 63.255C76.9212 63.3099 76.7674 63.3099 76.6246 63.244C76.4818 63.1781 76.4049 63.0682 76.3939 62.9034C76.3939 62.8046 76.4489 62.6618 76.5807 62.464C76.7015 62.2663 76.8114 62.1454 76.9103 62.1235C76.9542 62.1125 77.0311 62.1125 77.0311 62.1235C77.0421 62.1564 76.9762 62.3322 76.9762 62.4201C76.9872 62.5849 77.0531 62.6508 77.1959 62.5958C77.5035 62.486 77.6463 62.0576 77.6133 61.2996C77.5914 60.8382 77.4925 60.3878 77.3277 59.9703C77.108 59.41 76.8334 59.1793 76.5038 59.2892C76.2511 59.3661 76.1083 59.5968 76.0534 59.9813C76.0314 60.1461 76.0204 60.4427 76.0424 60.8382C76.0973 62.1235 76.1852 62.9694 76.2951 63.3758C76.4159 63.8262 76.5917 64.1228 76.8114 64.2657C76.8883 64.3206 76.9322 64.3645 76.9322 64.3975C76.9322 64.4744 76.8773 64.5293 76.7455 64.5733C76.6356 64.6062 76.4818 64.6502 76.2731 64.6831C76.0644 64.7161 75.8996 64.76 75.8007 64.793C75.7128 64.8149 75.592 64.8699 75.4272 64.9468C75.2624 65.0237 75.1416 65.0786 75.0537 65.1006C74.9658 65.1225 74.9109 65.0896 74.9219 65.0456C74.9878 64.76 75.2295 64.4414 75.2404 64.2986C75.2514 64.0569 75.2514 63.6724 75.2295 63.1341C75.2295 63.0023 75.2185 62.8156 75.2075 62.5629C75.1965 62.3102 75.1745 62.1125 75.1745 61.9916C75.1745 61.8928 75.1635 61.6621 75.1526 61.2886C75.1416 61.0029 75.1416 60.7613 75.1306 60.5855C75.1196 60.3328 75.0867 60.0911 75.0537 59.9044C75.0427 59.8385 74.9878 59.7286 74.9109 59.5858C74.823 59.443 74.79 59.3551 74.79 59.3331C74.79 59.2562 74.845 59.2013 74.9548 59.1684C75.1526 59.1134 75.4382 59.0365 75.8337 58.9486C76.2182 58.8608 76.5148 58.7839 76.7015 58.7179C76.8224 58.685 76.9872 58.5971 77.2069 58.4543C77.4266 58.3115 77.5914 58.2236 77.7122 58.1906C77.8221 58.1467 77.9429 58.2126 78.0637 58.3554C78.3713 58.7399 78.5361 59.2453 78.5691 59.8165C78.5361 60.4317 78.4372 61.0689 78.2175 61.7609ZM82.2053 61.9477C81.9087 62.3322 81.5681 62.6178 81.2056 62.7936C80.909 62.9364 80.6014 62.9913 80.3158 62.9694C79.8324 62.9364 79.4699 62.6947 79.2502 62.2223C79.0854 61.8708 78.9865 61.3325 78.9646 60.6294C78.9096 59.4869 79.1183 58.5532 79.5688 57.8281C79.6896 57.6414 79.8104 57.4986 79.9423 57.3997C80.0631 57.3008 80.2608 57.2019 80.5245 57.0811C80.887 56.9273 81.2935 56.7845 81.7109 56.6746C81.8428 56.6417 81.9416 56.6087 82.0075 56.5867C82.0625 56.5648 82.1284 56.5099 82.1943 56.422C82.2712 56.3341 82.3261 56.2901 82.3591 56.2682C82.414 56.2462 82.436 56.2682 82.436 56.3341C82.436 56.4 82.425 56.5538 82.392 56.7955C82.3481 57.125 82.2712 57.3667 82.1943 57.5095C82.0845 57.6963 81.9087 57.8611 81.645 57.9819C81.4693 58.0588 81.2166 58.1357 80.887 58.1906C80.5575 58.2456 80.3048 58.3115 80.129 58.3774C79.7335 58.5422 79.5468 58.8278 79.5578 59.2343C79.5797 59.7286 79.9752 59.8165 80.7222 59.4869C81.0189 59.3551 81.3484 58.9816 81.656 58.7839C81.7 58.7509 81.7769 58.8278 81.8098 58.9706C81.8428 59.0695 81.8538 59.1793 81.8538 59.2892C81.8647 59.6078 81.7109 59.8495 81.4034 59.9923C81.2386 60.0692 81.0079 60.1131 80.6893 60.1351C80.3707 60.1571 80.14 60.19 79.9752 60.2559C79.7885 60.3328 79.6896 60.5086 79.7006 60.7722C79.7116 61.1567 79.9423 61.4094 80.3817 61.5083C80.7662 61.5962 81.1507 61.5522 81.5132 61.3765C81.7109 61.2776 81.8977 61.1348 82.0515 60.959C82.1504 60.8382 82.2602 60.6953 82.3481 60.5306C82.425 60.3878 82.4689 60.3109 82.4689 60.3109C82.5898 60.2449 82.6557 60.3768 82.6667 60.7063C82.6996 61.1018 82.5349 61.5193 82.2053 61.9477ZM86.7753 59.5199C86.7204 59.5638 86.6325 59.6188 86.5006 59.6737C86.3798 59.7286 86.2809 59.7835 86.226 59.8275C86.1601 59.8714 86.0722 59.9483 85.9514 60.0472C85.8305 60.1461 85.7317 60.223 85.6767 60.2559C85.479 60.3878 85.2593 60.234 85.0835 59.8055C84.9517 59.5089 84.71 58.8717 84.71 58.8717C84.6661 58.8717 84.3475 60.2889 84.3585 60.8821C84.3585 61.0249 84.3035 61.1348 84.1717 61.2117C84.1058 61.2446 84.0069 61.2996 83.8751 61.3435C83.7433 61.3984 83.6444 61.4424 83.5675 61.4753C83.5126 61.5083 83.4247 61.5632 83.3148 61.6511C83.194 61.739 83.1171 61.7939 83.0622 61.8159C82.9303 61.8928 82.8534 61.8818 82.8534 61.8049C82.8534 61.7609 82.8864 61.695 82.9413 61.5962C83.4247 60.8382 84.4464 59.3551 84.4683 58.3884C84.4793 57.6633 83.8092 56.6856 83.5675 56.4549C83.5565 56.4439 83.4467 56.378 83.2599 56.2682C83.0951 56.1803 83.0072 56.1034 82.9963 56.0704C82.9963 55.9825 83.0512 55.9166 83.161 55.8617C83.2379 55.8287 83.3368 55.7848 83.4796 55.7409C83.6114 55.6969 83.7103 55.653 83.7872 55.62C83.8421 55.598 83.9081 55.5431 84.0069 55.4882C84.0948 55.4223 84.1717 55.3783 84.2156 55.3564C84.3365 55.2905 84.4354 55.3344 84.5123 55.4662C84.5892 55.609 84.677 55.8397 84.7539 56.1693C84.8418 56.5208 84.9737 56.8943 84.9737 56.8943C84.9846 56.8943 85.1494 56.3341 85.3032 55.7079C85.446 55.1367 85.5449 54.7961 85.6108 54.6753C85.6767 54.5654 85.7536 54.4885 85.8305 54.4336C85.9074 54.3896 86.0283 54.3347 86.1821 54.2908C86.3359 54.2468 86.4567 54.1919 86.5336 54.137C86.5775 54.104 86.6325 54.0491 86.6984 53.9722C86.7643 53.8953 86.8082 53.8404 86.8302 53.8294C86.8742 53.7964 86.9071 53.8184 86.9071 53.8843C86.9071 53.9502 86.8851 54.5105 86.6435 55.1367C86.6105 55.2136 86.5336 55.2795 86.4677 55.3234C86.4238 55.3564 86.3578 55.3893 86.27 55.4333C86.1821 55.4772 86.1162 55.5102 86.0722 55.5321C85.8305 55.6859 85.1165 56.6417 85.1604 57.2788C85.2153 58.0808 86.3249 59.0805 86.7973 59.1464C86.8961 59.1574 86.9401 59.2013 86.9401 59.2672C86.9071 59.3881 86.8632 59.454 86.7753 59.5199Z" fill="#F6F6F6"/>
<path d="M71.7031 60.5417C71.1099 60.6845 70.8133 61.2008 70.8352 62.1346C70.8462 62.6509 70.9671 63.1452 71.2088 63.6176C71.4724 64.1229 71.813 64.4415 72.1975 64.5843C72.3952 64.6612 72.582 64.6832 72.7248 64.6393C73.0214 64.5624 73.2411 64.3317 73.3729 63.9691C73.4718 63.6945 73.5157 63.3759 73.5047 63.0244C73.4828 62.4202 73.318 61.838 73.0214 61.3106C72.6698 60.6625 72.2304 60.4098 71.7031 60.5417Z" fill="#F6F6F6"/>
<path d="M10.7113 48.2815C10.7772 48.2266 10.8211 48.1826 10.8541 48.1387C10.6344 48.2705 10.4147 48.4133 10.184 48.5561L10.7113 48.2815Z" fill="#F6F6F6"/>
<path d="M21.3783 34.3847C21.3453 34.5715 21.3343 34.7363 21.3343 34.9121C21.3343 35.1098 21.0816 35.681 21.1256 35.8239C21.1805 36.0655 21.7957 36.7357 21.9165 36.9554C22.0264 37.1751 22.0923 37.3948 22.1692 37.6365C22.2351 37.8672 22.312 38.1088 22.4329 38.3615C22.6746 38.8559 22.7295 39.0866 22.8174 39.5589C22.9272 40.1522 23.0371 40.4817 23.6193 41.0859C23.7621 41.2397 23.8939 41.4045 24.0258 41.5913C24.2125 41.8439 24.3993 42.0966 24.6739 42.3603C24.8167 42.4921 24.9595 42.58 25.0914 42.6679C25.1683 42.7338 25.2562 42.7887 25.3221 42.8436C25.4429 42.9535 25.5418 43.0853 25.6516 43.2281C25.7176 43.316 25.7835 43.3929 25.8494 43.4808C26.8161 44.6123 29.6614 46.8643 29.8921 47.0291C30.1008 47.1719 30.2875 47.2488 30.4523 47.3257C30.5402 47.3587 30.6281 47.4026 30.705 47.4466C31.2433 47.7432 31.7157 47.9629 32.21 48.1936L32.5396 48.3474C32.957 48.5451 33.3745 48.7868 33.781 49.0175C33.737 48.8308 33.7041 48.644 33.6711 48.4463C33.3415 48.2595 33.001 48.0618 32.6385 47.897L32.2979 47.7432C31.7926 47.5125 31.3641 47.3038 30.8478 47.0291C30.716 46.9632 30.6061 46.9083 30.4963 46.8643C30.3535 46.8094 30.2546 46.7545 30.1447 46.6886C29.947 46.5458 27.1786 44.3377 26.3108 43.327C26.2558 43.2611 26.2009 43.1842 26.146 43.1183C26.0251 42.9535 25.8823 42.7777 25.6956 42.6019C25.5638 42.4921 25.4319 42.3932 25.3111 42.3163C25.2012 42.2504 25.1133 42.1845 25.0364 42.1186C24.8277 41.9318 24.6739 41.7231 24.5091 41.4924C24.3663 41.2947 24.2235 41.0969 24.0258 40.8992C23.5864 40.4378 23.5204 40.2291 23.4216 39.7127C23.3227 39.2184 23.2568 38.9438 22.9931 38.3835C22.8943 38.1748 22.8283 37.966 22.7734 37.7463C22.6965 37.4937 22.6196 37.23 22.4768 36.9554C22.334 36.6917 22.1802 36.4281 21.9934 36.1424C21.9385 36.0546 21.8616 35.9886 21.7957 35.9337C21.8287 35.9008 21.8616 35.8568 21.8726 35.8129C21.9385 35.5822 21.9495 35.3625 21.9495 35.1427C21.9495 34.978 21.9605 34.8242 21.9825 34.6704C21.9934 34.6045 22.0044 34.5495 22.0264 34.5056C22.0813 34.2639 22.1363 34.0662 21.9275 33.7036C22.2241 33.6158 22.4329 33.429 22.5208 33.1653C22.6416 32.8138 22.5537 32.3195 22.2791 31.8251C22.6965 31.6713 23.0151 31.3088 23.07 30.8694C23.103 30.6167 23.0481 30.353 22.9162 30.1004C23.2458 29.9356 23.2348 29.3863 23.2019 28.837C23.2019 28.7601 23.1909 28.6942 23.1909 28.6613C23.1909 28.6393 23.2019 28.6283 23.2348 28.5954C23.3337 28.5185 23.4216 28.3976 23.3227 28.112C23.2897 28.0021 23.2348 27.8923 23.1579 27.7714C23.9269 28.6723 26.3547 30.8144 26.882 31.4846C27.0468 31.6823 27.4643 32.1547 27.5412 32.2865C26.6294 32.0668 23.4545 30.353 23.4545 30.353C23.4545 30.353 24.3444 31.0451 25.6187 31.6933C26.2119 32.0009 27.5521 32.5831 27.7828 32.66C27.7938 32.682 27.8487 32.7259 27.9147 32.7809C27.8817 32.638 27.8597 32.4842 27.8378 32.3195C27.7169 32.1876 27.64 32.0888 27.5961 32.0558C27.5851 31.946 27.5851 31.8361 27.5851 31.7262C27.5521 31.8251 27.4972 31.8361 27.4093 31.8141C26.146 30.4629 23.6962 28.101 22.9931 27.4309C23.0371 27.4419 23.081 27.4638 23.125 27.4748C23.1689 27.4968 23.2128 27.4968 23.2568 27.5078C23.3557 27.5407 23.5754 27.6286 23.7731 27.7055C24.0807 27.8374 24.2455 27.8703 24.4432 27.9033C24.5091 27.9143 24.586 27.9252 24.6849 27.9472C24.7728 27.9692 24.8826 28.0131 24.9925 28.0571C25.1573 28.123 25.344 28.1999 25.5308 28.2328C26.0361 28.3207 26.157 28.1449 26.2339 28.0241C26.2778 27.9582 26.2998 27.9252 26.3877 27.9033C26.4975 27.8813 26.7392 27.9802 26.9699 28.068C27.1676 28.1449 27.3654 28.2328 27.5631 28.2768C27.5631 28.112 27.5631 27.9472 27.5631 27.7714C27.5521 27.7714 27.5412 27.7714 27.5302 27.7714C27.4093 27.7605 27.2116 27.6836 27.0248 27.6067C26.6843 27.4638 26.2998 27.31 25.9812 27.376C25.7505 27.4309 25.6626 27.5517 25.6187 27.6286C25.5638 27.7165 25.5528 27.7275 25.388 27.6945C25.3111 27.6836 25.1902 27.6286 25.0694 27.5847C24.9266 27.5188 24.7508 27.4529 24.5751 27.4089C24.4652 27.3869 24.3773 27.365 24.3004 27.354C24.1356 27.321 24.0587 27.31 23.861 27.2222C23.4765 27.0574 23.2348 26.9585 23.07 26.9365C22.9931 26.9146 22.9272 26.8816 22.8613 26.8706C22.6745 26.8047 22.0484 26.4202 21.9056 26.4532C21.7627 26.4861 22.5867 27.7495 22.6745 28.0131C22.6965 28.09 22.6965 28.09 22.6526 28.134C22.5976 28.1779 22.5208 28.2438 22.5098 28.3866C22.5098 28.4306 22.5098 28.5075 22.5208 28.6063C22.5757 29.4193 22.1472 29.5511 22.1033 29.628C22.0594 29.7049 22.0923 29.8148 22.1802 29.9246C22.3999 30.1553 22.4219 30.408 22.3999 30.5728C22.345 30.9463 22.0154 31.2758 21.6529 31.3308C21.576 31.3417 21.5321 31.3747 21.5101 31.4406C21.4881 31.4955 21.5101 31.5724 21.554 31.6384C21.8396 32.0668 21.9605 32.5282 21.8616 32.8248C21.7847 33.0445 21.598 33.1763 21.2904 33.2093C21.2135 33.2203 21.1585 33.2532 21.1366 33.3191C21.1146 33.3851 21.1366 33.462 21.1915 33.5279C21.4222 33.8355 21.4112 33.9234 21.3453 34.176C21.4002 34.2529 21.3892 34.3188 21.3783 34.3847Z" fill="#F6F6F6"/>
<path d="M28.1783 61.3652C28.0245 61.3981 27.8707 61.464 27.7059 61.5959L27.673 61.6178C27.2335 61.9694 27.0138 62.1232 26.4096 61.9254C26.135 61.8375 25.8164 61.6508 25.4759 61.464C25.2342 61.3322 24.9815 61.1784 24.7069 61.0576C24.9815 60.9038 25.6297 60.4973 26.882 59.6844C26.9479 59.6404 27.0138 59.5965 27.0797 59.5525C27.0248 59.4317 26.9809 59.2999 26.9369 59.179C25.7835 60.1128 24.7948 60.9038 24.641 61.0356C24.3224 60.8928 23.9818 60.7719 23.6413 60.75C23.3227 60.717 23.0371 60.8488 22.7624 60.9697C22.6745 61.0136 22.5757 61.0576 22.5207 61.0685C22.3999 61.1015 22.312 61.1345 22.2571 61.1674C22.2131 61.1454 22.1472 61.1235 22.0813 61.1015L21.9605 61.0576C21.7847 60.9916 21.598 60.9038 21.4002 60.8269C20.8839 60.6072 20.2907 60.3545 19.6645 60.1897C19.3679 60.1128 19.1372 59.992 18.8406 59.8272C18.522 59.6624 18.1705 59.4756 17.7091 59.3328C17.4234 59.2449 17.1598 59.223 16.9291 59.201C16.8082 59.19 16.6984 59.179 16.5775 59.1571C16.3798 59.1241 16.1271 59.0692 15.8855 59.0142C15.5449 58.9373 15.2922 58.8824 15.1165 58.8714C14.4573 58.6407 14.2157 58.4979 14.0728 58.1793C13.9959 58.0146 13.9959 57.8608 13.985 57.696C13.974 57.3664 13.952 56.9599 13.3148 56.4656C12.5239 55.8504 11.7 55.8065 11.0408 55.7625C10.7442 55.7405 10.4586 55.7296 10.1949 55.6746C10.2169 55.5977 10.2499 55.5208 10.2828 55.4439C10.4586 54.9716 10.6563 54.4333 10.0631 53.7302C9.71157 53.3127 7.54742 51.7198 7.52545 51.61C7.4815 51.3463 7.43756 51.0497 7.19588 50.7641C6.98715 50.5114 6.67956 50.3027 6.38295 50.094C6.10831 49.9072 5.83367 49.7095 5.77874 49.5777C5.7348 49.4678 5.75677 49.4129 5.80071 49.325C5.87761 49.1602 5.97648 48.9075 5.52607 48.4132C5.35031 48.2264 5.14158 48.0836 4.94384 47.9518C4.80103 47.8639 4.6692 47.776 4.5923 47.6881C4.50442 47.6002 4.42752 47.5233 4.36161 47.4574C4.18584 47.2707 4.03204 47.1059 3.65853 46.8642C3.42783 46.7104 3.16418 46.5346 3.06531 46.4468C3.03235 46.4028 2.98841 46.3589 2.93348 46.3149C2.87855 46.271 2.83461 46.238 2.79067 46.2051C4.04302 46.4907 8.39331 47.4794 10.7882 47.8749C10.876 47.9628 10.898 48.0287 10.8101 48.1385C10.942 48.0616 11.0628 47.9847 11.1836 47.9188C11.7988 48.0287 19.2141 48.9844 19.4008 48.9954C18.9175 49.3909 17.7091 50.1819 16.6215 50.6103C14.8748 51.2914 9.95326 52.2142 9.95326 52.2142C9.95326 52.2142 12.2822 51.8846 13.7652 51.6649C14.1497 51.61 14.3145 51.632 14.6331 51.5221C15.1275 51.3463 15.5888 51.1596 16.0502 50.9508C17.0609 50.5114 18.0496 50.039 18.9944 49.5337C19.1372 49.4568 19.28 49.3799 19.4228 49.292C19.5437 49.2261 19.6755 49.1053 19.8512 49.0943C19.9172 49.0943 19.9281 49.0833 19.9941 49.0833C20.0929 49.0943 20.7081 49.1932 20.8399 49.2151C21.1695 49.2701 21.4332 49.2261 21.7847 49.314C21.9385 49.3579 22.0593 49.3909 22.2131 49.3909C22.3779 49.3909 22.5098 49.4129 22.6855 49.4788C22.8393 49.5337 23.8829 49.6216 24.0038 49.6545C24.1246 49.6875 25.0914 49.8193 25.2122 49.8523L24.6739 50.2038C24.597 50.3027 24.5531 50.5114 24.4762 50.6103C24.3553 50.7751 24.1246 51.0387 23.8939 51.1266C23.6523 51.2145 23.3996 51.4782 23.1469 51.566C22.8174 51.6759 22.6526 51.7088 22.4438 51.9286C22.0813 52.324 21.4881 52.1922 21.0487 52.5547C20.829 52.7415 20.3017 52.9282 19.9501 53.0271C19.7853 53.0711 19.3789 53.1589 19.2361 53.2029C19.0823 53.2578 18.544 53.2908 18.4121 53.3677C18.0606 53.5764 18.1814 53.5874 17.72 53.6313C17.3905 53.6643 16.9511 53.884 16.7094 54.0048C16.3578 54.1806 16.0502 53.84 15.6877 54.0048C15.3911 54.1367 12.2602 55.1913 11.9087 55.2901C12.2822 55.4 15.7207 54.3564 16.0393 54.3234C16.4677 54.2685 16.8851 54.1037 17.2257 53.9719C17.8519 53.7302 18.489 53.5654 19.2031 53.4006C20.005 53.2139 20.8399 52.9832 21.4771 52.5767C22.1362 52.1593 22.9492 51.9505 23.6523 51.566C24.2015 51.2694 24.7398 50.9618 25.0364 50.5114C25.2122 50.2478 25.4868 50.2148 25.8054 50.05C25.8933 50.0061 26.0032 49.9731 26.124 49.9292C26.2339 49.9621 26.3547 49.9841 26.4865 50.0061V49.7314C25.7835 49.6545 25.0474 49.5557 24.4322 49.4348C23.828 48.9625 21.0816 47.051 20.8399 46.8203C20.038 46.0952 19.247 45.5679 18.2364 44.9967C16.2809 43.8761 12.1943 42.0965 10.151 41.1517C10.3597 41.3275 13.3148 42.9314 13.6883 43.1291C14.2816 43.4587 14.5672 43.2719 15.0725 43.5685C16.1052 44.1618 17.2037 44.4913 18.1375 45.0846C19.1042 45.6997 21.0157 47.2487 22.0374 47.8859C22.1692 47.9628 24.0367 49.1382 23.872 49.4568C23.806 49.5667 22.1802 49.0503 21.9495 49.0723C21.587 49.0943 20.9828 49.2041 19.8952 48.8636C19.247 48.6549 18.5 48.6109 18.1045 48.578C18.0716 48.556 16.9291 47.9738 16.9071 47.9518C16.5007 47.6881 16.204 47.3915 15.7536 47.1498C14.8528 46.6665 14.5452 46.238 13.6774 45.7327C12.9194 45.2933 12.1614 44.755 11.3594 44.3925C10.6344 44.0629 9.77749 43.5685 9.07441 43.5026C10.3707 44.1618 11.689 44.777 12.9853 45.4581C13.6444 45.7986 14.0399 46.271 14.6441 46.6665C15.0066 46.9082 16.962 48.1605 17.4674 48.567C17.2587 48.512 16.0612 48.4022 15.9074 48.3583C15.3252 48.2045 14.9846 48.2154 14.3475 48.1495C13.2819 48.0507 13.227 48.0507 13.1061 48.0177C12.8974 47.9628 12.0735 47.6552 11.9526 47.6442C11.7 47.4464 10.0961 46.3918 9.33807 45.9634C7.69023 45.0296 6.29506 44.5572 6.29506 44.5572C6.29506 44.5572 10.4806 46.7983 11.3704 47.6442C11.1727 47.6442 10.3597 47.5233 10.0192 47.4904C8.89864 47.3915 4.79004 46.282 3.25206 46.0842C3.43882 46.0733 3.6036 46.0513 3.74641 46.0183C4.13091 45.9195 4.18584 45.7327 4.20781 45.5789C4.29569 45.5459 4.29569 45.535 4.31766 45.524C4.35062 45.502 4.42752 45.4581 4.5154 45.4031C5.14158 45.0406 5.75677 44.6561 5.69086 44.1728C6.06437 44.1508 6.39393 44.019 6.6466 43.7883C7.07504 43.4038 7.25081 42.7886 7.11898 42.2283C7.866 42.1734 8.47021 41.9207 8.76682 41.5252C8.98653 41.2396 9.04145 40.8771 8.92061 40.4926C9.45891 40.4596 9.64566 40.2619 9.86537 40.0202C9.90931 39.9653 9.96424 39.9104 10.0192 39.8554C10.162 39.7126 10.3268 39.5918 10.5025 39.4709C10.7332 39.3061 10.9749 39.1414 11.1836 38.8997C11.2276 38.8448 11.2496 38.7898 11.2605 38.7239C11.3594 38.7569 11.4912 38.7898 11.6231 38.7898C12.0735 38.7788 12.469 38.7679 12.8644 38.7349C13.2709 38.691 13.6114 38.5921 13.941 38.4822C14.2266 38.3943 14.5013 38.3065 14.7979 38.2735C15.5998 38.1637 15.9514 38.0428 16.5666 37.7901C17.2037 37.5265 17.4784 37.4496 18.3023 37.6034C18.6538 37.6693 18.9834 37.6803 19.302 37.7023C19.6645 37.7242 20.016 37.7352 20.3676 37.8231C20.4884 37.8561 20.6202 37.911 20.774 37.9769C20.8729 38.0208 20.9828 38.0648 21.0926 38.1087C20.8839 37.8451 20.6312 37.5375 20.5983 37.3837C20.5983 37.3617 20.5983 37.3287 20.5983 37.2848C20.5104 37.2518 20.4225 37.2189 20.3236 37.1969C19.8403 37.0761 19.4228 37.0541 19.0163 37.0321C18.7197 37.0212 18.4451 36.9992 18.1705 36.9552C17.0829 36.7575 16.6544 36.8783 15.9184 37.175C15.3362 37.4166 15.0506 37.5155 14.3255 37.6144C13.963 37.6583 13.6444 37.7572 13.3478 37.8561C13.0402 37.9549 12.7436 38.0428 12.414 38.0758C12.0845 38.1087 10.898 37.922 10.6014 38.0318C10.4476 38.0977 9.9972 38.7679 9.78847 38.9217C9.60172 39.0535 9.41496 39.1743 9.23919 39.3501C9.17328 39.416 9.11835 39.4709 9.06343 39.5259C8.82174 39.7785 8.75583 39.8664 8.23951 39.8225C8.11867 39.8115 8.0198 39.8444 7.96487 39.9104C7.90994 39.9763 7.90994 40.0642 7.95388 40.152C8.12965 40.5036 8.12965 40.8112 7.9429 41.0529C7.69023 41.3824 7.108 41.5802 6.42689 41.5692C6.31704 41.5692 6.22915 41.6021 6.17422 41.668C6.13028 41.7449 6.13028 41.8218 6.17422 41.9097C6.38295 42.3492 6.25112 42.9424 5.8886 43.2719C5.72381 43.4147 5.43819 43.5795 5.02074 43.5026C4.84497 43.4697 4.70216 43.5136 4.64723 43.6235C4.60329 43.7333 4.75709 44.2936 3.8343 44.8209C3.71346 44.8868 3.62557 44.9417 3.58163 44.9747C3.42783 45.0846 3.40586 45.2274 3.39488 45.3153C3.38389 45.3921 3.38389 45.3921 3.27403 45.4251C2.91151 45.513 0.93411 45.535 1.00002 45.6997C1.06594 45.8755 1.95577 46.293 2.15351 46.4468C2.21942 46.5017 2.29632 46.5566 2.3842 46.6225C2.52702 46.7763 2.80166 46.9851 3.26305 47.2817C3.49375 47.4355 3.57064 47.5124 3.72444 47.6662C3.79036 47.7431 3.87824 47.82 3.97711 47.9298C4.14189 48.0946 4.33963 48.2264 4.5154 48.3473C4.65822 48.4461 4.80103 48.534 4.86694 48.6109C5.02074 48.7757 5.00975 48.7977 4.95483 48.9185C4.92187 49.0394 4.84497 49.2151 4.95483 49.5117C5.10862 49.9072 5.55903 50.2148 5.95451 50.4894C6.17422 50.6432 6.40492 50.797 6.50379 50.9179C6.60266 51.0387 6.63562 51.2584 6.66857 51.4452C6.7235 51.7967 6.8004 52.2691 7.44855 52.5547C7.51446 52.5877 9.12934 53.6094 9.37102 53.906C9.70059 54.3014 9.6127 54.609 9.43693 55.0704C9.37102 55.2572 9.29412 55.4439 9.26117 55.6636C9.23919 55.8065 9.38201 55.9932 9.60172 56.0921C10.2389 56.3667 10.8211 56.3997 11.3374 56.4326C12.0076 56.4766 12.403 56.5095 12.8205 56.8281C13.0951 57.0368 13.1061 57.1687 13.1281 57.4763C13.1391 57.663 13.1391 57.8827 13.2599 58.1574C13.6224 58.9703 14.5232 59.2779 15.1714 59.5086C15.2703 59.5416 15.3582 59.5525 15.4351 59.5416C15.5449 59.5635 15.7976 59.6075 15.9843 59.6514C16.248 59.7063 16.5116 59.7613 16.7423 59.8052C16.9071 59.8272 17.0499 59.8492 17.1927 59.8601C17.3795 59.8821 17.5443 59.8931 17.6871 59.937C18.0167 60.0359 18.2803 60.1787 18.555 60.3215C18.8845 60.4973 19.258 60.695 19.7194 60.8159C20.2248 60.9477 20.7301 61.1564 21.2244 61.3761C21.4332 61.464 21.6309 61.5519 21.8177 61.6288L21.9385 61.6728C22.3889 61.8595 22.6196 61.9474 22.9052 61.7936C22.9492 61.7716 22.9931 61.7387 23.103 61.7167C23.2018 61.6837 23.3117 61.6398 23.4325 61.5849C23.5644 61.5299 23.7951 61.4201 23.8829 61.4201C24.2345 61.453 24.6629 61.6947 25.1243 61.9584C25.5198 62.1781 25.9153 62.4088 26.3437 62.5516C27.5082 62.9251 27.9806 62.5516 28.431 62.1891L28.4639 62.1341C28.5848 62.0353 28.6507 62.0023 28.7166 62.0023C28.5298 61.7936 28.3541 61.5849 28.1783 61.3652Z" fill="#F6F6F6"/>
<path d="M33.748 41.7343C33.7041 41.7233 33.6711 41.7123 33.6491 41.7013C33.012 41.5145 32.1111 41.2729 31.5179 40.9103C30.9247 40.5478 30.4743 40.394 29.8701 40.1084C29.2769 39.8337 28.6727 39.5591 28.1014 39.2076C27.6181 38.911 26.8161 38.4825 26.2998 38.2518C25.6407 37.9442 23.4106 36.7688 22.5208 36.4722C23.85 37.2192 25.399 37.9223 25.9263 38.3617C26.2558 38.6363 26.3767 38.5484 28.2992 39.614C29.0462 39.6909 29.5955 40.2402 30.2985 40.5808C30.6611 40.7565 31.0346 40.8115 31.4081 40.9982C31.7047 41.152 31.9793 41.3937 32.2759 41.5255C32.5945 41.6683 33.1218 41.8441 33.7041 42.0199C33.715 41.932 33.737 41.8331 33.748 41.7343Z" fill="#F6F6F6"/>
<path d="M27.3873 28.9028L27.629 31.1329C27.618 30.331 27.607 29.4851 27.4423 29.0347C27.4093 28.9468 27.3873 28.9028 27.3873 28.9028Z" fill="#F6F6F6"/>
<path d="M27.629 31.1333C27.629 31.342 27.64 31.5398 27.64 31.7375C27.651 31.7045 27.662 31.6496 27.673 31.5837L27.629 31.1333Z" fill="#F6F6F6"/>
<path d="M75.4162 30.2322C75.4052 29.9685 75.4052 29.6939 75.4382 29.4083C75.4711 29.1556 75.5261 28.9139 75.57 28.6832C75.6469 28.3207 75.7128 27.9692 75.7128 27.5957C75.7018 27.5298 75.6799 27.4748 75.6689 27.4089C75.614 27.1123 75.581 26.8047 75.559 26.4971C75.5151 26.3213 75.4711 26.1346 75.4272 25.9588C75.3833 25.783 75.3283 25.6073 75.2844 25.4205C75.2075 25.1129 75.1306 24.8163 75.0427 24.5087C74.9658 24.2451 74.8889 23.9704 74.812 23.6738C74.7131 23.3003 74.4495 23.0586 74.1419 22.784C73.9002 22.5753 73.6585 22.3446 73.4608 22.037C73.3839 21.9161 73.329 21.7843 73.274 21.6744C73.1971 21.4987 73.1312 21.3559 73.0104 21.246C72.7797 21.0593 72.4831 20.9055 72.1974 20.7517C71.9667 20.6308 71.7251 20.499 71.5054 20.3562C71.2856 20.2024 71.0659 20.0376 70.8572 19.8838C70.5935 19.6861 70.3189 19.4773 70.0333 19.2906C69.5829 18.994 69.1764 18.6314 68.7919 18.2689C68.3305 17.8515 67.8581 17.4121 67.3089 17.1154C67.0342 16.9616 66.7376 17.0056 66.3751 17.0715C66.1664 17.1045 65.9576 17.1374 65.7269 17.1484C65.0678 17.1484 64.6943 16.9726 64.1999 16.72C64.134 16.687 64.0791 16.654 64.0132 16.6211C63.5188 16.3794 63.0025 16.2146 62.4642 16.0498C62.3324 16.0059 62.2116 15.9729 62.0797 15.929C61.8051 15.8411 61.5524 15.6983 61.3107 15.5555C61.124 15.4566 60.9592 15.3578 60.7834 15.2918C60.6846 15.2918 60.5857 15.2589 60.4978 15.204C60.1463 15.149 59.7508 15.193 59.3224 15.2479C59.0367 15.2918 58.7291 15.3248 58.4435 15.3248C58.3007 15.3248 58.1579 15.3248 58.0151 15.3138C57.5976 15.3028 57.1912 15.2918 56.8286 15.4127C56.1475 15.6544 55.4115 15.896 54.6425 16.0608C54.4338 16.1048 54.2031 16.1377 53.9724 16.1707C53.544 16.2366 53.0935 16.3025 52.731 16.4453C52.7091 16.4673 50.6877 17.3352 50.5559 17.3571C50.2373 17.3901 50.0505 17.4121 49.721 17.6318C49.4463 17.8185 48.952 18.236 48.4576 18.4557C48.6114 18.4996 48.7652 18.5436 48.93 18.5985C49.4573 18.7523 50.0176 18.9061 50.5119 19.1697C50.7097 19.2686 50.8525 19.4114 50.9843 19.5433C51.0283 19.5872 51.0722 19.6311 51.1271 19.6751C51.248 19.7849 51.4018 19.8728 51.5556 19.9717C51.7423 20.0815 51.9291 20.1914 52.0939 20.3452C52.3905 20.6088 52.6541 20.9274 52.9178 21.235C53.0057 21.3339 53.0935 21.4328 53.1704 21.5316C53.3572 21.7404 53.489 21.9271 53.6099 22.1249C53.8186 22.4325 53.9944 22.6961 54.3349 22.9158C54.8403 23.2454 55.1259 23.6299 55.4554 24.0583L55.5653 24.2121C56.4112 25.3107 57.1472 26.3873 57.7624 27.4199C57.8613 27.5737 57.9052 27.7385 57.9492 27.8813C57.9711 27.9802 58.0041 28.068 58.037 28.134C58.081 28.2109 58.1579 28.2987 58.2458 28.3866C58.3996 28.5514 58.5644 28.7272 58.6303 28.9689C58.7182 29.2655 58.6742 29.5072 58.6413 29.7049C58.6083 29.9136 58.5863 30.0564 58.6742 30.2542C58.8829 30.6716 59.0807 31.0451 59.2784 31.3967C59.608 31.9789 59.6849 32.3524 59.7947 32.9017L59.8277 33.0665C59.8716 33.2642 59.9595 33.5059 60.0584 33.6377L60.2232 33.8794L60.322 33.8465C60.388 33.8245 60.4319 33.8135 60.4868 33.8135C60.5637 33.8135 60.7175 33.8465 60.7944 34.0332L60.8054 34.0442C60.8933 34.0991 60.9702 34.165 61.0471 34.2309C61.146 34.3188 61.2558 34.4067 61.3657 34.4616C61.4645 34.5056 61.5634 34.5166 61.6952 34.5385C61.8381 34.5605 62.0028 34.5715 62.1566 34.6484C62.3104 34.7143 62.4203 34.8352 62.5082 34.934C62.5631 34.9999 62.629 35.0658 62.673 35.0878C62.7828 35.1427 62.9037 35.1757 63.0355 35.2087C63.2003 35.2526 63.376 35.2965 63.5628 35.3954C64.5735 35.9447 65.1227 36.5379 65.9247 37.4607C66.0455 37.6035 66.2323 37.7353 66.43 37.8672C66.7047 38.0539 66.9793 38.2407 67.177 38.5263C67.2649 38.6471 67.3198 38.779 67.3638 38.8998C67.4077 39.0097 67.4517 39.1195 67.5176 39.2074C67.5835 39.2953 69.1874 41.4704 69.3742 41.5803C70.6485 42.3822 71.802 40.6245 72.2304 39.6358C72.3183 39.4381 72.3842 39.2733 72.4281 39.1525C72.6149 38.6252 72.9554 38.2297 73.296 37.8452C73.7354 37.3399 74.4385 35.4943 74.6033 35.2087C74.6912 35.0439 74.79 34.8791 74.8889 34.7363C75.0317 34.5385 74.9768 34.3957 75.0976 34.2639C75.3503 34.0002 75.3283 33.8245 75.4052 33.407C75.559 32.682 75.0757 32.0338 75.3064 31.2868C75.4382 30.9463 75.4272 30.6057 75.4162 30.2322ZM70.6704 22.7071C70.8023 22.1908 71.011 21.6305 71.2307 21.1252C71.5383 20.3891 71.7031 20.8835 72.1535 21.3009C72.3073 21.4547 72.5929 21.3449 72.516 21.7074C72.4721 21.9161 72.0546 22.004 71.9997 22.1358C71.8898 22.3665 72.0546 22.7071 71.9997 22.9488C71.9008 23.3662 71.6372 23.4431 71.3625 23.6628C70.9231 24.0254 70.6375 24.3659 70.0992 24.5417C69.5719 24.7175 69.2313 24.8932 68.6601 25.025L68.3635 25.036C68.8688 24.1682 70.4178 23.7287 70.6704 22.7071ZM63.5408 26.4422C63.8484 25.9478 64.0681 25.4315 64.4306 24.9591C64.7602 24.5307 64.8811 24.0144 65.2326 23.6299C65.65 23.1685 66.0895 23.0257 66.43 22.4874C66.6717 22.1029 66.419 20.0706 67.4956 21.0922C68.5722 22.1139 67.1551 22.1468 66.9354 22.6522C66.6827 23.2564 66.2872 23.6189 65.8588 24.0803C65.65 24.311 65.4743 24.5307 65.3095 24.8053C65.1337 25.1019 65.1337 25.1019 64.914 25.3436C64.4746 25.816 63.9363 26.2554 63.5408 26.7388V26.4422ZM60.5967 25.08C60.6956 24.6406 61.3767 23.3772 61.6843 23.2454L61.7062 23.2344C61.882 23.1355 62.3324 23.5969 62.2225 23.8166C62.1017 23.9155 61.4206 24.278 61.3327 24.6296C61.2558 24.9701 60.8933 25.2777 60.9922 25.6512C61.0801 26.0137 61.4975 26.1675 61.5634 26.618C61.6074 26.9255 61.6513 27.3979 61.6183 27.6945C61.5744 28.1999 60.8823 29.2545 61.7831 28.9689C62.4862 28.7492 62.662 27.2661 63.5628 27.6945C64.4636 28.123 61.0471 29.4852 61.3547 30.9243C61.3986 31.0232 61.4096 31.122 61.3657 31.2099C61.2558 31.166 61.2338 31.144 61.1569 31.0671C60.9702 30.8474 61.0471 30.2981 60.9482 29.9905C60.8274 29.639 60.6736 29.4412 60.6516 29.0348C60.6077 28.3537 60.9263 27.5957 60.8274 27.0684C60.8054 26.9585 60.6406 26.8047 60.5967 26.6619C60.5527 26.5081 60.5967 26.2774 60.5967 26.1126C60.5967 25.805 60.5308 25.3876 60.5967 25.08ZM59.2564 19.5323C59.1356 19.8399 59.1246 19.9058 58.8939 20.1584C58.7401 20.3232 58.3886 20.4551 58.3337 20.6857C58.2458 21.0483 58.7511 21.6744 58.7951 22.0699C58.839 22.4654 58.7951 24.0473 58.7291 25.036C58.4215 24.7065 58.6193 23.8606 58.5094 23.3992C58.3996 22.8938 57.8393 22.5094 57.5976 22.037C57.1912 21.224 57.2351 20.3562 56.576 19.7739L56.543 19.752C55.4115 19.3895 53.3902 19.3016 53.1814 18.8621C52.9727 18.4227 54.6205 18.6534 55.1039 18.7743C55.7191 18.9281 56.2684 19.0928 56.9165 19.0159C56.9605 18.225 55.3895 17.5878 56.0267 17.2912C56.6639 16.9946 56.9055 18.0492 57.334 18.4008C57.5647 18.5985 58.059 19.3675 58.3996 19.2686C58.7401 19.1697 58.5424 18.8951 58.6742 18.6424C58.817 18.3788 59.0807 18.2579 59.2894 18.0712C59.7178 17.6757 59.6629 16.2256 60.377 16.4014C61.0801 16.5552 59.6519 18.4667 59.2564 19.5323ZM72.9445 33.6707C72.5929 33.9233 71.2637 33.5169 70.5057 33.5828C70.0113 33.6267 69.6488 33.9233 69.1435 33.9233C68.8139 33.9233 68.3635 33.7146 68.0229 33.7146C67.8691 34.0662 68.5722 34.7253 68.748 35.0658C69.0116 35.5822 68.9237 36.1754 69.0885 36.7247C68.4294 36.6917 68.6271 36.1974 68.3745 35.8348C68.1548 35.5163 67.8472 35.4284 67.6604 35.0439C67.5066 34.7363 67.3418 34.6594 67.1551 34.3847C66.9463 34.0662 66.6387 34.4616 66.7156 33.2422C66.7925 32.0228 71.011 32.8468 71.5273 32.7369C71.9228 32.649 72.3073 31.9459 72.7687 32.2426C73.2191 32.5502 73.307 33.407 72.9445 33.6707ZM73.307 28.6503C73.0104 29.0897 71.9448 28.7052 71.4614 28.87C71.1648 28.9689 70.8902 28.9029 70.5935 29.0128C70.3189 29.1117 70.1981 29.5511 69.9015 29.5291C69.1764 29.4742 69.0006 29.1117 68.6381 29.2105C68.4074 29.2765 67.957 29.8916 67.7043 30.1333C67.2759 30.5288 67.1111 30.4959 66.5509 30.7266C66.2762 30.8364 65.9686 30.9572 65.705 31.0341C65.5951 31.0671 65.1777 30.4849 65.0678 30.5398C64.914 30.6167 64.947 31.7262 64.8261 31.7922C64.4746 31.9789 64.2878 31.6823 63.9033 31.7922C63.6287 31.8691 63.3211 31.88 63.0684 32.0338C62.5741 32.3304 62.3763 32.5392 61.849 32.7699C61.5744 32.8907 60.7615 33.3082 60.6077 33.462L60.5308 33.407C60.5857 33.2313 61.5305 32.4073 61.7941 32.1766C62.1457 31.8581 62.651 31.4955 63.0904 30.9682C63.5298 30.4299 63.8484 29.2105 64.2988 28.881C64.7492 28.5514 64.9689 29.65 66.5618 28.5404C66.8914 28.3097 67.21 28.2328 67.5396 28.0131C67.8581 27.8154 68.0888 27.5407 68.4623 27.3869C68.6601 27.31 68.7809 27.2881 69.0006 27.2881C69.2533 27.2991 69.4511 27.4748 69.6488 27.4748C70.0772 27.4748 70.6155 27.343 70.9011 26.9915C71.2087 26.618 71.4724 25.6293 71.9228 25.9478C72.2194 26.1566 72.0436 27.0793 72.3403 27.332C72.9335 27.1013 73.6695 28.123 73.307 28.6503Z" fill="#F6F6F6"/>
<path d="M7.75615 49.8634C8.36036 49.7206 9.29413 49.1274 10.184 48.5562L7.5694 49.8964C7.5694 49.8964 7.63531 49.8854 7.75615 49.8634Z" fill="#F6F6F6"/>
<path d="M108.153 42.4592C107.67 42.8437 107.077 43.7885 106.516 44.6783L108.307 42.3384C108.296 42.3384 108.241 42.3823 108.153 42.4592Z" fill="#F6F6F6"/>
<path d="M46.1067 19.0051C46.1946 19.038 46.2935 19.071 46.4143 19.1479C46.5791 19.2468 46.7219 19.3456 46.8647 19.4555C47.1284 19.6422 47.3811 19.818 47.6777 19.9388C47.7436 19.9608 47.8315 19.9938 47.9193 20.0267C48.2819 20.1476 48.6993 20.543 48.9959 20.7628C49.2925 20.9935 49.5013 21.0594 49.688 21.2461C49.7869 21.345 49.8858 21.4439 49.9846 21.5098C50.2922 21.7185 50.4131 21.8833 50.5559 22.0591C50.6218 22.1469 50.6877 22.2348 50.7866 22.3447C50.9184 22.4985 51.1052 22.5754 51.3139 22.6633C51.5775 22.7731 51.8741 22.9049 52.1048 23.2016C52.2916 23.4323 52.4674 23.608 52.6651 23.7948C52.8189 23.9376 52.9837 24.0914 53.1595 24.2891C53.3242 24.4759 53.489 24.6846 53.6428 24.8823C53.8296 25.113 53.9944 25.3437 54.1701 25.5305C54.3129 25.6843 54.4887 25.8381 54.6755 25.9919C54.8952 26.1786 55.1259 26.3764 55.3236 26.6071C55.4884 26.7828 55.6202 26.9806 55.7411 27.1564C55.9058 27.3871 56.0596 27.6068 56.2464 27.7825C56.3233 27.8484 56.3892 27.9144 56.4661 27.9803C56.8286 28.2989 57.1692 28.6065 57.279 29.2876C57.3669 29.8149 57.5097 30.1334 57.8723 30.5619C57.9711 30.6827 58.092 30.8585 58.2238 31.0562C58.4106 31.3309 58.5644 31.5396 58.7841 31.9351L58.9488 32.1658L58.9159 31.8582C58.872 31.7593 58.795 31.5726 58.7291 31.4517C58.5314 31.0892 58.4325 30.9354 58.2238 30.507C58.059 30.1664 58.103 29.8808 58.1359 29.6391C58.1689 29.4633 58.1908 29.3095 58.1359 29.1338C58.103 29.0239 57.9821 28.8921 57.8723 28.7712C57.7624 28.6504 57.6526 28.5405 57.5757 28.3977C57.5207 28.2879 57.4768 28.167 57.4438 28.0462C57.4109 27.9253 57.3779 27.8045 57.312 27.7056C56.7078 26.684 55.9827 25.6294 55.1478 24.5418L55.027 24.388C54.7084 23.9705 54.4667 23.641 54.0383 23.3663C53.6208 23.0807 53.3902 22.7511 53.1704 22.4326C53.0496 22.2568 52.9288 22.081 52.764 21.8943C52.6761 21.7954 52.5882 21.6965 52.5003 21.5867C52.2586 21.2901 51.995 20.9935 51.7313 20.7518C51.5995 20.6309 51.4457 20.543 51.2699 20.4332C51.0942 20.3233 50.9184 20.2245 50.7536 20.0817C50.6987 20.0377 50.6548 19.9828 50.5998 19.9388C50.49 19.829 50.3801 19.7191 50.2593 19.6642C49.8089 19.4335 49.2816 19.2797 48.7762 19.1369C48.183 18.9611 47.5568 18.7854 47.0185 18.4668L46.9306 18.4228C46.7109 18.291 46.6011 18.2251 46.3594 18.1812C45.92 18.2031 45.4696 18.3789 45.5794 18.7634C45.6453 18.8623 45.9419 18.9392 46.1067 19.0051Z" fill="#F6F6F6"/>
<path d="M114.668 43.1294C114.58 43.1074 114.492 43.0854 114.393 43.0744C114.195 42.9975 113.866 42.9316 113.316 42.8547C113.042 42.8218 112.943 42.7778 112.734 42.7009C112.635 42.668 112.525 42.624 112.394 42.5801C112.174 42.5032 111.932 42.4702 111.724 42.4373C111.548 42.4153 111.383 42.3824 111.284 42.3494C111.075 42.2725 111.075 42.2505 111.075 42.1187C111.075 41.9869 111.064 41.8001 110.834 41.5804C110.526 41.2948 109.988 41.2069 109.515 41.13C109.252 41.0861 108.977 41.0421 108.834 40.9762C108.691 40.9103 108.571 40.7345 108.461 40.5807C108.263 40.2951 107.988 39.8886 107.274 39.9106C107.197 39.9106 105.308 39.6799 104.956 39.5151C104.495 39.3064 104.44 38.9878 104.396 38.4935C104.385 38.2957 104.363 38.098 104.308 37.8893C104.264 37.7465 104.056 37.6476 103.825 37.6476C103.133 37.6696 102.595 37.8893 102.111 38.087C101.485 38.3397 101.111 38.4715 100.606 38.3616C100.266 38.2847 100.189 38.1749 100.057 37.9112C99.969 37.7464 99.8701 37.5487 99.6504 37.362C98.9693 36.7797 98.0355 36.8896 97.3434 36.9665C97.2445 36.9775 97.1566 37.0104 97.0907 37.0544C96.9809 37.0873 96.7392 37.1422 96.5524 37.1862C96.2888 37.2521 96.0251 37.307 95.8054 37.3729C95.6516 37.4169 95.5088 37.4718 95.377 37.5158C95.2012 37.5817 95.0474 37.6366 94.8936 37.6586C94.5531 37.7025 94.2565 37.6915 93.9379 37.6805C93.5644 37.6696 93.1469 37.6476 92.6745 37.7465C92.1582 37.8453 91.6089 37.8673 91.0816 37.8893C90.8619 37.9003 90.6422 37.9112 90.4335 37.9222L90.3017 37.9332C89.8073 37.9662 89.5656 37.9771 89.3789 38.2408C89.3459 38.2847 89.313 38.3287 89.2361 38.4056C89.1592 38.4715 89.0823 38.5704 88.9944 38.6692C88.9065 38.7791 88.7307 38.9768 88.6538 39.0208C88.5989 39.0427 88.533 39.0537 88.4671 39.0647C88.4671 39.2625 88.4671 39.4602 88.4671 39.6579C88.6978 39.636 88.9285 39.603 89.1372 39.5151C89.4448 39.4053 89.6425 39.1636 89.8403 38.9329C89.9062 38.856 89.9721 38.7791 90.016 38.7352C90.1149 38.6473 90.1698 38.5814 90.2138 38.5374C90.2687 38.5374 90.3346 38.5264 90.4005 38.5264L90.5324 38.5154C90.7191 38.5045 90.9278 38.4935 91.1366 38.4825C91.6968 38.4605 92.345 38.4385 92.9712 38.3067C93.2678 38.2518 93.5314 38.2628 93.872 38.2738C94.2235 38.2847 94.63 38.3067 95.1024 38.2408C95.399 38.1969 95.6516 38.109 95.8604 38.0321C95.9702 37.9881 96.0801 37.9442 96.1899 37.9222C96.3767 37.8673 96.6403 37.8124 96.882 37.7465C97.2226 37.6696 97.4642 37.6036 97.629 37.5487C98.3211 37.4718 98.6067 37.4938 98.8704 37.7245C99.0132 37.8453 99.0791 37.9771 99.156 38.12C99.3098 38.4056 99.4966 38.7681 100.288 38.9439C101.265 39.1526 102.034 38.845 102.638 38.6033C102.913 38.4935 103.177 38.3836 103.44 38.3177C103.451 38.3946 103.462 38.4825 103.462 38.5594C103.506 39.0647 103.55 39.625 104.396 40.0095C104.89 40.2402 107.527 40.7345 107.593 40.8334C107.747 41.0531 107.912 41.3058 108.252 41.4596C108.549 41.6024 108.911 41.6573 109.274 41.7122C109.603 41.7672 109.933 41.8111 110.043 41.921C110.131 41.9979 110.131 42.0638 110.131 42.1626C110.142 42.3494 110.153 42.624 110.779 42.8657C111.009 42.9536 111.273 42.9975 111.504 43.0305C111.669 43.0525 111.822 43.0744 111.932 43.1184C112.053 43.1623 112.152 43.1953 112.24 43.2282C112.482 43.3161 112.69 43.404 113.13 43.4589C113.404 43.4919 113.712 43.5468 113.844 43.5798C113.888 43.6018 113.954 43.6237 114.019 43.6347C114.085 43.6457 114.14 43.6567 114.195 43.6677C112.943 43.9423 108.593 44.931 106.253 45.6011C106.143 45.5572 106.088 45.5132 106.121 45.3814C106.033 45.5023 105.956 45.6341 105.879 45.7439C105.275 45.9087 98.1673 48.2377 97.9916 48.3146C98.2662 47.7543 99.0022 46.5239 99.8042 45.667C101.089 44.2938 105.132 41.3497 105.132 41.3497C105.132 41.3497 103.166 42.657 101.924 43.4919C101.606 43.7006 101.441 43.7556 101.199 43.9972C100.837 44.3598 100.496 44.7443 100.156 45.1178C99.4307 45.9527 98.7386 46.7986 98.1124 47.6664C98.0135 47.7982 97.9147 47.9301 97.8268 48.0619C97.7389 48.1827 97.684 48.3365 97.5192 48.4244C97.4642 48.4574 97.4642 48.4684 97.3873 48.4903C97.2995 48.5233 96.6953 48.6991 96.5634 48.743C96.2448 48.8419 96.0251 48.9847 95.6736 49.0616C95.5088 49.0945 95.399 49.1165 95.2561 49.1824C95.1133 49.2483 94.9815 49.2923 94.7947 49.3033C94.641 49.3252 93.6523 49.6987 93.5314 49.7207C93.4106 49.7427 92.4878 50.0393 92.356 50.0613L92.6965 49.512C92.7185 49.3911 92.6745 49.1824 92.6965 49.0616C92.7405 48.8529 92.8283 48.5233 93.0041 48.3365C93.1799 48.1498 93.3007 47.8092 93.4875 47.6225C93.7401 47.3808 93.872 47.2819 93.9708 46.9963C94.1246 46.48 94.7179 46.3481 94.9595 45.8318C95.0804 45.5682 95.4649 45.1727 95.7395 44.931C95.8713 44.8212 96.2009 44.5685 96.2998 44.4586C96.4206 44.3378 96.893 44.0851 96.9809 43.9533C97.2006 43.6237 97.1017 43.6567 97.4972 43.415C97.7828 43.2392 98.0904 42.8547 98.2442 42.646C98.4749 42.3384 98.9034 42.5142 99.167 42.2066C99.3757 41.9539 101.749 39.6579 102.023 39.4163C101.628 39.4712 98.9802 41.899 98.7166 42.0638C98.3431 42.2945 98.0465 42.624 97.7938 42.8987C97.3324 43.382 96.8271 43.8105 96.2448 44.2609C95.5967 44.7772 94.9486 45.3485 94.5421 45.9746C94.1246 46.6338 93.4765 47.183 93.0151 47.8202C92.6416 48.3255 92.29 48.8309 92.2131 49.3692C92.1692 49.6768 91.9385 49.8306 91.7188 50.1162C91.6529 50.1931 91.576 50.281 91.4771 50.3579C91.1146 50.4348 90.6422 50.5886 90.1369 50.7973V51.1159C91.0597 50.7424 92.2461 50.3359 93.2128 50.0832C93.9599 50.248 97.2555 50.7973 97.5851 50.8852C98.6287 51.1928 99.5625 51.3246 100.716 51.4125C102.968 51.5773 107.417 51.4235 109.669 51.3905C109.406 51.3246 106.055 51.1488 105.627 51.1269C104.956 51.0939 104.781 51.3795 104.187 51.3356C103.001 51.2367 101.869 51.4235 100.771 51.2807C99.6284 51.1379 97.2445 50.5666 96.0471 50.4238C95.8933 50.4018 93.6962 50.1601 93.7182 49.7976C93.7292 49.6658 95.4209 49.4351 95.6187 49.3142C95.9372 49.1385 96.4316 48.776 97.5631 48.6222C98.2332 48.5233 98.9253 48.2596 99.3098 48.1058C99.3538 48.1058 100.628 48.1498 100.661 48.1498C101.144 48.2157 101.54 48.3475 102.045 48.3695C103.056 48.4134 103.528 48.6771 104.528 48.754C105.396 48.8199 106.319 48.9737 107.197 48.9627C107.988 48.9517 108.977 49.0286 109.636 48.7869C108.186 48.754 106.725 48.765 105.264 48.71C104.528 48.6881 103.957 48.4354 103.243 48.3365C102.814 48.2816 100.507 47.985 99.8811 47.8422C100.101 47.7982 101.221 47.3918 101.375 47.3588C101.968 47.238 102.276 47.0952 102.869 46.8755C103.869 46.5019 103.924 46.48 104.045 46.458C104.264 46.4141 105.132 46.3372 105.242 46.3042C105.55 46.3701 107.461 46.6338 108.329 46.6887C110.218 46.8205 111.68 46.6448 111.68 46.6448C111.68 46.6448 106.945 46.425 105.769 46.0406C105.945 45.9527 106.736 45.711 107.055 45.5901C108.109 45.1947 112.295 44.4367 113.767 43.9423C113.613 44.0302 113.47 44.1181 113.349 44.2169C113.053 44.4696 113.075 44.6564 113.13 44.8102C113.152 44.8651 113.152 44.8761 113.13 44.909C113.108 44.942 113.064 45.0189 112.998 45.0958C112.58 45.689 112.196 46.3042 112.46 46.7107C112.13 46.8974 111.888 47.1501 111.756 47.4687C111.537 47.996 111.647 48.6331 112.009 49.0836C111.361 49.4571 110.933 49.9404 110.823 50.4238C110.746 50.7753 110.856 51.1269 111.13 51.4235C110.658 51.6871 110.581 51.9398 110.482 52.2584C110.46 52.3243 110.438 52.4012 110.405 52.4781C110.339 52.6758 110.24 52.8516 110.131 53.0274C109.988 53.2691 109.845 53.5217 109.757 53.8293C109.746 53.8952 109.746 53.9611 109.757 54.0271C109.647 54.038 109.526 54.06 109.406 54.1259C108.999 54.3237 108.648 54.5104 108.307 54.7082C107.955 54.9169 107.692 55.1696 107.439 55.4002C107.219 55.609 107.011 55.7957 106.758 55.9605C106.077 56.3999 105.813 56.6636 105.374 57.1579C104.912 57.6743 104.693 57.85 103.891 58.0697C103.539 58.1686 103.243 58.2894 102.946 58.4103C102.605 58.5531 102.287 58.6849 101.935 58.7618C101.804 58.7838 101.661 58.7948 101.496 58.8058C101.309 58.8168 101.1 58.8277 100.881 58.8607C100.551 58.9266 100.266 59.0365 100.024 59.1244C99.914 59.1683 99.8042 59.2122 99.6943 59.2452C98.0245 59.7945 93.4216 60.3987 93.103 60.4207C92.9382 60.4316 92.7844 60.4097 92.5867 60.3877C92.4438 60.3657 92.2681 60.3438 92.0813 60.3328C91.3123 60.2998 90.6971 60.2339 89.9721 60.157L89.4887 60.1021C89.4338 60.0911 89.3789 60.0911 89.3239 60.0911C89.2251 60.2778 89.1152 60.4646 88.9944 60.6513C89.1042 60.6623 89.2141 60.6623 89.313 60.6733L89.7963 60.7282C90.5104 60.8051 91.1915 60.882 92.0044 60.915C92.1253 60.915 92.2351 60.937 92.3669 60.9589C92.6086 60.9919 92.8723 61.0249 93.2018 61.0029C93.5644 60.9809 98.2882 60.3767 100.145 59.7615C100.277 59.7176 100.408 59.6626 100.54 59.6187C100.76 59.5308 100.958 59.4539 101.166 59.41C101.276 59.388 101.419 59.377 101.573 59.377C101.771 59.366 102.001 59.3551 102.243 59.3111C102.726 59.2122 103.111 59.0475 103.495 58.8937C103.77 58.7838 104.023 58.6739 104.286 58.597C105.352 58.3004 105.692 58.0148 106.22 57.4216C106.637 56.9492 106.857 56.7405 107.461 56.345C107.769 56.1473 108.01 55.9166 108.241 55.7078C108.483 55.4881 108.702 55.2794 108.988 55.1036C109.274 54.9279 110.427 54.5983 110.647 54.3676C110.779 54.2358 110.889 53.4228 111.02 53.2031C111.13 53.0054 111.251 52.8077 111.328 52.5879C111.361 52.5001 111.383 52.4232 111.405 52.3572C111.504 52.0167 111.537 51.9178 112.02 51.7311C112.13 51.6871 112.207 51.6102 112.229 51.5333C112.251 51.4564 112.218 51.3685 112.13 51.3026C111.811 51.061 111.691 50.7863 111.745 50.4897C111.833 50.0832 112.273 49.6548 112.888 49.3692C112.987 49.3252 113.053 49.2483 113.075 49.1714C113.097 49.0945 113.064 49.0176 112.987 48.9517C112.613 48.6551 112.471 48.0509 112.668 47.6005C112.756 47.4028 112.943 47.1391 113.349 47.0183C113.525 46.9743 113.635 46.8645 113.635 46.7436C113.635 46.6228 113.251 46.1834 113.855 45.3045C113.932 45.1947 113.987 45.1068 114.019 45.0628C114.107 44.8871 114.063 44.7662 114.041 44.6783C114.019 44.6124 114.019 44.6014 114.107 44.5355C114.393 44.2938 116.173 43.426 116.041 43.3051C115.887 43.1733 114.909 43.1843 114.668 43.1294Z" fill="#F6F6F6"/>
<path d="M69.6158 44.7881C69.5719 44.6014 69.5389 44.4146 69.506 44.2389C69.4401 43.8434 69.3412 43.2392 69.3192 43.1952C69.2203 43.0195 69.0995 42.1296 69.0775 42.1296C68.9128 42.0857 68.4184 41.6682 68.3745 41.4485C68.2976 41.064 67.7373 40.2841 67.6824 40.1962C67.5945 40.0753 67.199 39.6579 67.1111 39.5261C67.0123 39.3942 66.9573 39.2404 66.9024 39.1196C66.8585 39.0207 66.8145 38.9219 66.7706 38.845C66.6278 38.6472 66.3971 38.4824 66.1554 38.3176C65.9357 38.1748 65.716 38.021 65.5512 37.8233C64.8042 36.9554 64.2878 36.4062 63.3431 35.8788C63.2112 35.8129 63.0794 35.769 62.9366 35.736C62.7828 35.6921 62.618 35.6482 62.4532 35.5713C62.3214 35.4944 62.2226 35.3955 62.1347 35.2966C62.0688 35.2307 62.0138 35.1648 61.9589 35.1428C61.871 35.0989 61.7721 35.0879 61.6513 35.0769C61.6074 35.0769 61.5744 35.0659 61.5305 35.0659C61.6293 35.1208 61.7172 35.1977 61.7831 35.2527C61.8381 35.2966 61.882 35.3406 61.9369 35.3735C62.0468 35.4394 62.1566 35.5163 62.2665 35.5822C62.5851 35.78 62.9146 35.9887 63.2003 36.2304C63.6946 36.6369 64.0132 37.0433 64.3537 37.4718C64.6064 37.7903 65.0239 38.3176 65.4413 38.6033C65.8038 38.8559 66.5179 39.9435 66.6058 40.0204C66.9463 40.306 67.4736 41.1959 67.5615 41.3387C67.7483 41.6573 67.946 41.9539 68.1548 42.2724C68.2756 42.4592 68.2426 42.646 68.3635 42.8437C68.4184 42.9206 68.5502 43.1293 68.6271 43.2282C68.7809 43.4149 69.0556 44.8431 69.0666 44.887C69.2863 45.623 69.6817 46.0075 69.7477 46.0295C69.7696 46.0185 69.7916 45.2605 69.6268 44.865L69.6158 44.7881Z" fill="#F6F6F6"/>
<path d="M106.154 45.1618C106.121 45.2387 106.099 45.3046 106.088 45.3486C106.231 45.1399 106.363 44.9201 106.505 44.6895L106.154 45.1618Z" fill="#F6F6F6"/>
<path d="M59.1136 32.9016C58.5973 32.9016 57.8503 32.1436 57.6745 31.9459C57.3559 31.5724 57.0374 31.078 56.7847 30.5947C56.7298 30.4848 56.7188 30.386 56.7078 30.2981C56.6968 30.2322 56.6968 30.1882 56.6748 30.1553C56.6638 30.1443 56.0047 29.1666 55.9278 29.1006C55.9058 29.0897 54.8512 28.1998 54.7414 28.0131C54.6425 27.8483 54.5546 27.6835 54.4557 27.5736C54.269 27.3539 54.0932 27.1232 53.9284 26.8925C53.467 26.2664 53.0166 25.6841 52.3246 25.2777C52.1708 25.1898 51.0173 24.4428 50.8745 24.3549C50.5998 24.1791 50.446 23.9374 50.2922 23.7067C50.2593 23.6518 50.2263 23.5969 50.1824 23.5529C50.0505 23.3662 49.6111 23.0806 49.4793 22.9597C49.3255 22.8169 49.2486 22.6631 49.1717 22.5313C49.1168 22.4324 49.0728 22.3335 49.0069 22.2786C48.952 22.2347 48.5016 22.0919 48.4027 22.0369C48.0622 21.8612 47.2822 21.191 47.1613 21.1032C47.0735 21.0372 46.5022 20.8505 46.3374 20.7296C46.1836 20.6088 46.0848 20.455 45.9859 20.3232C45.931 20.2463 45.7662 20.0376 45.7332 19.9936C45.4146 19.6311 45.2059 19.4004 44.8654 19.4004C44.8214 19.4004 44.7775 19.4004 44.7225 19.4114C44.7225 19.4114 44.4918 20.6527 44.8324 20.9274C44.8763 20.9603 44.9203 20.9933 44.9532 21.0263C45.3487 21.3338 45.6453 21.6195 46.0518 22.015C46.2166 22.1688 46.4143 22.3006 46.634 22.4434C46.8318 22.5752 47.0295 22.6961 47.2163 22.8608C47.414 23.0366 47.5678 23.2014 47.6996 23.3552C47.9743 23.6738 48.172 23.8935 48.7103 24.0253C49.5342 24.2231 50.0396 24.8382 50.5339 25.4205C50.8745 25.8379 51.9291 26.4861 52.0939 26.5959C52.1927 26.6618 52.753 27.5846 52.7969 27.6505L52.8189 27.6725C53.4011 28.4525 53.7746 28.6392 53.7746 28.6392C53.7746 28.6392 54.6535 29.617 55.1478 29.8477L55.3016 30.1223C55.2687 30.4629 55.4554 30.6166 55.818 30.8693C55.8949 30.9242 56.1256 31.1 56.1695 31.133C56.4222 31.3307 56.7627 31.6054 57.0374 31.6932C57.0374 31.6932 57.7954 32.5172 58.1359 32.7588C58.2238 32.8247 58.4545 32.9016 58.6522 32.9785C58.9049 33.0664 59.1576 33.1543 59.3443 33.2752C59.3333 33.2422 59.3333 33.2202 59.3224 33.1873C59.2345 32.7698 59.6299 32.8577 59.5091 32.627C59.3883 32.3853 59.1686 32.9016 59.1136 32.9016Z" fill="#F6F6F6"/>
<path d="M66.8695 43.0632C66.8035 42.8984 66.7596 42.7556 66.7157 42.6128C66.6607 42.437 66.6168 42.2722 66.5289 42.1075C66.4081 41.8768 66.2433 41.6241 66.1005 41.4044L66.0785 41.3714C65.9137 41.1188 65.672 40.8771 65.4084 40.6354C65.2656 40.4926 65.1228 40.3607 64.9799 40.207C64.8371 40.0422 64.6833 39.9433 64.5295 39.8444C64.3208 39.7016 64.0901 39.5478 63.8704 39.2512C63.7935 39.1414 63.7166 39.0425 63.6397 38.9436C63.431 38.658 63.2332 38.3943 62.9916 38.1197C62.8927 38.0098 62.7719 37.9 62.64 37.7901C62.4862 37.6583 62.3324 37.5155 62.2006 37.3617C62.0578 37.1859 61.9809 37.0102 61.926 36.8454C61.882 36.7355 61.8491 36.6366 61.7941 36.5488C61.6843 36.373 61.4865 36.1313 61.2888 35.8896C61.2009 35.7908 61.113 35.6809 61.0361 35.582C61.124 35.7798 61.2119 35.9885 61.2998 36.1862C61.5195 36.6696 61.7282 37.131 61.8161 37.5924C61.904 38.0428 62.1017 38.3614 62.3214 38.7239C62.4093 38.8667 62.4972 39.0095 62.5851 39.1743C62.684 39.3611 62.7389 39.5478 62.7828 39.7236C62.8158 39.8554 62.8487 39.9763 62.9037 40.0861C62.9916 40.2839 63.1344 40.4377 63.2992 40.5914C63.3651 40.6574 63.42 40.7233 63.4859 40.7892C63.7276 41.0638 63.8045 41.3604 63.8814 41.6241C63.9253 41.7999 63.9693 41.9756 64.0681 42.1294C64.189 42.3382 64.3538 42.5359 64.5295 42.7446C64.7602 43.0193 65.0019 43.3049 65.1447 43.6344C65.1997 43.7553 66.452 46.0513 66.5399 46.227C67.3748 47.9408 67.8142 46.7653 67.5396 45.5459C67.4847 45.3482 66.8914 43.1181 66.8695 43.0632Z" fill="#F6F6F6"/>
<path d="M25.3111 54.1259C24.9815 54.2687 24.7838 54.4445 24.5091 54.6313C24.1466 54.8839 23.7511 55.1146 23.3556 55.3343C22.8943 55.587 22.5427 55.9605 22.0813 56.2022C21.7298 56.3889 21.2904 56.5977 20.8839 56.7734C20.4994 56.9382 20.027 56.9932 19.7524 57.2238C20.1588 57.3007 20.5214 57.0481 20.807 56.9492C21.0706 56.8503 21.3673 56.7515 21.6309 56.6856C21.9605 56.5977 21.8946 56.4109 22.2571 56.334C22.6416 56.2571 22.5317 56.2351 22.7514 56.0154C22.9602 55.8177 23.3556 55.4991 23.6742 55.3673C24.0697 55.2135 24.4542 55.1036 24.8057 54.9169C25.1133 54.7521 25.366 54.3127 25.7066 54.1918C26.0471 54.071 26.3217 53.8952 26.6074 53.7304V53.291C26.4426 53.4119 26.2888 53.5217 26.1899 53.6096C25.9373 53.8513 25.6626 53.9721 25.3111 54.1259Z" fill="#F6F6F6"/>
<path d="M98.8155 56.8063C99.1231 56.8063 100.551 56.9711 101.046 57.1029C101.529 57.2237 102.265 57.2677 102.649 57.2897C101.144 57.1688 97.3544 56.3669 96.893 56.3229C96.1789 56.257 95.0804 56.1252 94.3773 55.9934C93.5973 55.8505 93.048 55.6858 92.29 55.499C91.4881 55.3013 90.8949 55.3672 90.0819 55.2793V55.477C90.2357 55.499 90.3895 55.521 90.5543 55.532C90.8619 55.5539 92.323 55.6308 92.5207 55.7956C92.6855 55.9274 93.3776 56.3229 93.4875 56.4657C93.9599 57.037 95.4209 58.9704 96.1899 59.6955C95.9812 59.0364 94.0038 56.5646 93.7072 56.0922C94.3993 56.246 94.9815 56.279 95.4099 56.3779C96.5085 56.5756 97.618 56.7953 98.8155 56.8063Z" fill="#F6F6F6"/>
<path d="M34.517 52.8955C34.5939 52.9284 34.6708 52.9724 34.7477 53.0053C34.8795 52.8845 35.0003 52.7746 35.1431 52.6428C35.0992 52.5659 35.0443 52.478 35.0003 52.3901C34.8575 52.5549 34.6927 52.7197 34.517 52.8955Z" fill="#F6F6F6"/>
<path d="M12.3481 39.0977C13.3148 39.8557 16.215 41.4486 17.028 41.9539C17.6541 42.3494 18.6978 42.9206 19.3789 43.2392C20.1808 43.6127 20.9278 44.0741 21.6529 44.5245C22.3999 44.9859 22.8833 45.3704 23.7182 45.7549C24.5531 46.1394 25.4649 46.9523 26.124 47.5236C26.2009 47.5895 26.3767 47.7213 26.5854 47.8861V47.4137C25.9373 46.8754 25.344 46.3921 24.9376 46.1394C24.575 45.9087 24.1027 45.7879 23.7292 45.5682C23.2458 45.3045 22.9162 44.931 22.4658 44.6564C21.587 44.129 20.5873 43.9203 19.9611 43.1623C17.4125 41.8111 17.4234 41.6243 16.8852 41.4596C16.0283 41.2069 14.1278 40.0314 12.3481 39.0977Z" fill="#F6F6F6"/>
<path d="M22.2571 40.8773C21.8616 40.6576 20.8289 40.0094 20.4664 39.7128C20.0819 39.3943 19.4338 39.0427 19.0932 38.856C19.8512 39.2954 21.2134 40.2731 22.29 41.0641C22.279 40.9872 22.2681 40.9322 22.2571 40.8773Z" fill="#F6F6F6"/>
<path d="M89.8952 58.6079C90.3896 58.7287 90.84 58.8386 91.1805 58.9155C90.84 58.8276 90.4005 58.7287 89.8952 58.6079Z" fill="#F6F6F6"/>
<path d="M31.7376 49.7428C31.6607 49.7428 31.5838 49.7428 31.496 49.7428C31.0565 49.7318 30.3754 49.7428 29.914 49.7538C30.0239 49.8637 30.1447 49.9845 30.2656 50.0944C30.3315 50.0944 30.3974 50.0834 30.4523 50.0834C30.4413 50.1054 30.4084 50.1603 30.3864 50.2042C30.4633 50.2701 30.5292 50.3361 30.6061 50.402C30.727 50.2482 30.8698 50.0944 31.0455 50.0175C31.1444 49.9735 31.5289 49.9296 32.1221 49.9296C32.0892 49.9186 32.0562 49.8966 32.0342 49.8856L31.7376 49.7428Z" fill="#F6F6F6"/>
<path d="M91.1805 58.9048C91.6639 59.0146 91.9605 59.0806 91.9605 59.0806C91.9605 59.0806 91.6639 59.0256 91.1805 58.9048Z" fill="#F6F6F6"/>
<path d="M31.452 46.249C31.452 46.249 31.6607 46.3149 32.0232 46.4358C31.6607 46.3259 31.452 46.249 31.452 46.249Z" fill="#F6F6F6"/>
<path d="M31.4849 43.9312C31.6168 43.8872 32.221 43.8982 32.3858 43.8763C32.5286 43.8543 33.1108 44.1399 33.4843 44.3267C33.4843 44.2607 33.4843 44.1948 33.4953 44.1289C33.2426 43.9861 32.99 43.8653 32.6604 43.7554C32.0891 43.5796 31.6717 43.4698 31.1004 43.2501C30.5951 43.0633 29.8261 42.7228 29.3318 42.4811C29.0132 42.3273 26.2229 41.3606 25.2012 40.8442C25.4649 40.9871 25.9592 41.2507 26.3217 41.3606C26.6952 41.4814 27.6839 41.9318 27.8927 42.0526C28.6836 42.514 29.4856 42.7997 30.2765 43.1182C30.5951 43.2171 30.9906 43.4258 31.4959 43.6016C31.1114 43.7884 28.8594 44.6233 28.4639 44.9748C29.2329 44.81 30.9467 44.1289 31.4849 43.9312Z" fill="#F6F6F6"/>
<path d="M33.5173 46.9194C32.9131 46.7326 32.3858 46.5569 32.0123 46.436C32.3858 46.5569 32.9241 46.7326 33.5173 46.9304C33.5173 46.9194 33.5173 46.9194 33.5173 46.9194Z" fill="#F6F6F6"/>
<path d="M34.7477 36.417C34.7147 36.7905 34.9564 37.0871 34.9564 37.4277C34.9784 37.3727 35.0003 37.3288 35.0223 37.2739C34.9894 37.0761 34.9674 36.8894 34.9564 36.7026C34.9454 36.1314 34.7477 35.5052 34.528 34.912C34.3302 34.3847 34.1654 33.9123 34.0556 33.4069C34.0116 33.2092 33.9677 32.9785 33.8908 32.7588C33.8359 32.7808 33.7809 32.7917 33.726 32.8137C33.7919 32.8796 33.8469 32.9565 33.8578 33.0664C33.8798 33.2641 33.9238 33.6376 34.0446 33.8573C34.2094 34.1649 34.1544 34.099 34.1654 34.4066C34.1764 34.5165 34.3851 34.868 34.4071 34.9998C34.4291 35.1097 34.5499 35.4063 34.5939 35.5272C34.6708 35.7798 34.7696 36.1973 34.7477 36.417Z" fill="#F6F6F6"/>
<path d="M103.517 53.9723C104.407 53.8295 106.626 54.0821 108.626 54.148C107.428 53.8844 104.121 53.6976 103.166 53.5878C102.43 53.4999 101.243 53.434 100.496 53.445C99.6064 53.456 98.7386 53.3571 97.8927 53.2582C97.0248 53.1703 96.4206 53.0275 95.4978 53.0385C94.575 53.0495 93.4106 52.7089 92.5647 52.4782C92.2571 52.3904 91.0597 52.1597 90.1039 51.9619V52.2366C91.554 52.5991 93.3666 53.1154 94.2345 53.2253C94.6629 53.2802 95.1353 53.1923 95.5747 53.2143C96.124 53.2472 96.5744 53.445 97.1017 53.4889C98.1234 53.5878 99.1231 53.3351 100.002 53.7635C102.891 53.8844 102.968 54.0711 103.517 53.9723Z" fill="#F6F6F6"/>
<path d="M26.882 34.2528C25.9153 33.7145 24.9595 33.1323 24.0038 32.583C24.3443 33.0005 25.0144 33.341 25.5308 33.6596C26.102 34.0111 26.7721 34.2748 27.3544 34.5714C28.0355 34.9119 28.4419 34.9339 29.123 35.2964C29.4636 35.4832 29.7712 35.5491 30.1117 35.6919C30.1337 35.7029 30.9796 36.1753 31.0126 36.1973C31.1993 36.4389 31.5399 36.8893 31.9463 37.2189C32.6274 37.7682 32.8032 38.1966 32.946 38.4383C33.0339 38.5921 34.0446 39.416 34.0006 39.5039C33.8688 39.7456 32.3418 39.0425 32.232 38.9986C31.3971 38.6251 29.6174 38.0538 28.8154 37.6913C28.0465 37.3507 27.3763 36.7905 26.5634 36.384C26.1569 36.1863 26.1569 35.9226 25.7065 35.6809C25.4209 35.5271 23.1689 34.3187 22.9601 34.2638C24.4212 35.1646 27.2665 37.0212 28.7935 37.8011C29.5844 38.1966 30.2436 38.4823 31.0455 38.691C31.2872 38.7569 33.5283 39.6467 34.1544 39.8664C34.1764 39.7676 34.1984 39.6797 34.2313 39.5808C34.1984 39.5369 34.1654 39.5149 34.1544 39.5039C34.0775 39.438 33.5942 38.8118 33.4953 38.7349C33.3854 38.647 33.3085 38.5701 33.2426 38.4713C33.1767 38.3724 33.1108 38.3065 33.0119 38.2296C32.8142 38.0428 32.7263 37.8671 32.5505 37.6693C32.4846 37.5924 32.166 37.2409 32.1111 37.186C32.0782 37.142 32.0782 37.131 32.0562 37.0981C31.9903 36.9772 32.0122 36.8454 32.0013 36.7355C31.9903 36.6147 31.9793 36.4829 31.9683 36.362C31.8914 35.5491 31.7815 34.7252 31.6387 33.9013C31.6278 33.8134 31.6058 33.7145 31.5838 33.6266C31.5399 33.6486 31.5069 33.6706 31.463 33.6925C31.7815 34.7691 31.6168 34.2308 31.6497 34.3956C31.8145 35.2745 31.8365 36.362 31.7925 36.8344C31.7486 36.7795 30.8038 35.67 29.8261 34.5275C29.7712 34.5494 29.7163 34.5714 29.6613 34.5824C29.7492 34.6812 29.8371 34.7801 29.9579 34.879C30.0458 34.9669 30.6171 35.67 30.7379 35.7798C30.2655 35.626 28.6507 34.9119 28.3431 34.7801C27.8487 34.5824 27.3763 34.5165 26.882 34.2528Z" fill="#F6F6F6"/>
<path d="M90.9718 45.3705C91.1915 44.997 91.4442 44.6016 91.7078 44.239C92.0154 43.8106 92.1692 43.3272 92.4878 42.9098C92.7295 42.5912 93.0261 42.2177 93.3227 41.8881C93.5973 41.5805 94.0038 41.3279 94.1466 40.9873C93.7511 41.0972 93.5204 41.4817 93.3117 41.6904C93.114 41.8881 92.8942 42.1078 92.6855 42.2836C92.4219 42.5143 92.5647 42.6461 92.2681 42.8658C91.9605 43.1075 92.0703 43.0746 91.9605 43.3602C91.8616 43.6348 91.6419 44.0852 91.4112 44.3379C91.1256 44.6455 90.818 44.9091 90.5873 45.2277C90.4005 45.4914 90.3456 45.9418 90.1259 46.2164V46.6119C90.2248 46.4691 90.3346 46.3263 90.4774 46.1725C90.6971 45.8978 90.807 45.6562 90.9718 45.3705Z" fill="#F6F6F6"/>
<path d="M87.0939 32.9787C82.7655 31.4187 80.7552 30.3202 80.0082 29.9137C78.0637 28.8701 75.7018 27.7166 75.3393 26.9586C74.4934 25.2009 77.8111 24.366 79.0524 23.3224C79.8324 22.7072 80.4366 21.5537 80.5574 20.3563C80.6124 19.818 80.5574 17.3792 80.5574 17.3792C80.4915 16.764 80.4366 15.6435 80.2389 14.5559C79.6456 11.3811 77.9649 8.79946 76.0314 6.88797C72.9994 4.06469 68.8908 2.10926 64.6943 1.1645C64.1121 1.04366 63.5079 0.9338 62.8927 0.83493C61.893 0.670147 60.9153 0.549306 59.9705 0.472407C59.2345 0.417479 58.4875 0.395508 57.7295 0.395508C49.4354 0.395508 41.8883 3.60329 36.2637 8.83242C34.9124 10.4912 32.8581 12.8092 31.1993 16.5333C28.5408 22.4985 28.4859 26.651 28.7495 30.1115C28.9912 33.1984 29.3647 34.1432 30.5182 33.9784C30.7599 33.9454 31.9463 33.4291 32.177 33.2973C33.2536 32.7919 36.4284 31.5835 37.0876 31.8362C37.2084 31.8801 37.3403 32.0449 37.3403 32.0449C37.505 32.4953 37.3293 32.9018 37.1315 33.7257C37.0876 33.9125 36.9558 34.1871 36.9118 34.3848C36.791 34.9341 36.5053 35.6152 36.2087 36.3403C35.8792 37.1422 35.5057 38.054 35.275 38.9548C34.3851 42.3604 34.462 44.2499 34.517 45.9307C34.6378 49.4241 35.7693 52.1155 37.7687 54.3017C39.3616 54.8839 41.1083 55.4002 42.9758 55.8396L42.9209 55.5211C42.8989 55.3782 42.9978 55.2464 43.1406 55.2244C43.2834 55.2025 43.4153 55.3013 43.4372 55.4442L43.5141 55.9715C43.7448 56.0264 43.9755 56.0703 44.2062 56.1253L43.9645 54.5763C43.9426 54.4335 44.0414 54.3017 44.1843 54.2797C44.3271 54.2577 44.4589 54.3566 44.4809 54.4994L44.7555 56.2461C44.9532 56.29 45.162 56.323 45.3597 56.3669L45.2828 55.8396C45.2608 55.6968 45.3597 55.565 45.5025 55.543C45.6453 55.5211 45.7772 55.6199 45.7991 55.7627L45.909 56.4658C46.5242 56.5757 47.1613 56.6855 47.7985 56.7734L47.7765 56.6086C47.7546 56.4658 47.8534 56.334 47.9962 56.312C48.1391 56.29 48.2709 56.3889 48.2929 56.5317L48.3368 56.8503C51.4897 57.3007 54.8622 57.5424 58.3337 57.5424C62.3654 57.5424 66.2542 57.2128 69.8136 56.6306C69.3741 55.8726 69.1105 55.6309 68.0998 54.8729C66.9354 54.005 66.6168 53.5986 66.419 52.4341C66.2323 51.3356 65.2546 50.9401 64.947 49.9514C65.0568 49.8415 65.1667 49.7317 65.2655 49.6438C65.2985 49.6548 65.3315 49.6548 65.3534 49.6657V49.6548C65.3754 49.501 65.3974 49.3472 65.4193 49.1934V49.1824C65.3864 48.9846 65.3424 48.7869 65.2655 48.6002C65.1117 48.4903 64.958 48.3475 64.7163 48.1607C64.1999 47.7652 63.42 47.2819 62.5741 47.227C62.4752 47.216 62.2555 47.227 62.1566 47.2489C62.1347 47.2489 59.2015 47.7982 58.2238 47.974C57.9052 48.0289 57.4219 48.1497 57.0813 48.1717C56.7627 48.1937 56.4441 48.2596 56.1256 48.2486C55.7081 48.2266 55.2028 48.2706 54.7633 48.2706C53.7417 48.2706 52.7969 48.1827 51.7533 48.1388C50.6328 48.0948 49.6001 48.2706 48.4906 48.2706C48.0402 48.2706 47.6337 48.3145 47.1943 48.3365C46.7329 48.3585 46.3264 48.5233 45.8541 48.5233C45.0961 48.677 44.382 48.6771 43.7338 48.4903C42.1519 48.5123 40.8446 48.2706 40.4052 48.1058C39.7241 47.8421 39.2847 47.5565 38.7025 47.1501C38.1532 46.7546 37.7577 46.1943 37.2524 45.7439C37.1645 46.0295 37.3732 47.216 39.5374 48.6661C40.0097 48.9846 41.1852 49.2483 41.7235 49.3142C42.2947 49.3801 42.7232 49.3362 43.3054 49.3362C43.6789 49.3362 45.9749 49.2593 46.4143 49.2373C46.9306 49.2044 47.3481 49.0725 47.8315 49.0066C48.216 48.9627 49.6221 48.743 49.9846 48.7759C50.446 48.8089 50.6767 48.7979 51.1491 48.7869C51.5666 48.7759 53.4231 48.7649 53.9065 48.8089C54.5217 48.8638 57.4328 48.7869 58.3446 48.5452C58.6413 48.4683 60.0254 48.1827 60.333 48.0728C60.5088 48.0179 60.6736 47.9959 60.8603 47.985C60.0035 48.732 59.0697 49.7866 57.6855 50.0283C55.4554 50.4128 56.0377 50.4128 55.1698 50.6105C54.302 50.8083 52.4564 51.4784 51.193 50.8083C49.9297 50.1271 43.5361 51.006 41.8993 51.006C40.2514 51.006 37.3402 50.4897 36.5713 48.6771C34.8905 44.7332 35.7364 40.7235 36.1208 39.1855C36.3296 38.3506 36.7031 37.5157 37.0107 36.6918C38.0543 33.9125 38.9332 29.672 38.9332 29.672C38.9881 29.2875 39.087 28.6943 39.5374 28.1011L39.5593 28.0572C39.845 27.5848 40.2844 27.1893 40.7018 26.8048C40.7568 26.7499 40.8227 26.6949 40.8776 26.651C40.1416 27.8265 40.0207 29.0019 40.0207 29.0019C39.4165 30.7376 39.7241 32.0339 39.6472 32.4843C39.6472 32.5942 39.6362 32.6931 39.6472 32.8029C39.6802 33.2643 39.5593 33.495 39.4385 33.8465C39.3616 34.0663 39.3616 34.5276 39.3286 34.7474C39.2517 35.2747 39.3396 35.7031 39.3836 36.3403C39.3945 36.571 39.6033 36.8126 39.6802 37.0543C39.7681 37.34 39.9658 37.4059 39.9658 37.7135C39.9658 37.9661 39.8999 38.1309 39.845 38.2737C39.801 38.3836 39.7681 38.4824 39.7461 38.6362C39.7351 38.7241 39.7571 38.8889 39.779 39.0317C39.801 39.1636 39.812 39.3064 39.812 39.4272C39.812 40.1852 39.9438 40.6686 40.3063 41.2948C40.4931 41.6133 40.603 41.9539 40.7238 42.2835C40.8337 42.624 40.9435 42.9426 41.1303 43.2172C42.097 44.6783 41.9762 44.3927 42.7232 45.3814C43.1846 46.0076 44.2941 46.6667 44.4918 46.7766C44.6896 46.8864 46.3594 46.7326 46.5352 47.3258C46.5462 47.3478 47.6227 47.4357 48.3038 47.5785C49.2266 47.7762 50.7976 47.1061 51.5226 46.5129C52.3905 45.7988 52.9727 43.1953 53.489 43.9752C54.0053 44.7442 53.0826 46.5898 53.0826 46.6008C52.8079 47.194 52.6431 47.93 53.0935 48.0399C53.7966 48.1388 54.3898 47.7103 54.7524 47.2599C55.4994 46.3481 55.0929 45.2166 56.1365 44.3158C57.1802 43.415 56.3892 46.1614 57.0154 46.8205C57.7075 47.5345 58.4435 47.7213 58.828 46.7546C58.828 46.7436 58.9159 45.4583 58.9379 45.3265C58.9379 45.3265 59.0038 44.9749 59.5421 45.0079C60.0913 45.0408 59.7508 45.7109 59.7288 45.7659C59.7069 45.8208 59.6409 46.1394 59.608 46.2273C59.575 46.5678 59.5421 46.9194 59.6629 47.1061C59.8826 47.4247 60.6736 47.4247 60.9702 47.2489C61.4536 46.9633 61.7502 44.3487 61.7831 43.9972C61.8161 43.6457 61.9149 43.2282 62.2994 43.0854C62.6839 42.9426 62.7279 43.7665 62.9366 44.162C63.1563 44.5794 63.6726 45.9087 63.7495 46.0185C64.0901 46.5019 64.8591 47.5565 65.2546 46.458C65.3315 46.2383 64.5405 44.9639 64.2988 44.4476C64.0461 43.9313 64.156 43.382 64.0242 43.2282C63.8374 43.0085 63.6836 42.657 63.5408 42.4043C63.409 42.1846 63.3541 41.9649 63.2991 41.7671C63.2332 41.5364 63.1783 41.3387 63.0245 41.1519C62.9696 41.097 62.9146 41.0311 62.8597 40.9762C62.6839 40.8004 62.4862 40.5917 62.3654 40.306C62.2994 40.1413 62.2555 39.9985 62.2225 39.8556C62.1786 39.7018 62.1456 39.57 62.0797 39.4272C62.0028 39.2734 61.9149 39.1306 61.8271 38.9988C61.5854 38.6033 61.3657 38.2298 61.2558 37.6915C61.1789 37.285 60.9812 36.8566 60.7725 36.3952C60.4429 35.6592 60.0913 34.8902 60.1243 34.0663V33.9894L59.9156 34.0553C59.8607 34.0663 59.8057 34.0772 59.7398 34.0772C59.608 34.0772 59.1466 33.7916 59.1466 33.7916C59.0807 33.6927 57.0154 33.3192 56.565 33.3522C55.8509 33.4181 55.2687 33.473 54.5217 33.3083C52.8519 32.9457 51.0502 33.2973 49.2706 33.2313C48.2379 33.1874 47.2273 33.484 46.2166 33.2643C45.4696 33.0995 44.2831 33.0007 43.5581 33.3522C43.2175 33.517 42.5364 35.1099 41.9762 34.7474C41.4159 34.3848 42.2398 33.3412 42.119 33.2533C41.9762 33.1545 41.8114 33.0666 41.6576 32.9787C41.2072 32.6931 41.0534 32.2207 41.5148 31.9351C41.8773 31.7153 43.0418 31.5835 43.4592 31.5506C43.8876 31.5176 44.1843 31.3748 44.6127 31.2759C45.107 31.1661 45.6563 31.0123 46.1397 31.1002C46.5132 31.1661 46.7768 31.3638 47.2163 31.3858C47.5898 31.4077 48.0292 31.3199 48.3917 31.3968C48.7213 31.4737 49.0399 31.7703 49.3585 31.8362C49.9517 31.957 50.6328 31.7813 51.248 31.8362C51.7533 31.8801 52.3575 32.0449 52.9397 32.1108C53.6099 32.1877 53.9614 32.4404 54.5546 32.6821C55.1039 32.9018 55.818 33.0007 56.3892 33.1215C56.7298 33.1874 56.9495 32.5502 56.7517 32.1658C56.4112 32.0339 56.0706 31.7593 55.8289 31.5506C55.785 31.5176 55.752 31.4846 55.7081 31.4517C55.6422 31.3968 55.5763 31.3528 55.4994 31.2979C55.1808 31.0672 53.7197 29.5072 53.4451 29.1118C53.2364 29.0129 52.9507 28.7383 52.3905 27.9912L52.3685 27.9693C52.2916 27.8594 52.0719 27.7605 52.017 27.6397C51.962 27.5408 51.4897 27.0245 51.3908 26.9586C50.8745 26.662 50.49 26.2006 50.1274 25.7722C49.677 25.2339 49.2486 24.7175 48.5895 24.5528C47.8864 24.377 47.6996 24.0804 47.392 23.7288C47.2712 23.586 47.1613 23.4432 46.9966 23.2894C46.8428 23.1576 46.645 22.9489 46.4583 22.828C46.2276 22.6852 45.9419 22.5644 45.6893 22.3886C45.3597 22.1579 44.9532 22.0261 44.7006 21.8174C44.6566 23.0917 43.7338 23.3663 43.1516 24.0474C43.1077 24.1023 43.0637 24.1463 43.0088 24.2012C43.2395 23.4542 43.5361 21.2351 43.5361 21.2351L43.4262 21.1033C43.3164 20.9715 43.1296 18.9941 44.2612 18.4448C44.2831 18.4448 44.3051 18.4338 44.3381 18.4228L44.6566 18.3789L44.7225 18.0603C44.7885 17.7307 44.9532 17.4781 45.173 17.3243C45.3487 17.2034 45.6563 17.1595 46.2386 17.1595C46.2935 17.1595 46.3374 17.1595 46.3924 17.1705C46.7659 17.2364 46.9966 17.3572 47.1833 17.4671L47.3701 17.5769L47.5678 17.5C48.1061 17.3023 48.7652 16.9727 49.0179 16.797C49.5562 16.4344 49.9187 16.4015 50.3032 16.3575C50.4241 16.3465 51.3249 16.3465 51.951 16.3026C53.4011 16.1818 54.3349 13.8748 56.4771 13.1607C58.6193 12.4467 58.2348 12.5785 58.9818 12.4467C59.8606 12.2929 61.2668 12.0951 62.8707 12.2599C64.2988 12.4027 67.7922 12.2929 69.4181 12.0512C71.0439 11.8095 73.9771 11.2273 75.8117 11.9413C76.8773 12.3588 78.5361 14.2483 78.7998 15.237C78.7888 15.226 78.7888 15.215 78.7778 15.204C78.4263 14.8196 77.3387 14.0945 75.8996 13.8418C75.3283 13.743 74.7241 13.754 74.1419 13.721C73.7684 13.699 71.6811 13.754 71.2417 13.754C70.7254 13.743 70.2969 13.8528 69.8136 13.8858C69.4291 13.9077 66.7047 13.9737 66.2433 13.9627C65.8258 13.9517 65.4303 13.7759 65.0239 13.7869C64.5625 13.7979 62.4532 13.5452 61.849 13.4354C61.7172 13.4134 59.6409 13.4573 59.1356 13.5562C58.839 13.6111 58.5204 13.6221 58.2018 13.6661C57.8832 13.721 56.6419 13.9846 56.3013 14.0176C56.1256 14.0396 55.9608 14.0835 55.807 14.1165C57.0813 14.2153 58.9049 14.1384 59.2455 14.1384C59.5311 14.1384 60.0694 14.1384 60.5857 14.2373C60.8713 14.0945 61.1899 14.0835 61.5085 14.1275C61.6403 14.1494 61.7612 14.1824 61.893 14.2153C61.9479 14.2263 62.0138 14.2483 62.0687 14.2593C62.1017 14.2703 62.1237 14.2703 62.1566 14.2813H62.1676C62.1786 14.2813 62.2225 14.2922 62.2445 14.2922C62.2775 14.2922 62.3104 14.2922 62.3434 14.2922C62.4203 14.2922 62.4862 14.2922 62.5631 14.2922C62.7169 14.2922 62.8817 14.2922 63.0355 14.3032C63.0794 14.3032 63.1234 14.3142 63.1783 14.3252C63.1234 14.3032 63.0574 14.2813 62.9915 14.2593C63.6397 14.3032 65.5512 14.457 65.8588 14.49C66.9793 14.6218 71.3076 14.479 71.791 14.512C72.6918 14.5779 73.6695 14.5559 74.5483 14.6877C75.3393 14.8086 75.9875 14.9074 76.7125 15.237C77.3826 15.5446 78.0198 16.0609 78.5691 16.5113C78.8767 16.764 79.2062 17.0276 79.5248 17.3023C79.6017 18.3679 79.6896 19.9498 79.6566 20.2574C79.5468 21.2461 79.0195 22.1359 78.4482 22.6303C78.0857 22.9379 77.7671 23.0807 77.4485 23.3004C76.7894 23.63 75.0317 24.344 74.7681 24.8494C74.054 26.1896 74.801 27.7386 74.8559 27.8484C74.9658 28.1121 77.4375 29.3534 79.5358 30.5728C80.3487 31.0342 82.1394 32.012 85.468 33.3192C83.7542 33.8465 81.2495 34.8243 80.3158 35.2307C80.173 35.2747 79.6017 35.6042 79.4259 35.6592C79.4259 35.802 80.7772 36.8566 81.0738 37.296C81.3484 37.7135 81.2386 38.1968 81.4253 38.6143C81.7109 38.4056 82.1064 38.2627 82.2053 37.9222C82.3041 37.5816 82.1504 37.0763 82.0075 36.7907C81.8537 36.4721 81.6999 36.0766 81.4143 35.8679C81.1397 35.6811 80.8541 35.6811 80.5465 35.4944C81.9306 35.2197 85.5339 34.5496 85.5339 35.022C85.5339 35.6042 83.8861 37.8343 82.6337 38.2188C81.3704 38.6033 79.4369 40.0644 78.4702 40.8334C77.5035 41.6133 75.8556 43.7336 73.6256 43.8324C72.7028 43.8764 72.2304 43.8544 72.0217 43.8434C72.0327 43.8434 72.0436 43.8324 72.0436 43.8324C72.0217 43.8434 71.9997 43.8544 71.9777 43.8544C71.8349 43.8873 71.6921 43.8764 71.5383 43.8764C71.3076 43.8764 71.0659 43.8764 70.8352 43.8873C70.6595 43.8983 70.4837 43.8983 70.3079 43.8764L70.3519 44.118C70.3738 44.2499 70.7034 45.9307 70.0772 46.3152C70.22 46.447 70.275 46.6557 70.231 46.8534C70.1212 47.3698 69.9784 47.8971 69.6378 48.3035C69.5939 48.3475 69.5499 48.3914 69.506 48.4354C69.6158 48.3695 69.6927 48.3255 69.7147 48.3145C69.4181 48.688 68.3854 49.5669 68.0119 49.8525C67.7263 50.0722 67.5615 50.1601 67.7263 50.5556C67.8472 50.8522 69.7806 53.9941 70.1431 54.4884C70.5716 55.0926 70.967 55.7298 71.3735 56.345C71.5053 56.323 71.6262 56.29 71.758 56.2681C71.747 56.2351 71.747 56.2131 71.736 56.1802C71.6701 55.8946 71.6042 55.7188 71.4834 55.4442C71.2197 54.818 71.2307 54.8949 70.8902 54.3017C70.5386 53.6975 70.1651 53.1262 69.8685 52.489C69.7367 52.2034 69.6048 51.9178 69.4181 51.6432C69.2203 51.3465 68.9457 51.1927 68.8798 50.7973C68.7699 50.204 70.7473 52.0167 71.3296 53.0823C71.8459 54.027 72.3403 54.785 72.5819 56.1033C74.1309 55.7737 75.603 55.3892 76.9871 54.9608L76.8443 54.06C76.8224 53.9172 76.9212 53.7853 77.064 53.7634C77.2068 53.7414 77.3387 53.8403 77.3607 53.9831L77.4925 54.807C77.6682 54.7521 77.844 54.6862 78.0198 54.6312L77.6463 52.2034C77.6243 52.0606 77.7232 51.9288 77.866 51.9068C78.0088 51.8848 78.1406 51.9837 78.1626 52.1265L78.5251 54.4664C78.7448 54.3895 78.9536 54.3126 79.1623 54.2357L78.8657 52.3352C78.8437 52.1924 78.9426 52.0606 79.0854 52.0386C79.2282 52.0167 79.36 52.1155 79.382 52.2583L79.6566 54.049C79.7775 54.005 79.9093 53.9501 80.0301 53.8952C80.107 53.7963 80.1839 53.7084 80.2608 53.6096L79.7445 50.259C79.7225 50.1162 79.8214 49.9843 79.9642 49.9624C80.107 49.9404 80.2389 50.0393 80.2608 50.1821L80.7003 53.0273C80.887 52.7637 81.0848 52.5 81.2825 52.2144L80.7552 48.7759C80.7332 48.6331 80.8321 48.5013 80.9749 48.4793C81.1177 48.4573 81.2495 48.5562 81.2715 48.699L81.7219 51.5882C81.8647 51.3685 82.0185 51.1488 82.1723 50.9071L81.689 47.7433C81.667 47.6005 81.7659 47.4686 81.9087 47.4467C82.0515 47.4247 82.1833 47.5236 82.2053 47.6664L82.6008 50.248C82.6227 50.215 82.6447 50.1821 82.6667 50.1381C82.8534 49.8415 83.0292 49.5449 83.205 49.2593L82.9413 47.5675C82.9193 47.4247 83.0182 47.2929 83.161 47.2709C83.3038 47.2489 83.4357 47.3478 83.4576 47.4906L83.6224 48.5672C83.8531 48.1717 84.0728 47.7982 84.2816 47.4357L84.1168 46.3591C84.0948 46.2163 84.1937 46.0845 84.3365 46.0625C84.4793 46.0405 84.6111 46.1394 84.6331 46.2822L84.699 46.7106C84.8858 46.3811 85.0505 46.0735 85.2043 45.7659L85.0725 44.931C85.0505 44.7882 85.1494 44.6563 85.2922 44.6344C85.435 44.6124 85.5669 44.7113 85.5888 44.8541L85.6108 44.9749C87.6102 40.8883 87.2367 39.4821 87.2367 37.1642C87.1708 34.1651 88.0606 33.0666 87.0939 32.9787ZM53.5769 41.5584C53.3682 41.2838 53.5879 40.9872 53.6978 40.7125C53.7856 40.4928 53.9834 40.0863 53.9834 39.8666C53.9834 39.5151 52.1927 41.4485 51.237 41.7561C50.9733 41.9319 50.6767 41.7561 50.3581 41.7342C50.0835 41.7122 49.7429 41.9319 49.4463 41.9649C48.6334 42.0418 48.0182 42.0198 47.2273 42.2944C46.5462 42.5251 45.6453 42.4812 45.0851 42.8657C44.4479 43.2941 44.5687 44.7882 43.5031 43.8873C42.4375 42.9865 44.7445 42.2725 45.4256 41.7452C45.7881 41.4705 46.2386 41.3497 46.667 41.2838C46.8867 41.2508 47.2602 41.1959 47.4689 41.2288C47.7546 41.2618 47.9303 41.4705 48.194 41.5145C48.6114 41.5804 49.2925 41.4046 49.721 41.3497C50.2263 41.2838 50.9733 41.097 51.4128 40.8993C52.0499 40.6246 52.0719 40.3061 52.742 39.3943C53.5 37.5926 55.7191 37.9002 56.1915 37.7354C55.8949 38.2298 54.8512 38.5703 54.6755 39.1086C54.4777 39.6909 54.6974 41.3826 54.4558 41.888C54.302 42.2395 53.8186 41.888 53.5769 41.5584ZM47.5678 37.3729C47.6777 37.1093 49.0179 36.6808 49.2925 36.527C49.8967 36.1865 50.2922 35.6042 51.0173 35.5713C51.3029 35.5603 51.6874 35.9777 51.984 35.9008C52.5003 35.769 52.6871 35.022 53.2144 34.9341C54.1482 34.7693 54.258 35.3186 55.2138 35.3186C55.9827 35.3186 57.3999 34.4947 58.103 34.4178C58.6303 34.3629 58.9818 34.6924 59.9266 34.5167C59.9266 34.5167 59.6959 36.3622 59.564 36.6369C59.4542 36.8566 58.9708 36.3952 58.806 36.5819C58.6962 36.7138 58.6083 37.0653 58.4106 37.34C58.1908 37.6475 58.1249 38.076 58.0041 38.4495C57.8613 38.845 57.7734 39.3393 57.8283 39.8007C57.8503 39.9325 57.9821 40.4599 58.1249 40.5477C58.4984 40.8004 58.9928 40.9652 59.3993 41.2288C60.0804 41.6463 60.4319 42.1736 60.4868 42.9865C60.5418 43.7775 59.6519 43.9752 59.7398 43.4369C59.8167 42.9865 59.8497 42.646 59.7508 42.4263C59.63 42.1626 59.2784 41.6683 59.0148 41.5145C58.2677 41.086 57.3559 41.2398 57.1143 41.6243C56.7957 42.1187 56.6748 42.7339 56.2903 43.1623C56.0596 43.415 55.774 44.3158 54.8183 44.3378C53.8625 44.3707 55.5543 42.2175 55.9168 41.5804C56.1475 41.1739 56.576 41.0311 56.8396 40.6246C57.1582 40.1413 57.1692 39.6469 57.1582 39.1196C57.1472 38.5154 57.8173 35.8899 58.5753 35.4504C58.2018 35.4834 57.8173 35.5383 57.4219 35.5713C56.6858 35.6152 56.4441 36.1975 55.8289 36.516C55.5433 36.6588 55.1698 36.571 54.8732 36.6369C54.5656 36.7028 54.3239 36.9005 54.0053 36.9884C53.3352 37.1971 53.0716 36.4941 52.1268 36.5929C51.5116 36.6698 51.5226 36.8346 50.7097 37.1971C49.8967 37.5597 49.732 37.274 49.1717 37.4828C48.919 37.5706 48.7542 38.3177 48.4686 38.3616C48.2269 38.3946 47.414 37.7354 47.5678 37.3729ZM42.3057 39.1306C42.4375 38.856 42.6902 38.6362 42.855 38.3726C43.2395 37.7904 42.888 37.274 44.2831 37.2631C45.6783 37.2521 44.9203 38.3177 45.5355 38.3287C46.1617 38.3396 47.0625 38.032 47.5239 38.5923C46.9856 39.0427 45.6563 38.7791 45.0192 38.7791C44.7006 38.7791 44.1952 38.801 43.8876 38.8889C43.4592 39.0098 42.6243 39.614 42.5804 39.8447C42.4375 39.9655 42.064 41.3057 41.5148 40.9212C40.9655 40.5587 42.1519 39.4382 42.3057 39.1306ZM40.7348 25.5524C40.6469 25.6843 40.3723 25.9369 40.1416 26.1347C39.6802 26.5521 39.1968 26.9916 38.8453 27.5628C38.263 28.3318 38.1422 29.1008 38.0763 29.5182L38.0653 29.5622C38.0653 29.5951 38.0543 29.6171 38.0543 29.6501C37.7907 30.2323 37.6369 30.1664 37.1315 30.2213C37.1645 30.1993 35.8462 30.0346 35.3848 29.4084C35.0882 29.0019 35.0113 28.7383 34.8685 28.156C34.6158 28.4087 33.9457 29.3754 34.2972 30.0895C34.4401 30.3861 35.6265 30.6607 36.2527 30.7157C35.8902 30.8804 34.7696 31.1331 34.5719 31.199C33.3854 31.5506 32.99 31.7922 32.3638 31.979V31.99C31.7156 32.1438 31.2542 32.1877 31.2323 32.0229C31.1444 31.4517 32.4517 29.0019 33.6381 28.4307C34.8246 27.8594 36.5273 26.1347 37.3732 25.2339C38.2191 24.3221 38.274 23.1905 39.9328 22.0151C40.581 21.4768 41.5807 21.2241 42.2947 21.0264C42.3826 21.2131 42.4925 21.3999 42.6243 21.5757C42.5804 22.4985 42.3167 23.5641 42.13 24.0035C42.075 24.1243 41.8114 24.388 41.6136 24.5747C41.35 24.8164 41.0204 25.146 40.7348 25.5524ZM43.6679 27.4639C44.7445 27.3431 45.9639 27.1673 47.1174 27.3541C47.425 27.398 47.6996 27.4749 48.0402 27.5189C48.3588 27.5738 48.4686 27.6617 48.7542 27.7496C48.974 27.8155 49.4244 27.7496 49.6001 27.9473C49.9077 28.2878 49.7429 28.4526 49.3145 28.4856C48.8971 28.5185 48.7872 28.2549 48.4247 28.1341C48.0512 28.0132 47.8424 28.1121 47.458 28.145C46.7659 28.211 46.1507 27.8374 45.4036 27.9143C44.8214 27.9803 44.2831 28.156 43.7229 28.2659C43.4043 28.3318 43.0967 29.2985 42.877 29.4853C42.0531 30.1884 41.5257 28.8811 41.6026 28.7053C41.9322 27.8155 42.9758 27.5408 43.6679 27.4639ZM48.5235 16.0609C48.3698 16.1708 47.8974 16.4125 47.458 16.5882C47.2273 16.4674 46.9416 16.3575 46.5681 16.2916C46.4692 16.2696 46.3594 16.2587 46.2495 16.2587C45.887 16.2587 45.5794 16.2806 45.3048 16.3356C45.5684 15.7423 45.4366 14.8305 45.2279 14.5779C44.8654 14.1165 44.5687 13.2706 44.2721 12.7982C43.9426 12.2929 43.5581 11.5239 43.2395 10.9966C42.5804 9.91999 42.4815 9.21691 41.9212 8.60172C41.7345 8.393 41.5807 8.1623 41.4049 7.95357C41.2072 7.72288 41.0094 7.65696 40.7787 7.48119C41.0424 7.74485 41.2511 7.96456 41.4269 8.29413C41.5587 8.54679 41.6795 8.8434 41.8114 9.11804C42.097 9.73324 42.8989 11.7436 43.2834 12.3258C43.4592 12.5895 44.2392 13.9077 44.36 14.2813C44.5468 14.8525 44.9752 15.204 44.6896 15.6545C44.4809 15.984 44.0414 16.8299 43.591 17.6978C43.4482 17.7527 43.3164 17.8186 43.1956 17.8955C43.2505 17.4671 43.3054 17.0496 43.3603 16.6871C43.5581 15.3798 42.9978 13.6111 42.2618 12.6444C41.5257 11.6777 41.2291 10.3484 40.8007 8.74453C40.3613 7.14064 40.57 6.52545 40.57 6.52545C40.57 6.52545 45.3268 9.57944 49.0838 13.8968C49.5562 14.4351 49.732 15.0832 50.0835 15.5007C49.666 15.5336 49.1717 15.6325 48.5235 16.0609Z" fill="#F6F6F6"/>
</svg>
