
<svg xmlns="http://www.w3.org/2000/svg">
	<symbol id="location" viewBox="0 0 40 40">
		<path d="M20.0046 34.9213C17.6157 34.9213 8.58901 17.9166 8.58901 12.0355C8.58901 5.74423 13.7041 0.619995 20.0046 0.619995C26.305 0.619995 31.4201 5.73511 31.4201 12.0355C31.411 17.9166 22.3843 34.9213 20.0046 34.9213ZM20.0046 1.75973C14.3424 1.75973 9.73786 6.36424 9.73786 12.0264C9.73786 17.6613 18.4089 33.1616 20.0684 33.7725C21.5911 33.1616 30.2713 17.6613 30.2713 12.0264C30.2713 6.37336 25.6667 1.75973 20.0046 1.75973Z" fill="inherit"></path>
		<path d="M20.0046 16.9136C17.3057 16.9136 15.1174 14.7253 15.1174 12.0264C15.1174 9.32757 17.3057 7.13928 20.0046 7.13928C22.7034 7.13928 24.8917 9.32757 24.8917 12.0264C24.8917 14.7253 22.6943 16.9136 20.0046 16.9136ZM20.0046 8.28813C17.9439 8.28813 16.2662 9.96581 16.2662 12.0264C16.2662 14.0871 17.9439 15.7648 20.0046 15.7648C22.0652 15.7648 23.7429 14.0871 23.7429 12.0264C23.7429 9.96581 22.0652 8.28813 20.0046 8.28813Z" fill="inherit"></path>
		<path d="M20.0046 39.3891C11.6435 39.3891 2.75359 37.4014 2.75359 33.7269C2.75359 30.481 9.61021 28.7486 15.473 28.2562L15.5733 29.396C7.99636 30.0433 3.90244 32.104 3.90244 33.7269C3.90244 35.8605 10.5129 38.2403 20.0046 38.2403C29.4962 38.2403 36.1067 35.8605 36.1067 33.7269C36.1067 32.1587 32.3592 30.1892 25.2017 29.4689C25.0923 29.4598 24.8279 29.4415 24.5817 29.4233L24.1532 29.396L24.2535 28.2562L24.6547 28.2836C24.9191 28.3018 25.2109 28.3201 25.3203 28.3292C31.0827 28.9127 37.2555 30.636 37.2555 33.7269C37.2464 37.4014 28.3656 39.3891 20.0046 39.3891Z" fill="inherit"></path>
	</symbol>
	<symbol id="mail"  viewBox="0 0 40 40">
		<path d="M36.7996 39.3982H3.20948C1.77798 39.3982 0.62001 38.2402 0.62001 36.8087V17.5609C0.62001 17.2053 0.62001 16.1294 18.4089 4.87802C19.3298 4.18506 20.661 4.18506 21.6184 4.88714C39.3891 16.1294 39.3891 17.2053 39.3891 17.5609V36.8087C39.3891 38.2311 38.222 39.3982 36.7996 39.3982ZM1.77798 17.6795V36.8087C1.77798 37.5929 2.41623 38.2311 3.20036 38.2311H36.7905C37.5746 38.2311 38.2129 37.5929 38.2129 36.8087V17.6795C37.3832 16.558 28.7942 10.8046 20.971 5.86275L20.9346 5.83539C20.3875 5.42509 19.6125 5.42509 19.0654 5.83539C11.215 10.8046 2.61682 16.558 1.77798 17.6795Z" fill="inherit"></path>
		<path d="M35.0125 17.9895H4.54069C4.22156 17.9895 3.95715 17.7251 3.95715 17.4059C3.95715 17.0868 4.22156 16.8224 4.54069 16.8224H35.0125C35.3317 16.8224 35.5961 17.0868 35.5961 17.4059C35.5961 17.7251 35.3317 17.9895 35.0125 17.9895Z" fill="inherit"></path>
		<path d="M19.9954 30.7271L5.34305 21.3175C5.06952 21.1442 4.99658 20.7886 5.16982 20.5151C5.34305 20.2416 5.70777 20.1686 5.97219 20.3419L20.0046 29.3594L33.6631 20.7431C33.9366 20.5698 34.3013 20.6519 34.4655 20.9254C34.6387 21.199 34.5566 21.5545 34.2831 21.7278L19.9954 30.7271Z" fill="inherit"></path>
		<path d="M5.66218 34.1919C5.46159 34.1919 5.26099 34.0825 5.15158 33.891C4.99658 33.6083 5.09687 33.2527 5.37953 33.0977L11.7711 29.5327C12.0447 29.3777 12.4094 29.478 12.5644 29.7606C12.7194 30.0433 12.6191 30.3989 12.3364 30.5539L5.94483 34.1189C5.85365 34.1737 5.75336 34.1919 5.66218 34.1919Z" fill="inherit"></path>
		<path d="M33.654 34.1919C33.5628 34.1919 33.4625 34.1737 33.3713 34.1189L26.9797 30.5539C26.6971 30.3989 26.5968 30.0433 26.7518 29.7606C26.9068 29.478 27.2624 29.3777 27.545 29.5327L33.9366 33.0977C34.2193 33.2527 34.3196 33.6083 34.1646 33.891C34.0552 34.0825 33.8637 34.1919 33.654 34.1919Z" fill="inherit"></path>
	</symbol>
	<symbol id="phone" viewBox="0 0 37 41">
		<path d="M28.1133 40.7088C26.9986 40.6486 25.907 40.1584 25.1196 39.2532C24.097 38.6258 15.126 33.0887 10.7301 28.089C6.15152 22.8857 2.06088 12.3917 1.61335 11.2231C0.920545 10.3583 0.591637 9.27533 0.686898 8.16246C0.784054 7.01449 1.32413 5.97844 2.20894 5.2427L6.33977 1.77706C7.21579 1.04084 8.30845 0.694852 9.47446 0.784177C10.6224 0.881332 11.6585 1.42141 12.3942 2.30622L16.943 7.73674C17.6787 8.62154 18.0325 9.73223 17.9266 10.8797C17.8206 12.0272 17.2981 13.0642 16.4133 13.8L12.2825 17.2656C12.2367 17.2984 12.1992 17.3403 12.1534 17.3731L20.9036 27.8192C20.9498 27.7777 20.9868 27.7445 21.0326 27.7118L25.1634 24.2461C26.9798 22.7243 29.6961 22.9589 31.2179 24.7753L35.7671 30.197C37.2889 32.0134 37.0543 34.7297 35.2379 36.2515L31.1071 39.7171C30.2408 40.4362 29.1666 40.7656 28.1133 40.7088ZM9.26865 1.98791C8.48744 1.94576 7.72572 2.19516 7.11703 2.70812L2.9862 6.17376C2.35023 6.70285 1.9667 7.44803 1.89584 8.27171C1.82499 9.09538 2.0725 9.89222 2.61037 10.5287C2.65141 10.5837 2.69246 10.6387 2.71548 10.7016C2.76198 10.8185 7.04106 22.0622 11.6534 27.2937C16.0991 32.3489 25.7474 38.2219 25.8411 38.2798C25.8924 38.3089 25.9514 38.3561 25.9925 38.4112C27.0839 39.7201 29.0463 39.8964 30.3469 38.7958L34.4777 35.3301C35.7867 34.2387 35.9542 32.2759 34.8624 30.9757L30.3132 25.554C29.7841 24.918 29.0389 24.5345 28.2152 24.4636C27.3403 24.3636 26.5854 24.6486 25.9582 25.1781L21.8274 28.6438C21.6706 28.7762 21.5124 28.9349 21.3708 29.1121C21.2574 29.2556 21.0854 29.3432 20.9094 29.3425C20.7315 29.3769 20.5524 29.2704 20.4366 29.1321L10.7934 17.6166C10.6776 17.4783 10.6261 17.2907 10.6619 17.1165C10.6977 16.9424 10.8121 16.7813 10.9748 16.7021C11.1653 16.5979 11.348 16.4757 11.5135 16.3438L15.6444 12.8782C16.2803 12.3491 16.6639 11.6039 16.7347 10.7802C16.8056 9.95653 16.5581 9.15969 16.0202 8.52325L11.4715 3.09273C10.9424 2.45676 10.1972 2.07323 9.37351 2.00237C9.33887 1.9917 9.30376 1.98981 9.26865 1.98791ZM11.8941 16.7957L11.9116 16.7966L11.8941 16.7957Z" fill="inherit"></path>
	</symbol>
	<symbol id="vk" viewBox="0 0 38 38" >
		<path d="M19.0043 0.588989C8.83517 0.588989 0.588989 8.83517 0.588989 19.0043C0.588989 29.1734 8.83517 37.4196 19.0043 37.4196C29.1734 37.4196 37.4196 29.1734 37.4196 19.0043C37.4196 8.82651 29.1734 0.588989 19.0043 0.588989ZM24.9897 26.7827C24.8858 25.726 23.7251 24.2015 22.7982 23.1447L21.4816 23.9416V26.7914H21.0225H16.2845H16.0939C16.0939 26.7914 13.6426 24.9551 10.5069 20.6761C7.3713 16.3971 5.76884 12.1094 5.76884 12.1094H11.044L14.9072 18.4933L16.2845 20.2949L16.1632 14.4135C16.0506 12.9583 14.604 12.1094 14.604 12.1094H16.2845H17.3499H19.0043H21.4903V19.5413L22.2006 18.6492L26.1504 12.1007H32.8115L27.4844 19.8618C28.775 21.1698 31.131 23.6125 31.5728 24.3054C32.1878 25.2582 32.491 26.7914 32.491 26.7914H24.9897V26.7827Z" fill="inherit"></path>
	</symbol>
	<symbol id="ok" viewBox="0 0 38 38" >
		<path d="M19.0043 0.588989C8.83517 0.588989 0.588989 8.83517 0.588989 19.0043C0.588989 29.1734 8.83517 37.4196 19.0043 37.4196C29.1734 37.4196 37.4196 29.1734 37.4196 19.0043C37.4196 8.82651 29.1734 0.588989 19.0043 0.588989ZM19.0043 6.79095C22.4864 6.79095 25.3275 9.62341 25.3275 13.1055C25.3275 16.5876 22.4951 19.4287 19.0043 19.4287C15.5135 19.4287 12.6811 16.5963 12.6811 13.1055C12.6811 9.62341 15.5135 6.79095 19.0043 6.79095ZM25.9252 21.8368C25.8126 21.9234 23.5778 23.6211 20.8406 24.1668L25.3362 29.0175C25.9252 29.6499 25.8819 30.6373 25.2496 31.2177C24.6173 31.798 23.6298 31.7634 23.0494 31.131L18.935 26.6961L14.9592 31.1137C14.6473 31.4515 14.2229 31.6248 13.7985 31.6248C13.426 31.6248 13.0535 31.4948 12.759 31.2263C12.1181 30.646 12.0661 29.6672 12.6464 29.0262L17.1073 24.0802C14.5694 23.5258 12.3606 22.2439 12.2393 22.1746C11.5031 21.7415 11.2605 20.7887 11.6936 20.0437C12.1267 19.2988 13.0882 19.0563 13.8245 19.4894C13.8504 19.5067 16.8042 21.2218 19.2468 21.2218C21.5596 21.2218 23.9936 19.3854 24.0109 19.3681C24.6952 18.8397 25.674 18.9697 26.1937 19.6453C26.7221 20.3296 26.6008 21.3084 25.9252 21.8368Z" fill="inherit"></path>
		<path d="M19.0043 16.3191C20.7713 16.3191 22.2092 14.8812 22.2092 13.1142C22.2092 11.3471 20.7713 9.90924 19.0043 9.90924C17.2373 9.90924 15.7994 11.3471 15.7994 13.1142C15.7994 14.8812 17.2373 16.3191 19.0043 16.3191Z" fill="inherit"></path>
	</symbol>
	<symbol id="tg" viewBox="0 0 38 38" >
		<path d="M19.0043 0.588989C8.83517 0.588989 0.588989 8.83517 0.588989 19.0043C0.588989 29.1734 8.83517 37.4196 19.0043 37.4196C29.1734 37.4196 37.4196 29.1734 37.4196 19.0043C37.4196 8.82651 29.1734 0.588989 19.0043 0.588989ZM25.7087 29.1648C25.7087 29.1648 25.3622 30.3168 24.6606 29.901C23.9589 29.4853 18.9177 25.6654 18.9177 25.6654C18.9177 25.6654 18.1468 25.2496 17.5145 25.8039C16.8908 26.367 14.7859 28.1167 14.7859 28.1167C14.7859 28.1167 14.1883 28.8183 13.5646 28.0474C12.9323 27.2765 11.2605 21.0485 11.2605 21.0485L5.30976 18.8484C5.30976 18.8484 4.64279 18.1901 5.30976 17.9389L29.0349 8.94778C29.0349 8.94778 30.0916 8.77454 29.9097 9.78799C29.7278 10.7928 25.7087 29.1648 25.7087 29.1648Z" fill="inherit"></path>
		<path d="M12.6551 21.0139L13.8764 25.5268C14.2229 26.0552 14.3702 25.2842 14.3702 25.2842C14.3702 25.2842 14.6127 23.9157 14.682 23.1188C14.7513 22.3219 15.1411 22.0014 15.1411 22.0014L24.9031 13.0103C24.9031 13.0103 14.0237 19.4114 13.2701 19.9052C12.5165 20.3816 12.6551 21.0139 12.6551 21.0139Z" fill="inherit"></path>
	</symbol>
</svg>
