<svg width="117" height="71" fill="none" xmlns="http://www.w3.org/2000/svg"><path d="M43.723 62.706c-.23-.055-.385.01-.44.197-.01.044-.022.242-.044.583-.021.483.023.857.1 1.11.131.406.384.658.768.746.22.044.418.033.572-.033a.444.444 0 0 0 .285-.44c.011-.406-.099-.834-.318-1.273-.231-.506-.539-.802-.923-.89Z" fill="#F6F6F6"/><path d="M89.379 46.063c-.681 6.789-14.347 12.215-31.1 12.215-16.04 0-29.244-4.965-30.947-11.337-.12-.461-.175-.208-.175-.208l.01 10.941c.528 6.844 14.26 12.337 31.112 12.337 16.972 0 30.77-5.559 31.122-12.468l.033-11.47c0-.01-.044-.186-.055-.01ZM62.43 60.443c.11-.308.22-.473.275-.484h.362c.055 0 .121-.022.22-.055s.176-.044.22-.055c.088-.01.143.033.143.132 0 .077-.154.275-.462.593-.307.33-.505.495-.582.495-.253.022-.384-.011-.373-.055.032-.154.131-.385.197-.571Zm-29.21-4.065c-.132.198-.209.319-.22.373-.055.154-.12.21-.198.165-.044-.022-.12-.12-.23-.285-.11-.165-.21-.264-.286-.308-.33-.187-.494.055-.505.736-.011 1.143.032 1.967.11 2.45.087.538.23 1 .428 1.34.077.132.12.22.12.253 0 .077-.065.077-.186-.011a4.267 4.267 0 0 1-.428-.34 7.216 7.216 0 0 0-.429-.352 4.313 4.313 0 0 0-.34-.209 2.316 2.316 0 0 1-.341-.22c-.066-.055-.11-.11-.11-.175 0 0 .044-.044.143-.11a.428.428 0 0 0 .165-.308c.022-.23.044-.604.044-1.12 0-.99.01-1.352.01-1.352s-.087-1.153-.12-1.307c-.011-.077-.121-.22-.363-.373a.68.68 0 0 0-.307-.1c-.121-.01-.187-.032-.231-.065-.088-.055-.154-.275-.154-.275s.011-.066.011-.263a2.14 2.14 0 0 0-.055-.352 1.366 1.366 0 0 1-.055-.352c0-.066.033-.076.11-.033.011.011.099.077.242.198.143.121.318.253.516.385.143.088.319.208.55.34.263.154.439.242.527.297.11.066.274.165.483.318.22.143.374.253.483.308.077.044.187.077.341.11.154.033.264.066.34.11.088.044.132.11.132.208-.01.011-.076.132-.197.319Zm4.02 1.351c-.033.066-.23.23-.33.418-.043.088-.142.417-.274.945a27.602 27.602 0 0 0-.571 2.812l-.066.494a2.01 2.01 0 0 1-.12.44c-.067.153-.188.197-.341.12a5.394 5.394 0 0 1-.396-.23c-.176-.11-.307-.198-.395-.242-.077-.044-.198-.088-.363-.154a4.96 4.96 0 0 1-.373-.165c-.121-.066-.176-.153-.176-.263 0-.055.066-.077.187-.077.67.022 1.274-.626 1.197-.78-.01-.033-.132-.055-.154-.066-.615-.308-.967-1.055-1.021-2.175-.011-.275-.022-.56-.044-.824a5.688 5.688 0 0 0-.11-.846 2.09 2.09 0 0 0-.33-.79c-.088-.144-.143-.243-.143-.287 0-.087.077-.098.242-.021.055.032.143.087.264.164.12.077.209.132.263.165.066.033.154.066.275.088.12.033.209.055.275.088.208.099.318.483.307 1.131 0 .242-.033.593-.099 1.055-.066.461-.087.813-.099 1.054 0 .385.088.627.286.726.132.066.242.022.34-.132.1-.154.242-.583.44-1.285.187-.704.297-1.176.297-1.418 0-.044 0-.099-.022-.175-.011-.077-.022-.143-.022-.176 0-.077.044-.11.12-.077.056.022.144.066.253.132.11.066.187.11.253.132a.995.995 0 0 0 .176.044c.077.021.143.032.187.054.054.022.098.088.087.121Zm3.856 7.284c-.066-.022-.175-.055-.307-.121-.132-.055-.231-.099-.297-.121-.033-.011-.099-.022-.176-.044-.077-.022-.142-.033-.175-.044-.275-.088-.462-.538-.495-1.318-.033-.725 0-1.483-.01-2.197-.012-.78-.155-1.23-.407-1.319-.198-.066-.407.088-.637.462-.319.516-.484 1.11-.495 1.801-.01.352.044.616.143.78.066.1.198.242.417.407.242.187.407.319.484.406.154.176.242.374.242.572 0 .12-.022.175-.077.164a1.246 1.246 0 0 1-.264-.153 1.172 1.172 0 0 0-.275-.165 2.694 2.694 0 0 0-.384-.099 2.342 2.342 0 0 1-.385-.099c-.494-.187-.747-.626-.736-1.307.011-.824.22-1.615.638-2.384.439-.835.966-1.351 1.56-1.527a1.39 1.39 0 0 1 .845 0c.143.044.21.099.21.154 0 .066-.012.154-.034.274-.022.121-.033.21-.033.264-.01.44.022 1.23.11 2.351.088 1.197.187 1.966.286 2.285.01.055.087.209.208.483.132.275.198.407.198.418.011.088-.044.11-.154.077Zm4.724.78c-.23.164-.527.208-.89.131a23.326 23.326 0 0 1-1.164-.296c-.517-.143-.901-.253-1.154-.319-.066-.01-.164-.033-.296-.044-.132-.01-.231-.033-.297-.044-.088-.022-.132-.066-.132-.131 0-.022.044-.077.132-.176.088-.1.132-.165.143-.209.088-.264.176-1.384.253-3.361.01-.396 0-.715-.033-.934a2.312 2.312 0 0 0-.385-.912c-.077-.11-.12-.176-.12-.22 0-.077.076-.099.208-.055.11.033.264.088.472.176.21.088.363.143.473.176a2.1 2.1 0 0 0 .373.055c.165.01.297.033.374.055.077.022.12.066.11.12 0 .034-.044.077-.121.143-.264.21-.407.605-.429 1.176 0 .055 0 .143-.01.241-.012.1-.012.176-.023.22-.01.374.143.615.495.692a.68.68 0 0 0 .395-.055c.165-.055.286-.077.374-.055.373.088.802.594 1.296 1.516.23.44.34.868.33 1.308-.022.373-.143.637-.374.802Zm1.758-1.494c.34.615.79.966 1.373 1.065.407.066.736-.022.989-.274.066-.066.11-.1.131-.088.077.01.121.12.11.318-.01.473-.175.824-.472 1.066-.297.242-.67.319-1.142.23-.45-.076-.857-.318-1.209-.703-.593-.659-.868-1.592-.813-2.768.044-1 .297-1.758.747-2.274.187-.22.34-.319.462-.33a.99.99 0 0 1 .285.034c.154.032.396.098.703.197.319.1.55.165.714.198.066.011.176.011.308-.011s.242-.022.319-.011c.076.011.11.055.11.12 0 .089-.1.276-.286.54-.187.274-.33.428-.407.46a.588.588 0 0 1-.34.034c-.143-.022-.352-.132-.66-.33-.307-.198-.527-.319-.67-.34a.536.536 0 0 0-.263.01c-.088.022-.176.198-.264.506a2.79 2.79 0 0 0-.12.637c-.045.593.098 1.164.395 1.714Zm5.657.022c.022.066.165.318.385.747.176.34.417.955.824 1.57.077.121.175.242.263.363.132.176.21.297.21.34 0 .078-.067.1-.188.089a9.257 9.257 0 0 1-.417-.066 3.923 3.923 0 0 0-.407-.077 1.93 1.93 0 0 0-.362 0 1.93 1.93 0 0 1-.363 0c-.142-.011-.208-.066-.208-.154 0-.011.033-.044.088-.11a.411.411 0 0 0 .087-.275c0-.22-.098-.593-.296-1.11-.22-.56-.429-.856-.615-.878-.132-.011-.198.077-.209.275-.011.164.022.45.088.835.066.417.132.68.198.79.01.023.066.088.175.21.1.12.154.197.154.219 0 .066-.055.088-.154.077a3.57 3.57 0 0 1-.505-.099 3.811 3.811 0 0 0-.494-.099 4.177 4.177 0 0 0-.45-.022c-.198 0-.341 0-.451-.022-.121-.022-.187-.066-.176-.143 0-.044.044-.11.12-.186a.817.817 0 0 0 .21-.297 1.79 1.79 0 0 0 .066-.374c.153-1.054.285-2.219.34-3.471.022-.417 0-.703-.044-.846-.01-.044-.066-.12-.154-.23-.087-.11-.132-.187-.132-.21 0-.065.055-.098.154-.076.066.01.176.022.319.044.132.022.242.044.319.044.208.022.351.175.45.45.066.198.099.429.088.681 0 .121-.022.297-.044.538-.022.242-.044.418-.044.539-.011.34.077.516.264.538.12.011.351-.154.692-.505.296-.308.505-.55.615-.725.088-.154.143-.297.143-.44.01-.143-.066-.285-.21-.44-.142-.153-.219-.24-.219-.274 0-.077.066-.11.187-.099.978.088 1.472.121 1.494.132.066.044.099.088.099.165-.011.275-.176.593-.505.934-.11.12-.418.406-.912.824-.33.274-.495.472-.506.582a.315.315 0 0 0 .033.242Zm6.152 2.252c.077.296.187.527.319.703.055.077.088.12.088.142 0 .077-.066.143-.209.187a.774.774 0 0 1-.308.044c-.395 0-.813-.505-.89-.516-.153-.033-.955.483-1.416.461a1.79 1.79 0 0 1-.901-.296c-.297-.187-.66-.506-.67-.67 0-.011.021-.044.054-.077.242-.253.407-.736.495-1.428.044-.297.066-.846.099-1.626.022-.78-.033-1.319-.176-1.626a1.265 1.265 0 0 1-.099-.242c0-.066.044-.099.11-.088.077 0 .187.022.33.044.142.033.252.044.329.044.055 0 .143 0 .242-.01.11-.012.187-.012.241-.012.132 0 .231.143.297.407.044.197.066.384.066.57-.011.506-.187 1.231-.505 2.132-.187.538-.286.9-.286 1.099a.95.95 0 0 0 .209.637c.154.198.34.307.57.318.308.011.517-.055.616-.208.176-.275.286-1.165.319-2.714.022-.67-.011-1.164-.088-1.494-.033-.143-.055-.242-.088-.296-.044-.077-.12-.165-.176-.242-.022-.033-.033-.055-.033-.088 0-.066.066-.099.187-.099.088 0 .209.011.373.011.165.011.286.011.374.011.088 0 .23-.01.417-.022.187-.01.33-.022.429-.022.11 0 .165.022.165.077a.485.485 0 0 1-.1.176c-.164.22-.296.55-.373 1-.088.46-.142 1.131-.154 1.966-.01.769.033 1.351.143 1.747Zm4.955-.253c.088.286.186.516.318.67.055.066.088.11.088.132 0 .077-.066.154-.209.209a1.08 1.08 0 0 1-.307.087c-.385.044-.824-.417-.89-.428-.154-.022-.945.593-1.406.615a1.778 1.778 0 0 1-.9-.209c-.297-.153-.66-.45-.671-.615 0-.01.022-.044.055-.077.242-.285.395-.78.483-1.505.033-.307.055-.867.077-1.67.011-.801-.055-1.34-.198-1.636a1.951 1.951 0 0 1-.098-.23c0-.067.043-.1.11-.1.076 0 .186 0 .329.022.143.022.253.022.33.022.054 0 .142-.01.241-.033.11-.022.187-.033.242-.033.132-.01.23.121.308.385.055.197.076.384.076.571-.01.516-.164 1.263-.472 2.208-.187.56-.275.945-.275 1.143 0 .241.077.45.21.626.153.186.34.274.57.263.308-.022.506-.11.616-.274.175-.297.263-1.209.285-2.78.011-.68-.033-1.186-.099-1.505a1.502 1.502 0 0 0-.088-.285c-.054-.077-.12-.154-.175-.23-.022-.034-.033-.056-.033-.089 0-.066.066-.11.175-.12.088-.012.21-.012.374-.023.165-.01.286-.01.373-.022a6.99 6.99 0 0 0 .418-.066c.187-.033.33-.054.417-.065.11-.011.165.01.165.066a.591.591 0 0 1-.099.186c-.154.23-.285.582-.362 1.044-.077.483-.121 1.153-.132 2-.011.768.033 1.362.154 1.746Zm8.272-.703c-.198.154-.34.242-.407.263-.087.023-.241.011-.461-.054-1.099-.297-1.692-1.176-1.714-2.593-.01-1.055.231-1.933.714-2.625.231-.33.418-.506.56-.539.088-.022.21-.033.385-.033.176-.01.308-.022.396-.044.099-.022.241-.077.428-.164a4.08 4.08 0 0 1 .428-.176c.176-.044.363.022.572.208.472.429.736 1.121.78 2.044.055 1.505-.484 2.757-1.681 3.713Zm5.603-3.856c-.275.824-.649 1.33-1.143 1.494a.582.582 0 0 1-.45-.011.374.374 0 0 1-.231-.34c0-.1.055-.242.187-.44.12-.198.23-.319.33-.34.043-.012.12-.012.12 0 .011.032-.055.208-.055.296.011.165.077.23.22.176.308-.11.45-.538.417-1.296a4.165 4.165 0 0 0-.285-1.33c-.22-.56-.495-.79-.824-.68-.253.076-.396.307-.45.691a5.011 5.011 0 0 0-.012.857c.055 1.285.143 2.131.253 2.538.12.45.297.747.516.89.077.055.121.099.121.131 0 .077-.055.132-.186.176-.11.033-.264.077-.473.11a3.07 3.07 0 0 0-.472.11 2.451 2.451 0 0 0-.374.154 2.462 2.462 0 0 1-.373.154c-.088.022-.143-.011-.132-.055.066-.286.308-.605.318-.747.011-.242.011-.627-.01-1.165 0-.132-.011-.318-.023-.571-.01-.253-.032-.45-.032-.571 0-.1-.011-.33-.022-.703-.011-.286-.011-.528-.022-.703a5.331 5.331 0 0 0-.077-.682c-.011-.066-.066-.175-.143-.318-.088-.143-.121-.23-.121-.253 0-.077.055-.132.165-.165.198-.055.483-.132.879-.22.384-.087.68-.164.867-.23.121-.033.286-.12.506-.264.22-.142.384-.23.505-.263.11-.044.23.022.352.164.307.385.472.89.505 1.462a7.672 7.672 0 0 1-.352 1.944Zm3.987.187c-.296.384-.637.67-1 .846a1.748 1.748 0 0 1-.89.175c-.483-.033-.845-.274-1.065-.747-.165-.351-.263-.89-.285-1.593-.055-1.142.153-2.076.604-2.8.12-.188.241-.33.373-.43.121-.098.319-.197.583-.318a8.844 8.844 0 0 1 1.186-.406c.132-.033.23-.066.296-.088a.485.485 0 0 0 .187-.165.869.869 0 0 1 .165-.154c.055-.022.077 0 .077.066s-.011.22-.044.461c-.044.33-.12.572-.198.715-.11.186-.285.351-.549.472a3.27 3.27 0 0 1-.758.209 4.21 4.21 0 0 0-.758.186c-.395.165-.582.45-.571.857.022.495.417.582 1.164.253.297-.132.626-.505.934-.703.044-.033.12.044.154.187.033.099.044.208.044.318.01.319-.143.56-.45.703-.165.077-.396.121-.715.143-.318.022-.549.055-.714.12-.186.078-.285.254-.274.517.01.385.241.637.68.736.385.088.77.044 1.132-.132a1.78 1.78 0 0 0 .538-.417 2.66 2.66 0 0 0 .297-.428l.12-.22c.122-.066.188.066.199.395.033.396-.132.813-.462 1.242Zm4.57-2.428a1.15 1.15 0 0 1-.274.154c-.121.055-.22.11-.275.154-.066.043-.154.12-.275.22-.12.098-.22.175-.274.208-.198.132-.418-.022-.594-.45-.131-.297-.373-.934-.373-.934-.044 0-.362 1.417-.351 2.01a.353.353 0 0 1-.187.33c-.066.033-.165.088-.297.131-.132.055-.23.1-.308.132a2.235 2.235 0 0 0-.252.176 1.504 1.504 0 0 1-.253.165c-.132.077-.209.066-.209-.011 0-.044.033-.11.088-.209.484-.758 1.505-2.24 1.527-3.208.011-.725-.659-1.702-.9-1.933a5.263 5.263 0 0 0-.308-.187c-.165-.088-.253-.165-.264-.198 0-.087.055-.153.165-.208.077-.033.176-.077.319-.121.131-.044.23-.088.307-.121.055-.022.121-.077.22-.132.088-.066.165-.11.209-.132.12-.066.22-.022.296.11.077.143.165.374.242.703.088.352.22.725.22.725.01 0 .175-.56.33-1.186.142-.571.24-.912.307-1.033a.792.792 0 0 1 .22-.241c.076-.044.197-.1.351-.143a1.19 1.19 0 0 0 .352-.154c.043-.033.098-.088.164-.165.066-.077.11-.132.132-.143.044-.033.077-.01.077.055 0 .066-.022.627-.263 1.253a.48.48 0 0 1-.176.186c-.044.033-.11.066-.198.11l-.198.1c-.242.153-.956 1.109-.912 1.746.055.802 1.165 1.801 1.637 1.867.1.011.143.055.143.121a.413.413 0 0 1-.165.253Z" fill="#F6F6F6"/><path d="M71.703 60.542c-.593.142-.89.659-.868 1.593a3.37 3.37 0 0 0 .374 1.483c.263.505.604.824.989.966.197.077.384.1.527.055.296-.077.516-.307.648-.67.099-.275.143-.593.132-.945a3.759 3.759 0 0 0-.484-1.713c-.351-.648-.79-.901-1.318-.77Zm-60.992-12.26a.87.87 0 0 0 .143-.143c-.22.131-.44.274-.67.417l.527-.274Zm10.667-13.897a2.925 2.925 0 0 0-.044.527c0 .198-.252.769-.208.912.054.242.67.912.79 1.131.11.22.176.44.253.681.066.231.143.473.264.725.242.495.297.726.384 1.198.11.593.22.923.802 1.527.143.154.275.319.407.505.186.253.373.506.648.77.143.131.285.219.417.307.077.066.165.12.231.176.12.11.22.241.33.384.066.088.131.165.197.253.967 1.131 3.812 3.383 4.043 3.548.209.143.396.22.56.297.088.033.176.077.253.12.538.297 1.01.517 1.505.748l.33.153c.417.198.834.44 1.241.67a8.758 8.758 0 0 1-.11-.57c-.33-.188-.67-.385-1.032-.55l-.341-.154c-.505-.23-.934-.44-1.45-.714a4.776 4.776 0 0 0-.352-.165 2.098 2.098 0 0 1-.351-.175c-.198-.143-2.966-2.351-3.834-3.362-.055-.066-.11-.143-.165-.209a3.691 3.691 0 0 0-.45-.516 3.848 3.848 0 0 0-.385-.286 1.977 1.977 0 0 1-.275-.197c-.208-.187-.362-.396-.527-.627-.143-.197-.285-.395-.483-.593-.44-.461-.506-.67-.604-1.186-.1-.495-.165-.77-.429-1.33a3.367 3.367 0 0 1-.22-.637c-.076-.252-.153-.516-.296-.79a11.214 11.214 0 0 0-.484-.814.904.904 0 0 0-.197-.208.284.284 0 0 0 .077-.121c.066-.23.076-.45.076-.67 0-.165.011-.319.034-.473a.59.59 0 0 1 .043-.164c.055-.242.11-.44-.099-.802.297-.088.506-.275.594-.539.12-.351.033-.846-.242-1.34.418-.154.736-.516.791-.956a1.297 1.297 0 0 0-.154-.769c.33-.164.319-.714.286-1.263 0-.077-.011-.143-.011-.176 0-.022.01-.033.044-.066.099-.076.187-.197.088-.483a1.376 1.376 0 0 0-.165-.34c.769.9 3.197 3.042 3.724 3.713.165.197.582.67.66.801-.913-.22-4.088-1.933-4.088-1.933s.89.692 2.165 1.34c.593.308 1.933.89 2.164.967.01.022.066.066.132.12a5.016 5.016 0 0 1-.077-.46c-.121-.132-.198-.231-.242-.264-.01-.11-.01-.22-.01-.33-.034.1-.089.11-.177.088-1.263-1.351-3.713-3.713-4.416-4.383.044.01.088.033.132.044.044.022.088.022.132.033.099.033.318.12.516.198.308.131.473.164.67.197.066.011.143.022.242.044.088.022.198.066.308.11.164.066.351.143.538.176.505.088.626-.088.703-.209.044-.066.066-.099.154-.12.11-.023.351.076.582.164.198.077.395.165.593.209v-.506h-.033c-.12-.01-.318-.087-.505-.164-.34-.143-.725-.297-1.044-.231-.23.055-.318.176-.362.253-.055.087-.066.098-.231.066-.077-.011-.198-.066-.319-.11a2.9 2.9 0 0 0-.494-.176c-.11-.022-.198-.044-.275-.055-.164-.033-.241-.044-.439-.132-.384-.165-.626-.264-.791-.286-.077-.021-.143-.054-.209-.065-.187-.066-.813-.45-.955-.418-.143.033.68 1.297.768 1.56.023.077.023.077-.021.121a.33.33 0 0 0-.143.253c0 .044 0 .12.01.22.056.812-.373.944-.417 1.021-.044.077-.01.187.077.297.22.23.242.483.22.648a.936.936 0 0 1-.747.758c-.077.01-.12.044-.143.11-.022.055 0 .131.044.197.286.429.407.89.308 1.187-.077.22-.264.351-.572.384-.076.011-.131.044-.153.11-.022.066 0 .143.055.209.23.308.22.395.153.648.055.077.044.143.033.209Z" fill="#F6F6F6"/><path d="M28.178 61.365a1.105 1.105 0 0 0-.472.23l-.033.023c-.44.351-.66.505-1.263.307-.275-.087-.594-.274-.934-.461-.242-.132-.494-.286-.77-.406.276-.154.924-.56 2.176-1.374l.198-.131c-.055-.121-.1-.253-.143-.374-1.154.934-2.142 1.725-2.296 1.857-.319-.143-.66-.264-1-.286-.318-.033-.604.099-.879.22a1.24 1.24 0 0 1-.241.099 1.12 1.12 0 0 0-.264.098c-.044-.022-.11-.044-.176-.066l-.12-.043c-.176-.066-.363-.154-.56-.231-.517-.22-1.11-.472-1.736-.637-.297-.077-.528-.198-.824-.363-.319-.165-.67-.351-1.132-.494-.286-.088-.55-.11-.78-.132a3.871 3.871 0 0 1-.351-.044c-.198-.033-.45-.088-.692-.143-.341-.077-.594-.132-.77-.143-.659-.23-.9-.373-1.043-.692-.077-.164-.077-.318-.088-.483-.011-.33-.033-.736-.67-1.23-.791-.616-1.615-.66-2.274-.703-.297-.023-.582-.033-.846-.088.022-.077.055-.154.088-.231.176-.472.373-1.01-.22-1.714-.351-.417-2.516-2.01-2.538-2.12-.044-.264-.087-.56-.33-.846-.208-.253-.515-.461-.812-.67-.275-.187-.55-.385-.604-.516-.044-.11-.022-.165.022-.253.077-.165.175-.418-.275-.912a3.25 3.25 0 0 0-.582-.461 1.622 1.622 0 0 1-.352-.264l-.23-.23c-.176-.187-.33-.352-.703-.594a7.836 7.836 0 0 1-.594-.417.746.746 0 0 0-.132-.132 5.328 5.328 0 0 0-.142-.11c1.252.286 5.602 1.274 7.997 1.67.088.088.11.154.022.264.132-.077.253-.154.374-.22.615.11 8.03 1.065 8.217 1.076-.483.396-1.692 1.187-2.78 1.615-1.746.681-6.668 1.604-6.668 1.604s2.33-.33 3.812-.55c.385-.054.55-.032.868-.142.495-.176.956-.362 1.417-.571 1.01-.44 2-.912 2.944-1.417.143-.077.286-.154.429-.242.12-.066.253-.187.428-.198.066 0 .077-.01.143-.01.099.01.714.11.846.131.33.055.593.011.945.099.154.044.274.077.428.077.165 0 .297.022.473.088.153.055 1.197.143 1.318.175.12.033 1.087.165 1.208.198l-.538.352c-.077.099-.12.307-.198.406-.12.165-.351.429-.582.517-.242.087-.494.351-.747.439-.33.11-.494.143-.703.363-.363.395-.956.263-1.395.626-.22.187-.747.373-1.099.472-.165.044-.571.132-.714.176-.154.055-.692.088-.824.165-.351.208-.23.22-.692.263-.33.033-.769.253-1.01.374-.352.176-.66-.165-1.022 0-.297.132-3.428 1.186-3.78 1.285.374.11 3.813-.934 4.131-.967.429-.054.846-.22 1.187-.351.626-.242 1.263-.407 1.977-.571.802-.187 1.637-.418 2.274-.824.66-.418 1.472-.627 2.175-1.011.55-.297 1.088-.604 1.384-1.055.176-.263.45-.296.77-.461.087-.044.197-.077.318-.12.11.032.23.054.363.076v-.275a25.589 25.589 0 0 1-2.055-.296c-.604-.473-3.35-2.384-3.592-2.615-.802-.725-1.593-1.252-2.604-1.823-1.955-1.12-6.042-2.9-8.085-3.845.209.175 3.164 1.78 3.537 1.977.594.33.88.143 1.384.44 1.033.593 2.132.922 3.066 1.516.966.615 2.878 2.164 3.9 2.8.131.078 1.999 1.253 1.834 1.572-.066.11-1.692-.407-1.922-.385-.363.022-.967.132-2.055-.208-.648-.21-1.395-.253-1.79-.286-.033-.022-1.176-.604-1.198-.626-.406-.264-.703-.56-1.153-.802-.901-.483-1.209-.912-2.077-1.417-.758-.44-1.516-.978-2.318-1.34-.725-.33-1.582-.825-2.285-.89 1.297.659 2.615 1.274 3.911 1.955.66.34 1.055.813 1.66 1.209.362.241 2.317 1.493 2.822 1.9-.208-.055-1.406-.165-1.56-.209-.582-.153-.922-.143-1.56-.208-1.065-.1-1.12-.1-1.24-.132-.21-.055-1.034-.363-1.154-.374-.253-.198-1.857-1.252-2.615-1.68-1.648-.934-3.043-1.407-3.043-1.407s4.186 2.241 5.075 3.087c-.197 0-1.01-.12-1.35-.154-1.121-.099-5.23-1.208-6.768-1.406.187-.01.352-.033.494-.066.385-.099.44-.285.462-.44.088-.032.088-.043.11-.054.033-.022.11-.066.197-.12.627-.363 1.242-.748 1.176-1.231.373-.022.703-.154.956-.385.428-.384.604-1 .472-1.56.747-.055 1.351-.307 1.648-.703.22-.285.274-.648.154-1.032.538-.033.725-.231.944-.473.044-.055.1-.11.154-.165.143-.142.308-.263.483-.384.231-.165.473-.33.682-.571a.36.36 0 0 0 .077-.176c.098.033.23.066.362.066.45-.011.846-.022 1.241-.055a4.989 4.989 0 0 0 1.077-.253c.286-.088.56-.175.857-.209.802-.11 1.153-.23 1.769-.483.637-.264.911-.34 1.735-.187.352.066.681.077 1 .1.363.021.714.032 1.066.12.12.033.252.088.406.154.099.044.209.088.319.132-.21-.264-.462-.572-.495-.725v-.1a2.007 2.007 0 0 0-.274-.087c-.484-.12-.901-.143-1.308-.165a6.883 6.883 0 0 1-.845-.077c-1.088-.197-1.517-.077-2.253.22-.582.242-.867.34-1.592.44a4.891 4.891 0 0 0-.978.241 4.453 4.453 0 0 1-.934.22c-.33.033-1.516-.154-1.813-.044-.153.066-.604.736-.813.89-.186.132-.373.252-.549.428l-.176.176c-.241.252-.307.34-.823.296-.121-.01-.22.022-.275.088-.055.066-.055.154-.011.242.176.352.176.66-.011.9-.253.33-.835.528-1.516.517-.11 0-.198.033-.253.099-.044.077-.044.154 0 .242.209.44.077 1.032-.285 1.362a1 1 0 0 1-.868.23c-.176-.032-.319.012-.374.121-.044.11.11.67-.813 1.198a2.35 2.35 0 0 0-.252.154.449.449 0 0 0-.187.34c-.011.077-.011.077-.121.11-.362.088-2.34.11-2.274.275.066.175.956.593 1.154.747.065.055.142.11.23.175.143.154.418.363.879.66.23.154.308.23.461.384.066.077.154.154.253.264.165.165.363.296.538.417.143.1.286.187.352.264.154.165.143.187.088.308-.033.12-.11.296 0 .593.154.395.604.703 1 .977.22.154.45.308.549.429.099.12.132.34.165.527.054.352.131.824.78 1.11.065.033 1.68 1.054 1.922 1.351.33.395.242.703.066 1.164-.066.187-.143.374-.176.594-.022.142.121.33.34.428.638.275 1.22.308 1.736.34.67.045 1.066.078 1.483.396.275.209.286.34.308.648.011.187.011.407.132.681.362.813 1.263 1.12 1.911 1.352a.58.58 0 0 0 .264.033c.11.021.363.066.55.11.263.054.527.11.757.153.165.022.308.044.45.055.188.022.352.033.495.077.33.099.593.242.868.385.33.175.703.373 1.164.494.506.132 1.011.34 1.505.56.21.088.407.176.594.253l.12.044c.45.186.682.274.967.12.044-.021.088-.054.198-.076.099-.033.209-.077.33-.132.131-.055.362-.165.45-.165.352.033.78.275 1.241.538.396.22.791.45 1.22.594 1.164.373 1.637 0 2.087-.363l.033-.055c.12-.099.187-.132.253-.132a14.962 14.962 0 0 1-.539-.637Zm5.57-19.631a.512.512 0 0 1-.099-.033c-.637-.187-1.538-.428-2.131-.79-.593-.363-1.044-.517-1.648-.803-.593-.274-1.197-.549-1.769-.9a18.83 18.83 0 0 0-1.801-.956c-.66-.308-2.89-1.483-3.78-1.78 1.33.747 2.879 1.45 3.406 1.89.33.274.45.186 2.373 1.252.747.077 1.297.626 2 .967.362.175.736.23 1.11.417.296.154.57.396.867.528.318.142.846.318 1.428.494.011-.088.033-.187.044-.286Zm-6.361-12.831.242 2.23c-.011-.802-.022-1.648-.187-2.098-.033-.088-.055-.132-.055-.132Zm.242 2.23c0 .209.011.407.011.605.011-.034.022-.088.033-.154l-.044-.45Zm47.787-.901a5.223 5.223 0 0 1 .022-.824c.033-.252.088-.494.132-.725.077-.362.143-.714.143-1.087-.011-.066-.033-.121-.044-.187a8.28 8.28 0 0 1-.11-.912l-.132-.538c-.044-.176-.099-.352-.143-.538a27.897 27.897 0 0 0-.241-.912 28.435 28.435 0 0 1-.231-.835c-.099-.374-.362-.615-.67-.89a3.45 3.45 0 0 1-.681-.747c-.077-.12-.132-.253-.187-.363-.077-.175-.143-.318-.264-.428-.23-.187-.527-.34-.813-.494a8.658 8.658 0 0 1-.692-.396c-.22-.154-.44-.318-.648-.472-.263-.198-.538-.407-.824-.593-.45-.297-.857-.66-1.241-1.022-.462-.417-.934-.857-1.483-1.154-.275-.153-.571-.11-.934-.043a5.813 5.813 0 0 1-.648.076c-.66 0-1.033-.175-1.527-.428-.066-.033-.12-.066-.187-.099-.494-.242-1.01-.406-1.549-.571-.132-.044-.252-.077-.384-.121a3.833 3.833 0 0 1-.77-.373c-.186-.1-.35-.198-.527-.264a.545.545 0 0 1-.285-.088c-.352-.055-.747-.011-1.176.044a5.942 5.942 0 0 1-.879.077c-.142 0-.285 0-.428-.011-.417-.011-.824-.022-1.186.099-.681.241-1.418.483-2.187.648-.208.044-.439.077-.67.11-.428.066-.879.131-1.241.274-.022.022-2.043.89-2.175.912-.319.033-.505.055-.835.275-.275.186-.769.604-1.263.824.153.044.307.088.472.143.527.153 1.088.307 1.582.57.198.1.34.242.472.374.044.044.088.088.143.132.121.11.275.198.429.297.186.11.373.22.538.373.297.264.56.582.824.89.088.099.175.198.252.297.187.208.319.395.44.593.209.308.384.571.725.79.505.33.79.715 1.12 1.143l.11.154a32.914 32.914 0 0 1 2.197 3.208c.1.154.143.318.187.461.022.1.055.187.088.253.044.077.12.165.209.253.154.164.318.34.384.582.088.296.044.538.011.736-.033.209-.055.351.033.55.209.417.407.79.604 1.142.33.582.407.955.517 1.505l.033.164c.044.198.131.44.23.572l.165.241.099-.032a.487.487 0 0 1 .165-.034.33.33 0 0 1 .307.22l.011.011c.088.055.165.121.242.187.099.088.209.176.319.23.099.045.197.056.33.078.142.021.307.032.46.11.154.065.264.186.352.285a.68.68 0 0 0 .165.154c.11.055.23.088.362.12.165.045.341.089.528.187 1.01.55 1.56 1.143 2.362 2.066.12.142.307.274.505.406.275.187.55.374.747.66.088.12.143.252.187.373.044.11.088.22.154.307.066.088 1.67 2.263 1.856 2.373 1.275.802 2.428-.956 2.856-1.944.088-.198.154-.363.198-.483.187-.528.527-.923.868-1.308.44-.505 1.142-2.35 1.307-2.636a4.9 4.9 0 0 1 .286-.473c.143-.197.088-.34.209-.472.252-.264.23-.44.307-.857.154-.725-.33-1.373-.099-2.12.132-.34.121-.681.11-1.055Zm-4.746-7.525c.132-.516.341-1.076.56-1.582.308-.736.473-.241.923.176.154.154.44.044.363.406-.044.21-.461.297-.516.429-.11.23.055.571 0 .813-.1.417-.363.494-.638.714-.439.362-.724.703-1.263.879-.527.175-.868.351-1.439.483l-.296.011c.505-.868 2.054-1.307 2.306-2.329Zm-7.13 3.735c.308-.494.528-1.01.89-1.483.33-.428.451-.945.803-1.33.417-.46.856-.603 1.197-1.142.242-.384-.011-2.416 1.066-1.395 1.076 1.022-.34 1.055-.56 1.56-.253.604-.649.967-1.077 1.428a4.49 4.49 0 0 0-.55.725c-.175.297-.175.297-.395.539-.44.472-.978.911-1.373 1.395v-.297Zm-2.943-1.362c.099-.44.78-1.703 1.087-1.835l.022-.01c.176-.1.626.362.516.582-.12.099-.801.461-.89.813-.076.34-.439.648-.34 1.021.088.363.506.517.571.967.044.308.088.78.055 1.077-.044.505-.736 1.56.165 1.274.703-.22.879-1.703 1.78-1.274.9.428-2.516 1.79-2.208 3.23.044.098.055.197.01.285-.11-.044-.131-.066-.208-.143-.187-.22-.11-.769-.209-1.076-.12-.352-.274-.55-.296-.956-.044-.681.274-1.44.175-1.967-.022-.11-.186-.263-.23-.406-.044-.154 0-.385 0-.55 0-.307-.066-.724 0-1.032Zm-1.34-5.548c-.121.308-.132.374-.363.626-.154.165-.505.297-.56.528-.088.362.417.988.461 1.384.044.395 0 1.977-.066 2.966-.307-.33-.11-1.175-.22-1.637-.11-.505-.67-.89-.911-1.362-.407-.813-.363-1.68-1.022-2.263l-.033-.022c-1.132-.362-3.153-.45-3.362-.89-.208-.44 1.44-.209 1.923-.088.615.154 1.164.319 1.813.242.044-.791-1.528-1.428-.89-1.725.637-.296.879.758 1.307 1.11.23.198.725.966 1.066.868.34-.1.142-.374.274-.627.143-.263.407-.384.615-.57.429-.396.374-1.846 1.088-1.67.703.153-.725 2.065-1.12 3.13Zm13.688 14.139c-.352.252-1.681-.154-2.44-.088-.494.044-.856.34-1.361.34-.33 0-.78-.208-1.121-.208-.154.351.55 1.01.725 1.35.264.517.176 1.11.34 1.66-.659-.033-.46-.528-.713-.89-.22-.319-.528-.407-.715-.791-.153-.308-.318-.385-.505-.66-.209-.318-.516.078-.44-1.142.078-1.22 4.296-.395 4.812-.505.396-.088.78-.791 1.242-.494.45.307.538 1.164.175 1.428Zm.362-5.02c-.297.439-1.362.054-1.846.219-.296.099-.57.033-.867.143-.275.099-.396.538-.692.516-.726-.055-.901-.417-1.264-.319-.23.066-.681.682-.934.923-.428.396-.593.363-1.153.594-.275.11-.582.23-.846.307-.11.033-.527-.55-.637-.494-.154.077-.121 1.186-.242 1.252-.351.187-.538-.11-.923 0-.274.077-.582.088-.835.242-.494.296-.692.505-1.219.736-.275.12-1.087.538-1.241.692l-.077-.055c.055-.176 1-1 1.263-1.23.352-.319.857-.681 1.296-1.209.44-.538.758-1.758 1.209-2.087.45-.33.67.769 2.263-.34.33-.231.648-.308.978-.528.318-.198.549-.472.922-.626a1.27 1.27 0 0 1 .539-.099c.252.011.45.187.648.187.428 0 .966-.132 1.252-.484.308-.373.571-1.362 1.022-1.043.296.209.12 1.131.417 1.384.593-.23 1.33.791.967 1.318Z" fill="#F6F6F6"/><path d="M7.756 49.863c.604-.142 1.538-.736 2.428-1.307l-2.615 1.34s.066-.01.187-.033Zm100.397-7.403c-.483.384-1.076 1.328-1.637 2.218l1.791-2.34a.818.818 0 0 0-.154.121ZM46.107 19.005c.088.033.187.066.307.143.165.099.308.198.45.308.264.186.517.362.814.483.066.022.154.055.241.088.363.12.78.516 1.077.736.296.23.505.296.692.483.099.099.198.198.297.264.307.208.428.373.57.55.067.087.133.175.232.285.131.154.318.23.527.318.264.11.56.242.79.539.188.23.363.406.561.593.154.143.319.296.495.494.164.187.329.396.483.593.187.231.351.462.527.648.143.154.319.308.505.462.22.187.45.384.649.615.164.176.296.374.417.55.165.23.319.45.505.625.077.066.143.132.22.198.363.319.703.627.813 1.308.088.527.23.845.593 1.274.1.12.22.296.352.494.187.275.34.484.56.88l.165.23-.033-.308c-.044-.099-.121-.285-.187-.406-.198-.363-.297-.517-.505-.945-.165-.34-.121-.626-.088-.868.033-.176.055-.33 0-.505-.033-.11-.154-.242-.264-.363-.11-.12-.22-.23-.296-.373a1.925 1.925 0 0 1-.132-.352 1.155 1.155 0 0 0-.132-.34 31.968 31.968 0 0 0-2.164-3.164l-.121-.154c-.319-.418-.56-.747-.989-1.022-.417-.285-.648-.615-.868-.933a5.173 5.173 0 0 0-.406-.539 7.713 7.713 0 0 1-.264-.307 8.054 8.054 0 0 0-.769-.835c-.132-.121-.285-.209-.461-.319-.176-.11-.352-.209-.516-.351-.055-.044-.1-.1-.154-.143-.11-.11-.22-.22-.34-.275-.451-.23-.978-.384-1.484-.527-.593-.176-1.22-.352-1.758-.67l-.087-.044c-.22-.132-.33-.198-.572-.242-.439.022-.89.198-.78.582.066.1.363.176.528.242Z" fill="#F6F6F6"/><path d="M114.668 43.13a1.883 1.883 0 0 0-.275-.056c-.198-.076-.527-.142-1.077-.22-.274-.032-.373-.076-.582-.153-.099-.033-.209-.077-.34-.12-.22-.078-.462-.11-.67-.144a2.56 2.56 0 0 1-.44-.088c-.209-.076-.209-.098-.209-.23s-.011-.319-.241-.539c-.308-.285-.846-.373-1.319-.45-.263-.044-.538-.088-.681-.154-.143-.066-.263-.242-.373-.395-.198-.286-.473-.692-1.187-.67-.077 0-1.966-.231-2.318-.396-.461-.209-.516-.527-.56-1.022a2.967 2.967 0 0 0-.088-.604c-.044-.143-.252-.241-.483-.241-.692.022-1.23.241-1.714.439-.626.253-1 .384-1.505.275-.34-.077-.417-.187-.549-.45-.088-.166-.187-.363-.407-.55-.68-.582-1.615-.472-2.307-.395a.574.574 0 0 0-.252.087c-.11.033-.352.088-.539.132-.263.066-.527.121-.747.187-.153.044-.296.099-.428.143-.176.066-.33.12-.483.143-.34.044-.638.032-.956.022-.374-.011-.791-.033-1.264.066-.516.098-1.065.12-1.592.142l-.648.033-.132.011c-.495.033-.736.044-.923.308a1.321 1.321 0 0 1-.143.165c-.077.066-.154.164-.242.263-.088.11-.263.308-.34.352a.932.932 0 0 1-.187.044v.593c.23-.022.462-.055.67-.143.308-.11.505-.351.703-.582.066-.077.132-.154.176-.198.099-.088.154-.154.198-.198.055 0 .12-.01.186-.01l.132-.012c.187-.01.396-.022.605-.032.56-.022 1.208-.044 1.834-.176.297-.055.56-.044.901-.033.352.01.758.033 1.23-.033.297-.044.55-.132.758-.209.11-.044.22-.088.33-.11.187-.055.45-.11.692-.175.34-.077.582-.143.747-.198.692-.077.978-.055 1.241.175.143.121.21.253.286.396.154.286.34.648 1.132.824.977.209 1.746-.099 2.35-.34.275-.11.539-.22.802-.286.011.077.022.165.022.241.044.506.088 1.066.934 1.45.494.231 3.131.725 3.197.824.154.22.319.473.659.627.297.142.659.197 1.022.252.329.055.659.1.769.209.088.077.088.143.088.242.011.186.022.461.648.703.23.088.494.132.725.165.165.022.318.043.428.087.121.044.22.077.308.11.242.088.45.176.89.23.274.034.582.089.714.122.044.022.11.044.175.055.066.01.121.022.176.033-1.252.274-5.602 1.263-7.942 1.933-.11-.044-.165-.088-.132-.22-.088.121-.165.253-.242.363-.604.165-7.712 2.494-7.887 2.57.274-.56 1.01-1.79 1.812-2.647 1.285-1.373 5.328-4.317 5.328-4.317s-1.966 1.307-3.208 2.142c-.318.209-.483.264-.725.505-.362.363-.703.747-1.043 1.12a36.353 36.353 0 0 0-2.044 2.55 8.896 8.896 0 0 0-.285.395c-.088.12-.143.275-.308.362-.055.033-.055.044-.132.066-.088.033-.692.21-.824.253-.318.099-.538.242-.89.319a1.673 1.673 0 0 0-.417.12 1.19 1.19 0 0 1-.461.121c-.154.022-1.143.396-1.264.418-.12.022-1.043.318-1.175.34l.34-.549c.023-.12-.022-.33 0-.45.044-.21.132-.539.308-.725.176-.187.297-.528.483-.715.253-.241.385-.34.484-.626.154-.516.747-.648.989-1.164.12-.264.505-.66.78-.901.131-.11.46-.362.56-.472.12-.121.593-.374.68-.506.22-.33.122-.296.517-.538.286-.176.593-.56.747-.769.23-.308.66-.132.923-.44.209-.252 2.582-2.548 2.856-2.79-.395.055-3.043 2.483-3.306 2.648-.374.23-.67.56-.923.835-.462.483-.967.911-1.55 1.362-.647.516-1.295 1.087-1.702 1.714-.417.659-1.066 1.208-1.527 1.845-.373.505-.725 1.01-.802 1.55-.044.307-.274.46-.494.746a1.669 1.669 0 0 1-.242.242c-.362.077-.835.23-1.34.44v.318c.923-.374 2.11-.78 3.076-1.033.747.165 4.043.714 4.372.802 1.044.308 1.978.44 3.131.528 2.252.164 6.701.01 8.953-.022-.263-.066-3.614-.242-4.042-.264-.671-.033-.846.252-1.44.209-1.186-.1-2.318.087-3.416-.055-1.143-.143-3.526-.714-4.724-.857-.154-.022-2.35-.264-2.329-.626.011-.132 1.703-.363 1.9-.484.32-.175.814-.538 1.945-.692.67-.099 1.362-.362 1.747-.516.044 0 1.318.044 1.351.044.483.066.879.197 1.384.22 1.011.043 1.483.307 2.483.384.868.066 1.791.22 2.669.209.791-.011 1.78.066 2.439-.176-1.45-.033-2.911-.022-4.372-.077-.736-.022-1.307-.275-2.021-.373-.429-.055-2.736-.352-3.362-.495.22-.044 1.34-.45 1.494-.483.593-.121.901-.264 1.494-.483 1-.374 1.055-.396 1.176-.418.219-.044 1.087-.12 1.197-.154.308.066 2.219.33 3.087.385 1.889.132 3.351-.044 3.351-.044s-4.735-.22-5.911-.604c.176-.088.967-.33 1.286-.45 1.054-.396 5.24-1.154 6.712-1.649a3.064 3.064 0 0 0-.418.275c-.296.253-.274.44-.219.593.022.055.022.066 0 .099s-.066.11-.132.187c-.418.593-.802 1.208-.538 1.615-.33.186-.572.44-.704.758-.219.527-.109 1.164.253 1.615-.648.373-1.076.856-1.186 1.34-.077.351.033.703.307 1-.472.263-.549.516-.648.834-.022.066-.044.143-.077.22a2.612 2.612 0 0 1-.274.55c-.143.241-.286.494-.374.801a.597.597 0 0 0 0 .198.89.89 0 0 0-.351.099c-.407.198-.758.384-1.099.582-.352.209-.615.462-.868.692-.22.209-.428.396-.681.56-.681.44-.945.704-1.384 1.198-.462.516-.681.692-1.483.912-.352.099-.648.22-.945.34-.341.143-.659.275-1.011.352a4.515 4.515 0 0 1-.439.044c-.187.01-.396.022-.615.055-.33.066-.615.175-.857.263-.11.044-.22.088-.33.121-1.67.55-6.272 1.154-6.591 1.176-.165.01-.319-.011-.516-.033a5.477 5.477 0 0 0-.506-.055c-.769-.033-1.384-.1-2.109-.176l-.483-.055c-.055-.01-.11-.01-.165-.01a7.427 7.427 0 0 1-.33.56c.11.01.22.01.319.021l.483.055c.714.077 1.395.154 2.208.187.121 0 .231.022.363.044.242.033.505.066.835.044.362-.022 5.086-.626 6.943-1.242.132-.043.263-.098.395-.142.22-.088.418-.165.626-.209.11-.022.253-.033.407-.033.198-.011.428-.022.67-.066.483-.099.868-.264 1.252-.417.275-.11.528-.22.791-.297 1.066-.297 1.406-.582 1.934-1.175.417-.473.637-.681 1.241-1.077.308-.198.549-.428.78-.637.242-.22.461-.429.747-.604.286-.176 1.439-.506 1.659-.736.132-.132.242-.945.373-1.165.11-.198.231-.395.308-.615.033-.088.055-.165.077-.23.099-.341.132-.44.615-.627.11-.044.187-.12.209-.198.022-.077-.011-.165-.099-.23-.319-.242-.439-.517-.385-.813.088-.407.528-.835 1.143-1.12a.327.327 0 0 0 .187-.199c.022-.077-.011-.153-.088-.22-.374-.296-.516-.9-.319-1.35.088-.198.275-.462.681-.583.176-.044.286-.154.286-.274 0-.121-.384-.56.22-1.44.077-.11.132-.197.164-.241.088-.176.044-.297.022-.385-.022-.066-.022-.077.066-.142.286-.242 2.066-1.11 1.934-1.23-.154-.133-1.132-.122-1.373-.177Zm-45.052 1.658c-.044-.187-.077-.373-.11-.55-.066-.395-.165-.999-.187-1.043-.099-.175-.22-1.065-.242-1.065-.164-.044-.659-.462-.703-.681-.076-.385-.637-1.165-.692-1.253-.088-.12-.483-.538-.57-.67-.1-.132-.155-.286-.21-.406a3.243 3.243 0 0 0-.131-.275c-.143-.198-.374-.363-.616-.527-.22-.143-.439-.297-.604-.495-.747-.868-1.263-1.417-2.208-1.944a1.792 1.792 0 0 0-.406-.143c-.154-.044-.319-.088-.484-.165a1.308 1.308 0 0 1-.318-.274c-.066-.066-.121-.132-.176-.154a.849.849 0 0 0-.308-.066c-.044 0-.077-.011-.12-.011.098.055.186.132.252.187.055.044.099.088.154.12.11.066.22.143.33.21.318.197.648.406.933.647.495.407.813.813 1.154 1.242.252.318.67.846 1.087 1.131.363.253 1.077 1.34 1.165 1.417.34.286.868 1.176.956 1.319.186.318.384.615.593.933.12.187.088.374.209.572.054.077.186.285.263.384.154.187.429 1.615.44 1.659.22.736.615 1.12.68 1.142.023-.01.045-.769-.12-1.164l-.011-.077Z" fill="#F6F6F6"/><path d="M106.154 45.162a1.311 1.311 0 0 0-.066.187c.143-.21.275-.429.417-.66l-.351.473Zm-47.04-12.26c-.517 0-1.264-.758-1.44-.956a7.576 7.576 0 0 1-.89-1.351c-.054-.11-.065-.209-.076-.297-.011-.066-.011-.11-.033-.143-.011-.01-.67-.988-.747-1.054-.022-.011-1.077-.901-1.187-1.088-.099-.165-.186-.33-.285-.44-.187-.22-.363-.45-.528-.68-.461-.627-.911-1.209-1.603-1.615-.154-.088-1.308-.835-1.45-.923-.275-.176-.429-.418-.583-.648a.782.782 0 0 0-.11-.154c-.132-.187-.57-.472-.703-.593-.154-.143-.23-.297-.307-.429-.055-.099-.1-.197-.165-.252-.055-.044-.505-.187-.604-.242-.34-.176-1.12-.846-1.242-.934-.087-.066-.659-.253-.824-.373-.153-.121-.252-.275-.351-.407-.055-.077-.22-.285-.253-.33-.318-.362-.527-.593-.868-.593-.044 0-.087 0-.143.011 0 0-.23 1.242.11 1.516.044.033.088.066.121.1.396.307.692.592 1.099.988.165.154.362.286.582.428.198.132.395.253.582.418.198.176.352.34.484.494.274.319.472.538 1.01.67.824.198 1.33.813 1.824 1.396.34.417 1.395 1.065 1.56 1.175.099.066.659.989.703 1.055l.022.021c.582.78.956.967.956.967s.879.978 1.373 1.209l.154.274c-.033.34.153.495.516.747.077.055.308.231.352.264.252.198.593.472.867.56 0 0 .758.824 1.099 1.066.088.066.319.143.516.22.253.087.506.175.692.296-.01-.033-.01-.055-.022-.088-.088-.417.308-.33.187-.56-.12-.242-.34.275-.395.275Zm7.756 10.161c-.067-.165-.11-.307-.154-.45-.055-.176-.1-.34-.187-.505-.12-.231-.286-.484-.428-.704l-.022-.033c-.165-.252-.407-.494-.67-.736-.143-.142-.286-.274-.43-.428a1.921 1.921 0 0 0-.45-.363c-.208-.142-.439-.296-.659-.593a7.534 7.534 0 0 0-.23-.307 11.22 11.22 0 0 0-.648-.824 3.43 3.43 0 0 0-.352-.33 4.04 4.04 0 0 1-.44-.428 1.58 1.58 0 0 1-.274-.517c-.044-.11-.077-.208-.132-.296a7.665 7.665 0 0 0-.505-.66 6.17 6.17 0 0 1-.253-.307c.088.198.176.407.264.604.22.484.428.945.516 1.406.088.45.286.77.505 1.132.088.143.176.286.264.45.099.187.154.374.198.55.033.131.066.252.12.362.089.198.231.352.396.505.066.066.121.132.187.198.242.275.319.571.395.835.044.176.088.352.187.505.121.21.286.407.462.616.23.274.472.56.615.89.055.12 1.307 2.416 1.395 2.592.835 1.714 1.274.538 1-.681-.055-.198-.649-2.428-.67-2.483ZM25.311 54.126c-.33.143-.527.319-.802.505-.362.253-.758.484-1.153.703-.462.253-.813.627-1.275.868-.351.187-.79.396-1.197.571-.385.165-.857.22-1.132.45.407.078.77-.175 1.055-.274.264-.099.56-.197.824-.263.33-.088.264-.275.626-.352.385-.077.275-.099.494-.319.21-.197.605-.516.923-.648.396-.153.78-.263 1.132-.45.307-.165.56-.604.9-.725.341-.121.616-.297.901-.462v-.439c-.164.12-.318.23-.417.319-.253.241-.527.362-.879.516Zm73.505 2.68c.307 0 1.735.165 2.23.297.483.12 1.219.165 1.603.187-1.505-.121-5.295-.923-5.756-.967a32.15 32.15 0 0 1-2.516-.33c-.78-.143-1.329-.307-2.087-.494-.802-.198-1.395-.132-2.208-.22v.198c.154.022.308.044.472.055.308.022 1.769.099 1.967.264.165.131.857.527.966.67.473.571 1.934 2.504 2.703 3.23-.209-.66-2.186-3.131-2.483-3.604.692.154 1.275.187 1.703.286 1.099.198 2.208.417 3.406.428Zm-64.299-3.911c.077.033.154.077.23.11.133-.12.253-.23.396-.362-.044-.077-.099-.165-.143-.253a9.21 9.21 0 0 1-.483.505ZM12.348 39.098c.967.758 3.867 2.35 4.68 2.856.626.395 1.67.967 2.35 1.285.803.374 1.55.835 2.275 1.286.747.46 1.23.845 2.065 1.23.835.384 1.747 1.197 2.406 1.769.077.066.253.197.461.362v-.472c-.648-.539-1.241-1.022-1.647-1.275-.363-.23-.835-.351-1.209-.57-.483-.265-.813-.638-1.263-.913-.879-.527-1.879-.736-2.505-1.494-2.548-1.35-2.538-1.538-3.076-1.702-.857-.253-2.757-1.429-4.537-2.362Zm9.909 1.779c-.395-.22-1.428-.868-1.79-1.164-.385-.319-1.033-.67-1.374-.857.758.44 2.12 1.417 3.197 2.208a3.12 3.12 0 0 0-.033-.187Zm67.638 17.731c.495.12.945.23 1.285.308-.34-.088-.78-.187-1.285-.308Zm-58.157-8.865h-.242c-.44-.011-1.12 0-1.582.01.11.11.23.231.352.341.066 0 .131-.01.186-.01-.01.021-.044.076-.066.12.077.066.143.132.22.198.121-.154.264-.308.44-.385.098-.044.483-.087 1.076-.087-.033-.011-.066-.033-.088-.044l-.296-.143Zm59.442 9.162.78.176s-.296-.055-.78-.176ZM31.452 46.249s.209.066.571.187c-.362-.11-.571-.187-.571-.187Zm.033-2.318c.132-.044.736-.033.9-.055.144-.022.726.264 1.1.45 0-.065 0-.131.01-.197a4.54 4.54 0 0 0-.835-.374c-.57-.175-.988-.285-1.56-.505a22.661 22.661 0 0 1-1.768-.769c-.319-.154-3.11-1.12-4.13-1.637.263.143.757.407 1.12.517.373.12 1.362.57 1.57.692.792.461 1.594.747 2.384 1.065.32.1.715.308 1.22.484-.385.186-2.637 1.021-3.032 1.373.769-.165 2.483-.846 3.02-1.044Zm2.032 2.989c-.604-.187-1.131-.363-1.505-.484.374.12.912.297 1.505.494v-.01Zm1.231-10.503c-.033.373.208.67.208 1.01.022-.054.044-.098.066-.153a5.381 5.381 0 0 1-.066-.571c-.01-.572-.208-1.198-.428-1.791-.198-.527-.363-1-.472-1.505-.044-.198-.088-.428-.165-.648-.055.022-.11.033-.165.055.066.066.12.142.132.252.022.198.066.572.187.791.164.308.11.242.12.55.011.11.22.461.242.593.022.11.143.406.187.527.077.253.176.67.154.89Zm68.769 17.555c.89-.142 3.109.11 5.109.176-1.198-.264-4.505-.45-5.46-.56a24.006 24.006 0 0 0-2.67-.143c-.89.011-1.757-.088-2.603-.187-.868-.088-1.472-.23-2.395-.22-.923.012-2.087-.33-2.933-.56-.308-.088-1.505-.318-2.461-.516v.275c1.45.362 3.263.878 4.13.988.429.055.901-.033 1.34-.01.55.032 1 .23 1.528.274 1.021.099 2.021-.154 2.9.275 2.889.12 2.966.307 3.515.208ZM26.882 34.253c-.967-.538-1.923-1.12-2.878-1.67.34.418 1.01.758 1.527 1.077.571.351 1.241.615 1.823.911.681.34 1.088.363 1.769.725.34.187.648.253.989.396.022.01.868.483.9.505.187.242.528.692.934 1.022.681.55.857.978 1 1.22.088.153 1.099.977 1.055 1.065-.132.242-1.66-.462-1.769-.505-.835-.374-2.615-.945-3.417-1.308-.768-.34-1.439-.9-2.252-1.307-.406-.198-.406-.461-.857-.703-.285-.154-2.537-1.362-2.746-1.417 1.461.9 4.306 2.757 5.834 3.537.79.396 1.45.681 2.252.89.241.066 2.482.956 3.108 1.175a2.78 2.78 0 0 1 .077-.285c-.033-.044-.066-.066-.077-.077-.077-.066-.56-.692-.659-.77a1.136 1.136 0 0 1-.252-.263.96.96 0 0 0-.231-.241c-.198-.187-.286-.363-.462-.56a21.338 21.338 0 0 0-.439-.484c-.033-.044-.033-.055-.055-.088-.066-.12-.044-.253-.055-.362l-.033-.374a32.186 32.186 0 0 0-.33-2.46 2.405 2.405 0 0 0-.054-.275c-.044.022-.077.044-.121.066.319 1.076.154.538.187.703.165.879.187 1.966.143 2.438-.044-.055-.99-1.164-1.967-2.306-.055.021-.11.043-.165.054.088.1.176.198.297.297.088.088.66.791.78.9-.473-.153-2.087-.867-2.395-.999-.494-.198-.967-.264-1.461-.527Zm64.09 11.117c.22-.373.472-.768.736-1.131.307-.428.461-.912.78-1.33.242-.318.538-.691.835-1.02.274-.309.68-.561.824-.902-.396.11-.627.495-.835.703-.198.198-.418.418-.626.594-.264.23-.121.362-.418.582-.308.242-.198.209-.308.494-.098.275-.318.725-.549.978-.285.307-.593.571-.824.89-.187.263-.241.714-.461.988v.396c.099-.143.209-.286.351-.44.22-.274.33-.516.495-.801Z" fill="#F6F6F6"/><path d="M87.094 32.979c-4.328-1.56-6.339-2.659-7.086-3.065-1.944-1.044-4.306-2.197-4.669-2.955-.846-1.758 2.472-2.593 3.713-3.637.78-.615 1.385-1.768 1.505-2.966.055-.538 0-2.977 0-2.977-.066-.615-.12-1.736-.318-2.823-.593-3.175-2.274-5.757-4.208-7.668C73 4.065 68.891 2.109 64.694 1.165a40.507 40.507 0 0 0-1.801-.33c-1-.165-1.978-.286-2.922-.363A30.126 30.126 0 0 0 57.73.396a31.432 31.432 0 0 0-21.466 8.436c-1.352 1.66-3.406 3.977-5.065 7.701-2.658 5.965-2.713 10.118-2.45 13.578.242 3.087.616 4.032 1.77 3.867.24-.033 1.427-.549 1.658-.68 1.077-.506 4.251-1.715 4.91-1.462.121.044.253.209.253.209.165.45-.01.857-.209 1.68-.043.188-.175.462-.22.66-.12.55-.406 1.23-.702 1.955-.33.802-.703 1.714-.934 2.615-.89 3.405-.813 5.295-.758 6.976.12 3.493 1.252 6.184 3.252 8.37a45.758 45.758 0 0 0 5.207 1.539l-.055-.319a.26.26 0 1 1 .516-.077l.077.527c.23.055.461.1.692.154l-.242-1.549a.26.26 0 1 1 .517-.077l.274 1.747c.198.044.407.077.605.12l-.077-.526a.26.26 0 1 1 .516-.077l.11.703c.615.11 1.252.22 1.89.307l-.023-.164a.26.26 0 1 1 .517-.077l.044.318a71.13 71.13 0 0 0 9.997.692c4.031 0 7.92-.33 11.48-.911-.44-.758-.703-1-1.714-1.758-1.165-.868-1.483-1.274-1.681-2.439-.187-1.098-1.164-1.494-1.472-2.483.11-.11.22-.22.319-.307.032.01.066.01.087.022v-.011l.066-.462v-.01a2.672 2.672 0 0 0-.153-.583c-.154-.11-.308-.253-.55-.44-.516-.395-1.296-.878-2.142-.933a1.78 1.78 0 0 0-.417.022c-.022 0-2.955.55-3.933.725-.319.055-.802.176-1.143.198-.318.022-.637.088-.955.077-.418-.022-.923.022-1.363.022-1.021 0-1.966-.088-3.01-.132-1.12-.044-2.153.132-3.262.132-.45 0-.857.044-1.297.066-.461.021-.868.186-1.34.186-.758.154-1.472.154-2.12-.033-1.582.022-2.89-.22-3.329-.384-.68-.264-1.12-.55-1.703-.956-.549-.395-.944-.956-1.45-1.406-.088.285.121 1.472 2.285 2.922.473.319 1.648.582 2.187.648.57.066 1 .022 1.581.022.374 0 2.67-.077 3.11-.099.516-.033.933-.165 1.416-.23.385-.044 1.791-.264 2.154-.231.461.033.692.022 1.164.01.418-.01 2.274-.021 2.758.023.615.055 3.526-.022 4.438-.264.296-.077 1.68-.362 1.988-.472.176-.055.34-.077.527-.088-.856.747-1.79 1.802-3.175 2.043-2.23.385-1.647.385-2.515.583-.868.197-2.714.867-3.977.197-1.263-.68-7.657.198-9.294.198-1.648 0-4.559-.516-5.328-2.329-1.68-3.944-.835-7.953-.45-9.492.209-.834.582-1.67.89-2.493 1.043-2.78 1.922-7.02 1.922-7.02.055-.384.154-.978.604-1.57l.022-.045c.286-.472.725-.868 1.143-1.252.055-.055.12-.11.176-.154a6.104 6.104 0 0 0-.857 2.35c-.605 1.737-.297 3.033-.374 3.483 0 .11-.01.21 0 .319.033.461-.088.692-.209 1.044-.076.22-.076.68-.11.9-.076.528.012.956.056 1.593.01.231.22.473.296.714.088.286.286.352.286.66 0 .252-.066.417-.121.56-.044.11-.077.208-.099.362-.01.088.011.253.033.396.022.132.033.274.033.395 0 .758.132 1.242.494 1.868.187.318.297.659.418.988.11.341.22.66.406.934.967 1.461.846 1.176 1.593 2.164.462.627 1.571 1.286 1.769 1.396.198.11 1.867-.044 2.043.549.011.022 1.088.11 1.769.252.923.198 2.494-.472 3.219-1.065.867-.714 1.45-3.318 1.966-2.538.516.77-.406 2.615-.406 2.626-.275.593-.44 1.329.01 1.439.704.099 1.297-.33 1.66-.78.746-.912.34-2.043 1.383-2.944 1.044-.901.253 1.845.88 2.505.692.714 1.428.9 1.812-.066 0-.011.088-1.297.11-1.428 0 0 .066-.352.604-.32.55.034.209.704.187.759-.022.055-.088.373-.121.461-.033.34-.066.692.055.88.22.318 1.01.318 1.307.142.484-.286.78-2.9.813-3.252.033-.351.132-.769.516-.912.385-.142.429.681.638 1.077.22.417.736 1.747.813 1.857.34.483 1.11 1.538 1.505.439.077-.22-.715-1.494-.956-2.01-.253-.517-.143-1.066-.275-1.22-.187-.22-.34-.571-.483-.824-.132-.22-.187-.44-.242-.637-.066-.23-.12-.428-.274-.615-.055-.055-.11-.12-.165-.176-.176-.176-.374-.384-.495-.67a2.991 2.991 0 0 1-.143-.45c-.043-.154-.076-.286-.142-.429a4.011 4.011 0 0 0-.253-.428c-.242-.396-.461-.77-.571-1.308-.077-.406-.275-.834-.483-1.296-.33-.736-.682-1.505-.649-2.329v-.077l-.208.066a.853.853 0 0 1-.176.022c-.132 0-.593-.285-.593-.285-.066-.1-2.132-.473-2.582-.44-.714.066-1.296.121-2.043-.044-1.67-.362-3.472-.01-5.251-.077-1.033-.044-2.044.253-3.054.033-.747-.165-1.934-.263-2.659.088-.34.165-1.022 1.758-1.582 1.395-.56-.362.264-1.406.143-1.494-.143-.099-.308-.186-.461-.274-.45-.286-.605-.758-.143-1.044.362-.22 1.527-.351 1.944-.384.429-.033.725-.176 1.154-.275.494-.11 1.043-.264 1.527-.176.373.066.637.264 1.076.286.374.022.813-.066 1.176.01.33.078.648.374.966.44.594.121 1.275-.055 1.89 0 .505.044 1.11.209 1.692.275.67.077 1.021.33 1.615.571.549.22 1.263.319 1.834.44.34.065.56-.572.363-.956-.34-.132-.681-.407-.923-.615-.044-.033-.077-.066-.12-.1-.067-.054-.133-.098-.21-.153-.318-.23-1.78-1.79-2.054-2.186-.209-.1-.494-.374-1.054-1.12l-.023-.023c-.076-.11-.296-.209-.351-.33-.055-.098-.527-.614-.626-.68-.517-.297-.901-.758-1.264-1.187-.45-.538-.878-1.054-1.538-1.22-.703-.175-.89-.472-1.197-.823-.12-.143-.23-.286-.395-.44-.154-.131-.352-.34-.539-.461-.23-.143-.516-.264-.769-.44-.33-.23-.736-.362-.988-.57-.044 1.274-.967 1.548-1.55 2.23-.043.054-.087.098-.142.153.23-.747.527-2.966.527-2.966l-.11-.132c-.11-.132-.296-2.109.835-2.658.022 0 .044-.011.077-.022l.319-.044.066-.319c.066-.33.23-.582.45-.736.176-.12.483-.165 1.066-.165.055 0 .098 0 .153.012.374.065.605.186.791.296l.187.11.198-.077c.538-.198 1.197-.527 1.45-.703.538-.363.9-.396 1.285-.44.121-.01 1.022-.01 1.648-.054 1.45-.121 2.384-2.428 4.526-3.142s1.758-.582 2.505-.714c.879-.154 2.285-.352 3.889-.187 1.428.143 4.921.033 6.547-.209 1.626-.242 4.56-.824 6.394-.11 1.065.418 2.724 2.307 2.988 3.296-.011-.011-.011-.022-.022-.033-.352-.384-1.44-1.11-2.878-1.362-.572-.099-1.176-.088-1.758-.121-.374-.022-2.46.033-2.9.033-.517-.011-.945.099-1.428.132-.385.022-3.11.088-3.57.077-.418-.011-.814-.187-1.22-.176-.462.01-2.57-.242-3.175-.352-.132-.022-2.208.022-2.713.121-.297.055-.616.066-.934.11-.319.055-1.56.319-1.9.352-.176.022-.341.066-.495.098 1.274.1 3.098.022 3.438.022.286 0 .824 0 1.34.1.286-.143.605-.154.923-.11.132.021.253.054.385.087.055.011.12.033.176.044.033.011.055.011.088.022h.01c.012 0 .055.011.078.011h.318c.154 0 .319 0 .472.011.044 0 .088.011.143.022a3.525 3.525 0 0 0-.186-.066c.648.044 2.56.198 2.867.231 1.12.132 5.449-.011 5.932.022.9.066 1.879.044 2.757.176.791.12 1.44.22 2.165.549.67.308 1.307.824 1.856 1.274.308.253.637.517.956.791.077 1.066.165 2.648.132 2.955-.11.99-.638 1.879-1.209 2.373-.362.308-.68.45-1 .67-.659.33-2.416 1.044-2.68 1.55-.714 1.34.033 2.889.088 2.998.11.264 2.582 1.505 4.68 2.725.813.461 2.603 1.439 5.932 2.746-1.714.527-4.219 1.505-5.152 1.912-.143.044-.714.373-.89.428 0 .143 1.351 1.198 1.648 1.637.274.418.165.9.351 1.318.286-.208.681-.351.78-.692.1-.34-.055-.846-.198-1.131-.153-.319-.307-.714-.593-.923-.274-.187-.56-.187-.868-.374 1.385-.274 4.988-.944 4.988-.472 0 .582-1.648 2.812-2.9 3.197-1.264.384-3.197 1.845-4.164 2.614-.966.78-2.614 2.9-4.844 3-.923.043-1.396.021-1.604.01.01 0 .022-.01.022-.01a.155.155 0 0 1-.066.021c-.143.033-.286.022-.44.022-.23 0-.472 0-.703.011a2.825 2.825 0 0 1-.527-.01l.044.241c.022.132.351 1.813-.275 2.197.143.132.198.34.154.538-.11.517-.253 1.044-.593 1.45l-.132.132c.11-.066.187-.11.209-.12-.297.373-1.33 1.252-1.703 1.538-.286.22-.45.307-.286.703.121.296 2.055 3.438 2.417 3.932.429.605.824 1.242 1.23 1.857.132-.022.253-.055.385-.077-.011-.033-.011-.055-.022-.088a3.647 3.647 0 0 0-.253-.736c-.263-.626-.252-.55-.593-1.142-.351-.605-.725-1.176-1.022-1.813a5.717 5.717 0 0 0-.45-.846c-.198-.297-.472-.45-.538-.846-.11-.593 1.867 1.22 2.45 2.285.516.945 1.01 1.703 1.252 3.021a50.38 50.38 0 0 0 4.405-1.142l-.143-.901a.26.26 0 1 1 .517-.077l.132.824c.175-.055.351-.12.527-.176l-.374-2.428a.26.26 0 1 1 .517-.077l.362 2.34c.22-.077.429-.153.637-.23l-.296-1.9a.26.26 0 1 1 .516-.078l.275 1.791c.12-.044.252-.099.373-.154.077-.099.154-.187.23-.285l-.516-3.351a.26.26 0 1 1 .517-.077l.44 2.845c.186-.263.384-.527.582-.813l-.528-3.438a.26.26 0 1 1 .517-.077l.45 2.89c.143-.22.297-.44.45-.682l-.483-3.164a.26.26 0 1 1 .516-.077l.396 2.582c.022-.033.044-.066.066-.11.186-.296.362-.593.538-.879l-.264-1.691a.26.26 0 1 1 .517-.077l.164 1.076c.231-.395.45-.769.66-1.131l-.165-1.077a.26.26 0 1 1 .516-.077l.066.429c.187-.33.352-.637.505-.945l-.131-.835a.26.26 0 1 1 .516-.077l.022.12c2-4.086 1.626-5.492 1.626-7.81-.066-2.999.824-4.097-.143-4.185Zm-33.517 8.58c-.209-.275.01-.572.12-.846.089-.22.286-.627.286-.846 0-.352-1.79 1.582-2.746 1.89-.264.175-.56 0-.879-.023-.274-.022-.615.198-.912.23-.813.078-1.428.056-2.219.33-.68.231-1.582.187-2.142.572-.637.428-.516 1.922-1.582 1.021-1.066-.9 1.242-1.614 1.923-2.142.362-.274.813-.395 1.241-.461.22-.033.593-.088.802-.055.286.033.461.242.725.285.417.066 1.098-.11 1.527-.164.505-.066 1.252-.253 1.692-.45.637-.275.659-.594 1.329-1.506.758-1.801 2.977-1.494 3.45-1.659-.297.495-1.34.835-1.517 1.374-.197.582.022 2.274-.22 2.779-.153.352-.636 0-.878-.33Zm-6.01-4.186c.11-.264 1.45-.692 1.725-.846.605-.34 1-.923 1.725-.956.286-.01.67.407.967.33.516-.132.703-.879 1.23-.967.934-.165 1.044.385 2 .385.769 0 2.186-.824 2.889-.901.527-.055.879.274 1.824.099 0 0-.231 1.845-.363 2.12-.11.22-.593-.242-.758-.055-.11.132-.198.483-.395.758-.22.307-.286.736-.407 1.11a3.07 3.07 0 0 0-.176 1.35c.022.133.154.66.297.748.373.252.868.417 1.274.68.681.418 1.033.946 1.088 1.758.055.792-.835.99-.747.45.077-.45.11-.79.01-1.01-.12-.263-.472-.758-.735-.912-.747-.428-1.66-.274-1.9.11-.32.495-.44 1.11-.825 1.538-.23.253-.516 1.154-1.472 1.176-.956.033.736-2.12 1.099-2.758.23-.406.659-.549.923-.955.318-.484.33-.978.318-1.505-.01-.605.66-3.23 1.417-3.67-.373.033-.758.088-1.153.121-.736.044-.978.627-1.593.945-.286.143-.66.055-.956.12-.307.067-.55.264-.868.352-.67.21-.933-.494-1.878-.395-.615.077-.604.242-1.417.604-.813.363-.978.077-1.538.286-.253.088-.418.835-.703.879-.242.033-1.055-.627-.901-.99Zm-5.261 1.758c.132-.275.384-.495.549-.758.385-.583.033-1.099 1.428-1.11 1.395-.01.637 1.055 1.252 1.066.627.01 1.528-.297 1.989.263-.538.45-1.868.187-2.505.187-.318 0-.824.022-1.131.11-.429.12-1.264.725-1.308.956-.142.12-.516 1.46-1.065 1.076-.55-.362.637-1.483.79-1.79Zm-1.571-13.579c-.088.132-.363.385-.593.583-.462.417-.945.857-1.297 1.428-.582.769-.703 1.538-.769 1.955l-.01.044c0 .033-.012.055-.012.088-.263.582-.417.516-.922.571.032-.022-1.286-.186-1.747-.813-.297-.406-.374-.67-.517-1.252-.252.253-.922 1.22-.57 1.934.142.296 1.328.57 1.955.626-.363.164-1.483.417-1.681.483-1.187.352-1.582.593-2.208.78v.011c-.648.154-1.11.198-1.132.033-.088-.571 1.22-3.021 2.406-3.592 1.187-.572 2.89-2.296 3.735-3.197.846-.912.901-2.044 2.56-3.219.648-.538 1.648-.79 2.362-.989.088.187.197.374.33.55-.045.922-.308 1.988-.495 2.427-.055.121-.319.385-.516.572a6.126 6.126 0 0 0-.88.977Zm2.933 1.912c1.077-.12 2.296-.297 3.45-.11.307.044.582.12.922.165.319.055.429.143.714.23.22.067.67 0 .846.198.308.34.143.506-.285.539-.418.032-.528-.231-.89-.352-.374-.12-.583-.022-.967.011-.692.066-1.307-.308-2.054-.23-.583.065-1.12.241-1.681.35-.319.067-.626 1.034-.846 1.22-.824.703-1.351-.604-1.274-.78.33-.89 1.373-1.164 2.065-1.241Zm4.855-11.403c-.153.11-.626.352-1.065.527-.23-.12-.516-.23-.89-.296a1.49 1.49 0 0 0-.319-.033c-.362 0-.67.022-.944.077.263-.594.132-1.505-.077-1.758-.363-.461-.66-1.307-.956-1.78-.33-.505-.714-1.274-1.032-1.801-.66-1.077-.759-1.78-1.319-2.395-.187-.209-.34-.44-.516-.648-.198-.231-.396-.297-.626-.473.263.264.472.484.648.813.132.253.252.55.384.824.286.615 1.088 2.626 1.472 3.208.176.263.956 1.582 1.077 1.955.187.571.615.923.33 1.373-.21.33-.649 1.176-1.099 2.044-.143.055-.275.12-.395.197.055-.428.11-.845.164-1.208.198-1.307-.362-3.076-1.098-4.043-.736-.966-1.033-2.296-1.461-3.9-.44-1.603-.231-2.219-.231-2.219s4.757 3.054 8.514 7.372c.472.538.648 1.186 1 1.604-.418.033-.912.132-1.56.56Z" fill="#F6F6F6"/></svg>