<svg width="83" height="50" fill="none" xmlns="http://www.w3.org/2000/svg"><g clip-path="url(#a)" fill="#886A4E"><path d="M30.516 44.79c-.164-.04-.274.008-.314.141-.007.031-.015.173-.031.416-.016.345.016.612.07.792.095.29.275.471.55.534a.698.698 0 0 0 .408-.024.317.317 0 0 0 .204-.313c.008-.29-.07-.597-.228-.91-.164-.362-.384-.574-.659-.636Z"/><path d="M63.128 32.902c-.487 4.85-10.248 8.725-22.215 8.725-11.456 0-20.888-3.546-22.104-8.098-.086-.33-.126-.149-.126-.149l.008 7.816c.377 4.888 10.185 8.812 22.222 8.812 12.124 0 21.98-3.97 22.23-8.906l.024-8.192c0-.008-.031-.134-.04-.008ZM43.88 43.173c.078-.22.156-.337.196-.345h.259c.039 0 .086-.016.157-.04.07-.023.125-.03.157-.038.062-.008.102.023.102.094 0 .055-.11.196-.33.423-.22.236-.361.353-.416.353-.18.016-.275-.007-.267-.039.024-.11.094-.274.142-.408ZM23.015 40.27c-.094.141-.15.227-.157.267-.04.11-.087.149-.141.117-.032-.015-.087-.086-.165-.204a.702.702 0 0 0-.204-.22c-.236-.133-.353.04-.361.526-.008.816.023 1.405.078 1.75.063.385.165.714.306.958a.629.629 0 0 1 .087.18c0 .055-.047.055-.134-.008a3.021 3.021 0 0 1-.306-.243 5.14 5.14 0 0 0-.306-.251 3.058 3.058 0 0 0-.243-.15 1.665 1.665 0 0 1-.243-.156c-.047-.04-.079-.079-.079-.126 0 0 .032-.031.102-.078a.306.306 0 0 0 .118-.22c.016-.165.031-.431.031-.8 0-.706.008-.965.008-.965s-.063-.824-.086-.934c-.008-.055-.086-.157-.26-.267a.484.484 0 0 0-.219-.07c-.086-.008-.133-.024-.165-.048-.062-.039-.11-.196-.11-.196s.008-.047.008-.188c0-.055-.015-.134-.039-.251a.973.973 0 0 1-.039-.251c0-.047.024-.055.078-.024.008.008.071.055.173.141.102.087.228.18.369.275.102.063.227.15.392.243.189.11.314.173.377.212.078.047.196.118.345.228.157.102.267.18.345.22a.882.882 0 0 0 .244.078c.11.023.188.047.243.078.063.032.094.079.094.15-.008.007-.055.093-.141.227Zm2.872.965c-.024.047-.165.165-.236.298-.031.063-.102.298-.196.675-.133.51-.282 1.185-.408 2.009L25 44.57a1.434 1.434 0 0 1-.086.314c-.047.11-.134.141-.244.086a3.8 3.8 0 0 1-.282-.165c-.126-.078-.22-.14-.283-.172-.054-.032-.14-.063-.258-.11a3.542 3.542 0 0 1-.267-.118c-.086-.047-.126-.11-.126-.188 0-.04.047-.055.134-.055.478.016.91-.447.855-.557-.008-.024-.094-.04-.11-.047-.44-.22-.69-.754-.73-1.554-.008-.196-.015-.4-.031-.588a4.062 4.062 0 0 0-.078-.605 1.495 1.495 0 0 0-.236-.565c-.063-.102-.102-.172-.102-.204 0-.062.055-.07.173-.015.039.023.102.063.188.117l.188.118c.047.024.11.047.197.063.086.023.149.04.196.063.149.07.227.345.22.808 0 .172-.024.424-.071.753-.047.33-.063.58-.07.754 0 .274.062.447.203.517.094.047.173.016.243-.094.071-.11.173-.416.314-.918.134-.502.212-.84.212-1.012 0-.032 0-.07-.016-.126-.007-.055-.015-.102-.015-.125 0-.055.031-.079.086-.055.04.016.102.047.18.094.079.047.134.078.181.094.024.008.07.024.126.032.055.015.102.023.133.039.04.015.07.063.063.086Zm2.754 5.203c-.047-.016-.126-.04-.22-.087-.094-.039-.165-.07-.212-.086-.023-.008-.07-.016-.125-.032-.055-.015-.102-.023-.126-.03-.196-.064-.33-.385-.353-.943-.023-.517 0-1.059-.008-1.569-.008-.557-.11-.879-.29-.942-.141-.047-.29.063-.455.33-.228.369-.345.793-.353 1.287-.008.251.031.44.102.557a1.3 1.3 0 0 0 .298.29c.173.134.29.228.345.29.11.126.173.268.173.409 0 .086-.016.125-.055.117a.896.896 0 0 1-.188-.11.834.834 0 0 0-.197-.117 1.924 1.924 0 0 0-.274-.07 1.662 1.662 0 0 1-.275-.071c-.353-.134-.533-.448-.526-.934a3.618 3.618 0 0 1 .456-1.703c.313-.596.69-.965 1.114-1.09a.992.992 0 0 1 .604 0c.102.03.15.07.15.11 0 .046-.009.11-.024.196a1.164 1.164 0 0 0-.024.188c-.008.314.016.879.078 1.679.063.855.134 1.405.204 1.632.008.04.063.15.15.345.094.197.14.29.14.299.009.062-.03.078-.109.055Zm3.374.557c-.165.117-.377.149-.636.094-.18-.04-.462-.11-.831-.212-.369-.102-.644-.18-.824-.228-.047-.007-.118-.023-.212-.031s-.165-.024-.212-.031c-.063-.016-.094-.047-.094-.095 0-.015.031-.054.094-.125a.44.44 0 0 0 .102-.15c.063-.188.126-.988.18-2.4.008-.283 0-.51-.023-.667a1.652 1.652 0 0 0-.275-.652c-.054-.078-.086-.125-.086-.156 0-.055.055-.071.15-.04.078.024.188.063.337.126.149.063.259.102.337.125.063.016.15.032.267.04.117.007.212.023.267.039.054.016.086.047.078.086 0 .024-.031.055-.086.102-.189.15-.29.432-.306.84 0 .039 0 .102-.008.172-.008.071-.008.126-.016.157-.008.267.102.44.353.495a.49.49 0 0 0 .283-.04c.117-.039.204-.055.267-.039.266.063.572.424.926 1.083.164.314.243.62.235.934-.016.267-.102.455-.267.573Zm1.256-1.067c.243.439.565.69.98.76.29.048.526-.015.707-.196.047-.047.078-.07.094-.062.055.008.086.086.078.227-.008.338-.125.589-.337.761-.212.173-.479.228-.816.165-.322-.055-.612-.227-.863-.502-.424-.47-.62-1.138-.581-1.977.031-.715.212-1.256.534-1.625.133-.157.243-.227.33-.235.046 0 .117 0 .203.023.11.024.283.071.502.142.228.07.393.117.51.14a.72.72 0 0 0 .22-.007.772.772 0 0 1 .228-.008c.055.008.078.04.078.087 0 .062-.07.196-.204.384-.133.196-.235.306-.29.33a.42.42 0 0 1-.243.023c-.103-.016-.252-.094-.471-.235-.22-.142-.377-.228-.479-.243a.383.383 0 0 0-.188.007c-.063.016-.126.142-.189.361-.054.18-.078.338-.086.455a2.2 2.2 0 0 0 .283 1.224Zm4.04.015c.016.047.118.228.275.534.126.243.299.683.589 1.122.055.086.125.173.188.259.094.125.15.212.15.243 0 .055-.048.07-.134.063a6.692 6.692 0 0 1-.298-.047 2.825 2.825 0 0 0-.29-.055 1.39 1.39 0 0 0-.26 0 1.37 1.37 0 0 1-.258 0c-.103-.008-.15-.047-.15-.11 0-.008.024-.031.063-.078a.294.294 0 0 0 .063-.197c0-.157-.07-.423-.212-.792-.157-.4-.306-.612-.44-.628-.093-.008-.14.055-.148.196-.008.118.015.322.062.597.047.298.094.486.142.565.007.015.047.062.125.149.07.086.11.14.11.157 0 .047-.04.062-.11.054a2.553 2.553 0 0 1-.36-.07 2.729 2.729 0 0 0-.354-.07 2.972 2.972 0 0 0-.322-.016c-.14 0-.243 0-.321-.016-.087-.016-.134-.047-.126-.102 0-.032.032-.079.086-.133a.585.585 0 0 0 .15-.212c.015-.04.03-.126.047-.267.11-.753.204-1.585.243-2.48.016-.298 0-.502-.032-.604a.623.623 0 0 0-.11-.165.462.462 0 0 1-.094-.149c0-.047.04-.07.11-.055.047.008.126.016.228.032.094.015.172.031.227.031.15.016.252.126.322.322.047.141.07.306.063.486 0 .087-.016.212-.031.385-.016.172-.032.298-.032.384-.008.243.055.369.188.385.087.008.252-.11.495-.361.212-.22.36-.393.44-.518a.642.642 0 0 0 .101-.314c.008-.102-.047-.204-.149-.314-.102-.11-.157-.173-.157-.196 0-.055.047-.078.134-.07.698.062 1.051.086 1.067.093.047.032.07.063.07.118-.008.196-.125.424-.36.667a8.92 8.92 0 0 1-.652.589c-.235.196-.353.337-.36.416a.225.225 0 0 0 .023.172Zm4.395 1.609c.055.212.133.376.227.502.04.055.063.086.063.102 0 .055-.047.102-.149.133a.554.554 0 0 1-.22.032c-.282 0-.58-.361-.635-.369-.11-.024-.683.345-1.012.33a1.279 1.279 0 0 1-.644-.212c-.212-.134-.47-.361-.478-.479 0-.008.015-.031.039-.055.172-.18.29-.526.353-1.02.031-.212.047-.604.07-1.161.016-.557-.023-.942-.125-1.162a.907.907 0 0 1-.07-.172c0-.047.03-.07.078-.063.055 0 .133.016.235.031.102.024.18.032.236.032.039 0 .102 0 .172-.008.079-.008.134-.008.173-.008.094 0 .165.102.212.29.031.142.047.275.047.408-.008.361-.134.88-.361 1.523-.134.384-.204.643-.204.784a.677.677 0 0 0 .149.456c.11.14.243.22.408.227.22.008.369-.04.44-.149.125-.196.203-.832.227-1.938.016-.479-.008-.832-.063-1.067a.874.874 0 0 0-.063-.212c-.031-.055-.086-.118-.125-.173-.016-.023-.024-.04-.024-.063 0-.047.047-.07.134-.07.063 0 .149.008.267.008.117.007.203.007.266.007s.165-.007.298-.015c.134-.008.236-.016.306-.016.079 0 .118.016.118.055a.346.346 0 0 1-.07.125c-.118.157-.212.393-.267.715-.063.33-.102.808-.11 1.404-.008.55.023.965.102 1.248Zm3.539-.18c.063.203.133.368.227.478.04.047.063.078.063.094 0 .055-.047.11-.149.15a.77.77 0 0 1-.22.062c-.274.031-.588-.298-.635-.306-.11-.016-.675.424-1.005.44a1.27 1.27 0 0 1-.643-.15c-.212-.11-.47-.321-.479-.44 0-.007.016-.03.04-.054.172-.204.282-.557.345-1.075.023-.22.039-.62.055-1.193.008-.573-.04-.957-.142-1.169a1.399 1.399 0 0 1-.07-.165c0-.047.031-.07.078-.07.055 0 .134 0 .236.015.102.016.18.016.235.016.04 0 .102-.008.173-.024a.958.958 0 0 1 .172-.023c.095-.008.165.086.22.275.04.14.055.274.055.408-.008.368-.118.902-.337 1.577-.134.4-.197.675-.197.816a.73.73 0 0 0 .15.447c.11.134.243.196.408.188.22-.015.36-.078.439-.196.126-.212.188-.863.204-1.985.008-.486-.024-.847-.07-1.075a1.076 1.076 0 0 0-.063-.204c-.04-.055-.087-.11-.126-.165-.016-.023-.024-.039-.024-.063 0-.047.048-.078.126-.086.063-.008.15-.008.267-.016.118-.007.204-.007.267-.015.063-.008.165-.024.298-.047a4.99 4.99 0 0 1 .298-.047c.078-.008.118.008.118.047a.421.421 0 0 1-.07.133c-.11.165-.205.416-.26.746-.055.345-.086.824-.094 1.428-.008.549.024.973.11 1.247Zm5.909-.503c-.142.11-.244.173-.29.188-.064.016-.173.008-.33-.039-.785-.212-1.209-.84-1.224-1.852-.008-.753.164-1.38.51-1.875.164-.235.298-.361.4-.384.063-.016.149-.024.274-.024.126-.008.22-.016.283-.032a1.62 1.62 0 0 0 .306-.117c.133-.063.235-.102.306-.126.125-.031.259.016.408.15.337.305.526.8.557 1.459.04 1.075-.345 1.97-1.2 2.652Zm4.001-2.754c-.196.588-.462.95-.816 1.067-.11.04-.22.04-.321-.008a.267.267 0 0 1-.165-.243c0-.07.04-.173.133-.314.087-.141.165-.227.236-.243.031-.008.086-.008.086 0 .008.023-.04.149-.04.212.009.117.056.165.158.125.22-.078.321-.384.298-.926a2.976 2.976 0 0 0-.204-.95c-.157-.4-.353-.564-.589-.486-.18.055-.282.22-.321.495-.016.117-.024.33-.008.612.039.918.102 1.522.18 1.812.087.322.212.534.369.636.055.04.086.07.086.094 0 .055-.039.094-.133.126a2.447 2.447 0 0 1-.337.078c-.15.024-.267.055-.338.079a1.75 1.75 0 0 0-.267.11 1.757 1.757 0 0 1-.267.11c-.062.015-.102-.008-.094-.04.047-.204.22-.431.228-.533.008-.173.008-.448-.008-.832 0-.094-.008-.228-.016-.408-.008-.18-.023-.322-.023-.408 0-.071-.008-.236-.016-.502-.008-.204-.008-.377-.016-.503a3.81 3.81 0 0 0-.055-.486.97.97 0 0 0-.102-.228.585.585 0 0 1-.086-.18c0-.055.04-.094.118-.118.141-.04.345-.094.628-.157.274-.063.486-.118.62-.165a1.42 1.42 0 0 0 .36-.188 1.44 1.44 0 0 1 .361-.188c.079-.032.165.015.252.117.22.275.337.636.36 1.044-.023.44-.094.895-.25 1.389Zm2.849.133a2.045 2.045 0 0 1-.714.605 1.248 1.248 0 0 1-.636.125c-.345-.023-.604-.196-.761-.534-.118-.25-.188-.635-.204-1.137-.04-.816.11-1.483.432-2.001.086-.134.172-.236.266-.306a2.09 2.09 0 0 1 .416-.228c.26-.11.55-.212.848-.29.094-.024.164-.047.212-.063a.348.348 0 0 0 .133-.118.623.623 0 0 1 .118-.11c.039-.015.055 0 .055.048 0 .047-.008.157-.032.33a1.567 1.567 0 0 1-.141.51.847.847 0 0 1-.392.337c-.126.055-.306.11-.542.149a2.986 2.986 0 0 0-.541.133c-.283.118-.416.322-.408.612.015.353.298.416.831.18.212-.094.448-.36.667-.502.032-.023.087.032.11.134.024.07.032.149.032.227.008.228-.102.4-.322.503-.118.055-.282.086-.51.102-.228.015-.392.039-.51.086-.133.055-.204.18-.196.369.008.274.172.455.486.525a1.204 1.204 0 0 0 1.193-.392c.07-.086.15-.188.212-.306l.086-.157c.087-.047.133.047.141.283.024.282-.094.58-.33.886Zm3.264-1.734a.819.819 0 0 1-.196.11 1.03 1.03 0 0 0-.196.11c-.047.031-.11.086-.196.157-.087.07-.157.125-.197.149-.14.094-.298-.016-.423-.322-.095-.212-.267-.667-.267-.667-.032 0-.26 1.012-.251 1.436 0 .102-.04.18-.134.235-.047.024-.117.063-.212.095-.094.039-.164.07-.22.094a1.785 1.785 0 0 0-.18.125 1.073 1.073 0 0 1-.18.118c-.094.055-.15.047-.15-.008 0-.031.024-.078.064-.149.345-.541 1.075-1.6 1.09-2.291.008-.518-.47-1.216-.643-1.381a3.683 3.683 0 0 0-.22-.134c-.118-.062-.18-.117-.188-.14 0-.064.039-.11.117-.15.055-.023.126-.055.228-.086.094-.032.165-.063.22-.087.039-.015.086-.054.157-.094.063-.047.117-.078.149-.094.086-.047.157-.015.212.079a2.1 2.1 0 0 1 .172.502c.063.25.157.518.157.518.008 0 .126-.4.236-.848.102-.408.172-.651.22-.737a.565.565 0 0 1 .156-.173c.055-.031.141-.07.251-.102a.849.849 0 0 0 .252-.11.82.82 0 0 0 .117-.117c.047-.055.079-.095.094-.102.032-.024.055-.008.055.039s-.015.447-.188.894a.34.34 0 0 1-.126.134 1.036 1.036 0 0 1-.14.078l-.142.07c-.173.11-.683.793-.651 1.248.039.573.831 1.287 1.169 1.334.07.008.102.04.102.087a.294.294 0 0 1-.118.18Z"/><path d="M50.502 43.244c-.423.102-.635.47-.62 1.138.008.369.095.722.267 1.059.188.361.432.588.706.69a.592.592 0 0 0 .377.04c.212-.055.369-.22.463-.479.07-.196.102-.424.094-.675a2.685 2.685 0 0 0-.345-1.224c-.251-.463-.565-.643-.942-.55ZM6.936 34.487a.621.621 0 0 0 .102-.102c-.156.094-.313.196-.478.298l.376-.196Zm7.62-9.927a2.095 2.095 0 0 0-.032.377c0 .141-.18.55-.149.651.04.173.479.652.565.809.079.157.126.314.18.486.048.165.103.338.189.518.173.353.212.518.275.855.078.424.157.66.573 1.091.102.11.196.228.29.361.133.18.267.361.463.55.102.094.204.156.298.22.055.046.118.085.165.125.086.078.157.172.235.274.047.063.094.118.141.18.69.809 2.723 2.418 2.888 2.535.15.102.282.157.4.212a1.2 1.2 0 0 1 .18.087c.385.211.723.368 1.076.533l.235.11c.298.141.597.314.887.479a6.291 6.291 0 0 1-.079-.408c-.235-.134-.478-.275-.737-.393l-.244-.11a18.038 18.038 0 0 1-1.035-.51c-.095-.047-.173-.086-.251-.117a1.502 1.502 0 0 1-.252-.126c-.14-.102-2.118-1.68-2.738-2.401-.04-.047-.079-.102-.118-.15a2.632 2.632 0 0 0-.321-.368 2.726 2.726 0 0 0-.275-.204 1.41 1.41 0 0 1-.196-.141 2.583 2.583 0 0 1-.377-.448 3.271 3.271 0 0 0-.345-.423c-.314-.33-.361-.479-.432-.848a3.405 3.405 0 0 0-.306-.95 2.403 2.403 0 0 1-.157-.454c-.055-.18-.11-.37-.212-.565a8.016 8.016 0 0 0-.345-.58.643.643 0 0 0-.141-.15.204.204 0 0 0 .055-.086 1.7 1.7 0 0 0 .055-.479c0-.118.008-.228.023-.337a.423.423 0 0 1 .032-.118c.039-.173.078-.314-.07-.573a.6.6 0 0 0 .423-.384c.086-.252.023-.605-.173-.958a.856.856 0 0 0 .565-.682.927.927 0 0 0-.11-.55c.236-.117.228-.51.204-.902 0-.055-.008-.102-.008-.126 0-.015.008-.023.032-.047.07-.055.133-.14.063-.345a.982.982 0 0 0-.118-.243c.55.643 2.283 2.173 2.66 2.652.118.141.416.479.47.573-.65-.157-2.918-1.381-2.918-1.381s.635.494 1.546.957c.423.22 1.38.636 1.545.69a.515.515 0 0 0 .095.087 3.584 3.584 0 0 1-.055-.33c-.087-.094-.142-.164-.173-.188-.008-.078-.008-.157-.008-.235-.023.07-.063.078-.125.062-.903-.965-2.653-2.652-3.155-3.13.032.007.063.023.094.03.032.017.063.017.095.024.07.024.227.087.368.142.22.094.338.117.479.14.047.009.102.017.173.032.062.016.14.047.22.079.117.047.25.102.384.125.36.063.447-.062.502-.149.031-.047.047-.07.11-.086.078-.016.251.055.416.118.141.055.282.117.424.149v-.361h-.024a1.58 1.58 0 0 1-.361-.118c-.243-.102-.518-.212-.745-.165a.378.378 0 0 0-.26.18c-.039.064-.046.071-.164.048-.055-.008-.141-.047-.228-.079a2.067 2.067 0 0 0-.353-.125c-.078-.016-.141-.031-.196-.04-.118-.023-.173-.03-.314-.094-.274-.117-.447-.188-.565-.204-.055-.015-.102-.039-.149-.047-.133-.047-.58-.321-.683-.298-.102.024.487.926.55 1.114.015.055.015.055-.016.087a.237.237 0 0 0-.102.18c0 .032 0 .087.008.157.039.58-.267.675-.298.73-.032.055-.008.133.055.212.157.165.172.345.157.463a.669.669 0 0 1-.534.541c-.055.008-.086.031-.102.079-.016.039 0 .094.031.14.204.307.29.637.22.848-.055.157-.188.251-.408.275-.055.008-.094.031-.11.078s0 .102.04.15c.164.22.156.282.11.462.038.055.03.102.023.15Z"/><path d="M19.413 43.832a.789.789 0 0 0-.337.165l-.024.016c-.314.251-.47.36-.902.22-.197-.063-.424-.197-.667-.33-.173-.094-.353-.204-.55-.29.197-.11.66-.4 1.554-.981l.141-.094c-.039-.087-.07-.18-.102-.267-.824.667-1.53 1.232-1.64 1.326a2.12 2.12 0 0 0-.714-.204c-.227-.024-.431.07-.628.157a.887.887 0 0 1-.172.07.799.799 0 0 0-.188.071 1.073 1.073 0 0 0-.126-.047l-.086-.031c-.126-.047-.26-.11-.4-.165-.37-.157-.793-.337-1.24-.455-.212-.055-.377-.142-.589-.26-.227-.117-.479-.25-.808-.352-.204-.063-.392-.079-.557-.094a2.76 2.76 0 0 1-.251-.032 9.484 9.484 0 0 1-.495-.102 4.08 4.08 0 0 0-.549-.102c-.47-.165-.643-.267-.745-.494-.055-.118-.055-.228-.063-.345-.008-.236-.024-.526-.479-.88-.565-.439-1.153-.47-1.624-.502-.212-.015-.416-.023-.604-.062.015-.055.039-.11.063-.165.125-.337.266-.722-.157-1.224-.252-.298-1.797-1.436-1.813-1.515-.031-.188-.063-.4-.235-.604-.15-.18-.37-.33-.581-.478-.196-.134-.392-.275-.432-.37-.031-.078-.015-.117.016-.18.055-.117.126-.298-.196-.651a2.326 2.326 0 0 0-.416-.33 1.155 1.155 0 0 1-.251-.188l-.165-.165a2.315 2.315 0 0 0-.502-.423 5.567 5.567 0 0 1-.424-.299.533.533 0 0 0-.094-.094 3.906 3.906 0 0 0-.102-.078c.895.204 4.002.91 5.712 1.193.063.062.079.11.016.188.094-.055.18-.11.267-.157.44.078 5.736.761 5.87.769a8.843 8.843 0 0 1-1.986 1.153c-1.248.487-4.763 1.146-4.763 1.146s1.664-.235 2.723-.392c.275-.04.392-.024.62-.102a12.94 12.94 0 0 0 1.012-.408 28.931 28.931 0 0 0 2.103-1.013c.102-.055.204-.11.306-.172.086-.047.18-.134.306-.142.047 0 .055-.007.102-.007.07.008.51.078.604.094.236.039.424.008.675.07.11.032.196.055.306.055.118 0 .212.016.338.063.11.04.855.102.941.126.086.023.777.117.863.14l-.384.252c-.055.07-.087.22-.141.29-.087.118-.252.306-.416.37-.173.062-.353.25-.534.313-.235.078-.353.102-.502.259-.259.282-.683.188-.997.447-.156.134-.533.267-.784.338-.118.031-.408.094-.51.125-.11.04-.495.063-.589.118-.25.149-.165.157-.494.188-.236.024-.55.18-.722.267-.251.126-.47-.118-.73 0-.212.094-2.448.847-2.7.918.268.079 2.724-.667 2.951-.69.306-.04.604-.157.848-.252.447-.172.902-.29 1.412-.407.573-.134 1.17-.299 1.624-.59.471-.297 1.052-.446 1.554-.721.392-.212.777-.431.989-.753.125-.189.322-.212.55-.33.062-.031.14-.055.227-.086.078.023.164.04.259.055v-.196a18.24 18.24 0 0 1-1.468-.212c-.431-.338-2.393-1.703-2.566-1.868-.572-.518-1.137-.894-1.86-1.302-1.396-.8-4.315-2.072-5.775-2.747.15.126 2.26 1.271 2.527 1.413.424.235.628.102.989.314.737.423 1.522.659 2.189 1.082.69.44 2.056 1.546 2.786 2.001.094.055 1.428.895 1.31 1.122-.047.079-1.208-.29-1.373-.274-.26.016-.69.094-1.468-.15-.463-.148-.996-.18-1.279-.203-.023-.016-.84-.432-.855-.448-.29-.188-.502-.4-.824-.572-.643-.346-.863-.652-1.483-1.013-.541-.313-1.083-.698-1.656-.957-.517-.235-1.13-.588-1.632-.636.926.471 1.868.91 2.794 1.397.47.243.753.58 1.185.863.259.173 1.655 1.068 2.016 1.358-.149-.04-1.004-.118-1.114-.15-.416-.11-.66-.101-1.114-.148-.761-.071-.8-.071-.887-.095-.149-.039-.737-.258-.824-.266a28.59 28.59 0 0 0-1.867-1.2c-1.177-.668-2.174-1.005-2.174-1.005s2.99 1.6 3.625 2.205c-.14 0-.722-.087-.965-.11-.8-.07-3.735-.863-4.833-1.005.133-.007.25-.023.353-.047.274-.07.314-.204.33-.313.062-.024.062-.032.078-.04l.14-.086c.448-.259.888-.534.84-.879a1.09 1.09 0 0 0 .683-.274c.306-.275.432-.715.338-1.115.533-.039.965-.22 1.177-.502.157-.204.196-.463.11-.738.384-.023.517-.164.674-.337.032-.04.07-.078.11-.118.102-.102.22-.188.345-.274.165-.118.338-.236.487-.408a.258.258 0 0 0 .055-.126.83.83 0 0 0 .259.047c.322-.008.604-.015.887-.04.29-.03.533-.101.768-.18.205-.062.4-.125.613-.149a4.291 4.291 0 0 0 1.263-.345c.455-.188.651-.243 1.24-.133.25.047.486.055.714.07.259.016.51.024.76.087.087.023.181.062.291.11.07.03.15.062.228.094-.15-.189-.33-.408-.353-.518v-.07a1.43 1.43 0 0 0-.197-.064 4.634 4.634 0 0 0-.933-.117 4.947 4.947 0 0 1-.604-.055c-.777-.141-1.083-.055-1.61.157a3.72 3.72 0 0 1-1.137.314 3.493 3.493 0 0 0-.698.172c-.22.07-.432.134-.667.157-.236.024-1.083-.11-1.295-.031-.11.047-.432.526-.58.635-.134.095-.267.18-.393.306l-.125.126c-.173.18-.22.243-.589.212-.086-.008-.157.015-.196.063-.04.047-.04.11-.008.172.126.251.126.471-.008.644-.18.235-.596.376-1.083.368-.078 0-.141.024-.18.071-.032.055-.032.11 0 .173.149.314.055.737-.204.973a.715.715 0 0 1-.62.165c-.126-.024-.228.007-.267.086-.031.078.079.478-.58.855-.087.047-.15.086-.181.11a.32.32 0 0 0-.133.243c-.008.055-.008.055-.087.079-.259.062-1.671.078-1.624.196.047.125.683.424.824.533.047.04.102.079.165.126.102.11.298.259.627.47.165.11.22.166.33.275.047.055.11.11.18.189.118.117.26.212.385.298.102.07.204.133.251.188.11.118.102.134.063.22-.024.086-.079.212 0 .424.11.282.431.502.714.698.157.11.322.22.392.306s.094.243.118.377c.04.25.094.588.557.792.047.024 1.2.753 1.373.965.236.283.173.503.047.832-.047.134-.102.267-.125.424-.016.102.086.235.243.306.455.196.871.22 1.24.243.478.032.76.055 1.06.283.195.149.203.243.219.463.008.133.008.29.094.486.259.58.902.8 1.365.965.071.024.134.032.189.024.078.015.259.047.392.078.188.04.377.079.541.11.118.016.22.031.322.04.134.015.251.023.353.054.236.07.424.173.62.275.236.125.502.267.832.353.36.094.722.243 1.075.4.149.063.29.126.424.18l.086.032c.322.133.487.196.69.086.032-.015.063-.039.142-.054.07-.024.149-.055.235-.095.094-.039.26-.117.322-.117.251.023.557.196.887.384.282.157.565.322.87.424.832.267 1.17 0 1.491-.26l.024-.038c.086-.07.133-.094.18-.094-.133-.15-.259-.299-.384-.456Zm3.978-14.022a.364.364 0 0 1-.07-.023c-.456-.134-1.099-.306-1.523-.565-.423-.26-.745-.37-1.177-.573-.423-.196-.855-.393-1.263-.644a13.441 13.441 0 0 0-1.287-.682c-.47-.22-2.064-1.06-2.7-1.271.95.533 2.057 1.035 2.433 1.35.236.195.322.133 1.695.894.534.055.926.447 1.428.69.26.126.526.165.793.298.212.11.408.283.62.377.227.102.604.227 1.02.353.008-.063.023-.133.031-.204Zm-4.543-9.165.172 1.593c-.007-.573-.015-1.177-.133-1.499-.023-.063-.04-.094-.04-.094Zm.172 1.593c0 .149.009.29.009.431a.838.838 0 0 0 .023-.11l-.031-.321Zm34.134-.643a3.746 3.746 0 0 1 .016-.589c.024-.18.063-.353.094-.518.055-.259.102-.51.102-.777-.008-.047-.023-.086-.031-.133a5.912 5.912 0 0 1-.079-.651l-.094-.385c-.031-.126-.07-.251-.102-.384-.055-.22-.11-.432-.172-.652-.055-.188-.11-.384-.165-.596-.07-.267-.26-.44-.479-.636a2.467 2.467 0 0 1-.486-.533c-.055-.087-.095-.18-.134-.26-.055-.125-.102-.227-.188-.305-.165-.134-.377-.244-.58-.353a6.21 6.21 0 0 1-.495-.283c-.157-.11-.314-.227-.463-.337-.188-.141-.385-.29-.589-.424a6.636 6.636 0 0 1-.886-.73c-.33-.298-.667-.612-1.06-.824-.196-.11-.408-.078-.667-.031-.149.023-.298.047-.463.055-.47 0-.737-.126-1.09-.306-.047-.024-.087-.047-.134-.07-.353-.173-.722-.291-1.106-.409-.094-.031-.18-.055-.275-.086a2.736 2.736 0 0 1-.549-.267c-.133-.07-.251-.141-.377-.188a.39.39 0 0 1-.204-.063c-.25-.04-.533-.008-.84.031a4.237 4.237 0 0 1-.627.055c-.102 0-.204 0-.306-.008-.298-.007-.589-.015-.848.071-.486.173-1.012.345-1.561.463-.15.031-.314.055-.479.079-.306.047-.627.094-.886.196-.016.015-1.46.635-1.554.651-.228.024-.361.04-.596.196-.197.134-.55.432-.903.589.11.031.22.062.338.102.376.11.776.22 1.13.408a1.3 1.3 0 0 1 .337.267c.031.03.063.062.102.094.086.078.196.14.306.211.133.079.267.157.385.267.211.189.4.416.588.636.063.07.126.141.18.212.134.149.228.282.314.423.15.22.275.409.518.566.361.235.565.51.8.816l.08.11a23.52 23.52 0 0 1 1.569 2.29c.07.11.102.228.133.33a.8.8 0 0 0 .063.18.947.947 0 0 0 .149.181c.11.118.227.244.274.416.063.212.032.385.008.526-.023.149-.039.25.024.392.149.298.29.565.431.816.236.416.29.683.37 1.075l.023.118c.031.141.094.314.164.408l.118.173.07-.024a.348.348 0 0 1 .118-.023c.055 0 .165.023.22.157l.008.007c.063.04.118.087.173.134.07.063.149.125.227.165.07.03.142.039.236.054.102.016.22.024.33.079a.726.726 0 0 1 .25.204c.04.047.087.094.118.11.078.039.165.063.259.086.118.031.243.063.377.133.721.393 1.114.817 1.687 1.476.086.102.22.196.36.29.197.133.393.267.534.47.063.087.102.181.134.268a.96.96 0 0 0 .11.22c.047.062 1.192 1.616 1.326 1.694.91.573 1.734-.682 2.04-1.389.063-.14.11-.259.141-.345.133-.377.377-.659.62-.934.314-.36.816-1.679.934-1.883.062-.118.133-.235.204-.337.102-.142.062-.244.149-.338.18-.188.165-.314.22-.612.11-.518-.236-.98-.071-1.514.094-.243.086-.487.078-.753Zm-3.39-5.376c.095-.368.244-.769.4-1.13.22-.525.338-.172.66.126.11.11.314.031.259.29-.032.15-.33.212-.37.306-.078.165.04.408 0 .581-.07.298-.258.353-.454.51-.314.259-.518.502-.903.628-.376.125-.62.25-1.028.345l-.211.008c.36-.62 1.467-.934 1.648-1.664Zm-5.092 2.668c.22-.353.377-.722.636-1.059.235-.306.321-.675.572-.95.298-.329.612-.431.856-.816.172-.274-.008-1.726.76-.996.77.73-.242.753-.4 1.114-.18.432-.462.69-.768 1.02-.15.165-.275.322-.393.518-.125.212-.125.212-.282.385-.314.337-.699.65-.981.996v-.212Zm-2.103-.973c.07-.314.557-1.216.777-1.31l.016-.008c.125-.07.447.259.368.416-.086.07-.572.33-.635.58-.055.244-.314.464-.244.73.063.26.361.37.409.69.03.22.062.558.039.77-.032.36-.526 1.114.117.91.503-.157.628-1.216 1.272-.91.643.306-1.797 1.279-1.578 2.307.032.07.04.141.008.204-.078-.031-.094-.047-.149-.102-.133-.157-.078-.55-.149-.77-.086-.25-.196-.392-.212-.682-.031-.486.196-1.028.126-1.404-.016-.079-.134-.189-.165-.29-.031-.11 0-.275 0-.393 0-.22-.047-.518 0-.738Zm-.957-3.962c-.087.22-.095.267-.26.447-.11.118-.36.212-.4.377-.062.258.299.706.33.988.031.283 0 1.413-.047 2.119-.22-.235-.078-.84-.157-1.17-.078-.36-.479-.635-.651-.972-.29-.58-.26-1.2-.73-1.617l-.024-.015c-.808-.26-2.252-.322-2.4-.636-.15-.314 1.027-.15 1.372-.063.44.11.832.228 1.295.173.032-.565-1.09-1.02-.635-1.232.455-.212.627.541.933.792.165.142.518.691.762.62.243-.07.102-.267.196-.447.102-.188.29-.275.44-.408.305-.282.266-1.318.776-1.193.502.11-.518 1.476-.8 2.237Zm9.777 10.098c-.251.181-1.2-.11-1.742-.062-.353.031-.612.243-.973.243-.236 0-.557-.15-.8-.15-.11.252.392.723.517.966.189.369.126.793.244 1.185-.471-.024-.33-.377-.51-.636-.157-.227-.377-.29-.51-.565-.11-.22-.228-.274-.361-.47-.15-.228-.37.055-.314-.817.055-.87 3.068-.282 3.437-.36.282-.063.557-.565.886-.354.322.22.385.832.126 1.02Zm.259-3.585c-.212.313-.973.039-1.319.157-.211.07-.408.023-.62.102-.196.07-.282.384-.494.368-.518-.039-.643-.298-.902-.227-.165.047-.487.486-.667.659-.306.282-.424.259-.824.424a7.096 7.096 0 0 1-.604.22c-.079.023-.377-.393-.455-.354-.11.055-.087.848-.173.895-.251.133-.385-.079-.66 0-.195.055-.415.063-.596.172-.353.212-.494.361-.87.526-.197.086-.777.385-.887.494l-.055-.039c.04-.125.714-.714.902-.879.251-.227.612-.486.926-.863.314-.384.542-1.255.863-1.49.322-.236.479.549 1.617-.244.235-.165.463-.22.698-.377.228-.14.392-.337.66-.447a.907.907 0 0 1 .384-.07c.18.007.322.133.463.133.306 0 .69-.094.894-.345.22-.267.408-.973.73-.746.212.15.086.808.298.989.424-.165.95.565.69.942Z"/><path d="M4.826 35.617c.431-.102 1.098-.526 1.734-.934l-1.868.957.134-.023Zm71.712-5.289c-.345.275-.77.95-1.17 1.585l1.28-1.671a.584.584 0 0 0-.11.086ZM32.219 13.575c.063.024.133.047.22.102.117.07.22.141.321.22.189.133.37.259.581.345.047.016.11.04.173.063.259.086.557.369.769.526.212.164.36.211.494.345.07.07.141.141.212.188.22.15.306.267.408.392.047.063.094.126.165.204.094.11.227.165.376.228.189.079.4.173.565.385.134.164.26.29.4.423.11.102.228.212.354.353.117.134.235.283.345.424.133.165.251.33.377.463.102.11.227.22.36.33.157.133.322.274.463.439.118.126.212.267.299.392.117.165.227.322.36.448.056.047.103.094.157.14.26.228.503.448.581.935.063.376.165.604.424.91.07.086.157.212.251.353.133.196.243.345.4.628l.118.165-.024-.22c-.031-.07-.086-.204-.133-.29-.141-.26-.212-.37-.361-.675-.118-.244-.086-.448-.063-.62a.705.705 0 0 0 0-.361c-.023-.079-.11-.173-.188-.26-.079-.085-.157-.164-.212-.266a1.378 1.378 0 0 1-.094-.251c-.024-.086-.047-.173-.094-.243-.432-.73-.95-1.483-1.546-2.26l-.086-.11c-.228-.298-.4-.534-.707-.73-.298-.204-.463-.44-.62-.667-.086-.125-.172-.25-.29-.384a5.428 5.428 0 0 1-.188-.22 5.755 5.755 0 0 0-.55-.596c-.094-.087-.203-.15-.33-.228-.125-.078-.25-.149-.368-.251-.04-.031-.07-.07-.11-.102a.924.924 0 0 0-.243-.196c-.322-.165-.698-.275-1.06-.377-.423-.125-.87-.25-1.255-.479l-.063-.03c-.157-.095-.235-.142-.408-.174-.313.016-.635.142-.557.416.047.071.26.126.377.173Z"/><path d="M81.191 30.807a1.445 1.445 0 0 0-.196-.04c-.141-.055-.377-.102-.77-.157-.195-.023-.266-.054-.415-.11-.07-.023-.15-.054-.243-.086-.157-.055-.33-.078-.479-.102a1.819 1.819 0 0 1-.314-.063c-.149-.054-.149-.07-.149-.164s-.008-.228-.172-.385c-.22-.204-.605-.267-.942-.322-.188-.03-.385-.062-.487-.11-.102-.046-.188-.172-.267-.282-.14-.204-.337-.494-.847-.479-.055 0-1.404-.164-1.656-.282-.33-.149-.368-.377-.4-.73a2.115 2.115 0 0 0-.063-.431c-.03-.102-.18-.173-.345-.173-.494.016-.879.173-1.224.314-.447.18-.714.275-1.075.196-.243-.055-.298-.133-.392-.322-.063-.117-.134-.259-.29-.392-.487-.416-1.154-.337-1.648-.282a.41.41 0 0 0-.18.062c-.08.024-.252.063-.385.095-.189.047-.377.086-.534.133-.11.031-.212.07-.306.102a1.684 1.684 0 0 1-.345.102c-.243.031-.455.023-.683.016-.267-.008-.565-.024-.902.047-.37.07-.761.086-1.138.102l-.463.023-.094.008c-.353.024-.526.032-.66.22a.938.938 0 0 1-.101.117c-.055.048-.11.118-.173.189-.063.078-.188.22-.243.25a.66.66 0 0 1-.134.032v.424c.165-.016.33-.04.479-.102.22-.078.36-.251.502-.416a2.45 2.45 0 0 1 .126-.141c.07-.063.11-.11.141-.141.04 0 .086-.008.133-.008l.095-.008.431-.024c.4-.015.863-.03 1.31-.125.212-.04.4-.031.644-.024.251.008.541.024.879-.023a2.66 2.66 0 0 0 .541-.15c.079-.03.157-.062.236-.078.133-.039.321-.078.494-.125.243-.055.416-.102.534-.142.494-.055.698-.039.886.126.102.086.15.18.204.282.11.204.243.463.808.589.699.15 1.248-.07 1.68-.243.196-.079.384-.157.572-.204.008.055.016.117.016.172.032.361.063.761.667 1.036.353.165 2.237.518 2.284.589.11.157.227.337.47.447.212.102.471.141.73.18.236.04.471.071.55.15.062.054.062.102.062.172.008.134.016.33.463.502.165.063.353.095.518.118.118.016.228.031.306.063l.22.078c.172.063.322.126.636.165.196.024.415.063.51.086a.473.473 0 0 0 .125.04l.126.023c-.895.196-4.002.902-5.674 1.381-.078-.031-.117-.063-.094-.157-.063.087-.117.18-.172.26-.432.117-5.509 1.78-5.635 1.835.197-.4.722-1.279 1.295-1.89.918-.982 3.806-3.084 3.806-3.084s-1.405.933-2.291 1.53c-.228.149-.346.188-.518.36-.26.26-.502.534-.746.8a26.875 26.875 0 0 0-1.46 1.821c-.07.095-.14.189-.203.283-.063.086-.102.196-.22.259-.04.023-.04.031-.094.047-.063.023-.494.149-.589.18-.227.071-.384.173-.635.228-.118.024-.196.04-.298.086a.852.852 0 0 1-.33.087c-.11.015-.816.282-.902.298-.087.015-.746.227-.84.243l.243-.392c.016-.087-.015-.236 0-.322.032-.15.094-.385.22-.518s.212-.377.345-.51c.18-.173.275-.243.346-.447.11-.37.533-.463.706-.832.086-.188.36-.47.557-.644.094-.078.33-.258.4-.337.086-.086.424-.267.487-.36.156-.236.086-.213.368-.385.204-.126.424-.4.534-.55.165-.22.47-.094.66-.313.148-.181 1.843-1.82 2.04-1.994-.283.04-2.174 1.774-2.363 1.892-.266.164-.478.4-.659.596-.33.345-.69.651-1.106.973-.463.369-.926.777-1.216 1.224-.299.47-.761.863-1.091 1.318-.267.361-.518.722-.573 1.107-.031.22-.196.33-.353.533a1.192 1.192 0 0 1-.173.173 5.83 5.83 0 0 0-.957.314v.227c.66-.267 1.507-.557 2.197-.737.534.117 2.888.51 3.123.572.746.22 1.413.314 2.236.377 1.61.118 4.787.008 6.396-.015-.189-.048-2.582-.173-2.888-.189-.479-.023-.604.18-1.028.15-.847-.071-1.656.062-2.44-.04-.816-.102-2.52-.51-3.374-.612-.11-.016-1.68-.188-1.664-.447.008-.095 1.216-.26 1.358-.346.227-.125.58-.384 1.389-.494.478-.07.972-.259 1.247-.369.031 0 .942.032.965.032.346.047.628.14.989.157.722.031 1.06.22 1.773.274.62.047 1.28.157 1.907.15.565-.008 1.271.046 1.742-.126-1.036-.024-2.08-.016-3.123-.055-.526-.016-.934-.196-1.444-.267-.306-.04-1.954-.251-2.4-.353.156-.031.957-.322 1.066-.345.424-.087.644-.189 1.067-.346.715-.266.754-.282.84-.298.157-.031.777-.086.855-.11.22.047 1.585.236 2.205.275 1.35.094 2.394-.031 2.394-.031s-3.382-.157-4.222-.432c.126-.063.69-.235.918-.322.754-.282 3.743-.824 4.795-1.177a2.18 2.18 0 0 0-.299.197c-.212.18-.196.313-.156.423.015.04.015.047 0 .07-.016.024-.048.08-.095.134-.298.424-.573.863-.384 1.154a1.116 1.116 0 0 0-.502.541c-.157.377-.079.832.18 1.154-.463.266-.769.612-.847.957-.055.251.023.502.22.714-.338.188-.393.369-.464.596-.015.047-.031.102-.055.157a1.833 1.833 0 0 1-.196.393 2.408 2.408 0 0 0-.267.572.424.424 0 0 0 0 .142.642.642 0 0 0-.25.07c-.291.142-.542.275-.785.416-.251.15-.44.33-.62.495a3.386 3.386 0 0 1-.487.4 4.006 4.006 0 0 0-.988.855c-.33.369-.487.494-1.06.651a6.14 6.14 0 0 0-.675.244c-.243.102-.47.196-.721.25a3.271 3.271 0 0 1-.314.032c-.134.008-.283.016-.44.04-.235.046-.44.125-.612.188a3.176 3.176 0 0 1-.235.086c-1.193.392-4.48.824-4.708.84-.118.007-.228-.008-.37-.024a3.896 3.896 0 0 0-.36-.04c-.55-.023-.989-.07-1.507-.125l-.345-.039c-.04-.008-.078-.008-.118-.008-.07.134-.149.267-.235.4.078.008.157.008.227.016l.346.04c.51.054.996.11 1.577.133.086 0 .165.015.259.031.173.024.36.047.596.031.26-.015 3.633-.447 4.96-.886.094-.032.188-.07.282-.102.157-.063.298-.118.447-.15.079-.015.18-.023.29-.023.142-.008.307-.016.48-.047.345-.07.62-.188.894-.298.196-.079.376-.157.565-.212.76-.212 1.004-.416 1.38-.84.299-.337.456-.486.887-.769.22-.14.393-.306.558-.455.172-.157.33-.306.533-.431.204-.126 1.028-.361 1.185-.526.094-.094.173-.675.267-.832.078-.141.165-.282.22-.44.023-.062.039-.117.055-.164.07-.243.094-.314.439-.447.078-.032.133-.087.149-.142.016-.054-.008-.117-.07-.164-.228-.173-.315-.37-.275-.581.063-.29.376-.596.816-.8a.234.234 0 0 0 .133-.142c.016-.054-.008-.11-.063-.157-.266-.211-.368-.643-.227-.965a.74.74 0 0 1 .486-.416c.126-.031.204-.11.204-.196 0-.086-.274-.4.157-1.028.055-.078.094-.14.118-.172.063-.126.031-.212.016-.275-.016-.047-.016-.055.047-.102.204-.173 1.475-.793 1.38-.879-.109-.094-.807-.086-.98-.125Zm-32.18 1.184c-.031-.133-.055-.266-.078-.392-.047-.282-.118-.714-.133-.745-.071-.126-.157-.761-.173-.761-.118-.032-.471-.33-.502-.487-.055-.275-.456-.832-.495-.895-.063-.086-.345-.384-.408-.478-.07-.094-.11-.204-.149-.29a2.316 2.316 0 0 0-.094-.197c-.102-.14-.267-.259-.44-.376a1.887 1.887 0 0 1-.431-.353c-.534-.62-.902-1.013-1.577-1.39a1.28 1.28 0 0 0-.29-.101c-.11-.032-.228-.063-.346-.118a.932.932 0 0 1-.227-.196c-.047-.047-.087-.094-.126-.11a.606.606 0 0 0-.22-.047c-.031 0-.055-.008-.086-.008.07.04.134.094.18.133.04.032.071.063.11.087.079.047.157.102.236.149.227.141.463.29.667.463.353.29.58.58.824.886.18.228.478.605.777.809.258.18.768.957.831 1.012.244.204.62.84.683.942.133.227.275.439.424.667.086.133.063.266.149.408.039.054.133.204.188.274.11.134.306 1.154.314 1.185.157.526.44.8.486.816.016-.008.032-.55-.086-.832l-.008-.055Z"/><path d="M75.11 32.258a.95.95 0 0 0-.047.134c.102-.15.196-.306.298-.471l-.251.337Zm-33.6-8.757c-.37 0-.903-.541-1.028-.682a5.413 5.413 0 0 1-.636-.966c-.04-.078-.047-.149-.055-.212-.008-.046-.008-.078-.023-.101-.008-.008-.479-.707-.534-.754-.016-.008-.769-.643-.847-.777-.071-.117-.134-.235-.204-.314a7.317 7.317 0 0 1-.377-.486c-.33-.447-.651-.863-1.146-1.154-.11-.062-.933-.596-1.035-.659-.197-.125-.306-.298-.416-.463-.024-.039-.047-.078-.079-.11-.094-.133-.408-.337-.502-.423-.11-.102-.165-.212-.22-.306-.039-.07-.07-.141-.117-.18-.04-.032-.361-.134-.432-.173-.243-.126-.8-.604-.887-.667-.063-.047-.47-.18-.588-.267-.11-.086-.18-.196-.251-.29-.04-.055-.157-.204-.18-.236-.228-.259-.377-.424-.62-.424-.032 0-.063 0-.103.008 0 0-.165.887.079 1.083a.828.828 0 0 1 .086.07c.283.22.495.425.785.707.117.11.259.204.416.306.14.094.282.18.416.298.14.126.25.244.345.353.196.228.337.385.722.479.588.141.95.58 1.302.996.244.299.997.762 1.114.84.071.047.471.706.503.753l.015.016c.416.557.683.69.683.69s.628.699.981.864l.11.196c-.024.243.11.353.369.534.055.039.22.164.25.188.181.141.425.337.62.4 0 0 .542.589.785.761.063.047.228.102.37.157.18.063.36.126.494.212-.008-.024-.008-.04-.016-.063-.063-.298.22-.235.133-.4-.086-.173-.243.196-.282.196Zm5.54 7.259a3.933 3.933 0 0 1-.11-.322c-.04-.126-.071-.243-.134-.361-.086-.165-.204-.345-.306-.502l-.016-.024a2.935 2.935 0 0 0-.478-.526c-.102-.102-.204-.196-.306-.306a1.37 1.37 0 0 0-.322-.259c-.149-.102-.314-.211-.47-.423a4.67 4.67 0 0 0-.166-.22 8.001 8.001 0 0 0-.462-.588 2.446 2.446 0 0 0-.252-.236 2.898 2.898 0 0 1-.313-.306 1.13 1.13 0 0 1-.197-.369c-.031-.078-.054-.149-.094-.212-.078-.125-.22-.298-.36-.47a4.415 4.415 0 0 1-.181-.22c.063.141.125.29.188.431.157.346.306.675.369 1.005.063.322.204.55.36.808.064.102.126.204.19.322.07.133.11.267.14.392.024.094.047.18.087.26.063.14.165.25.282.36.047.047.087.094.134.141.172.196.227.408.282.597.032.125.063.25.133.36.087.15.205.29.33.44.165.196.337.4.44.636.039.086.933 1.726.996 1.852.596 1.224.91.384.714-.487-.04-.141-.463-1.734-.478-1.773Zm-29.685 7.901c-.235.102-.377.228-.573.361-.259.18-.541.346-.824.503-.33.18-.58.447-.91.62a12.56 12.56 0 0 1-.855.407c-.275.118-.612.157-.808.322.29.055.549-.125.753-.196.188-.07.4-.141.588-.188.236-.063.189-.197.448-.252.274-.054.196-.07.353-.227.149-.141.431-.369.659-.463.282-.11.557-.188.808-.322.22-.117.4-.431.643-.518.244-.086.44-.212.644-.33v-.313c-.118.086-.228.165-.298.227-.18.173-.377.26-.628.37Zm52.503 1.915c.22 0 1.24.118 1.593.212.345.086.871.118 1.146.133-1.075-.086-3.782-.659-4.112-.69a23 23 0 0 1-1.797-.236c-.557-.102-.95-.22-1.49-.353-.574-.141-.998-.094-1.578-.157v.142c.11.015.22.03.337.039.22.015 1.264.07 1.405.188.118.094.612.377.69.479.338.408 1.381 1.789 1.93 2.307-.148-.471-1.56-2.237-1.773-2.574.495.11.91.133 1.217.204.784.141 1.577.298 2.432.306ZM23.94 37.782c.056.024.11.055.165.079l.283-.259c-.031-.055-.07-.118-.102-.18-.102.117-.22.235-.345.36ZM8.106 27.927c.69.541 2.762 1.68 3.342 2.04.448.283 1.193.69 1.68.918.572.267 1.106.596 1.624.918.534.33.879.604 1.475.88.596.274 1.248.854 1.719 1.262.055.047.18.142.33.26v-.338c-.464-.385-.887-.73-1.178-.91-.259-.165-.596-.251-.863-.408-.345-.189-.58-.456-.902-.652-.628-.376-1.342-.525-1.79-1.067-1.82-.965-1.812-1.098-2.196-1.216-.613-.18-1.97-1.02-3.241-1.687Zm7.078 1.271c-.283-.157-1.02-.62-1.28-.832-.274-.227-.737-.478-.98-.612.541.314 1.514 1.012 2.283 1.577-.008-.055-.016-.094-.024-.133Zm48.313 12.665c.353.086.674.165.918.22-.244-.063-.558-.134-.918-.22ZM21.955 35.53h-.172c-.314-.007-.8 0-1.13.008.078.079.165.165.25.244.048 0 .095-.008.134-.008l-.047.086c.055.047.102.094.157.141a.875.875 0 0 1 .314-.274c.07-.032.345-.063.769-.063-.024-.008-.047-.024-.063-.032l-.212-.102Zm42.46 6.545.557.125s-.212-.039-.557-.125Zm-42.664-9.04s.15.047.408.134c-.259-.079-.408-.134-.408-.134Zm.024-1.655c.094-.032.526-.024.643-.04.102-.015.518.189.785.322 0-.047 0-.094.008-.141a3.24 3.24 0 0 0-.597-.267c-.408-.126-.706-.204-1.114-.361-.36-.133-.91-.377-1.263-.55-.228-.11-2.22-.8-2.95-1.169.188.102.54.29.8.37.267.086.973.407 1.122.494.565.33 1.138.533 1.703.76.227.071.51.22.87.346-.274.133-1.883.73-2.165.98.55-.117 1.773-.603 2.158-.745Zm1.452 2.134c-.432-.134-.809-.26-1.075-.346.266.087.65.212 1.075.354v-.008Zm.878-7.502c-.023.267.15.479.15.722.015-.04.031-.07.047-.11a3.805 3.805 0 0 1-.047-.408c-.008-.408-.15-.855-.306-1.279a7.67 7.67 0 0 1-.338-1.075c-.031-.141-.063-.306-.118-.463-.039.016-.078.024-.117.04a.289.289 0 0 1 .094.18c.016.141.047.408.133.565.118.22.079.172.087.392.008.079.156.33.172.424.016.078.102.29.134.377.055.18.125.478.11.635Zm49.122 12.539c.635-.102 2.22.079 3.648.126-.855-.188-3.217-.322-3.9-.4a17.151 17.151 0 0 0-1.906-.102c-.636.008-1.256-.063-1.86-.134-.62-.062-1.052-.164-1.71-.156-.66.007-1.492-.236-2.096-.4-.22-.063-1.075-.228-1.758-.37v.197c1.036.259 2.331.627 2.95.706.307.04.644-.024.958-.008.393.024.714.165 1.09.196.73.07 1.445-.11 2.073.196 2.063.087 2.118.22 2.51.15Zm-54.74-14.085c-.69-.384-1.373-.8-2.056-1.192.243.298.722.541 1.09.769.409.25.888.44 1.303.651.487.243.777.259 1.264.518.243.133.463.18.706.282.016.008.62.346.643.361.134.173.377.495.668.73.486.392.612.698.714.871.062.11.784.698.753.761-.094.173-1.185-.33-1.264-.36-.596-.268-1.867-.676-2.44-.934-.55-.244-1.028-.644-1.608-.934-.29-.142-.29-.33-.613-.503-.203-.11-1.812-.973-1.961-1.012 1.043.644 3.076 1.97 4.166 2.527.565.282 1.036.486 1.61.636.172.047 1.772.682 2.22.84a1.68 1.68 0 0 1 .055-.205c-.024-.031-.047-.047-.055-.055-.055-.047-.4-.494-.471-.55a.812.812 0 0 1-.18-.187.685.685 0 0 0-.165-.173c-.142-.133-.204-.259-.33-.4a15.168 15.168 0 0 0-.314-.346c-.023-.03-.023-.039-.039-.062-.047-.087-.031-.18-.04-.26l-.023-.266a23.04 23.04 0 0 0-.235-1.758 1.769 1.769 0 0 0-.04-.196c-.03.016-.054.032-.086.047.228.77.11.385.134.502a7.66 7.66 0 0 1 .102 1.742c-.032-.039-.707-.831-1.405-1.647-.04.015-.078.031-.118.039a1.8 1.8 0 0 0 .212.212c.063.062.471.565.557.643-.337-.11-1.49-.62-1.71-.714-.353-.141-.69-.188-1.044-.377Zm45.779 7.941c.156-.266.337-.549.525-.808.22-.306.33-.651.557-.95a12.1 12.1 0 0 1 .597-.73c.196-.219.486-.4.588-.643-.282.079-.447.354-.596.503-.141.14-.298.298-.447.423-.189.165-.087.26-.298.416-.22.173-.142.15-.22.353-.07.197-.228.518-.392.699-.205.22-.424.408-.59.635-.132.189-.172.51-.329.707v.282c.071-.102.15-.204.252-.314.156-.196.235-.369.353-.573Z"/><path d="M61.496 23.556c-3.092-1.114-4.528-1.899-5.062-2.19-1.389-.744-3.076-1.569-3.334-2.11-.605-1.255 1.765-1.852 2.652-2.597.557-.44.988-1.263 1.075-2.119.039-.384 0-2.126 0-2.126-.047-.44-.087-1.24-.228-2.017-.424-2.268-1.624-4.112-3.005-5.477-2.166-2.017-5.1-3.413-8.098-4.088a29.01 29.01 0 0 0-1.287-.236 25.662 25.662 0 0 0-2.087-.259 21.667 21.667 0 0 0-1.601-.055A22.452 22.452 0 0 0 25.188 6.31c-.965 1.185-2.432 2.84-3.617 5.5-1.899 4.261-1.938 7.227-1.75 9.7.173 2.204.44 2.879 1.263 2.761.173-.023 1.02-.392 1.185-.486.77-.361 3.037-1.224 3.508-1.044.086.032.18.15.18.15.118.32-.008.611-.149 1.2-.031.133-.125.33-.157.47-.086.393-.29.88-.502 1.397-.235.573-.502 1.224-.667 1.868-.636 2.432-.58 3.782-.541 4.983.086 2.495.894 4.417 2.322 5.979 1.138.416 2.386.785 3.72 1.098l-.04-.227a.186.186 0 1 1 .37-.055l.054.377c.165.039.33.07.494.11l-.172-1.107a.186.186 0 1 1 .369-.055l.196 1.248c.141.031.29.055.431.086l-.054-.377a.186.186 0 1 1 .368-.054l.079.502c.44.078.894.157 1.35.22l-.016-.118a.186.186 0 1 1 .369-.055l.031.227c2.252.322 4.661.495 7.14.495 2.88 0 5.658-.236 8.2-.652-.313-.541-.502-.714-1.224-1.255-.831-.62-1.059-.91-1.2-1.742-.134-.785-.832-1.067-1.052-1.774.079-.078.157-.156.228-.22.023.009.047.009.063.016v-.007l.047-.33v-.008a1.918 1.918 0 0 0-.11-.416c-.11-.078-.22-.18-.392-.313-.37-.283-.926-.628-1.53-.668a1.27 1.27 0 0 0-.299.016c-.015 0-2.11.392-2.809.518-.227.04-.573.126-.816.141-.227.016-.455.063-.683.055-.298-.015-.659.016-.973.016-.73 0-1.404-.063-2.15-.094-.8-.032-1.538.094-2.33.094-.322 0-.612.031-.926.047-.33.016-.62.133-.957.133-.542.11-1.052.11-1.515-.023-1.13.016-2.064-.157-2.378-.275-.486-.188-.8-.392-1.216-.682-.392-.283-.674-.683-1.035-1.005-.063.204.086 1.052 1.632 2.087.337.228 1.177.416 1.561.463.408.048.714.016 1.13.016.267 0 1.907-.055 2.22-.07.37-.024.668-.118 1.013-.165.275-.032 1.279-.189 1.538-.165.33.023.494.016.832.008.298-.008 1.624-.016 1.97.015.439.04 2.518-.015 3.17-.188.211-.055 1.2-.259 1.42-.337a1.48 1.48 0 0 1 .376-.063c-.612.534-1.279 1.287-2.267 1.46-1.593.274-1.177.274-1.797.415-.62.142-1.938.62-2.84.142-.903-.487-5.47.14-6.64.14-1.176 0-3.256-.368-3.805-1.663-1.2-2.817-.596-5.68-.322-6.78.15-.596.416-1.192.636-1.78.745-1.986 1.373-5.015 1.373-5.015.04-.274.11-.698.432-1.122l.015-.031c.204-.338.518-.62.816-.895a2.02 2.02 0 0 1 .126-.11c-.526.84-.612 1.68-.612 1.68-.432 1.24-.212 2.165-.267 2.487 0 .079-.008.15 0 .228.024.33-.063.494-.149.745-.055.157-.055.487-.078.644-.055.376.007.682.039 1.137.008.165.157.338.212.51.062.204.204.251.204.471 0 .18-.047.298-.087.4-.031.079-.055.15-.07.26-.008.062.008.18.023.282.016.094.024.196.024.282 0 .542.094.887.353 1.334.133.228.212.471.298.706.079.244.157.471.29.667.69 1.044.605.84 1.138 1.546.33.447 1.122.918 1.264.997.14.078 1.334-.032 1.46.392.007.016.776.079 1.262.18.66.142 1.782-.337 2.3-.76.62-.51 1.035-2.37 1.404-1.813.369.55-.29 1.867-.29 1.875-.196.424-.314.95.008 1.028.502.07.926-.235 1.184-.557.534-.651.244-1.46.99-2.103.745-.643.18 1.318.627 1.79.494.51 1.02.643 1.295-.048 0-.008.063-.926.078-1.02 0 0 .047-.251.432-.228.392.024.149.503.133.542-.016.04-.063.267-.086.33-.024.243-.047.494.039.627.157.228.722.228.934.102.345-.204.557-2.071.58-2.323.024-.25.095-.549.37-.65.274-.103.305.486.454.768.157.298.526 1.248.581 1.326.243.346.793 1.099 1.075.314.055-.157-.51-1.067-.683-1.436-.18-.369-.102-.76-.196-.87-.133-.158-.243-.409-.345-.59-.094-.156-.133-.313-.173-.454-.047-.165-.086-.306-.196-.44-.04-.039-.078-.086-.117-.125a1.52 1.52 0 0 1-.354-.479 2.15 2.15 0 0 1-.102-.322c-.031-.11-.055-.204-.102-.306a2.866 2.866 0 0 0-.18-.306c-.173-.282-.33-.549-.408-.934-.055-.29-.196-.596-.345-.925-.236-.526-.487-1.075-.463-1.664v-.055l-.15.047a.613.613 0 0 1-.125.016c-.094 0-.424-.204-.424-.204-.047-.07-1.522-.338-1.844-.314-.51.047-.926.086-1.46-.031-1.192-.26-2.479-.008-3.75-.055-.738-.032-1.46.18-2.181.023-.534-.118-1.382-.188-1.9.063-.243.118-.73 1.255-1.13.997-.4-.26.189-1.005.103-1.068-.102-.07-.22-.133-.33-.196-.322-.204-.431-.541-.102-.745.259-.157 1.09-.251 1.389-.275.306-.024.518-.126.824-.196.353-.079.745-.188 1.09-.126.267.047.456.189.77.204.266.016.58-.047.84.008.235.055.462.267.69.314.423.086.91-.04 1.35 0 .36.032.792.15 1.208.196.478.055.73.236 1.153.408.393.157.903.228 1.31.314.244.047.4-.408.26-.683-.244-.094-.487-.29-.66-.439-.03-.024-.054-.047-.086-.07-.047-.04-.094-.071-.149-.11-.227-.165-1.271-1.28-1.467-1.562-.15-.07-.353-.267-.754-.8l-.015-.016c-.055-.079-.212-.15-.251-.235a3.744 3.744 0 0 0-.448-.487c-.368-.212-.643-.541-.902-.847-.322-.385-.628-.754-1.099-.871-.502-.126-.635-.338-.855-.589-.086-.102-.165-.204-.282-.314-.11-.094-.252-.243-.385-.33-.165-.101-.369-.188-.55-.313-.235-.165-.525-.26-.705-.408-.032.91-.69 1.106-1.107 1.593-.031.039-.063.07-.102.11.165-.534.377-2.12.377-2.12l-.079-.093c-.078-.094-.211-1.507.597-1.9.015 0 .031-.007.055-.015l.227-.031.047-.228a.823.823 0 0 1 .322-.526c.126-.086.345-.117.761-.117.04 0 .07 0 .11.008.267.047.432.133.565.211l.133.079.142-.055c.384-.141.855-.377 1.035-.502.385-.26.644-.283.919-.314.086-.008.73-.008 1.177-.04 1.035-.086 1.702-1.733 3.233-2.244 1.53-.51 1.255-.415 1.788-.51.628-.11 1.633-.25 2.778-.133 1.02.102 3.516.024 4.677-.149 1.161-.173 3.257-.589 4.567-.079.761.299 1.946 1.648 2.134 2.354-.008-.007-.008-.015-.015-.023-.252-.275-1.028-.792-2.056-.973-.408-.07-.84-.063-1.256-.086-.267-.016-1.758.023-2.071.023-.37-.008-.675.07-1.02.094-.275.016-2.221.063-2.55.055-.299-.008-.581-.133-.872-.125-.33.008-1.836-.173-2.267-.251-.095-.016-1.578.015-1.939.086-.212.04-.439.047-.667.078-.227.04-1.114.228-1.357.252-.126.015-.243.047-.353.07.91.07 2.213.016 2.456.016.204 0 .588 0 .957.07.204-.101.432-.11.66-.078.094.016.18.04.274.063.04.008.086.023.126.031.023.008.039.008.062.016h.008c.008 0 .04.008.055.008h.228c.11 0 .227 0 .337.008.031 0 .063.007.102.015l-.133-.047c.463.032 1.828.141 2.048.165.8.094 3.892-.008 4.237.016.643.047 1.342.031 1.97.125.565.087 1.027.157 1.545.393.479.22.934.588 1.326.91.22.18.456.369.683.565.055.76.118 1.89.094 2.11-.078.707-.455 1.342-.863 1.696-.259.22-.486.321-.714.478-.47.235-1.726.746-1.915 1.107-.51.957.024 2.063.063 2.142.079.188 1.844 1.075 3.343 1.946.58.33 1.86 1.028 4.237 1.961-1.224.377-3.013 1.075-3.68 1.366-.102.031-.51.267-.636.306 0 .102.966.855 1.178 1.169.196.298.117.643.25.942.205-.15.487-.252.558-.495.07-.243-.04-.604-.142-.808-.11-.227-.22-.51-.423-.66-.196-.133-.4-.133-.62-.266.989-.196 3.562-.675 3.562-.337 0 .416-1.177 2.009-2.071 2.283-.903.275-2.284 1.318-2.974 1.868-.69.557-1.868 2.071-3.46 2.142-.66.031-.997.015-1.146.008.008 0 .015-.008.015-.008a.11.11 0 0 1-.047.015c-.102.024-.204.016-.313.016-.165 0-.338 0-.503.008a2.019 2.019 0 0 1-.376-.008l.031.173c.016.094.251 1.295-.196 1.57a.404.404 0 0 1 .11.384c-.079.369-.18.745-.424 1.035l-.094.095a3.69 3.69 0 0 1 .149-.087c-.212.267-.95.895-1.216 1.099-.204.157-.322.22-.204.502.086.212 1.467 2.456 1.726 2.81.306.43.588.886.879 1.325.094-.015.18-.039.274-.055-.008-.023-.008-.039-.015-.062a2.608 2.608 0 0 0-.18-.526c-.19-.447-.181-.392-.424-.816-.252-.432-.518-.84-.73-1.295a4.079 4.079 0 0 0-.322-.604c-.141-.212-.337-.322-.384-.604-.079-.424 1.334.87 1.75 1.632.368.675.721 1.216.894 2.158a35.985 35.985 0 0 0 3.146-.816l-.102-.644a.186.186 0 1 1 .37-.055l.093.589c.126-.04.252-.087.377-.126l-.267-1.734a.186.186 0 1 1 .37-.055l.258 1.672c.157-.055.306-.11.455-.165l-.212-1.358a.186.186 0 1 1 .37-.055l.195 1.28c.087-.032.18-.071.267-.11.055-.071.11-.134.165-.205l-.369-2.393a.186.186 0 1 1 .369-.055l.314 2.033c.133-.189.274-.377.416-.581l-.377-2.456a.186.186 0 1 1 .369-.055l.321 2.064c.102-.157.212-.314.322-.487l-.345-2.26a.186.186 0 1 1 .369-.055l.282 1.844a.554.554 0 0 0 .047-.078c.134-.212.26-.424.385-.628l-.189-1.208a.186.186 0 1 1 .37-.055l.117.769c.165-.283.322-.55.47-.808l-.117-.77a.186.186 0 1 1 .369-.054l.047.306c.133-.236.251-.455.36-.675l-.093-.596a.186.186 0 1 1 .369-.055l.015.086c1.428-2.92 1.162-3.924 1.162-5.58-.047-2.141.588-2.926-.102-2.989Zm-23.941 6.128c-.15-.196.008-.408.086-.604.063-.157.204-.447.204-.604 0-.251-1.279 1.13-1.962 1.35-.188.125-.4 0-.627-.016-.196-.016-.44.141-.651.165-.581.055-1.02.04-1.586.235-.486.165-1.13.134-1.53.408-.455.306-.369 1.373-1.13.73-.76-.643.887-1.153 1.373-1.53.26-.196.581-.283.887-.33.157-.023.424-.062.573-.039.204.024.33.173.518.204.298.047.785-.078 1.09-.118.362-.047.895-.18 1.21-.321.454-.196.47-.424.949-1.075.541-1.287 2.126-1.067 2.463-1.185-.211.353-.957.596-1.082.98-.142.417.015 1.625-.157 1.986-.11.251-.456 0-.628-.236Zm-4.292-2.99c.078-.187 1.035-.493 1.232-.603.431-.244.714-.66 1.232-.683.204-.008.478.29.69.235.369-.094.502-.627.879-.69.667-.118.745.274 1.428.274.55 0 1.562-.588 2.064-.643.376-.04.628.196 1.302.07 0 0-.164 1.319-.259 1.515-.078.157-.423-.172-.541-.04-.078.095-.141.346-.282.542-.157.22-.205.526-.29.793a2.188 2.188 0 0 0-.126.965c.015.094.11.47.212.534.266.18.62.298.91.486.486.298.737.675.776 1.256.04.565-.596.706-.533.321.055-.321.078-.565.008-.722-.087-.188-.338-.541-.526-.65-.533-.307-1.185-.197-1.357.078-.228.353-.314.792-.589 1.098-.165.18-.369.824-1.051.84-.683.023.525-1.515.784-1.97.165-.29.471-.392.66-.682.227-.346.235-.699.227-1.076-.008-.431.47-2.306 1.012-2.62-.267.023-.541.063-.824.086-.526.031-.698.447-1.138.675-.203.102-.47.04-.682.086-.22.047-.392.189-.62.251-.479.15-.667-.353-1.342-.282-.44.055-.431.172-1.012.431-.58.26-.698.055-1.099.204-.18.063-.298.597-.502.628-.172.024-.753-.447-.643-.706Zm-3.759 1.256c.094-.196.275-.353.392-.541.275-.416.024-.785 1.02-.793.997-.007.456.754.895.762.447.007 1.09-.212 1.42.188-.384.322-1.334.133-1.789.133-.227 0-.588.016-.808.079-.306.086-.902.518-.934.682-.102.087-.369 1.044-.76.77-.393-.26.454-1.06.564-1.28Zm-1.122-9.698c-.063.094-.259.274-.424.416-.33.298-.675.612-.926 1.02-.416.549-.502 1.098-.549 1.396l-.008.032c0 .023-.008.039-.008.063-.188.416-.298.368-.659.408.024-.016-.918-.134-1.247-.581-.212-.29-.267-.479-.37-.895-.18.18-.658.871-.407 1.381.102.212.95.409 1.396.448-.258.117-1.059.298-1.2.345-.848.251-1.13.424-1.577.557v.008c-.463.11-.793.141-.809.023-.062-.408.871-2.157 1.719-2.565.847-.409 2.064-1.64 2.668-2.284.604-.651.643-1.46 1.828-2.299.463-.384 1.177-.565 1.687-.706.063.133.141.267.236.392-.032.66-.22 1.42-.354 1.734-.039.087-.227.275-.368.408a4.382 4.382 0 0 0-.628.699Zm2.095 1.365c.769-.086 1.64-.212 2.464-.078.22.031.416.086.66.117.227.04.305.102.51.165.156.047.478 0 .603.141.22.244.102.361-.204.385-.298.023-.376-.165-.635-.251-.267-.087-.416-.016-.69.008-.495.047-.935-.22-1.468-.165-.416.047-.8.172-1.2.25-.228.048-.448.738-.605.872-.588.502-.965-.432-.91-.557.235-.636.98-.832 1.475-.887Zm3.468-8.145c-.11.079-.447.251-.76.377a2.149 2.149 0 0 0-.864-.236c-.259 0-.479.016-.675.055.188-.423.094-1.075-.055-1.255-.259-.33-.47-.934-.682-1.271-.236-.361-.51-.91-.738-1.287-.47-.77-.541-1.272-.942-1.711-.133-.149-.243-.314-.368-.463-.142-.165-.283-.212-.448-.337.189.188.338.345.463.58.095.18.18.393.275.589.204.44.777 1.875 1.051 2.291.126.188.683 1.13.77 1.397.133.408.439.659.235.98-.15.236-.463.84-.785 1.46a1.55 1.55 0 0 0-.282.142c.039-.307.078-.605.117-.864.142-.934-.259-2.197-.784-2.887-.526-.69-.738-1.64-1.044-2.786-.314-1.146-.165-1.585-.165-1.585s3.398 2.181 6.082 5.265c.337.385.463.848.714 1.146-.299.023-.652.094-1.115.4Z"/></g><defs><clipPath id="a"><path fill="#fff" d="M0 0h82.172v50H0z"/></clipPath></defs></svg>